<?xml version="1.0" encoding="UTF-8" standalone="no"?>
<!DOCTYPE svg PUBLIC "-//W3C//DTD SVG 1.1//EN"
 "http://www.w3.org/Graphics/SVG/1.1/DTD/svg11.dtd">
<!-- Generated by graphviz version 2.40.1 (20161225.0304)
 -->
<!-- Title: dependencies Pages: 1 -->
<svg width="1463pt" height="211pt"
 viewBox="0.00 0.00 1463.00 211.00" xmlns="http://www.w3.org/2000/svg" xmlns:xlink="http://www.w3.org/1999/xlink">
<g id="graph0" class="graph" transform="scale(1 1) rotate(0) translate(4 207)">
<title>dependencies</title>
<polygon fill="#ffffff" stroke="transparent" points="-4,4 -4,-207 1459,-207 1459,4 -4,4"/>
<text text-anchor="start" x="706.5091" y="-42.4" font-family="sans-serif" font-weight="bold" font-size="14.00" fill="#000000">Legend</text>
<polygon fill="#ffffb3" stroke="transparent" points="493.5,-10 493.5,-30 513.5,-30 513.5,-10 493.5,-10"/>
<text text-anchor="start" x="517.129" y="-15.4" font-family="sans-serif" font-size="14.00" fill="#000000"> &#160;Declarations</text>
<polygon fill="#8dd3c7" stroke="transparent" points="606.5,-10 606.5,-30 626.5,-30 626.5,-10 606.5,-10"/>
<text text-anchor="start" x="630.2251" y="-15.4" font-family="sans-serif" font-size="14.00" fill="#000000"> &#160;Module</text>
<polygon fill="#80b1d3" stroke="transparent" points="692.5,-10 692.5,-30 712.5,-30 712.5,-10 692.5,-10"/>
<text text-anchor="start" x="716.2812" y="-15.4" font-family="sans-serif" font-size="14.00" fill="#000000"> &#160;Bootstrap</text>
<polygon fill="#fdb462" stroke="transparent" points="789.5,-10 789.5,-30 809.5,-30 809.5,-10 789.5,-10"/>
<text text-anchor="start" x="813.1732" y="-15.4" font-family="sans-serif" font-size="14.00" fill="#000000"> &#160;Providers</text>
<polygon fill="#fb8072" stroke="transparent" points="885.5,-10 885.5,-30 905.5,-30 905.5,-10 885.5,-10"/>
<text text-anchor="start" x="909.2258" y="-15.4" font-family="sans-serif" font-size="14.00" fill="#000000"> &#160;Exports</text>
<g id="clust1" class="cluster">
<title>cluster_LayoutsModule</title>
<polygon fill="none" stroke="#000000" stroke-dasharray="1,5" points="8,-70 8,-195 1447,-195 1447,-70 8,-70"/>
</g>
<g id="clust2" class="cluster">
<title>cluster_LayoutsModule_declarations</title>
<polygon fill="none" stroke="#000000" points="827,-78 827,-130 1439,-130 1439,-78 827,-78"/>
</g>
<g id="clust7" class="cluster">
<title>cluster_LayoutsModule_imports</title>
<polygon fill="none" stroke="#000000" points="16,-78 16,-130 819,-130 819,-78 16,-78"/>
</g>
<!-- AppLayoutComponent -->
<g id="node1" class="node">
<title>AppLayoutComponent</title>
<polygon fill="#ffffb3" stroke="#000000" points="1430.5968,-122 1285.4032,-122 1285.4032,-86 1430.5968,-86 1430.5968,-122"/>
<text text-anchor="middle" x="1358" y="-99.8" font-family="Times,serif" font-size="14.00" fill="#000000">AppLayoutComponent</text>
</g>
<!-- LayoutsModule -->
<g id="node5" class="node">
<title>LayoutsModule</title>
<polygon fill="#8dd3c7" stroke="#000000" points="745.1528,-187 742.1528,-191 721.1528,-191 718.1528,-187 640.8472,-187 640.8472,-151 745.1528,-151 745.1528,-187"/>
<text text-anchor="middle" x="693" y="-164.8" font-family="Times,serif" font-size="14.00" fill="#000000">LayoutsModule</text>
</g>
<!-- AppLayoutComponent&#45;&gt;LayoutsModule -->
<g id="edge1" class="edge">
<title>AppLayoutComponent&#45;&gt;LayoutsModule</title>
<path fill="none" stroke="#000000" d="M1358,-122.0109C1358,-144.4852 1358,-180 1358,-180 1358,-180 755.1814,-180 755.1814,-180"/>
<polygon fill="#000000" stroke="#000000" points="755.1815,-176.5001 745.1814,-180 755.1814,-183.5001 755.1815,-176.5001"/>
</g>
<!-- BreadcrumbComponent -->
<g id="node2" class="node">
<title>BreadcrumbComponent</title>
<polygon fill="#ffffb3" stroke="#000000" points="1267.0253,-122 1116.9747,-122 1116.9747,-86 1267.0253,-86 1267.0253,-122"/>
<text text-anchor="middle" x="1192" y="-99.8" font-family="Times,serif" font-size="14.00" fill="#000000">BreadcrumbComponent</text>
</g>
<!-- BreadcrumbComponent&#45;&gt;LayoutsModule -->
<g id="edge2" class="edge">
<title>BreadcrumbComponent&#45;&gt;LayoutsModule</title>
<path fill="none" stroke="#000000" d="M1192,-122.1289C1192,-142.5724 1192,-173 1192,-173 1192,-173 755.4586,-173 755.4586,-173"/>
<polygon fill="#000000" stroke="#000000" points="755.4586,-169.5001 745.4586,-173 755.4586,-176.5001 755.4586,-169.5001"/>
</g>
<!-- HeaderComponent -->
<g id="node3" class="node">
<title>HeaderComponent</title>
<polygon fill="#ffffb3" stroke="#000000" points="1098.7437,-122 977.2563,-122 977.2563,-86 1098.7437,-86 1098.7437,-122"/>
<text text-anchor="middle" x="1038" y="-99.8" font-family="Times,serif" font-size="14.00" fill="#000000">HeaderComponent</text>
</g>
<!-- HeaderComponent&#45;&gt;LayoutsModule -->
<g id="edge3" class="edge">
<title>HeaderComponent&#45;&gt;LayoutsModule</title>
<path fill="none" stroke="#000000" d="M1038,-122.2667C1038,-140.5552 1038,-166 1038,-166 1038,-166 755.3981,-166 755.3981,-166"/>
<polygon fill="#000000" stroke="#000000" points="755.3981,-162.5001 745.3981,-166 755.398,-169.5001 755.3981,-162.5001"/>
</g>
<!-- SidebarComponent -->
<g id="node4" class="node">
<title>SidebarComponent</title>
<polygon fill="#ffffb3" stroke="#000000" points="959.0954,-122 834.9046,-122 834.9046,-86 959.0954,-86 959.0954,-122"/>
<text text-anchor="middle" x="897" y="-99.8" font-family="Times,serif" font-size="14.00" fill="#000000">SidebarComponent</text>
</g>
<!-- SidebarComponent&#45;&gt;LayoutsModule -->
<g id="edge4" class="edge">
<title>SidebarComponent&#45;&gt;LayoutsModule</title>
<path fill="none" stroke="#000000" d="M897,-122.0091C897,-138.0494 897,-159 897,-159 897,-159 755.2702,-159 755.2702,-159"/>
<polygon fill="#000000" stroke="#000000" points="755.2702,-155.5001 745.2702,-159 755.2701,-162.5001 755.2702,-155.5001"/>
</g>
<!-- CommonModule -->
<g id="node6" class="node">
<title>CommonModule</title>
<polygon fill="#8dd3c7" stroke="#000000" points="810.6681,-122 807.6681,-126 786.6681,-126 783.6681,-122 699.3319,-122 699.3319,-86 810.6681,-86 810.6681,-122"/>
<text text-anchor="middle" x="755" y="-99.8" font-family="Times,serif" font-size="14.00" fill="#000000">CommonModule</text>
</g>
<!-- CommonModule&#45;&gt;LayoutsModule -->
<g id="edge5" class="edge">
<title>CommonModule&#45;&gt;LayoutsModule</title>
<path fill="none" stroke="#000000" d="M722.2461,-122.1061C722.2461,-122.1061 722.2461,-140.991 722.2461,-140.991"/>
<polygon fill="#000000" stroke="#000000" points="718.7462,-140.9909 722.2461,-150.991 725.7462,-140.991 718.7462,-140.9909"/>
</g>
<!-- RouterModule -->
<g id="node7" class="node">
<title>RouterModule</title>
<polygon fill="#8dd3c7" stroke="#000000" points="680.6528,-122 677.6528,-126 656.6528,-126 653.6528,-122 583.3472,-122 583.3472,-86 680.6528,-86 680.6528,-122"/>
<text text-anchor="middle" x="632" y="-99.8" font-family="Times,serif" font-size="14.00" fill="#000000">RouterModule</text>
</g>
<!-- RouterModule&#45;&gt;LayoutsModule -->
<g id="edge6" class="edge">
<title>RouterModule&#45;&gt;LayoutsModule</title>
<path fill="none" stroke="#000000" d="M660.75,-122.1061C660.75,-122.1061 660.75,-140.991 660.75,-140.991"/>
<polygon fill="#000000" stroke="#000000" points="657.2501,-140.9909 660.75,-150.991 664.2501,-140.991 657.2501,-140.9909"/>
</g>
<!-- FormsModule -->
<g id="node8" class="node">
<title>FormsModule</title>
<polygon fill="#8dd3c7" stroke="#000000" points="565.8288,-122 562.8288,-126 541.8288,-126 538.8288,-122 470.1712,-122 470.1712,-86 565.8288,-86 565.8288,-122"/>
<text text-anchor="middle" x="518" y="-99.8" font-family="Times,serif" font-size="14.00" fill="#000000">FormsModule</text>
</g>
<!-- FormsModule&#45;&gt;LayoutsModule -->
<g id="edge7" class="edge">
<title>FormsModule&#45;&gt;LayoutsModule</title>
<path fill="none" stroke="#000000" d="M518,-122.0091C518,-138.0494 518,-159 518,-159 518,-159 630.4942,-159 630.4942,-159"/>
<polygon fill="#000000" stroke="#000000" points="630.4943,-162.5001 640.4942,-159 630.4942,-155.5001 630.4943,-162.5001"/>
</g>
<!-- SharedModule -->
<g id="node9" class="node">
<title>SharedModule</title>
<polygon fill="#8dd3c7" stroke="#000000" points="452.4231,-122 449.4231,-126 428.4231,-126 425.4231,-122 353.5769,-122 353.5769,-86 452.4231,-86 452.4231,-122"/>
<text text-anchor="middle" x="403" y="-99.8" font-family="Times,serif" font-size="14.00" fill="#000000">SharedModule</text>
</g>
<!-- SharedModule&#45;&gt;LayoutsModule -->
<g id="edge8" class="edge">
<title>SharedModule&#45;&gt;LayoutsModule</title>
<path fill="none" stroke="#000000" d="M403,-122.2667C403,-140.5552 403,-166 403,-166 403,-166 630.8189,-166 630.8189,-166"/>
<polygon fill="#000000" stroke="#000000" points="630.8189,-169.5001 640.8189,-166 630.8188,-162.5001 630.8189,-169.5001"/>
</g>
<!-- BsDropdownModule -->
<g id="node10" class="node">
<title>BsDropdownModule</title>
<polygon fill="#8dd3c7" stroke="#000000" points="336.205,-122 333.205,-126 312.205,-126 309.205,-122 201.795,-122 201.795,-86 336.205,-86 336.205,-122"/>
<text text-anchor="middle" x="269" y="-99.8" font-family="Times,serif" font-size="14.00" fill="#000000">BsDropdownModule</text>
</g>
<!-- BsDropdownModule&#45;&gt;LayoutsModule -->
<g id="edge9" class="edge">
<title>BsDropdownModule&#45;&gt;LayoutsModule</title>
<path fill="none" stroke="#000000" d="M269,-122.1289C269,-142.5724 269,-173 269,-173 269,-173 630.584,-173 630.584,-173"/>
<polygon fill="#000000" stroke="#000000" points="630.5841,-176.5001 640.584,-173 630.584,-169.5001 630.5841,-176.5001"/>
</g>
<!-- CookieModule.forChild() -->
<g id="node11" class="node">
<title>CookieModule.forChild()</title>
<polygon fill="#8dd3c7" stroke="#000000" points="184.252,-122 181.252,-126 160.252,-126 157.252,-122 23.748,-122 23.748,-86 184.252,-86 184.252,-122"/>
<text text-anchor="middle" x="104" y="-99.8" font-family="Times,serif" font-size="14.00" fill="#000000">CookieModule.forChild()</text>
</g>
<!-- CookieModule.forChild()&#45;&gt;LayoutsModule -->
<g id="edge10" class="edge">
<title>CookieModule.forChild()&#45;&gt;LayoutsModule</title>
<path fill="none" stroke="#000000" d="M104,-122.0109C104,-144.4852 104,-180 104,-180 104,-180 630.7302,-180 630.7302,-180"/>
<polygon fill="#000000" stroke="#000000" points="630.7302,-183.5001 640.7302,-180 630.7301,-176.5001 630.7302,-183.5001"/>
</g>
</g>
</svg>
