<?xml version="1.0" encoding="UTF-8" standalone="no"?><!DOCTYPE svg PUBLIC "-//W3C//DTD SVG 1.1//EN" "http://www.w3.org/Graphics/SVG/1.1/DTD/svg11.dtd"><svg width="100%" height="100%" viewBox="0 0 47 47" version="1.1" xmlns="http://www.w3.org/2000/svg" xmlns:xlink="http://www.w3.org/1999/xlink" xml:space="preserve" style="fill-rule:evenodd;clip-rule:evenodd;stroke-linejoin:round;stroke-miterlimit:1.41421;"><g id="omni"><clipPath id="_clip1"><path d="M20.755,0.168c-12.908,1.538 -22.126,13.249 -20.587,26.157c1.538,12.908 13.249,22.126 26.157,20.587c12.908,-1.538 22.126,-13.249 20.587,-26.157c-1.426,-11.963 -11.587,-20.756 -23.342,-20.755c-0.929,0 -1.87,0.055 -2.815,0.168l0,0Z"/></clipPath><g clip-path="url(#_clip1)"><path d="M-2.618,2.953l46.744,-5.571l5.572,46.744l-46.744,5.572l-5.572,-46.745l0,0Z" style="fill:url(#_Linear2);fill-rule:nonzero;"/></g><path d="M45.984,20.865c1.415,11.876 -6.651,22.698 -18.232,24.883c-0.506,0.095 -1.018,0.173 -1.537,0.236c-12.395,1.477 -23.641,-7.374 -25.119,-19.769c-1.477,-12.395 7.374,-23.641 19.769,-25.119c12.395,-1.477 23.641,7.374 25.119,19.769l0,0Z" style="fill-opacity:0.894118;"/><g><clipPath id="_clip3"><path d="M19.746,3.039c-5.651,1.04 -10.117,3.93 -13.399,8.671c-3.26,4.755 -4.37,9.957 -3.33,15.608c1.041,5.651 3.931,10.117 8.671,13.399c4.755,3.261 9.959,4.371 15.609,3.331c5.651,-1.042 10.117,-3.932 13.399,-8.673c3.261,-4.754 4.37,-9.957 3.33,-15.608c-1.04,-5.65 -3.931,-10.117 -8.671,-13.399c-3.606,-2.471 -7.468,-3.707 -11.587,-3.707c-1.314,0 -2.656,0.125 -4.022,0.378l0,0Zm-5.978,34.659c-3.906,-2.691 -6.289,-6.373 -7.149,-11.043c-0.86,-4.67 0.056,-8.958 2.747,-12.865c2.691,-3.906 6.372,-6.29 11.044,-7.15c4.67,-0.86 8.958,0.056 12.865,2.747c3.906,2.693 6.289,6.373 7.15,11.043c0.859,4.671 -0.057,8.959 -2.748,12.866c-2.692,3.906 -6.372,6.29 -11.043,7.149c-1.131,0.208 -2.24,0.313 -3.326,0.313c-3.399,0 -6.58,-1.02 -9.54,-3.06l0,0Z"/></clipPath><g clip-path="url(#_clip3)"><path d="M-0.758,6.814l41.009,-7.552l7.55,41.009l-41.008,7.552l-7.551,-41.009l0,0Z" style="fill:url(#_Linear4);fill-rule:nonzero;"/></g><clipPath id="_clip5"><path d="M18.444,19.308c-0.485,0.676 -0.681,1.566 -0.708,2.409c-0.683,-0.448 -1.41,-0.824 -2.204,-0.916c-0.217,-0.067 -0.45,-0.085 -0.71,-0.027c-0.035,0.008 -0.067,0.021 -0.094,0.037c-0.027,0.004 -0.052,0.005 -0.078,0.01c-0.352,0.06 -0.289,0.613 0.067,0.554c0.041,-0.007 0.083,-0.011 0.126,-0.016c0.605,0.316 1.21,0.633 1.816,0.949c0.119,0.108 0.239,0.206 0.363,0.283c0.357,0.224 1.029,0.613 1.466,0.423c0.458,-0.199 0.614,-0.901 0.683,-1.342c0.028,-0.17 0.246,-2.385 0.655,-2.108c0.064,0.042 0.132,0.055 0.194,0.047c0.2,0.057 0.452,-0.206 0.308,-0.449c-0.193,-0.325 -0.48,-0.459 -0.78,-0.459c-0.413,0 -0.851,0.253 -1.104,0.605l0,0Z"/></clipPath><g clip-path="url(#_clip5)"><path d="M14.108,19.303l6.263,-0.747l0.514,4.31l-6.264,0.747l-0.513,-4.31l0,0Z" style="fill:url(#_Linear6);fill-rule:nonzero;"/></g><clipPath id="_clip7"><path d="M24.186,26.143c-0.003,0.02 -0.008,0.038 -0.012,0.058c-0.029,0.025 -0.056,0.059 -0.075,0.103c-0.513,1.122 -0.984,2.261 -1.419,3.415c-1.197,-0.196 -2.389,-0.407 -3.579,-0.636c-0.303,-0.093 -0.611,-0.164 -0.937,-0.183c-0.255,-0.014 -0.369,0.237 -0.283,0.409c0.005,0.088 0.053,0.175 0.161,0.22c1.717,0.723 3.463,1.365 5.237,1.928c0.137,0.043 0.31,0.008 0.367,-0.145c0.533,-1.442 0.855,-2.937 0.96,-4.468c0.046,-0.205 0.09,-0.411 0.131,-0.617c0.04,-0.196 -0.113,-0.308 -0.27,-0.308c-0.124,0 -0.25,0.07 -0.281,0.224Z"/></clipPath><g clip-path="url(#_clip7)"><path d="M17.509,26.733l7.249,-0.865l0.644,5.396l-7.25,0.863l-0.643,-5.394l0,0Z" style="fill:url(#_Linear8);fill-rule:nonzero;"/></g><clipPath id="_clip9"><path d="M26.831,30.653c-0.028,0.091 -0.059,0.181 -0.089,0.272l-1.127,1.689c-0.176,0.263 -0.352,0.528 -0.528,0.792c-0.263,0.393 -0.344,0.57 -0.849,0.49c-1.379,-0.217 -2.754,-0.472 -4.121,-0.761c-0.275,-0.058 -0.383,0.264 -0.252,0.444c0.018,0.069 0.067,0.129 0.156,0.163c0.133,0.049 0.266,0.097 0.4,0.145c0.298,0.116 0.601,0.219 0.907,0.312c0.131,0.043 0.264,0.083 0.395,0.124c1.216,0.504 2.398,1.103 3.729,1.25c0.12,0.013 0.25,-0.047 0.297,-0.165c0.562,-1.404 1.067,-2.827 1.516,-4.271c0.005,-0.018 0.009,-0.035 0.011,-0.054c0.022,-0.068 0.045,-0.138 0.067,-0.207c0.067,-0.221 -0.125,-0.394 -0.295,-0.394c-0.093,0 -0.18,0.051 -0.217,0.171Zm-1.561,4.331c0.023,-0.017 0.046,-0.035 0.067,-0.055c-0.007,0.02 -0.015,0.041 -0.023,0.061c-0.015,-0.002 -0.029,-0.004 -0.044,-0.006Z"/></clipPath><g clip-path="url(#_clip9)"><path d="M19.492,31.371l7.892,-0.94l0.58,4.87l-7.892,0.941l-0.58,-4.871l0,0Z" style="fill:url(#_Linear10);fill-rule:nonzero;"/></g><clipPath id="_clip11"><path d="M11.814,15.722c0.361,0.361 1.326,1.139 1.822,0.601c0.227,-0.249 0.039,-0.553 -0.241,-0.634c-0.418,-0.118 -0.808,-0.199 -1.202,-0.396c-0.015,-0.008 -0.03,-0.013 -0.044,-0.018c-0.051,-0.047 -0.105,-0.067 -0.156,-0.067c-0.206,0 -0.377,0.316 -0.179,0.514l0,0Z"/></clipPath><g clip-path="url(#_clip11)"><path d="M11.581,15.233l2.152,-0.257l0.213,1.789l-2.151,0.257l-0.214,-1.789l0,0Z" style="fill:url(#_Linear12);fill-rule:nonzero;"/></g><clipPath id="_clip13"><path d="M11.183,17.388c0.008,0.007 0.017,0.015 0.026,0.022c0.02,0.021 0.044,0.041 0.073,0.056c0.403,0.306 1.295,0.899 1.643,0.39c0.457,-0.669 -0.911,-0.821 -1.384,-0.895c-0.005,-0.004 -0.009,-0.007 -0.014,-0.011c-0.054,-0.043 -0.112,-0.061 -0.166,-0.061c-0.225,0 -0.406,0.32 -0.178,0.499l0,0Z"/></clipPath><g clip-path="url(#_clip13)"><path d="M10.92,16.914l2.396,-0.286l0.193,1.626l-2.395,0.285l-0.194,-1.625l0,0Z" style="fill:url(#_Linear14);fill-rule:nonzero;"/></g><clipPath id="_clip15"><path d="M10.472,18.253c-0.082,0.017 -0.143,0.051 -0.187,0.095c-0.2,0.083 -0.274,0.41 -0.017,0.513c0.007,0.003 0.014,0.006 0.022,0.009c0.026,0.04 0.056,0.077 0.092,0.11c0.307,0.283 0.72,0.489 1.109,0.63c0.176,0.063 0.32,-0.046 0.37,-0.183c0.061,-0.028 0.113,-0.078 0.147,-0.141c0.184,-0.339 -0.059,-0.69 -0.38,-0.819c-0.178,-0.071 -0.376,-0.11 -0.563,-0.147c-0.143,-0.028 -0.32,-0.078 -0.477,-0.078c-0.04,0 -0.079,0.004 -0.116,0.011l0,0Z"/></clipPath><g clip-path="url(#_clip15)"><path d="M9.958,18.311l2.128,-0.253l0.184,1.542l-2.129,0.255l-0.183,-1.544Z" style="fill:url(#_Linear16);fill-rule:nonzero;"/></g><clipPath id="_clip17"><path d="M9.696,20.006c-0.215,-0.021 -0.435,0.225 -0.262,0.439c0.297,0.366 0.611,0.716 0.949,1.045c0.254,0.249 0.655,0.493 0.962,0.161c0.306,-0.334 -0.037,-0.696 -0.284,-0.925c-0.326,-0.302 -0.699,-0.546 -1.097,-0.744c-0.043,-0.021 -0.083,-0.03 -0.121,-0.03c-0.056,0 -0.106,0.02 -0.147,0.054l0,0Z"/></clipPath><g clip-path="url(#_clip17)"><path d="M9.235,20.015l2.231,-0.267l0.256,2.154l-2.23,0.266l-0.257,-2.153l0,0Z" style="fill:url(#_Linear18);fill-rule:nonzero;"/></g><clipPath id="_clip19"><path d="M9.086,22.085c-0.025,0.014 -0.044,0.03 -0.06,0.047c-0.195,0.079 -0.268,0.406 -0.018,0.52c0.42,0.191 0.849,0.38 1.29,0.521c0.314,0.101 0.639,-0.032 0.633,-0.403c-0.005,-0.395 -0.407,-0.499 -0.718,-0.583c-0.252,-0.067 -0.526,-0.188 -0.788,-0.188c-0.116,0 -0.23,0.024 -0.339,0.086Z"/></clipPath><g clip-path="url(#_clip19)"><path d="M8.703,22.072l2.156,-0.258l0.168,1.41l-2.156,0.258l-0.168,-1.41Z" style="fill:url(#_Linear20);fill-rule:nonzero;"/></g><clipPath id="_clip21"><path d="M8.584,24.085c-0.016,0.008 -0.029,0.018 -0.043,0.028c-0.156,0.065 -0.259,0.248 -0.118,0.412c0.282,0.328 1.637,1.673 1.975,0.748c0.156,-0.43 -0.254,-0.687 -0.586,-0.831c-0.213,-0.093 -0.429,-0.185 -0.643,-0.278c-0.133,-0.056 -0.267,-0.124 -0.405,-0.124c-0.059,0 -0.119,0.012 -0.18,0.045l0,0Z"/></clipPath><g clip-path="url(#_clip21)"><path d="M8.25,24.094l2.185,-0.261l0.272,2.288l-2.184,0.26l-0.273,-2.287Z" style="fill:url(#_Linear22);fill-rule:nonzero;"/></g><clipPath id="_clip23"><path d="M8.117,26.283c-0.01,0.034 -0.021,0.068 -0.031,0.1c-0.146,0.099 -0.21,0.314 -0.024,0.437c0.332,0.218 0.663,0.485 1.021,0.661c0.277,0.136 0.637,0.127 0.82,-0.158c0.172,-0.268 0.029,-0.56 -0.22,-0.711c-0.354,-0.216 -0.812,-0.326 -1.199,-0.473c-0.034,-0.012 -0.07,-0.019 -0.109,-0.019c-0.109,0 -0.223,0.053 -0.258,0.163l0,0Z"/></clipPath><g clip-path="url(#_clip23)"><path d="M7.814,26.174l2.126,-0.253l0.195,1.638l-2.126,0.254l-0.195,-1.639l0,0Z" style="fill:url(#_Linear24);fill-rule:nonzero;"/></g><clipPath id="_clip25"><path d="M9.147,28.218c-0.299,0.006 -0.573,0.05 -0.836,0.17c-0.097,0.002 -0.167,0.05 -0.211,0.117c-0.194,0.172 0.022,0.486 0.271,0.451c0.457,0.073 1.757,0.288 1.509,-0.436c-0.093,-0.272 -0.401,-0.303 -0.651,-0.303c-0.028,0 -0.055,0.001 -0.082,0.001Z"/></clipPath><g clip-path="url(#_clip25)"><path d="M7.866,28.341l2.124,-0.253l0.138,1.156l-2.124,0.253l-0.138,-1.156Z" style="fill:url(#_Linear26);fill-rule:nonzero;"/></g><clipPath id="_clip27"><path d="M13.611,18.724c-0.008,0.009 -0.017,0.017 -0.025,0.028c-0.225,0.307 -1.061,1.842 -0.275,1.963c0.391,0.06 0.595,-0.471 0.696,-0.753c0.145,-0.41 0.192,-0.834 0.157,-1.265c-0.012,-0.162 -0.133,-0.237 -0.259,-0.237c-0.14,0 -0.287,0.094 -0.294,0.264Z"/></clipPath><g clip-path="url(#_clip27)"><path d="M12.291,18.635l1.846,-0.22l0.271,2.275l-1.845,0.221l-0.272,-2.276Z" style="fill:url(#_Linear28);fill-rule:nonzero;"/></g><clipPath id="_clip29"><path d="M12.66,22.232c-0.289,0.338 -0.485,0.743 -0.558,1.184c-0.047,0.279 -0.13,0.897 0.205,1.04c0.742,0.318 0.843,-1.526 0.887,-2.024c0.01,-0.032 0.013,-0.065 0.008,-0.097c0.011,-0.185 -0.143,-0.29 -0.291,-0.29c-0.11,0 -0.217,0.06 -0.251,0.187Z"/></clipPath><g clip-path="url(#_clip29)"><path d="M11.718,22.174l1.477,-0.176l0.324,2.721l-1.477,0.176l-0.324,-2.721Z" style="fill:url(#_Linear30);fill-rule:nonzero;"/></g><clipPath id="_clip31"><path d="M12.621,25.717c-0.012,0.001 -0.023,0.002 -0.035,0.003c-0.121,0.012 -0.225,0.117 -0.243,0.235c-0.001,0.013 -0.003,0.024 -0.005,0.035c-0.002,0.017 -0.001,0.036 -0.001,0.054c-0.183,0.359 -0.272,0.738 -0.296,1.149c-0.019,0.297 -0.102,0.928 0.361,0.913c0.408,-0.013 0.556,-0.602 0.582,-0.921c0.018,-0.228 -0.007,-0.456 -0.025,-0.684c-0.016,-0.219 0.04,-0.484 -0.082,-0.675c-0.049,-0.074 -0.143,-0.11 -0.228,-0.11c-0.01,0 -0.019,0 -0.028,0.001l0,0Z"/></clipPath><g clip-path="url(#_clip31)"><path d="M11.665,25.828l1.293,-0.155l0.283,2.369l-1.294,0.154l-0.282,-2.368Z" style="fill:url(#_Linear32);fill-rule:nonzero;"/></g><clipPath id="_clip33"><path d="M14.617,26.544c-0.005,0.006 -0.01,0.01 -0.014,0.017c-0.21,0.308 -0.286,0.642 -0.275,1.013c0.009,0.284 0.011,0.862 0.297,1.022c0.879,0.494 0.598,-1.686 0.542,-1.995c-0.029,-0.159 -0.16,-0.233 -0.287,-0.233c-0.116,0 -0.23,0.061 -0.263,0.176Z"/></clipPath><g clip-path="url(#_clip33)"><path d="M14.102,26.447l1.072,-0.128l0.33,2.771l-1.072,0.128l-0.33,-2.771Z" style="fill:url(#_Linear34);fill-rule:nonzero;"/></g><clipPath id="_clip35"><path d="M13.432,30.312c-0.2,0.436 -0.3,0.901 -0.28,1.381c0.014,0.303 0.048,0.866 0.438,0.932c0.397,0.069 0.58,-0.395 0.617,-0.707c0.055,-0.454 -0.106,-0.903 -0.118,-1.356c-0.003,-0.109 -0.057,-0.178 -0.129,-0.212c-0.035,-0.119 -0.161,-0.198 -0.286,-0.198c-0.096,0 -0.191,0.047 -0.242,0.16l0,0Z"/></clipPath><g clip-path="url(#_clip35)"><path d="M12.922,30.23l1.175,-0.14l0.305,2.554l-1.175,0.14l-0.305,-2.554Z" style="fill:url(#_Linear36);fill-rule:nonzero;"/></g><clipPath id="_clip37"><path d="M16.132,29.442c-0.044,0.017 -0.085,0.049 -0.119,0.104c-0.226,0.364 -0.348,0.756 -0.334,1.188c0.01,0.284 0.079,0.852 0.397,0.974c0.324,0.124 0.575,-0.256 0.625,-0.524c0.093,-0.503 -0.047,-1.087 -0.091,-1.59c-0.015,-0.163 -0.136,-0.237 -0.262,-0.237c-0.078,0 -0.159,0.029 -0.216,0.085l0,0Z"/></clipPath><g clip-path="url(#_clip37)"><path d="M15.502,29.447l1.129,-0.134l0.293,2.457l-1.13,0.135l-0.292,-2.458l0,0Z" style="fill:url(#_Linear38);fill-rule:nonzero;"/></g><clipPath id="_clip39"><path d="M15.863,33.58c-0.04,0.026 -0.076,0.064 -0.101,0.118c-0.178,0.384 -0.238,0.81 -0.151,1.227c0.066,0.32 0.242,0.828 0.612,0.906c0.385,0.082 0.619,-0.287 0.601,-0.627c-0.025,-0.533 -0.255,-1.107 -0.462,-1.589c-0.051,-0.116 -0.147,-0.166 -0.245,-0.166c-0.099,0 -0.199,0.051 -0.254,0.131l0,0Z"/></clipPath><g clip-path="url(#_clip39)"><path d="M15.406,33.522l1.239,-0.147l0.297,2.498l-1.238,0.148l-0.298,-2.499l0,0Z" style="fill:url(#_Linear40);fill-rule:nonzero;"/></g><clipPath id="_clip41"><path d="M18.194,32.856c-0.02,0.856 0.052,1.841 0.947,2.232c0.181,0.079 0.339,-0.045 0.387,-0.214c0.092,-0.329 -0.041,-0.615 -0.21,-0.894c-0.224,-0.371 -0.412,-0.74 -0.549,-1.154c-0.038,-0.113 -0.121,-0.164 -0.211,-0.17c-0.042,-0.019 -0.087,-0.028 -0.131,-0.028c-0.119,0 -0.228,0.071 -0.233,0.228Z"/></clipPath><g clip-path="url(#_clip41)"><path d="M18.003,32.664l1.374,-0.164l0.312,2.623l-1.373,0.165l-0.313,-2.624l0,0Z" style="fill:url(#_Linear42);fill-rule:nonzero;"/></g><clipPath id="_clip43"><path d="M12.988,10.243c-0.263,0.644 -0.109,1.276 0.129,1.905c0.33,0.867 0.698,1.724 1.06,2.578c0.703,1.657 1.464,3.285 2.359,4.847c0.057,0.098 0.171,0.124 0.275,0.102c0.155,0.005 0.322,-0.103 0.306,-0.304c-0.005,-0.05 -0.011,-0.099 -0.016,-0.148c0.129,-0.621 -0.081,-1.203 -0.348,-1.784c-0.069,-0.262 -0.14,-0.525 -0.213,-0.787c-0.27,-0.993 -0.48,-1.997 -0.595,-3.02c-0.083,-0.741 0.051,-1.734 -0.447,-2.353c-0.476,-0.592 -1.486,-0.869 -2.143,-1.182c-0.034,-0.015 -0.071,-0.023 -0.107,-0.023c-0.109,0 -0.219,0.066 -0.26,0.169l0,0Z"/></clipPath><g clip-path="url(#_clip43)"><path d="M12.635,10.134l3.535,-0.421l1.184,9.921l-3.537,0.422l-1.182,-9.922l0,0Z" style="fill:url(#_Linear44);fill-rule:nonzero;"/></g><clipPath id="_clip45"><path d="M30.473,9.63c-0.253,0.452 -0.304,0.965 -0.199,1.471c0.053,0.257 0.151,0.603 0.294,0.907c-0.035,0.017 -0.069,0.037 -0.103,0.056c-0.11,-0.138 -0.292,-0.18 -0.447,-0.261c-0.535,-0.282 -0.821,-0.836 -0.598,-1.424c0.127,-0.335 -0.384,-0.558 -0.512,-0.222c-0.168,0.443 -0.175,0.901 0.036,1.334c0.092,0.19 0.227,0.363 0.383,0.506c0.04,0.037 0.656,0.43 0.634,0.35c0.02,0.074 -0.169,0.492 -0.168,0.609c0,0.195 0.043,0.389 0.124,0.567c0.04,0.087 0.09,0.166 0.146,0.239c-0.042,-0.007 -0.084,-0.013 -0.127,-0.019c-0.066,-0.025 -0.133,-0.047 -0.204,-0.065c-0.069,-0.017 -0.126,-0.009 -0.172,0.014c-0.153,-0.019 -0.306,-0.038 -0.453,-0.063c-0.23,-0.038 -0.46,-0.081 -0.688,-0.128c0.17,-0.28 0.274,-0.59 0.291,-0.922c0.008,-0.163 -0.104,-0.269 -0.23,-0.301c-0.131,-0.087 -0.335,-0.08 -0.424,0.103c-0.153,0.311 -0.218,0.648 -0.202,0.991c-0.003,0.001 -0.005,0.002 -0.008,0.003c-0.291,-0.067 -0.58,-0.14 -0.869,-0.214c0.01,-0.016 0.018,-0.032 0.027,-0.051c0.154,-0.377 0.216,-0.771 0.189,-1.178c-0.021,-0.301 -0.413,-0.301 -0.525,-0.082c-0.02,0.031 -0.035,0.069 -0.042,0.114c-0.052,0.331 -0.103,0.662 -0.155,0.994c-0.003,0.025 -0.003,0.047 -0.001,0.07c-0.291,-0.078 -0.582,-0.156 -0.873,-0.232c0.318,-0.342 0.313,-0.827 0.251,-1.281c-0.038,-0.271 -0.368,-0.297 -0.501,-0.136c-0.038,0.025 -0.071,0.063 -0.095,0.115c-0.162,0.369 -0.232,0.755 -0.219,1.156c-0.274,-0.071 -0.55,-0.138 -0.826,-0.203c0.281,-0.338 0.322,-0.772 0.305,-1.209c0.001,-0.014 0,-0.026 -0.001,-0.038c-0.002,-0.036 -0.004,-0.071 -0.007,-0.105c-0.021,-0.359 -0.575,-0.292 -0.553,0.066c0,0.002 0.001,0.005 0.001,0.007c-0.167,0.362 -0.271,0.745 -0.309,1.142c0,0.005 0,0.009 0,0.012c-0.255,-0.053 -0.512,-0.102 -0.769,-0.145c0.168,-0.432 0.224,-0.891 0.155,-1.352c-0.043,-0.295 -0.434,-0.299 -0.533,-0.087c-0.003,0.005 -0.006,0.009 -0.009,0.015c-0.213,0.413 -0.286,0.878 -0.213,1.334c-0.309,-0.041 -0.62,-0.072 -0.933,-0.091c0.021,-0.058 0.036,-0.116 0.046,-0.17c0.075,-0.402 -0.091,-0.796 -0.093,-1.197c-0.002,-0.323 -0.452,-0.298 -0.538,-0.028c-0.01,0.013 -0.022,0.027 -0.03,0.043c-0.181,0.315 -0.279,0.663 -0.285,1.026c-0.001,0.046 -0.001,0.097 0.001,0.148c-0.563,-0.347 -1.332,-0.507 -1.902,-0.487c-1.398,0.047 -2.605,1.331 -2.354,2.623c0.01,0.069 0.023,0.138 0.041,0.209c0.464,1.831 3.46,2.157 4.491,0.692c0.363,-0.515 0.616,-1.33 0.481,-2.007c0.03,0.008 0.06,0.016 0.09,0.024c0.286,0.333 0.866,0.468 1.237,0.619c0.854,0.347 1.706,0.699 2.562,1.04c0.749,0.298 1.519,0.578 2.305,0.745c-0.294,0.01 -0.585,0.051 -0.883,0.139c-0.634,0.189 -1.213,0.518 -1.828,0.754c-0.687,0.264 -1.408,0.433 -2.14,0.501c-0.366,0.035 -0.949,-0.072 -1.181,0.301c-0.205,0.332 0.01,0.787 0.235,1.047c0.541,0.626 1.482,0.695 2.268,0.595c-0.488,0.489 -0.643,1.215 -0.081,1.792c0.708,0.729 1.737,1.15 2.707,1.386c1.616,0.393 3.243,0.237 4.871,0.08c0.995,-0.097 1.99,-0.192 2.985,-0.162c0.341,0.009 0.743,0.018 1.034,0.219c0.112,0.076 0.291,0.275 0.303,0.428c0.045,0.552 -0.485,0.466 -0.79,0.349c-0.526,-0.201 -0.937,-0.47 -1.514,-0.542c-0.433,-0.054 -0.872,-0.037 -1.304,0.03c-2.828,0.339 -5.354,2.449 -5.439,5.435c-0.036,1.247 0.394,2.74 1.499,3.453c0.584,0.378 1.268,0.395 1.94,0.362c0.638,-0.031 1.277,-0.074 1.915,-0.117c0.169,0.01 0.337,0.025 0.502,0.052c0.33,0.057 2.131,0.733 1.291,1.289c-0.254,0.167 -1.001,0.022 -1.266,-0.008c-0.321,-0.036 -0.639,-0.093 -0.957,-0.151c-0.718,-0.129 -1.432,-0.271 -2.165,-0.284c-0.213,-0.004 -0.456,-0.009 -0.701,0.004c-0.183,-0.003 -0.368,0.007 -0.557,0.032c-0.076,0.01 -0.131,0.043 -0.17,0.088c-0.073,0.025 -0.143,0.052 -0.209,0.086c-0.101,-0.003 -0.202,0.042 -0.258,0.155c-0.004,0.008 -0.008,0.017 -0.012,0.026c-0.403,0.351 -0.638,0.963 -0.854,1.423c-0.26,0.549 -0.486,1.903 -1.253,1.815c-0.771,-0.089 -1.581,-0.476 -2.319,-0.713c-0.847,-0.272 -1.694,-0.544 -2.541,-0.817c-0.087,-0.028 -0.166,-0.015 -0.229,0.02c-0.295,-0.039 -0.468,0.41 -0.155,0.53c0.972,0.369 1.935,0.761 2.886,1.181c0.507,0.224 1.01,0.455 1.511,0.695c0.355,0.169 0.752,0.461 1.137,0.535c0.829,0.16 0.909,-1.049 1.109,-1.606c0.321,-0.891 0.695,-1.76 1.108,-2.611c0.227,-0.168 0.51,-0.25 0.811,-0.284c1.489,0.003 2.845,0.859 4.321,1.038c0.583,0.072 1.25,0.037 1.686,-0.409c0.389,-0.399 0.703,-1.223 0.593,-1.779c-0.123,-0.612 -0.724,-0.834 -1.263,-0.97c-0.03,-0.007 -0.061,-0.013 -0.092,-0.02c0.552,-0.203 0.441,-1.062 0.465,-1.537c0.001,-0.031 -0.003,-0.06 -0.01,-0.088c0.042,-0.229 -0.301,-0.437 -0.504,-0.216c-0.428,0.464 -0.543,1.107 -0.348,1.7c0.007,0.023 0.02,0.045 0.036,0.065c-0.421,-0.077 -0.847,-0.127 -1.272,-0.187c0.173,-0.042 0.318,-0.184 0.396,-0.353c0.138,-0.3 0.136,-0.676 0.119,-1c0.091,-0.249 -0.28,-0.497 -0.491,-0.257c-0.29,0.329 -0.989,1.23 -0.348,1.561c-0.234,-0.037 -0.465,-0.08 -0.694,-0.137c-0.889,-0.219 -1.769,-0.662 -2.157,-1.538c-0.364,-0.823 -0.246,-1.806 0.251,-2.545c0.568,-0.845 1.491,-1.332 2.478,-1.483c-0.061,0.022 -0.117,0.054 -0.164,0.096c-0.158,-0.006 -0.313,0.1 -0.27,0.296c0.082,0.381 0.187,0.754 0.316,1.12c0.069,0.195 0.358,0.234 0.477,0.068c0.208,-0.289 0.447,-0.661 0.41,-1.035c-0.029,-0.302 -0.252,-0.543 -0.558,-0.571c-0.002,0 -0.004,0 -0.006,0c0.783,-0.082 1.594,0.041 2.293,0.363c0.625,0.287 0.921,0.863 1.68,0.688c0.653,-0.15 1.255,-0.56 1.678,-1.076c0.81,-0.991 0.88,-2.395 0.132,-3.442c-0.154,-0.216 -0.336,-0.395 -0.538,-0.545c1.016,-0.495 2.15,-1.842 1.579,-3.022c-0.649,-1.336 -2.707,-1.122 -3.909,-1.159c-0.809,-0.026 -1.657,-0.112 -2.361,-0.547c-0.577,-0.358 -0.779,-0.989 -1.203,-1.454c0.269,0.015 0.546,-0.017 0.749,-0.138c0.131,-0.078 0.226,-0.195 0.297,-0.333c0.291,0.088 0.575,0.189 0.829,0.255c0.602,0.159 1.182,0.31 1.803,0.173c0.347,-0.075 0.285,-0.63 -0.066,-0.554c-0.693,0.153 -1.375,-0.097 -2.041,-0.272c-0.123,-0.032 -0.247,-0.07 -0.374,-0.108c0.015,-0.101 0.023,-0.201 0.027,-0.295c0.02,-0.005 0.04,-0.008 0.06,-0.012c0.192,-0.045 0.383,-0.096 0.572,-0.154c0.496,-0.15 0.97,-0.352 1.431,-0.589c0.317,-0.163 0.11,-0.681 -0.21,-0.517c-0.43,0.222 -0.872,0.415 -1.334,0.56c-0.195,0.062 -0.393,0.112 -0.592,0.157c-0.082,-0.226 -0.227,-0.398 -0.412,-0.519c0.305,-0.619 0.823,-1.195 1.192,-1.726c0.205,-0.294 -0.233,-0.641 -0.438,-0.345c-0.413,0.593 -0.943,1.204 -1.271,1.878c-0.169,-0.029 -0.35,-0.032 -0.532,-0.01c-0.14,-0.273 -0.238,-0.641 -0.282,-0.841c-0.092,-0.417 -0.053,-0.792 0.155,-1.166c0.117,-0.207 -0.067,-0.373 -0.256,-0.373c-0.097,0 -0.195,0.044 -0.255,0.151l0,0Zm-12.441,4.511c-0.023,-0.073 -0.034,-0.145 -0.039,-0.214c0.048,-0.124 0.13,-0.243 0.251,-0.353c0.229,-0.206 0.593,-0.346 0.906,-0.301c0.396,0.057 0.433,0.408 0.392,0.75c-0.057,0.481 -0.395,0.725 -0.743,0.725c-0.314,0 -0.637,-0.2 -0.767,-0.607l0,0Zm-0.821,0.52c-0.034,-0.027 -0.065,-0.056 -0.094,-0.084c0.027,0.008 0.056,0.011 0.083,0.011c0.002,0.009 0.004,0.019 0.006,0.028c0.005,0.02 0.011,0.037 0.017,0.054c-0.004,-0.003 -0.008,-0.006 -0.012,-0.009Zm11.473,5.834c0.126,-0.012 0.251,-0.032 0.372,-0.058c0.977,-0.105 1.917,-0.839 2.03,-1.846c0.084,-0.74 -0.325,-1.377 -0.989,-1.681c-0.167,-0.076 -0.352,-0.149 -0.543,-0.201c0.327,-0.247 0.633,-0.594 0.898,-0.836c0.005,0.026 0.01,0.052 0.016,0.077c0.222,0.965 0.485,1.952 1.174,2.7c0.594,0.646 1.316,0.883 2.177,0.864c0.296,-0.006 0.595,-0.039 0.889,0c0.297,0.04 0.538,0.172 0.815,0.274c0.361,0.136 0.664,0.16 0.997,-0.048c0.188,-0.117 0.116,-0.394 -0.057,-0.478c-0.267,-0.058 -0.28,-0.166 -0.038,-0.325c0.046,-0.135 0.123,-0.209 0.231,-0.227c0.02,0.001 0.042,0.002 0.064,0.005c0,-0.004 0,-0.006 0,-0.009c0.023,0.001 0.048,0.003 0.075,0.01c0.311,-0.018 0.322,-0.527 0.008,-0.553c-0.268,-0.023 -0.536,-0.045 -0.803,-0.067c-0.057,-0.005 -0.14,-0.005 -0.235,-0.004c-0.233,0.001 -0.533,0.002 -0.635,-0.072c-0.272,-0.196 0.261,-0.315 0.432,-0.367c0.198,-0.059 0.396,-0.107 0.596,-0.148c0.008,0.001 0.016,0.001 0.025,0.002c0.539,0.042 1.457,0.091 1.506,0.801c0.026,0.401 -0.373,0.789 -0.568,1.107c-0.176,0.29 -0.283,0.566 -0.278,0.896c-0.942,-0.44 -2.149,-0.418 -3.129,-0.262c-0.516,0.082 -0.963,0.251 -1.485,0.145c-0.457,-0.092 -0.807,-0.032 -1.258,0.075c-0.652,0.154 -1.319,0.232 -1.986,0.232c-0.1,0 -0.201,-0.002 -0.301,-0.006l0,0Zm0.573,-4.36c0.025,-0.004 0.051,-0.008 0.075,-0.013c-0.015,0.016 -0.031,0.03 -0.046,0.044c-0.008,-0.011 -0.017,-0.021 -0.029,-0.031l0,0Zm-1.77,0.871c0.697,-0.2 -0.125,0.126 -0.277,0.197c-0.198,0.092 -0.399,0.179 -0.6,0.262c0.278,-0.191 0.563,-0.369 0.877,-0.459Zm1.247,1.996c-0.235,-0.352 0.058,-0.78 0.481,-0.72c0.103,0.015 0.209,0.048 0.306,0.099c0.15,0.274 0.051,0.6 -0.14,0.765c-0.08,0.038 -0.163,0.074 -0.249,0.105c-0.005,0.001 -0.009,0.001 -0.014,0.001c-0.128,0 -0.265,-0.072 -0.384,-0.25l0,0Zm-3.565,0.563c-0.777,-0.582 0.263,-0.964 0.727,-1.042c0.276,-0.046 0.528,-0.095 0.774,-0.189c-0.007,0.018 -0.015,0.035 -0.022,0.054c-0.243,0.638 -0.051,1.398 0.517,1.792c0.129,0.089 0.268,0.157 0.412,0.208c-0.824,-0.123 -1.769,-0.345 -2.408,-0.823l0,0Zm8.256,3.689c0.019,0.005 0.039,0.008 0.059,0.012c-0.258,-0.011 -0.518,-0.016 -0.776,-0.01c0.239,-0.011 0.479,-0.012 0.717,-0.002Z"/></clipPath><g clip-path="url(#_clip45)"><path d="M15.73,10.94l22.486,-2.68l3.265,27.398l-22.486,2.68l-3.265,-27.398l0,0Z" style="fill:url(#_Linear46);fill-rule:nonzero;"/></g><clipPath id="_clip47"><path d="M30.909,28.312l-0.428,0.408c-0.109,0.104 -0.229,0.203 -0.312,0.33c-0.16,0.242 -0.145,0.611 0.14,0.757c0.626,0.323 0.985,-0.639 1.004,-1.092c0,-0.014 -0.001,-0.029 -0.001,-0.043c0.054,-0.094 0.06,-0.206 -0.013,-0.305c-0.05,-0.069 -0.144,-0.113 -0.235,-0.113c-0.057,0 -0.114,0.017 -0.155,0.058l0,0Z"/></clipPath><g clip-path="url(#_clip47)"><path d="M29.873,28.389l1.47,-0.175l0.218,1.841l-1.469,0.175l-0.219,-1.841Z" style="fill:url(#_Linear48);fill-rule:nonzero;"/></g><clipPath id="_clip49"><path d="M34.968,25.95c-0.032,0.007 -0.061,0.02 -0.087,0.033c-0.074,0.016 -0.14,0.065 -0.176,0.158c-0.223,0.582 -0.144,1.207 0.225,1.71c0.14,0.192 0.468,0.111 0.497,-0.126c0.056,-0.435 0.402,-0.779 0.308,-1.244c-0.06,-0.3 -0.33,-0.547 -0.633,-0.547c-0.044,0 -0.089,0.005 -0.134,0.016l0,0Z"/></clipPath><g clip-path="url(#_clip49)"><path d="M34.398,26.013l1.301,-0.156l0.249,2.08l-1.302,0.156l-0.248,-2.08Z" style="fill:url(#_Linear50);fill-rule:nonzero;"/></g><clipPath id="_clip51"><path d="M33.467,24.904c-0.125,-0.002 -0.246,0.068 -0.266,0.229c-0.055,0.468 -0.009,0.921 0.132,1.371c0.06,0.192 0.367,0.237 0.477,0.066c0.234,-0.36 0.593,-0.857 0.483,-1.312c-0.062,-0.259 -0.303,-0.439 -0.549,-0.439c-0.095,0 -0.19,0.027 -0.277,0.085Z"/></clipPath><g clip-path="url(#_clip51)"><path d="M33.053,24.891l1.234,-0.147l0.227,1.9l-1.234,0.147l-0.227,-1.9Z" style="fill:url(#_Linear52);fill-rule:nonzero;"/></g><clipPath id="_clip53"><path d="M20.63,19.907c-0.53,0.367 -0.856,1.222 -1.066,1.801c-0.244,0.67 -0.282,1.466 -0.667,2.074c-0.597,-0.263 -1.204,-0.504 -1.823,-0.711c-0.65,-0.217 -1.364,-0.483 -2.046,-0.568c-0.981,-0.123 -0.842,1.163 -0.602,2c-0.02,0.195 -0.017,0.392 0.009,0.584c0.024,0.187 0.21,0.284 0.382,0.225c0.402,-0.139 0.588,-0.462 0.58,-0.877c-0.002,-0.134 -0.082,-0.208 -0.179,-0.23c-0.01,-0.088 -0.022,-0.175 -0.032,-0.261c0.011,-0.019 0.022,-0.037 0.034,-0.055c0.142,-0.105 0.271,-0.098 0.388,0.024c0.347,0.103 0.68,0.317 1.031,0.432c0.824,0.271 1.669,0.484 2.503,0.721c0.621,0.177 1.075,0.271 1.288,-0.432c0.22,-0.728 0.275,-1.512 0.437,-2.255c0.092,-0.42 0.207,-0.834 0.379,-1.23c0.113,-0.257 0.289,-0.506 0.302,-0.793c0.017,-0.365 -0.236,-0.576 -0.53,-0.576c-0.128,0 -0.264,0.041 -0.388,0.127l0,0Z"/></clipPath><g clip-path="url(#_clip53)"><path d="M13.824,20.623l7.706,-0.918l0.644,5.399l-7.707,0.919l-0.643,-5.4Z" style="fill:url(#_Linear54);fill-rule:nonzero;"/></g><clipPath id="_clip55"><path d="M21.841,22.056c-0.836,1.067 -1.398,2.295 -1.659,3.619c-1.212,-0.363 -2.451,-0.544 -3.717,-0.541c-0.021,-0.011 -0.041,-0.022 -0.063,-0.034c-0.117,-0.068 -0.222,-0.036 -0.29,0.04c-0.321,0.042 -0.247,0.559 0.098,0.55l0.089,0c0.038,0.042 0.093,0.072 0.17,0.078c0,0 0.001,0 0.002,0c1.437,0.718 3.101,0.763 4.573,1.399c0.176,0.076 0.347,-0.04 0.387,-0.214c0.352,-1.537 0.824,-3.1 0.905,-4.682c0.01,-0.18 -0.136,-0.323 -0.29,-0.323c-0.072,0 -0.146,0.033 -0.205,0.108l0,0Z"/></clipPath><g clip-path="url(#_clip55)"><path d="M15.498,22.721l6.825,-0.814l0.612,5.131l-6.826,0.814l-0.611,-5.131l0,0Z" style="fill:url(#_Linear56);fill-rule:nonzero;"/></g><clipPath id="_clip57"><path d="M23.355,23.672c-0.045,0.057 -0.085,0.117 -0.124,0.178c-0.038,0.025 -0.073,0.061 -0.098,0.111c-0.6,1.21 -1.201,2.419 -1.802,3.629c-1.314,-0.364 -2.653,-0.53 -4.018,-0.497c-0.017,-0.003 -0.034,-0.007 -0.051,-0.01c-0.065,-0.014 -0.121,-0.006 -0.166,0.016c-0.292,0.017 -0.295,0.415 -0.072,0.532c0.961,0.501 2.043,0.798 3.062,1.16c0.525,0.186 1.061,0.436 1.603,0.563c0.259,0.062 0.529,0.076 0.73,-0.132c0.243,-0.254 0.237,-0.725 0.307,-1.043c0.12,-0.556 0.276,-1.104 0.466,-1.64c0.31,-0.876 0.881,-1.767 0.66,-2.728c-0.034,-0.143 -0.163,-0.245 -0.293,-0.245c-0.073,0 -0.147,0.031 -0.204,0.106Z"/></clipPath><g clip-path="url(#_clip57)"><path d="M16.431,24.406l7.492,-0.893l0.671,5.634l-7.492,0.893l-0.671,-5.634l0,0Z" style="fill:url(#_Linear58);fill-rule:nonzero;"/></g><clipPath id="_clip59"><path d="M25.435,28.316c-0.054,0.172 -0.107,0.344 -0.162,0.515c-0.298,0.588 -0.596,1.174 -0.893,1.762c-0.156,0.309 -0.291,0.673 -0.486,0.96c-0.124,0.181 -0.114,0.24 -0.357,0.23c-0.156,-0.006 -0.362,-0.092 -0.512,-0.127c-1.278,-0.296 -2.58,-0.458 -3.89,-0.507c-0.049,-0.014 -0.095,-0.014 -0.137,-0.006c-0.014,0 -0.027,-0.001 -0.039,-0.001c-0.126,-0.061 -0.234,-0.02 -0.303,0.062c-0.178,0.143 -0.17,0.479 0.109,0.486c0.016,0 0.032,0.001 0.048,0.002c0.842,0.419 1.689,0.826 2.602,1.072c0.989,0.268 2.016,0.368 2.986,0.709c0.196,0.069 0.413,-0.067 0.388,-0.289c-0.002,-0.012 -0.003,-0.025 -0.004,-0.038c0.036,-0.027 0.067,-0.062 0.085,-0.107c0.494,-1.182 0.827,-2.414 0.999,-3.677c0.052,-0.17 0.102,-0.34 0.151,-0.51c0.03,-0.108 -0.003,-0.19 -0.067,-0.241c0.004,-0.047 0.01,-0.094 0.014,-0.141c0.014,-0.184 -0.159,-0.323 -0.315,-0.323c-0.092,0 -0.179,0.049 -0.217,0.169l0,0Zm-1.631,4.065c0.017,-0.003 0.033,-0.008 0.051,-0.011c-0.004,0.006 -0.007,0.013 -0.012,0.02l0,0.001c-0.013,-0.004 -0.026,-0.007 -0.039,-0.01Z"/></clipPath><g clip-path="url(#_clip59)"><path d="M18.169,29.028l7.805,-0.931l0.62,5.207l-7.804,0.93l-0.621,-5.206l0,0Z" style="fill:url(#_Linear60);fill-rule:nonzero;"/></g><clipPath id="_clip61"><path d="M28.193,33.688c0.656,0.388 1.337,0.716 2.046,0.989c-0.914,0.622 -1.829,1.244 -2.743,1.865c-0.133,0.091 -0.131,0.255 -0.059,0.372c-0.042,0.242 0.303,0.459 0.495,0.22c0.261,-0.325 0.668,-0.457 1.038,-0.617c0.419,-0.182 0.84,-0.359 1.264,-0.53c0.816,-0.329 1.638,-0.634 2.469,-0.921c0.285,-0.099 0.177,-0.471 -0.064,-0.535c-1.432,-0.377 -2.84,-0.829 -4.224,-1.355c-0.041,-0.016 -0.081,-0.023 -0.117,-0.023c-0.265,-0.001 -0.372,0.377 -0.105,0.535l0,0Z"/></clipPath><g clip-path="url(#_clip61)"><path d="M26.933,33.284l5.773,-0.688l0.491,4.126l-5.772,0.689l-0.492,-4.127l0,0Z" style="fill:url(#_Linear62);fill-rule:nonzero;"/></g></g><path d="M23.123,5.206c0.586,0.018 1.157,0.034 1.746,0.053c0.048,-0.784 0.095,-1.547 0.144,-2.337c-1.584,-0.049 -3.14,-0.147 -4.694,0.205c0.169,0.959 0.336,1.896 0.503,2.836c-0.981,0.22 -1.931,0.435 -2.903,0.655c-0.23,-0.783 -0.46,-1.568 -0.7,-2.39c0.659,-0.148 1.296,-0.292 1.933,-0.436c0.105,0.462 0.211,0.933 0.32,1.415c-0.211,0.048 -0.403,0.091 -0.635,0.143c-0.064,-0.286 -0.127,-0.562 -0.186,-0.824c-0.224,0.05 -0.407,0.092 -0.565,0.128c0.099,0.437 0.193,0.854 0.286,1.264c0.595,-0.134 1.153,-0.26 1.739,-0.393c-0.174,-0.768 -0.342,-1.515 -0.514,-2.277c-1.518,0.347 -3.037,0.668 -4.453,1.404c0.408,0.873 0.812,1.734 1.212,2.59c-0.884,0.476 -1.747,0.939 -2.623,1.411c-0.426,-0.7 -0.854,-1.404 -1.296,-2.13c0.594,-0.333 1.165,-0.651 1.752,-0.979c0.238,0.456 0.461,0.887 0.692,1.331c-0.198,0.106 -0.377,0.202 -0.571,0.307c-0.148,-0.262 -0.288,-0.509 -0.434,-0.767c-0.186,0.108 -0.352,0.202 -0.53,0.304c0.227,0.39 0.444,0.765 0.665,1.145c0.517,-0.278 1.015,-0.546 1.537,-0.828c-0.348,-0.697 -0.692,-1.388 -1.044,-2.094c-1.4,0.749 -2.794,1.445 -3.963,2.524c0.624,0.74 1.237,1.469 1.842,2.187c-0.729,0.687 -1.444,1.359 -2.17,2.042c-0.593,-0.567 -1.189,-1.136 -1.803,-1.723c0.49,-0.476 0.959,-0.932 1.44,-1.399c0.349,0.38 0.676,0.738 1.014,1.108c-0.167,0.156 -0.315,0.295 -0.473,0.445c-0.213,-0.215 -0.412,-0.418 -0.619,-0.629c-0.152,0.15 -0.287,0.284 -0.434,0.428c0.322,0.321 0.629,0.627 0.939,0.937c0.43,-0.406 0.847,-0.798 1.272,-1.199c-0.521,-0.588 -1.029,-1.162 -1.55,-1.751c-1.154,1.078 -2.322,2.114 -3.176,3.463c0.794,0.553 1.578,1.1 2.368,1.651c-0.564,0.836 -1.108,1.648 -1.666,2.476c-0.636,-0.347 -1.362,-0.745 -2.113,-1.155c0.349,-0.583 0.689,-1.151 0.997,-1.667c0.446,0.268 0.86,0.518 1.272,0.767c-0.106,0.173 -0.213,0.349 -0.325,0.533c-0.247,-0.147 -0.492,-0.294 -0.748,-0.447c-0.11,0.185 -0.207,0.35 -0.311,0.528c0.389,0.223 0.765,0.441 1.085,0.625c0.333,-0.493 0.654,-0.969 0.98,-1.452c-0.649,-0.429 -1.29,-0.853 -1.947,-1.289c-0.835,1.341 -1.697,2.643 -2.172,4.167c0.907,0.329 1.803,0.653 2.689,0.974c-0.288,0.958 -0.573,1.902 -0.859,2.852c-0.807,-0.196 -1.603,-0.39 -2.422,-0.59c0.185,-0.653 0.364,-1.284 0.548,-1.931c0.493,0.156 0.961,0.304 1.434,0.455c-0.07,0.223 -0.131,0.418 -0.193,0.62c-0.295,-0.083 -0.563,-0.159 -0.844,-0.237c-0.058,0.2 -0.109,0.383 -0.167,0.587c0.439,0.118 0.862,0.23 1.283,0.342c0.172,-0.572 0.335,-1.114 0.503,-1.671c-0.738,-0.248 -1.464,-0.491 -2.216,-0.744c-0.464,1.509 -0.955,2.993 -1.021,4.588c0.971,0.083 1.916,0.164 2.848,0.245c-0.031,1.012 -0.061,1.99 -0.091,2.977c-0.827,0.018 -1.644,0.037 -2.492,0.055c0.01,-0.684 0.02,-1.338 0.031,-2.006c0.52,0.023 1.002,0.045 1.499,0.067c-0.009,0.235 -0.017,0.439 -0.025,0.65c-0.301,-0.003 -0.579,-0.007 -0.879,-0.011c0.001,0.21 0.001,0.404 0.002,0.612c0.459,0 0.885,-0.001 1.321,-0.001c0.018,-0.59 0.035,-1.161 0.052,-1.748c-0.786,-0.048 -1.551,-0.095 -2.334,-0.142c-0.052,1.586 -0.148,3.141 0.204,4.694c0.956,-0.169 1.887,-0.336 2.834,-0.505c0.22,0.974 0.436,1.93 0.656,2.906c-0.785,0.229 -1.57,0.459 -2.39,0.699c-0.151,-0.663 -0.295,-1.301 -0.439,-1.94c0.463,-0.104 0.93,-0.21 1.412,-0.319c0.047,0.21 0.092,0.408 0.144,0.638c-0.283,0.063 -0.554,0.124 -0.825,0.186c0.049,0.216 0.091,0.4 0.127,0.567c0.439,-0.099 0.86,-0.194 1.278,-0.289c-0.134,-0.591 -0.259,-1.144 -0.391,-1.731c-0.763,0.172 -1.51,0.34 -2.283,0.515c0.342,1.506 0.663,3.029 1.401,4.448c0.877,-0.411 1.737,-0.813 2.591,-1.213c0.477,0.888 0.941,1.75 1.409,2.624c-0.703,0.428 -1.407,0.856 -2.131,1.296c-0.332,-0.596 -0.651,-1.168 -0.978,-1.754c0.46,-0.239 0.89,-0.461 1.333,-0.691c0.107,0.2 0.203,0.381 0.304,0.572c-0.261,0.149 -0.509,0.29 -0.764,0.435c0.108,0.189 0.202,0.354 0.303,0.528c0.392,-0.228 0.767,-0.444 1.146,-0.665c-0.28,-0.519 -0.549,-1.017 -0.828,-1.535c-0.7,0.347 -1.385,0.688 -2.093,1.041c0.74,1.396 1.442,2.788 2.52,3.965c0.739,-0.621 1.47,-1.237 2.19,-1.842c0.688,0.732 1.357,1.442 2.04,2.169c-0.562,0.589 -1.132,1.186 -1.72,1.804c-0.472,-0.485 -0.929,-0.955 -1.4,-1.439c0.376,-0.346 0.732,-0.674 1.106,-1.017c0.156,0.167 0.298,0.321 0.445,0.479c-0.219,0.213 -0.418,0.408 -0.63,0.614c0.152,0.151 0.29,0.289 0.433,0.432c0.324,-0.326 0.63,-0.632 0.933,-0.937c-0.408,-0.434 -0.798,-0.847 -1.197,-1.272c-0.584,0.517 -1.16,1.026 -1.751,1.549c1.076,1.155 2.115,2.328 3.462,3.178c0.557,-0.799 1.101,-1.58 1.649,-2.366c0.836,0.56 1.651,1.108 2.479,1.664c-0.355,0.647 -0.751,1.37 -1.157,2.112c-0.589,-0.353 -1.152,-0.689 -1.679,-1.005c0.269,-0.44 0.523,-0.855 0.784,-1.281c0.169,0.114 0.341,0.228 0.524,0.351c-0.141,0.237 -0.288,0.481 -0.442,0.739c0.187,0.11 0.355,0.208 0.529,0.309c0.227,-0.393 0.441,-0.764 0.626,-1.086c-0.489,-0.329 -0.965,-0.65 -1.452,-0.978c-0.431,0.651 -0.857,1.296 -1.291,1.949c1.348,0.839 2.65,1.7 4.168,2.171c0.331,-0.917 0.655,-1.811 0.973,-2.69c0.962,0.291 1.901,0.574 2.853,0.861c-0.196,0.804 -0.391,1.603 -0.591,2.423c-0.662,-0.189 -1.292,-0.369 -1.931,-0.552c0.157,-0.495 0.304,-0.958 0.453,-1.431c0.219,0.068 0.414,0.129 0.624,0.193c-0.083,0.288 -0.159,0.556 -0.242,0.843c0.205,0.057 0.392,0.109 0.592,0.165c0.117,-0.442 0.229,-0.86 0.341,-1.281c-0.567,-0.17 -1.109,-0.334 -1.672,-0.503c-0.248,0.737 -0.493,1.469 -0.744,2.219c1.515,0.46 2.993,0.955 4.587,1.018c0.083,-0.964 0.165,-1.91 0.246,-2.847c1.008,0.031 1.988,0.06 2.977,0.09c0.018,0.822 0.037,1.641 0.056,2.492c-0.679,-0.01 -1.333,-0.02 -2.007,-0.029c0.024,-0.518 0.045,-1 0.067,-1.5c0.231,0.009 0.435,0.016 0.651,0.024c-0.005,0.298 -0.009,0.577 -0.012,0.878c0.208,0 0.403,0 0.612,0c-0.001,-0.457 -0.001,-0.883 -0.001,-1.322c-0.587,-0.017 -1.159,-0.034 -1.747,-0.052c-0.048,0.785 -0.095,1.548 -0.143,2.336c1.585,0.049 3.141,0.149 4.694,-0.205c-0.171,-0.961 -0.336,-1.897 -0.503,-2.835c0.983,-0.221 1.933,-0.436 2.904,-0.656c0.229,0.785 0.459,1.57 0.699,2.391c-0.661,0.149 -1.299,0.293 -1.942,0.439c-0.104,-0.462 -0.209,-0.929 -0.318,-1.412c0.209,-0.047 0.407,-0.092 0.644,-0.146c0.064,0.283 0.126,0.56 0.185,0.819c0.223,-0.05 0.407,-0.092 0.562,-0.127c-0.099,-0.439 -0.193,-0.855 -0.287,-1.271c-0.589,0.133 -1.143,0.258 -1.732,0.39c0.174,0.767 0.344,1.519 0.516,2.287c1.512,-0.348 3.032,-0.667 4.447,-1.404c-0.41,-0.873 -0.812,-1.735 -1.213,-2.59c0.886,-0.476 1.748,-0.939 2.625,-1.41c0.425,0.7 0.853,1.405 1.294,2.13c-0.593,0.333 -1.165,0.651 -1.752,0.978c-0.238,-0.457 -0.462,-0.887 -0.693,-1.33c0.2,-0.107 0.379,-0.203 0.572,-0.308c0.149,0.262 0.29,0.509 0.436,0.767c0.186,-0.108 0.35,-0.202 0.528,-0.304c-0.227,-0.39 -0.444,-0.765 -0.664,-1.145c-0.518,0.279 -1.017,0.548 -1.537,0.828c0.349,0.7 0.693,1.391 1.043,2.095c1.401,-0.75 2.796,-1.446 3.964,-2.525c-0.626,-0.741 -1.239,-1.469 -1.843,-2.187c0.731,-0.688 1.446,-1.36 2.171,-2.041c0.593,0.567 1.19,1.137 1.804,1.722c-0.493,0.477 -0.963,0.934 -1.442,1.399c-0.348,-0.381 -0.675,-0.739 -1.013,-1.108c0.166,-0.156 0.314,-0.296 0.474,-0.445c0.211,0.217 0.41,0.419 0.618,0.629c0.152,-0.15 0.287,-0.283 0.433,-0.428c-0.322,-0.321 -0.629,-0.627 -0.939,-0.936c-0.43,0.405 -0.847,0.797 -1.271,1.198c0.52,0.588 1.028,1.162 1.55,1.753c1.153,-1.081 2.322,-2.115 3.176,-3.464c-0.79,-0.551 -1.572,-1.096 -2.368,-1.652c0.557,-0.827 1.105,-1.643 1.666,-2.476c0.635,0.347 1.362,0.745 2.112,1.155c-0.348,0.583 -0.688,1.151 -0.997,1.667c-0.444,-0.269 -0.859,-0.52 -1.284,-0.779c0.11,-0.166 0.223,-0.339 0.341,-0.518c0.242,0.145 0.488,0.291 0.745,0.445c0.109,-0.186 0.205,-0.351 0.311,-0.528c-0.39,-0.224 -0.766,-0.441 -1.081,-0.623c-0.334,0.492 -0.657,0.967 -0.984,1.449c0.649,0.43 1.289,0.854 1.946,1.289c0.836,-1.34 1.696,-2.642 2.172,-4.167c-0.907,-0.328 -1.802,-0.652 -2.69,-0.973c0.289,-0.959 0.574,-1.902 0.861,-2.853c0.807,0.197 1.601,0.39 2.422,0.59c-0.185,0.653 -0.365,1.284 -0.549,1.932c-0.492,-0.156 -0.959,-0.304 -1.432,-0.455c0.068,-0.222 0.129,-0.418 0.191,-0.622c0.295,0.084 0.563,0.161 0.845,0.24c0.056,-0.201 0.108,-0.383 0.166,-0.588c-0.439,-0.118 -0.861,-0.23 -1.283,-0.342c-0.172,0.57 -0.335,1.113 -0.503,1.671c0.742,0.248 1.473,0.494 2.221,0.744c0.456,-1.52 0.956,-2.998 1.015,-4.589c-0.968,-0.082 -1.913,-0.164 -2.846,-0.244c0.03,-1.012 0.06,-1.99 0.091,-2.978c0.826,-0.017 1.644,-0.036 2.492,-0.055c-0.011,0.684 -0.021,1.338 -0.031,2.007c-0.52,-0.023 -1.002,-0.046 -1.499,-0.068c0.008,-0.234 0.016,-0.438 0.024,-0.65c0.301,0.004 0.58,0.007 0.879,0.011c-0.001,-0.209 -0.001,-0.403 -0.002,-0.612c-0.458,0.001 -0.884,0.001 -1.32,0.002c-0.018,0.589 -0.036,1.161 -0.053,1.747c0.788,0.048 1.551,0.095 2.335,0.143c0.054,-1.586 0.147,-3.142 -0.204,-4.695c-0.956,0.17 -1.887,0.336 -2.835,0.505c-0.22,-0.973 -0.435,-1.929 -0.655,-2.905c0.784,-0.229 1.57,-0.459 2.39,-0.699c0.149,0.661 0.293,1.299 0.438,1.94c-0.462,0.104 -0.928,0.21 -1.411,0.319c-0.048,-0.209 -0.092,-0.407 -0.144,-0.638c0.281,-0.063 0.552,-0.124 0.818,-0.183c-0.05,-0.223 -0.093,-0.411 -0.129,-0.568c-0.441,0.099 -0.856,0.193 -1.269,0.286c0.134,0.591 0.258,1.145 0.391,1.731c0.762,-0.171 1.509,-0.34 2.283,-0.515c-0.341,-1.506 -0.665,-3.028 -1.4,-4.447c-0.879,0.411 -1.739,0.813 -2.592,1.212c-0.477,-0.887 -0.941,-1.75 -1.41,-2.624c0.704,-0.428 1.409,-0.855 2.131,-1.295c0.332,0.596 0.652,1.168 0.978,1.754c-0.461,0.238 -0.89,0.462 -1.332,0.69c-0.108,-0.201 -0.204,-0.381 -0.305,-0.572c0.263,-0.149 0.51,-0.289 0.765,-0.434c-0.109,-0.19 -0.204,-0.355 -0.304,-0.528c-0.392,0.228 -0.766,0.444 -1.144,0.664c0.28,0.521 0.548,1.02 0.826,1.537c0.701,-0.349 1.387,-0.689 2.069,-1.029c-0.344,-0.968 -1.873,-3.388 -2.505,-3.971c-0.73,0.614 -1.461,1.23 -2.18,1.835c-0.689,-0.733 -1.357,-1.443 -2.041,-2.17c0.562,-0.589 1.132,-1.186 1.722,-1.803c0.471,0.484 0.928,0.954 1.4,1.44c-0.38,0.347 -0.741,0.678 -1.109,1.015c-0.162,-0.174 -0.3,-0.323 -0.444,-0.477c0.218,-0.214 0.418,-0.409 0.629,-0.615c-0.15,-0.151 -0.287,-0.289 -0.43,-0.433c-0.325,0.326 -0.632,0.632 -0.935,0.937c0.409,0.434 0.797,0.847 1.197,1.272c0.585,-0.517 1.16,-1.025 1.753,-1.548c-1.077,-1.155 -2.115,-2.328 -3.464,-3.178c-0.556,0.798 -1.1,1.58 -1.649,2.366c-0.835,-0.559 -1.65,-1.107 -2.48,-1.663c0.355,-0.647 0.751,-1.371 1.158,-2.114c0.587,0.352 1.151,0.689 1.688,1.01c-0.269,0.439 -0.523,0.854 -0.774,1.264c-0.18,-0.114 -0.358,-0.225 -0.541,-0.341c0.145,-0.243 0.288,-0.482 0.44,-0.736c-0.184,-0.109 -0.352,-0.207 -0.529,-0.31c-0.227,0.395 -0.442,0.77 -0.629,1.094c0.495,0.334 0.966,0.652 1.45,0.978c0.436,-0.657 0.863,-1.302 1.298,-1.957c-1.348,-0.836 -2.649,-1.699 -4.168,-2.171c-0.332,0.914 -0.655,1.81 -0.974,2.691c-0.96,-0.29 -1.897,-0.573 -2.853,-0.861c0.195,-0.801 0.391,-1.602 0.591,-2.423c0.66,0.188 1.29,0.368 1.931,0.549c-0.157,0.495 -0.303,0.958 -0.453,1.434c-0.216,-0.067 -0.412,-0.128 -0.62,-0.192c0.08,-0.291 0.154,-0.565 0.233,-0.848c-0.208,-0.057 -0.391,-0.107 -0.586,-0.162c-0.118,0.441 -0.229,0.859 -0.342,1.281c0.565,0.17 1.108,0.334 1.672,0.503c0.247,-0.735 0.492,-1.468 0.744,-2.217c-1.514,-0.463 -2.993,-0.955 -4.587,-1.02c-0.084,0.963 -0.164,1.909 -0.245,2.848c-1.007,-0.031 -1.987,-0.06 -2.978,-0.09c-0.019,-0.821 -0.037,-1.641 -0.057,-2.492c0.679,0.009 1.333,0.02 2.007,0.03c-0.022,0.515 -0.044,0.998 -0.066,1.498c-0.229,-0.009 -0.434,-0.016 -0.648,-0.023c0.002,-0.302 0.004,-0.585 0.006,-0.878c-0.217,-0.002 -0.405,-0.002 -0.609,-0.003c0,0.458 0.001,0.884 0.001,1.324m21.116,13.646c2.641,11.412 -4.611,22.805 -15.871,25.365c-5.715,1.3 -11.089,0.442 -16.062,-2.657c-5.053,-3.149 -8.24,-7.668 -9.516,-13.485c-1.244,-5.674 -0.301,-11.003 2.814,-15.908c3.155,-4.967 7.645,-8.077 13.386,-9.371c11.278,-2.542 22.721,4.631 25.249,16.056" style="fill-opacity:0.894118;fill-rule:nonzero;"/></g><defs><linearGradient id="_Linear2" x1="0" y1="0" x2="1" y2="0" gradientUnits="userSpaceOnUse" gradientTransform="matrix(46.7445,-5.57106,5.57106,46.7445,0.167727,26.3255)"><stop offset="0" style="stop-color:#e3853e;stop-opacity:0.894118"/><stop offset="1" style="stop-color:#ffb848;stop-opacity:0.894118"/></linearGradient><linearGradient id="_Linear4" x1="0" y1="0" x2="1" y2="0" gradientUnits="userSpaceOnUse" gradientTransform="matrix(41.0089,-7.55119,7.55119,41.0089,3.01722,27.3182)"><stop offset="0" style="stop-color:#e3853e;stop-opacity:0.894118"/><stop offset="1" style="stop-color:#ffb848;stop-opacity:0.894118"/></linearGradient><linearGradient id="_Linear6" x1="0" y1="0" x2="1" y2="0" gradientUnits="userSpaceOnUse" gradientTransform="matrix(6.08596,-0.725332,0.725332,6.08596,14.45,21.4117)"><stop offset="0" style="stop-color:#e3853e;stop-opacity:0.894118"/><stop offset="1" style="stop-color:#ffb848;stop-opacity:0.894118"/></linearGradient><linearGradient id="_Linear8" x1="0" y1="0" x2="1" y2="0" gradientUnits="userSpaceOnUse" gradientTransform="matrix(7.15381,-0.852599,0.852599,7.15381,17.8779,29.4174)"><stop offset="0" style="stop-color:#e3853e;stop-opacity:0.894118"/><stop offset="1" style="stop-color:#ffb848;stop-opacity:0.894118"/></linearGradient><linearGradient id="_Linear10" x1="0" y1="0" x2="1" y2="0" gradientUnits="userSpaceOnUse" gradientTransform="matrix(7.75278,-0.923986,0.923986,7.75278,19.8538,33.793)"><stop offset="0" style="stop-color:#e3853e;stop-opacity:0.894118"/><stop offset="1" style="stop-color:#ffb848;stop-opacity:0.894118"/></linearGradient><linearGradient id="_Linear12" x1="0" y1="0" x2="1" y2="0" gradientUnits="userSpaceOnUse" gradientTransform="matrix(1.92042,-0.228878,0.228878,1.92042,11.7768,15.9573)"><stop offset="0" style="stop-color:#e3853e;stop-opacity:0.894118"/><stop offset="1" style="stop-color:#ffb848;stop-opacity:0.894118"/></linearGradient><linearGradient id="_Linear14" x1="0" y1="0" x2="1" y2="0" gradientUnits="userSpaceOnUse" gradientTransform="matrix(1.86656,-0.222458,0.222458,1.86656,11.1218,17.5711)"><stop offset="0" style="stop-color:#e3853e;stop-opacity:0.894118"/><stop offset="1" style="stop-color:#ffb848;stop-opacity:0.894118"/></linearGradient><linearGradient id="_Linear16" x1="0" y1="0" x2="1" y2="0" gradientUnits="userSpaceOnUse" gradientTransform="matrix(1.89699,-0.226085,0.226085,1.89699,10.1513,19.0454)"><stop offset="0" style="stop-color:#e3853e;stop-opacity:0.894118"/><stop offset="1" style="stop-color:#ffb848;stop-opacity:0.894118"/></linearGradient><linearGradient id="_Linear18" x1="0" y1="0" x2="1" y2="0" gradientUnits="userSpaceOnUse" gradientTransform="matrix(1.94188,-0.231436,0.231436,1.94188,9.45573,20.9981)"><stop offset="0" style="stop-color:#e3853e;stop-opacity:0.894118"/><stop offset="1" style="stop-color:#ffb848;stop-opacity:0.894118"/></linearGradient><linearGradient id="_Linear20" x1="0" y1="0" x2="1" y2="0" gradientUnits="userSpaceOnUse" gradientTransform="matrix(2.01631,-0.240306,0.240306,2.01631,8.88482,22.7302)"><stop offset="0" style="stop-color:#e3853e;stop-opacity:0.894118"/><stop offset="1" style="stop-color:#ffb848;stop-opacity:0.894118"/></linearGradient><linearGradient id="_Linear22" x1="0" y1="0" x2="1" y2="0" gradientUnits="userSpaceOnUse" gradientTransform="matrix(1.96597,-0.234306,0.234306,1.96597,8.42245,24.93)"><stop offset="0" style="stop-color:#e3853e;stop-opacity:0.894118"/><stop offset="1" style="stop-color:#ffb848;stop-opacity:0.894118"/></linearGradient><linearGradient id="_Linear24" x1="0" y1="0" x2="1" y2="0" gradientUnits="userSpaceOnUse" gradientTransform="matrix(1.95413,-0.232895,0.232895,1.95413,7.98508,26.954)"><stop offset="0" style="stop-color:#e3853e;stop-opacity:0.894118"/><stop offset="1" style="stop-color:#ffb848;stop-opacity:0.894118"/></linearGradient><linearGradient id="_Linear26" x1="0" y1="0" x2="1" y2="0" gradientUnits="userSpaceOnUse" gradientTransform="matrix(1.86195,-0.221909,0.221909,1.86195,8.03528,28.7676)"><stop offset="0" style="stop-color:#e3853e;stop-opacity:0.894118"/><stop offset="1" style="stop-color:#ffb848;stop-opacity:0.894118"/></linearGradient><linearGradient id="_Linear28" x1="0" y1="0" x2="1" y2="0" gradientUnits="userSpaceOnUse" gradientTransform="matrix(1.35872,-0.161935,0.161935,1.35872,12.9035,19.6775)"><stop offset="0" style="stop-color:#e3853e;stop-opacity:0.894118"/><stop offset="1" style="stop-color:#ffb848;stop-opacity:0.894118"/></linearGradient><linearGradient id="_Linear30" x1="0" y1="0" x2="1" y2="0" gradientUnits="userSpaceOnUse" gradientTransform="matrix(1.32501,-0.157917,0.157917,1.32501,11.9847,23.3536)"><stop offset="0" style="stop-color:#e3853e;stop-opacity:0.894118"/><stop offset="1" style="stop-color:#ffb848;stop-opacity:0.894118"/></linearGradient><linearGradient id="_Linear32" x1="0" y1="0" x2="1" y2="0" gradientUnits="userSpaceOnUse" gradientTransform="matrix(1.10053,-0.131161,0.131161,1.10053,11.9452,26.9793)"><stop offset="0" style="stop-color:#e3853e;stop-opacity:0.894118"/><stop offset="1" style="stop-color:#ffb848;stop-opacity:0.894118"/></linearGradient><linearGradient id="_Linear34" x1="0" y1="0" x2="1" y2="0" gradientUnits="userSpaceOnUse" gradientTransform="matrix(0.97359,-0.116034,0.116034,0.97359,14.3027,27.5855)"><stop offset="0" style="stop-color:#e3853e;stop-opacity:0.894118"/><stop offset="1" style="stop-color:#ffb848;stop-opacity:0.894118"/></linearGradient><linearGradient id="_Linear36" x1="0" y1="0" x2="1" y2="0" gradientUnits="userSpaceOnUse" gradientTransform="matrix(1.07516,-0.128139,0.128139,1.07516,13.1124,31.4591)"><stop offset="0" style="stop-color:#e3853e;stop-opacity:0.894118"/><stop offset="1" style="stop-color:#ffb848;stop-opacity:0.894118"/></linearGradient><linearGradient id="_Linear38" x1="0" y1="0" x2="1" y2="0" gradientUnits="userSpaceOnUse" gradientTransform="matrix(1.06325,-0.126721,0.126721,1.06325,15.6562,30.6181)"><stop offset="0" style="stop-color:#e3853e;stop-opacity:0.894118"/><stop offset="1" style="stop-color:#ffb848;stop-opacity:0.894118"/></linearGradient><linearGradient id="_Linear40" x1="0" y1="0" x2="1" y2="0" gradientUnits="userSpaceOnUse" gradientTransform="matrix(1.17692,-0.140266,0.140266,1.17692,15.5794,34.7233)"><stop offset="0" style="stop-color:#e3853e;stop-opacity:0.894118"/><stop offset="1" style="stop-color:#ffb848;stop-opacity:0.894118"/></linearGradient><linearGradient id="_Linear42" x1="0" y1="0" x2="1" y2="0" gradientUnits="userSpaceOnUse" gradientTransform="matrix(1.20478,-0.143587,0.143587,1.20478,18.2565,33.9395)"><stop offset="0" style="stop-color:#e3853e;stop-opacity:0.894118"/><stop offset="1" style="stop-color:#ffb848;stop-opacity:0.894118"/></linearGradient><linearGradient id="_Linear44" x1="0" y1="0" x2="1" y2="0" gradientUnits="userSpaceOnUse" gradientTransform="matrix(3.33263,-0.397186,0.397186,3.33263,13.3263,15.0784)"><stop offset="0" style="stop-color:#e3853e;stop-opacity:0.894118"/><stop offset="1" style="stop-color:#ffb848;stop-opacity:0.894118"/></linearGradient><linearGradient id="_Linear46" x1="0" y1="0" x2="1" y2="0" gradientUnits="userSpaceOnUse" gradientTransform="matrix(22.0541,-2.62843,2.62843,22.0541,17.4447,24.5608)"><stop offset="0" style="stop-color:#e3853e;stop-opacity:0.894118"/><stop offset="1" style="stop-color:#ffb848;stop-opacity:0.894118"/></linearGradient><linearGradient id="_Linear48" x1="0" y1="0" x2="1" y2="0" gradientUnits="userSpaceOnUse" gradientTransform="matrix(1.37576,-0.163966,0.163966,1.37576,30.0352,29.156)"><stop offset="0" style="stop-color:#e3853e;stop-opacity:0.894118"/><stop offset="1" style="stop-color:#ffb848;stop-opacity:0.894118"/></linearGradient><linearGradient id="_Linear50" x1="0" y1="0" x2="1" y2="0" gradientUnits="userSpaceOnUse" gradientTransform="matrix(1.19063,-0.1419,0.1419,1.19063,34.5933,27.008)"><stop offset="0" style="stop-color:#e3853e;stop-opacity:0.894118"/><stop offset="1" style="stop-color:#ffb848;stop-opacity:0.894118"/></linearGradient><linearGradient id="_Linear52" x1="0" y1="0" x2="1" y2="0" gradientUnits="userSpaceOnUse" gradientTransform="matrix(1.15688,-0.137879,0.137879,1.15688,33.1902,25.8045)"><stop offset="0" style="stop-color:#e3853e;stop-opacity:0.894118"/><stop offset="1" style="stop-color:#ffb848;stop-opacity:0.894118"/></linearGradient><linearGradient id="_Linear54" x1="0" y1="0" x2="1" y2="0" gradientUnits="userSpaceOnUse" gradientTransform="matrix(7.58228,-0.903665,0.903665,7.58228,14.2098,23.2262)"><stop offset="0" style="stop-color:#e3853e;stop-opacity:0.894118"/><stop offset="1" style="stop-color:#ffb848;stop-opacity:0.894118"/></linearGradient><linearGradient id="_Linear56" x1="0" y1="0" x2="1" y2="0" gradientUnits="userSpaceOnUse" gradientTransform="matrix(6.71113,-0.79984,0.79984,6.71113,15.8893,25.2504)"><stop offset="0" style="stop-color:#e3853e;stop-opacity:0.894118"/><stop offset="1" style="stop-color:#ffb848;stop-opacity:0.894118"/></linearGradient><linearGradient id="_Linear58" x1="0" y1="0" x2="1" y2="0" gradientUnits="userSpaceOnUse" gradientTransform="matrix(7.31732,-0.872086,0.872086,7.31732,16.8438,27.1886)"><stop offset="0" style="stop-color:#e3853e;stop-opacity:0.894118"/><stop offset="1" style="stop-color:#ffb848;stop-opacity:0.894118"/></linearGradient><linearGradient id="_Linear60" x1="0" y1="0" x2="1" y2="0" gradientUnits="userSpaceOnUse" gradientTransform="matrix(7.70883,-0.918746,0.918746,7.70883,18.5508,31.5969)"><stop offset="0" style="stop-color:#e3853e;stop-opacity:0.894118"/><stop offset="1" style="stop-color:#ffb848;stop-opacity:0.894118"/></linearGradient><linearGradient id="_Linear62" x1="0" y1="0" x2="1" y2="0" gradientUnits="userSpaceOnUse" gradientTransform="matrix(5.63679,-0.671799,0.671799,5.63679,27.2125,35.2904)"><stop offset="0" style="stop-color:#e3853e;stop-opacity:0.894118"/><stop offset="1" style="stop-color:#ffb848;stop-opacity:0.894118"/></linearGradient></defs></svg>