<?xml version="1.0" encoding="UTF-8" standalone="no"?>
<!DOCTYPE svg PUBLIC "-//W3C//DTD SVG 1.1//EN"
 "http://www.w3.org/Graphics/SVG/1.1/DTD/svg11.dtd">
<!-- Generated by graphviz version 2.40.1 (20161225.0304)
 -->
<!-- Title: dependencies Pages: 1 -->
<svg width="4736pt" height="284pt"
 viewBox="0.00 0.00 4736.00 284.00" xmlns="http://www.w3.org/2000/svg" xmlns:xlink="http://www.w3.org/1999/xlink">
<g id="graph0" class="graph" transform="scale(1 1) rotate(0) translate(4 280)">
<title>dependencies</title>
<polygon fill="#ffffff" stroke="transparent" points="-4,4 -4,-280 4732,-280 4732,4 -4,4"/>
<text text-anchor="start" x="2343.0091" y="-42.4" font-family="sans-serif" font-weight="bold" font-size="14.00" fill="#000000">Legend</text>
<polygon fill="#ffffb3" stroke="transparent" points="2130,-10 2130,-30 2150,-30 2150,-10 2130,-10"/>
<text text-anchor="start" x="2153.629" y="-15.4" font-family="sans-serif" font-size="14.00" fill="#000000"> &#160;Declarations</text>
<polygon fill="#8dd3c7" stroke="transparent" points="2243,-10 2243,-30 2263,-30 2263,-10 2243,-10"/>
<text text-anchor="start" x="2266.7251" y="-15.4" font-family="sans-serif" font-size="14.00" fill="#000000"> &#160;Module</text>
<polygon fill="#80b1d3" stroke="transparent" points="2329,-10 2329,-30 2349,-30 2349,-10 2329,-10"/>
<text text-anchor="start" x="2352.7812" y="-15.4" font-family="sans-serif" font-size="14.00" fill="#000000"> &#160;Bootstrap</text>
<polygon fill="#fdb462" stroke="transparent" points="2426,-10 2426,-30 2446,-30 2446,-10 2426,-10"/>
<text text-anchor="start" x="2449.6732" y="-15.4" font-family="sans-serif" font-size="14.00" fill="#000000"> &#160;Providers</text>
<polygon fill="#fb8072" stroke="transparent" points="2522,-10 2522,-30 2542,-30 2542,-10 2522,-10"/>
<text text-anchor="start" x="2545.7258" y="-15.4" font-family="sans-serif" font-size="14.00" fill="#000000"> &#160;Exports</text>
<g id="clust1" class="cluster">
<title>cluster_SharedModule</title>
<polygon fill="none" stroke="#000000" stroke-dasharray="1,5" points="8,-70 8,-268 4720,-268 4720,-70 8,-70"/>
</g>
<g id="clust2" class="cluster">
<title>cluster_SharedModule_declarations</title>
<polygon fill="none" stroke="#000000" points="1907,-78 1907,-130 4712,-130 4712,-78 1907,-78"/>
</g>
<g id="clust17" class="cluster">
<title>cluster_SharedModule_imports</title>
<polygon fill="none" stroke="#000000" points="16,-78 16,-130 1899,-130 1899,-78 16,-78"/>
</g>
<g id="clust18" class="cluster">
<title>cluster_SharedModule_exports</title>
<polygon fill="none" stroke="#000000" points="74,-208 74,-260 3768,-260 3768,-208 74,-208"/>
</g>
<!-- AsideToggleDirective -->
<g id="node1" class="node">
<title>AsideToggleDirective</title>
<polygon fill="#ffffb3" stroke="#000000" points="4704.3976,-122 4563.6024,-122 4563.6024,-86 4704.3976,-86 4704.3976,-122"/>
<text text-anchor="middle" x="4634" y="-99.8" font-family="Times,serif" font-size="14.00" fill="#000000">AsideToggleDirective</text>
</g>
<!-- SharedModule -->
<g id="node15" class="node">
<title>SharedModule</title>
<polygon fill="#8dd3c7" stroke="#000000" points="1960.4231,-187 1957.4231,-191 1936.4231,-191 1933.4231,-187 1861.5769,-187 1861.5769,-151 1960.4231,-151 1960.4231,-187"/>
<text text-anchor="middle" x="1911" y="-164.8" font-family="Times,serif" font-size="14.00" fill="#000000">SharedModule</text>
</g>
<!-- AsideToggleDirective&#45;&gt;SharedModule -->
<g id="edge1" class="edge">
<title>AsideToggleDirective&#45;&gt;SharedModule</title>
<path fill="none" stroke="#000000" d="M4634,-122.308C4634,-142.1455 4634,-171 4634,-171 4634,-171 1970.2938,-171 1970.2938,-171"/>
<polygon fill="#000000" stroke="#000000" points="1970.2938,-167.5001 1960.2938,-171 1970.2938,-174.5001 1970.2938,-167.5001"/>
</g>
<!-- NAV_DROPDOWN_DIRECTIVES -->
<g id="node2" class="node">
<title>NAV_DROPDOWN_DIRECTIVES</title>
<polygon fill="#ffffb3" stroke="#000000" points="4545.3347,-122 4322.6653,-122 4322.6653,-86 4545.3347,-86 4545.3347,-122"/>
<text text-anchor="middle" x="4434" y="-99.8" font-family="Times,serif" font-size="14.00" fill="#000000">NAV_DROPDOWN_DIRECTIVES</text>
</g>
<!-- NAV_DROPDOWN_DIRECTIVES&#45;&gt;SharedModule -->
<g id="edge2" class="edge">
<title>NAV_DROPDOWN_DIRECTIVES&#45;&gt;SharedModule</title>
<path fill="none" stroke="#000000" d="M4434,-122.1061C4434,-141.3391 4434,-169 4434,-169 4434,-169 1970.2666,-169 1970.2666,-169"/>
<polygon fill="#000000" stroke="#000000" points="1970.2666,-165.5001 1960.2666,-169 1970.2666,-172.5001 1970.2666,-165.5001"/>
</g>
<!-- SIDEBAR_TOGGLE_DIRECTIVES -->
<g id="node3" class="node">
<title>SIDEBAR_TOGGLE_DIRECTIVES</title>
<polygon fill="#ffffb3" stroke="#000000" points="4304.5083,-122 4077.4917,-122 4077.4917,-86 4304.5083,-86 4304.5083,-122"/>
<text text-anchor="middle" x="4191" y="-99.8" font-family="Times,serif" font-size="14.00" fill="#000000">SIDEBAR_TOGGLE_DIRECTIVES</text>
</g>
<!-- SIDEBAR_TOGGLE_DIRECTIVES&#45;&gt;SharedModule -->
<g id="edge3" class="edge">
<title>SIDEBAR_TOGGLE_DIRECTIVES&#45;&gt;SharedModule</title>
<path fill="none" stroke="#000000" d="M4191,-122.1686C4191,-141.0898 4191,-168 4191,-168 4191,-168 1970.474,-168 1970.474,-168"/>
<polygon fill="#000000" stroke="#000000" points="1970.4741,-164.5001 1960.474,-168 1970.474,-171.5001 1970.4741,-164.5001"/>
</g>
<!-- ProcessorTypePipe -->
<g id="node4" class="node">
<title>ProcessorTypePipe</title>
<polygon fill="#ffffb3" stroke="#000000" points="4059.0772,-122 3934.9228,-122 3934.9228,-86 4059.0772,-86 4059.0772,-122"/>
<text text-anchor="middle" x="3997" y="-99.8" font-family="Times,serif" font-size="14.00" fill="#000000">ProcessorTypePipe</text>
</g>
<!-- ProcessorTypePipe&#45;&gt;SharedModule -->
<g id="edge4" class="edge">
<title>ProcessorTypePipe&#45;&gt;SharedModule</title>
<path fill="none" stroke="#000000" d="M3997,-122.2667C3997,-140.5552 3997,-166 3997,-166 3997,-166 1970.2524,-166 1970.2524,-166"/>
<polygon fill="#000000" stroke="#000000" points="1970.2525,-162.5001 1960.2524,-166 1970.2524,-169.5001 1970.2525,-162.5001"/>
</g>
<!-- TransactionStatusPipe -->
<g id="node5" class="node">
<title>TransactionStatusPipe</title>
<polygon fill="#ffffb3" stroke="#000000" points="3916.6937,-122 3775.3063,-122 3775.3063,-86 3916.6937,-86 3916.6937,-122"/>
<text text-anchor="middle" x="3846" y="-99.8" font-family="Times,serif" font-size="14.00" fill="#000000">TransactionStatusPipe</text>
</g>
<!-- TransactionStatusPipe&#45;&gt;SharedModule -->
<g id="edge5" class="edge">
<title>TransactionStatusPipe&#45;&gt;SharedModule</title>
<path fill="none" stroke="#000000" d="M3846,-122.302C3846,-140.2699 3846,-165 3846,-165 3846,-165 1970.2868,-165 1970.2868,-165"/>
<polygon fill="#000000" stroke="#000000" points="1970.2868,-161.5001 1960.2868,-165 1970.2867,-168.5001 1970.2868,-161.5001"/>
</g>
<!-- TransactionsChartWidgetComponent -->
<g id="node6" class="node">
<title>TransactionsChartWidgetComponent</title>
<polygon fill="#ffffb3" stroke="#000000" points="3757.6727,-122 3532.3273,-122 3532.3273,-86 3757.6727,-86 3757.6727,-122"/>
<text text-anchor="middle" x="3645" y="-99.8" font-family="Times,serif" font-size="14.00" fill="#000000">TransactionsChartWidgetComponent</text>
</g>
<!-- TransactionsChartWidgetComponent&#45;&gt;SharedModule -->
<g id="edge6" class="edge">
<title>TransactionsChartWidgetComponent&#45;&gt;SharedModule</title>
<path fill="none" stroke="#000000" d="M3546.9097,-122.0225C3546.9097,-139.3734 3546.9097,-163 3546.9097,-163 3546.9097,-163 1970.4052,-163 1970.4052,-163"/>
<polygon fill="#000000" stroke="#000000" points="1970.4053,-159.5001 1960.4052,-163 1970.4052,-166.5001 1970.4053,-159.5001"/>
</g>
<!-- PaymentsChartWidgetComponent -->
<g id="node7" class="node">
<title>PaymentsChartWidgetComponent</title>
<polygon fill="#ffffb3" stroke="#000000" points="3514.0828,-122 3305.9172,-122 3305.9172,-86 3514.0828,-86 3514.0828,-122"/>
<text text-anchor="middle" x="3410" y="-99.8" font-family="Times,serif" font-size="14.00" fill="#000000">PaymentsChartWidgetComponent</text>
</g>
<!-- PaymentsChartWidgetComponent&#45;&gt;SharedModule -->
<g id="edge7" class="edge">
<title>PaymentsChartWidgetComponent&#45;&gt;SharedModule</title>
<path fill="none" stroke="#000000" d="M3347.6457,-122.0336C3347.6457,-139.0597 3347.6457,-162 3347.6457,-162 3347.6457,-162 1970.4526,-162 1970.4526,-162"/>
<polygon fill="#000000" stroke="#000000" points="1970.4526,-158.5001 1960.4526,-162 1970.4526,-165.5001 1970.4526,-158.5001"/>
</g>
<!-- UploadComponent -->
<g id="node8" class="node">
<title>UploadComponent</title>
<polygon fill="#ffffb3" stroke="#000000" points="3288.045,-122 3165.955,-122 3165.955,-86 3288.045,-86 3288.045,-122"/>
<text text-anchor="middle" x="3227" y="-99.8" font-family="Times,serif" font-size="14.00" fill="#000000">UploadComponent</text>
</g>
<!-- UploadComponent&#45;&gt;SharedModule -->
<g id="edge8" class="edge">
<title>UploadComponent&#45;&gt;SharedModule</title>
<path fill="none" stroke="#000000" d="M3178.0744,-122.027C3178.0744,-138.3976 3178.0744,-160 3178.0744,-160 3178.0744,-160 1970.2819,-160 1970.2819,-160"/>
<polygon fill="#000000" stroke="#000000" points="1970.282,-156.5001 1960.2819,-160 1970.2819,-163.5001 1970.282,-156.5001"/>
</g>
<!-- NewTransactionModalComponent -->
<g id="node9" class="node">
<title>NewTransactionModalComponent</title>
<polygon fill="#ffffb3" stroke="#000000" points="3148.3932,-122 2937.6068,-122 2937.6068,-86 3148.3932,-86 3148.3932,-122"/>
<text text-anchor="middle" x="3043" y="-99.8" font-family="Times,serif" font-size="14.00" fill="#000000">NewTransactionModalComponent</text>
</g>
<!-- NewTransactionModalComponent&#45;&gt;SharedModule -->
<g id="edge9" class="edge">
<title>NewTransactionModalComponent&#45;&gt;SharedModule</title>
<path fill="none" stroke="#000000" d="M2972.4855,-122.0091C2972.4855,-138.0494 2972.4855,-159 2972.4855,-159 2972.4855,-159 1970.4208,-159 1970.4208,-159"/>
<polygon fill="#000000" stroke="#000000" points="1970.4208,-155.5001 1960.4208,-159 1970.4207,-162.5001 1970.4208,-155.5001"/>
</g>
<!-- NewClientModalComponent -->
<g id="node10" class="node">
<title>NewClientModalComponent</title>
<polygon fill="#ffffb3" stroke="#000000" points="2920.0336,-122 2741.9664,-122 2741.9664,-86 2920.0336,-86 2920.0336,-122"/>
<text text-anchor="middle" x="2831" y="-99.8" font-family="Times,serif" font-size="14.00" fill="#000000">NewClientModalComponent</text>
</g>
<!-- NewClientModalComponent&#45;&gt;SharedModule -->
<g id="edge10" class="edge">
<title>NewClientModalComponent&#45;&gt;SharedModule</title>
<path fill="none" stroke="#000000" d="M2752.1187,-122.2396C2752.1187,-137.5706 2752.1187,-157 2752.1187,-157 2752.1187,-157 1970.4756,-157 1970.4756,-157"/>
<polygon fill="#000000" stroke="#000000" points="1970.4756,-153.5001 1960.4756,-157 1970.4756,-160.5001 1970.4756,-153.5001"/>
</g>
<!-- TermsAndConditionsModalComponent -->
<g id="node11" class="node">
<title>TermsAndConditionsModalComponent</title>
<polygon fill="#ffffb3" stroke="#000000" points="2723.7049,-122 2484.2951,-122 2484.2951,-86 2723.7049,-86 2723.7049,-122"/>
<text text-anchor="middle" x="2604" y="-99.8" font-family="Times,serif" font-size="14.00" fill="#000000">TermsAndConditionsModalComponent</text>
</g>
<!-- TermsAndConditionsModalComponent&#45;&gt;SharedModule -->
<g id="edge11" class="edge">
<title>TermsAndConditionsModalComponent&#45;&gt;SharedModule</title>
<path fill="none" stroke="#000000" d="M2499.0931,-122.1871C2499.0931,-137.1824 2499.0931,-156 2499.0931,-156 2499.0931,-156 1970.381,-156 1970.381,-156"/>
<polygon fill="#000000" stroke="#000000" points="1970.3811,-152.5001 1960.381,-156 1970.381,-159.5001 1970.3811,-152.5001"/>
</g>
<!-- ViewImageModalComponent -->
<g id="node12" class="node">
<title>ViewImageModalComponent</title>
<polygon fill="#ffffb3" stroke="#000000" points="2466.6811,-122 2283.3189,-122 2283.3189,-86 2466.6811,-86 2466.6811,-122"/>
<text text-anchor="middle" x="2375" y="-99.8" font-family="Times,serif" font-size="14.00" fill="#000000">ViewImageModalComponent</text>
</g>
<!-- ViewImageModalComponent&#45;&gt;SharedModule -->
<g id="edge12" class="edge">
<title>ViewImageModalComponent&#45;&gt;SharedModule</title>
<path fill="none" stroke="#000000" d="M2325.8782,-122.0511C2325.8782,-136.373 2325.8782,-154 2325.8782,-154 2325.8782,-154 1970.2212,-154 1970.2212,-154"/>
<polygon fill="#000000" stroke="#000000" points="1970.2212,-150.5001 1960.2212,-154 1970.2211,-157.5001 1970.2212,-150.5001"/>
</g>
<!-- SelectClientModalComponent -->
<g id="node13" class="node">
<title>SelectClientModalComponent</title>
<polygon fill="#ffffb3" stroke="#000000" points="2265.3131,-122 2078.6869,-122 2078.6869,-86 2265.3131,-86 2265.3131,-122"/>
<text text-anchor="middle" x="2172" y="-99.8" font-family="Times,serif" font-size="14.00" fill="#000000">SelectClientModalComponent</text>
</g>
<!-- SelectClientModalComponent&#45;&gt;SharedModule -->
<g id="edge13" class="edge">
<title>SelectClientModalComponent&#45;&gt;SharedModule</title>
<path fill="none" stroke="#000000" d="M2142.09,-122.2458C2142.09,-136.1772 2142.09,-153 2142.09,-153 2142.09,-153 1970.2911,-153 1970.2911,-153"/>
<polygon fill="#000000" stroke="#000000" points="1970.2912,-149.5001 1960.2911,-153 1970.2911,-156.5001 1970.2912,-149.5001"/>
</g>
<!-- TourModalComponent -->
<g id="node14" class="node">
<title>TourModalComponent</title>
<polygon fill="#ffffb3" stroke="#000000" points="2060.5954,-122 1915.4046,-122 1915.4046,-86 2060.5954,-86 2060.5954,-122"/>
<text text-anchor="middle" x="1988" y="-99.8" font-family="Times,serif" font-size="14.00" fill="#000000">TourModalComponent</text>
</g>
<!-- TourModalComponent&#45;&gt;SharedModule -->
<g id="edge14" class="edge">
<title>TourModalComponent&#45;&gt;SharedModule</title>
<path fill="none" stroke="#000000" d="M1937.8317,-122.1061C1937.8317,-122.1061 1937.8317,-140.991 1937.8317,-140.991"/>
<polygon fill="#000000" stroke="#000000" points="1934.3318,-140.9909 1937.8317,-150.991 1941.3318,-140.991 1934.3318,-140.9909"/>
</g>
<!-- MyDateRangePickerModule  -->
<g id="node30" class="node">
<title>MyDateRangePickerModule </title>
<polygon fill="#fb8072" stroke="#000000" points="3760.4502,-252 3579.5498,-252 3579.5498,-216 3760.4502,-216 3760.4502,-252"/>
<text text-anchor="middle" x="3670" y="-229.8" font-family="Times,serif" font-size="14.00" fill="#000000">MyDateRangePickerModule </text>
</g>
<!-- SharedModule&#45;&gt;MyDateRangePickerModule  -->
<g id="edge29" class="edge">
<title>SharedModule&#45;&gt;MyDateRangePickerModule </title>
<path fill="none" stroke="#000000" stroke-dasharray="5,2" d="M1960.3078,-172C2245.2683,-172 3668.6808,-172 3668.6808,-172 3668.6808,-172 3668.6808,-205.7333 3668.6808,-205.7333"/>
<polygon fill="#000000" stroke="#000000" points="3665.1808,-205.7333 3668.6808,-215.7333 3672.1808,-205.7333 3665.1808,-205.7333"/>
</g>
<!-- CarouselModule  -->
<g id="node31" class="node">
<title>CarouselModule </title>
<polygon fill="#fb8072" stroke="#000000" points="3561.3116,-252 3448.6884,-252 3448.6884,-216 3561.3116,-216 3561.3116,-252"/>
<text text-anchor="middle" x="3505" y="-229.8" font-family="Times,serif" font-size="14.00" fill="#000000">CarouselModule </text>
</g>
<!-- SharedModule&#45;&gt;CarouselModule  -->
<g id="edge30" class="edge">
<title>SharedModule&#45;&gt;CarouselModule </title>
<path fill="none" stroke="#000000" stroke-dasharray="5,2" d="M1960.5901,-174C2227.5133,-174 3481.3179,-174 3481.3179,-174 3481.3179,-174 3481.3179,-205.998 3481.3179,-205.998"/>
<polygon fill="#000000" stroke="#000000" points="3477.8179,-205.998 3481.3179,-215.998 3484.8179,-205.9981 3477.8179,-205.998"/>
</g>
<!-- FileUploadModule  -->
<g id="node32" class="node">
<title>FileUploadModule </title>
<polygon fill="#fb8072" stroke="#000000" points="3431.04,-252 3304.96,-252 3304.96,-216 3431.04,-216 3431.04,-252"/>
<text text-anchor="middle" x="3368" y="-229.8" font-family="Times,serif" font-size="14.00" fill="#000000">FileUploadModule </text>
</g>
<!-- SharedModule&#45;&gt;FileUploadModule  -->
<g id="edge31" class="edge">
<title>SharedModule&#45;&gt;FileUploadModule </title>
<path fill="none" stroke="#000000" stroke-dasharray="5,2" d="M1960.6095,-175C2217.9856,-175 3389.3329,-175 3389.3329,-175 3389.3329,-175 3389.3329,-205.9775 3389.3329,-205.9775"/>
<polygon fill="#000000" stroke="#000000" points="3385.833,-205.9774 3389.3329,-215.9775 3392.833,-205.9775 3385.833,-205.9774"/>
</g>
<!-- ModalModule  -->
<g id="node33" class="node">
<title>ModalModule </title>
<polygon fill="#fb8072" stroke="#000000" points="3286.6004,-252 3187.3996,-252 3187.3996,-216 3286.6004,-216 3286.6004,-252"/>
<text text-anchor="middle" x="3237" y="-229.8" font-family="Times,serif" font-size="14.00" fill="#000000">ModalModule </text>
</g>
<!-- SharedModule&#45;&gt;ModalModule  -->
<g id="edge32" class="edge">
<title>SharedModule&#45;&gt;ModalModule </title>
<path fill="none" stroke="#000000" stroke-dasharray="5,2" d="M1960.5607,-177C2201.2838,-177 3237,-177 3237,-177 3237,-177 3237,-205.9648 3237,-205.9648"/>
<polygon fill="#000000" stroke="#000000" points="3233.5001,-205.9648 3237,-215.9648 3240.5001,-205.9649 3233.5001,-205.9648"/>
</g>
<!-- AsideToggleDirective  -->
<g id="node34" class="node">
<title>AsideToggleDirective </title>
<polygon fill="#fb8072" stroke="#000000" points="3168.897,-252 3025.103,-252 3025.103,-216 3168.897,-216 3168.897,-252"/>
<text text-anchor="middle" x="3097" y="-229.8" font-family="Times,serif" font-size="14.00" fill="#000000">AsideToggleDirective </text>
</g>
<!-- SharedModule&#45;&gt;AsideToggleDirective  -->
<g id="edge33" class="edge">
<title>SharedModule&#45;&gt;AsideToggleDirective </title>
<path fill="none" stroke="#000000" stroke-dasharray="5,2" d="M1960.3906,-178C2183.5207,-178 3086.624,-178 3086.624,-178 3086.624,-178 3086.624,-205.973 3086.624,-205.973"/>
<polygon fill="#000000" stroke="#000000" points="3083.124,-205.973 3086.624,-215.973 3090.124,-205.973 3083.124,-205.973"/>
</g>
<!-- NAV_DROPDOWN_DIRECTIVES  -->
<g id="node35" class="node">
<title>NAV_DROPDOWN_DIRECTIVES </title>
<polygon fill="#fb8072" stroke="#000000" points="3007.3348,-252 2780.6652,-252 2780.6652,-216 3007.3348,-216 3007.3348,-252"/>
<text text-anchor="middle" x="2894" y="-229.8" font-family="Times,serif" font-size="14.00" fill="#000000">NAV_DROPDOWN_DIRECTIVES </text>
</g>
<!-- SharedModule&#45;&gt;NAV_DROPDOWN_DIRECTIVES  -->
<g id="edge34" class="edge">
<title>SharedModule&#45;&gt;NAV_DROPDOWN_DIRECTIVES </title>
<path fill="none" stroke="#000000" stroke-dasharray="5,2" d="M1960.5207,-180C2154.3008,-180 2850.5496,-180 2850.5496,-180 2850.5496,-180 2850.5496,-205.7181 2850.5496,-205.7181"/>
<polygon fill="#000000" stroke="#000000" points="2847.0497,-205.718 2850.5496,-215.7181 2854.0497,-205.7181 2847.0497,-205.718"/>
</g>
<!-- SIDEBAR_TOGGLE_DIRECTIVES  -->
<g id="node36" class="node">
<title>SIDEBAR_TOGGLE_DIRECTIVES </title>
<polygon fill="#fb8072" stroke="#000000" points="2762.5078,-252 2531.4922,-252 2531.4922,-216 2762.5078,-216 2762.5078,-252"/>
<text text-anchor="middle" x="2647" y="-229.8" font-family="Times,serif" font-size="14.00" fill="#000000">SIDEBAR_TOGGLE_DIRECTIVES </text>
</g>
<!-- SharedModule&#45;&gt;SIDEBAR_TOGGLE_DIRECTIVES  -->
<g id="edge35" class="edge">
<title>SharedModule&#45;&gt;SIDEBAR_TOGGLE_DIRECTIVES </title>
<path fill="none" stroke="#000000" stroke-dasharray="5,2" d="M1960.2513,-181C2122.1402,-181 2627.5493,-181 2627.5493,-181 2627.5493,-181 2627.5493,-205.7604 2627.5493,-205.7604"/>
<polygon fill="#000000" stroke="#000000" points="2624.0493,-205.7604 2627.5493,-215.7604 2631.0493,-205.7604 2624.0493,-205.7604"/>
</g>
<!-- ProcessorTypePipe  -->
<g id="node37" class="node">
<title>ProcessorTypePipe </title>
<polygon fill="#fb8072" stroke="#000000" points="2513.5779,-252 2386.4221,-252 2386.4221,-216 2513.5779,-216 2513.5779,-252"/>
<text text-anchor="middle" x="2450" y="-229.8" font-family="Times,serif" font-size="14.00" fill="#000000">ProcessorTypePipe </text>
</g>
<!-- SharedModule&#45;&gt;ProcessorTypePipe  -->
<g id="edge36" class="edge">
<title>SharedModule&#45;&gt;ProcessorTypePipe </title>
<path fill="none" stroke="#000000" stroke-dasharray="5,2" d="M1960.4188,-183C2089.4195,-183 2426.401,-183 2426.401,-183 2426.401,-183 2426.401,-205.8757 2426.401,-205.8757"/>
<polygon fill="#000000" stroke="#000000" points="2422.901,-205.8757 2426.401,-215.8757 2429.901,-205.8757 2422.901,-205.8757"/>
</g>
<!-- TransactionStatusPipe  -->
<g id="node38" class="node">
<title>TransactionStatusPipe </title>
<polygon fill="#fb8072" stroke="#000000" points="2368.1939,-252 2223.8061,-252 2223.8061,-216 2368.1939,-216 2368.1939,-252"/>
<text text-anchor="middle" x="2296" y="-229.8" font-family="Times,serif" font-size="14.00" fill="#000000">TransactionStatusPipe </text>
</g>
<!-- SharedModule&#45;&gt;TransactionStatusPipe  -->
<g id="edge37" class="edge">
<title>SharedModule&#45;&gt;TransactionStatusPipe </title>
<path fill="none" stroke="#000000" stroke-dasharray="5,2" d="M1960.5541,-184C2053.4303,-184 2244.4048,-184 2244.4048,-184 2244.4048,-184 2244.4048,-205.9489 2244.4048,-205.9489"/>
<polygon fill="#000000" stroke="#000000" points="2240.9049,-205.9488 2244.4048,-215.9489 2247.9049,-205.9489 2240.9049,-205.9488"/>
</g>
<!-- TransactionsChartWidgetComponent  -->
<g id="node39" class="node">
<title>TransactionsChartWidgetComponent </title>
<polygon fill="#fb8072" stroke="#000000" points="2205.1728,-252 1976.8272,-252 1976.8272,-216 2205.1728,-216 2205.1728,-252"/>
<text text-anchor="middle" x="2091" y="-229.8" font-family="Times,serif" font-size="14.00" fill="#000000">TransactionsChartWidgetComponent </text>
</g>
<!-- SharedModule&#45;&gt;TransactionsChartWidgetComponent  -->
<g id="edge38" class="edge">
<title>SharedModule&#45;&gt;TransactionsChartWidgetComponent </title>
<path fill="none" stroke="#000000" stroke-dasharray="5,2" d="M1960.3937,-186C1988.6815,-186 2018.6057,-186 2018.6057,-186 2018.6057,-186 2018.6057,-205.8533 2018.6057,-205.8533"/>
<polygon fill="#000000" stroke="#000000" points="2015.1058,-205.8532 2018.6057,-215.8533 2022.1058,-205.8533 2015.1058,-205.8532"/>
</g>
<!-- PaymentsChartWidgetComponent  -->
<g id="node40" class="node">
<title>PaymentsChartWidgetComponent </title>
<polygon fill="#fb8072" stroke="#000000" points="1958.5832,-252 1747.4168,-252 1747.4168,-216 1958.5832,-216 1958.5832,-252"/>
<text text-anchor="middle" x="1853" y="-229.8" font-family="Times,serif" font-size="14.00" fill="#000000">PaymentsChartWidgetComponent </text>
</g>
<!-- SharedModule&#45;&gt;PaymentsChartWidgetComponent  -->
<g id="edge39" class="edge">
<title>SharedModule&#45;&gt;PaymentsChartWidgetComponent </title>
<path fill="none" stroke="#000000" stroke-dasharray="5,2" d="M1910.2902,-187.1061C1910.2902,-187.1061 1910.2902,-205.991 1910.2902,-205.991"/>
<polygon fill="#000000" stroke="#000000" points="1906.7902,-205.9909 1910.2902,-215.991 1913.7902,-205.991 1906.7902,-205.9909"/>
</g>
<!-- UploadComponent  -->
<g id="node41" class="node">
<title>UploadComponent </title>
<polygon fill="#fb8072" stroke="#000000" points="1729.0442,-252 1602.9558,-252 1602.9558,-216 1729.0442,-216 1729.0442,-252"/>
<text text-anchor="middle" x="1666" y="-229.8" font-family="Times,serif" font-size="14.00" fill="#000000">UploadComponent </text>
</g>
<!-- SharedModule&#45;&gt;UploadComponent  -->
<g id="edge40" class="edge">
<title>SharedModule&#45;&gt;UploadComponent </title>
<path fill="none" stroke="#000000" stroke-dasharray="5,2" d="M1861.5566,-186C1796.5999,-186 1690.6832,-186 1690.6832,-186 1690.6832,-186 1690.6832,-205.8533 1690.6832,-205.8533"/>
<polygon fill="#000000" stroke="#000000" points="1687.1833,-205.8532 1690.6832,-215.8533 1694.1833,-205.8533 1687.1833,-205.8532"/>
</g>
<!-- NewTransactionModalComponent  -->
<g id="node42" class="node">
<title>NewTransactionModalComponent </title>
<polygon fill="#fb8072" stroke="#000000" points="1584.8928,-252 1371.1072,-252 1371.1072,-216 1584.8928,-216 1584.8928,-252"/>
<text text-anchor="middle" x="1478" y="-229.8" font-family="Times,serif" font-size="14.00" fill="#000000">NewTransactionModalComponent </text>
</g>
<!-- SharedModule&#45;&gt;NewTransactionModalComponent  -->
<g id="edge41" class="edge">
<title>SharedModule&#45;&gt;NewTransactionModalComponent </title>
<path fill="none" stroke="#000000" stroke-dasharray="5,2" d="M1861.757,-184C1765.5938,-184 1562.1412,-184 1562.1412,-184 1562.1412,-184 1562.1412,-205.9489 1562.1412,-205.9489"/>
<polygon fill="#000000" stroke="#000000" points="1558.6412,-205.9488 1562.1412,-215.9489 1565.6412,-205.9489 1558.6412,-205.9488"/>
</g>
<!-- NewClientModalComponent  -->
<g id="node43" class="node">
<title>NewClientModalComponent </title>
<polygon fill="#fb8072" stroke="#000000" points="1353.033,-252 1170.967,-252 1170.967,-216 1353.033,-216 1353.033,-252"/>
<text text-anchor="middle" x="1262" y="-229.8" font-family="Times,serif" font-size="14.00" fill="#000000">NewClientModalComponent </text>
</g>
<!-- SharedModule&#45;&gt;NewClientModalComponent  -->
<g id="edge42" class="edge">
<title>SharedModule&#45;&gt;NewClientModalComponent </title>
<path fill="none" stroke="#000000" stroke-dasharray="5,2" d="M1861.5576,-183C1721.3204,-183 1331.0952,-183 1331.0952,-183 1331.0952,-183 1331.0952,-205.8757 1331.0952,-205.8757"/>
<polygon fill="#000000" stroke="#000000" points="1327.5953,-205.8757 1331.0952,-215.8757 1334.5953,-205.8757 1327.5953,-205.8757"/>
</g>
<!-- TermsAndConditionsModalComponent  -->
<g id="node44" class="node">
<title>TermsAndConditionsModalComponent </title>
<polygon fill="#fb8072" stroke="#000000" points="1153.205,-252 910.795,-252 910.795,-216 1153.205,-216 1153.205,-252"/>
<text text-anchor="middle" x="1032" y="-229.8" font-family="Times,serif" font-size="14.00" fill="#000000">TermsAndConditionsModalComponent </text>
</g>
<!-- SharedModule&#45;&gt;TermsAndConditionsModalComponent  -->
<g id="edge43" class="edge">
<title>SharedModule&#45;&gt;TermsAndConditionsModalComponent </title>
<path fill="none" stroke="#000000" stroke-dasharray="5,2" d="M1861.5059,-181C1690.3456,-181 1133.9388,-181 1133.9388,-181 1133.9388,-181 1133.9388,-205.7604 1133.9388,-205.7604"/>
<polygon fill="#000000" stroke="#000000" points="1130.4389,-205.7604 1133.9388,-215.7604 1137.4389,-205.7604 1130.4389,-205.7604"/>
</g>
<!-- ViewImageModalComponent  -->
<g id="node45" class="node">
<title>ViewImageModalComponent </title>
<polygon fill="#fb8072" stroke="#000000" points="892.1813,-252 705.8187,-252 705.8187,-216 892.1813,-216 892.1813,-252"/>
<text text-anchor="middle" x="799" y="-229.8" font-family="Times,serif" font-size="14.00" fill="#000000">ViewImageModalComponent </text>
</g>
<!-- SharedModule&#45;&gt;ViewImageModalComponent  -->
<g id="edge44" class="edge">
<title>SharedModule&#45;&gt;ViewImageModalComponent </title>
<path fill="none" stroke="#000000" stroke-dasharray="5,2" d="M1861.7437,-180C1654.9971,-180 867.9767,-180 867.9767,-180 867.9767,-180 867.9767,-205.7181 867.9767,-205.7181"/>
<polygon fill="#000000" stroke="#000000" points="864.4768,-205.718 867.9767,-215.7181 871.4768,-205.7181 864.4768,-205.718"/>
</g>
<!-- SelectClientModalComponent  -->
<g id="node46" class="node">
<title>SelectClientModalComponent </title>
<polygon fill="#fb8072" stroke="#000000" points="687.8129,-252 498.1871,-252 498.1871,-216 687.8129,-216 687.8129,-252"/>
<text text-anchor="middle" x="593" y="-229.8" font-family="Times,serif" font-size="14.00" fill="#000000">SelectClientModalComponent </text>
</g>
<!-- SharedModule&#45;&gt;SelectClientModalComponent  -->
<g id="edge45" class="edge">
<title>SharedModule&#45;&gt;SelectClientModalComponent </title>
<path fill="none" stroke="#000000" stroke-dasharray="5,2" d="M1861.4008,-178C1626.3345,-178 635.7674,-178 635.7674,-178 635.7674,-178 635.7674,-205.973 635.7674,-205.973"/>
<polygon fill="#000000" stroke="#000000" points="632.2674,-205.973 635.7674,-215.973 639.2674,-205.973 632.2674,-205.973"/>
</g>
<!-- PopoverModule  -->
<g id="node47" class="node">
<title>PopoverModule </title>
<polygon fill="#fb8072" stroke="#000000" points="479.708,-252 370.292,-252 370.292,-216 479.708,-216 479.708,-252"/>
<text text-anchor="middle" x="425" y="-229.8" font-family="Times,serif" font-size="14.00" fill="#000000">PopoverModule </text>
</g>
<!-- SharedModule&#45;&gt;PopoverModule  -->
<g id="edge46" class="edge">
<title>SharedModule&#45;&gt;PopoverModule </title>
<path fill="none" stroke="#000000" stroke-dasharray="5,2" d="M1861.5477,-177C1607.6269,-177 462.1867,-177 462.1867,-177 462.1867,-177 462.1867,-205.9648 462.1867,-205.9648"/>
<polygon fill="#000000" stroke="#000000" points="458.6868,-205.9648 462.1867,-215.9648 465.6868,-205.9649 458.6868,-205.9648"/>
</g>
<!-- TooltipModule  -->
<g id="node48" class="node">
<title>TooltipModule </title>
<polygon fill="#fb8072" stroke="#000000" points="352.2746,-252 247.7254,-252 247.7254,-216 352.2746,-216 352.2746,-252"/>
<text text-anchor="middle" x="300" y="-229.8" font-family="Times,serif" font-size="14.00" fill="#000000">TooltipModule </text>
</g>
<!-- SharedModule&#45;&gt;TooltipModule  -->
<g id="edge47" class="edge">
<title>SharedModule&#45;&gt;TooltipModule </title>
<path fill="none" stroke="#000000" stroke-dasharray="5,2" d="M1861.4476,-175C1593.2989,-175 327.9335,-175 327.9335,-175 327.9335,-175 327.9335,-205.9775 327.9335,-205.9775"/>
<polygon fill="#000000" stroke="#000000" points="324.4336,-205.9774 327.9335,-215.9775 331.4336,-205.9775 324.4336,-205.9774"/>
</g>
<!-- TourModalComponent  -->
<g id="node49" class="node">
<title>TourModalComponent </title>
<polygon fill="#fb8072" stroke="#000000" points="230.0959,-252 81.9041,-252 81.9041,-216 230.0959,-216 230.0959,-252"/>
<text text-anchor="middle" x="156" y="-229.8" font-family="Times,serif" font-size="14.00" fill="#000000">TourModalComponent </text>
</g>
<!-- SharedModule&#45;&gt;TourModalComponent  -->
<g id="edge48" class="edge">
<title>SharedModule&#45;&gt;TourModalComponent </title>
<path fill="none" stroke="#000000" stroke-dasharray="5,2" d="M1861.7854,-173C1582.0847,-173 205.097,-173 205.097,-173 205.097,-173 205.097,-205.698 205.097,-205.698"/>
<polygon fill="#000000" stroke="#000000" points="201.597,-205.698 205.097,-215.698 208.597,-205.698 201.597,-205.698"/>
</g>
<!-- CommonModule -->
<g id="node16" class="node">
<title>CommonModule</title>
<polygon fill="#8dd3c7" stroke="#000000" points="1890.6681,-122 1887.6681,-126 1866.6681,-126 1863.6681,-122 1779.3319,-122 1779.3319,-86 1890.6681,-86 1890.6681,-122"/>
<text text-anchor="middle" x="1835" y="-99.8" font-family="Times,serif" font-size="14.00" fill="#000000">CommonModule</text>
</g>
<!-- CommonModule&#45;&gt;SharedModule -->
<g id="edge15" class="edge">
<title>CommonModule&#45;&gt;SharedModule</title>
<path fill="none" stroke="#000000" d="M1876.3114,-122.1061C1876.3114,-122.1061 1876.3114,-140.991 1876.3114,-140.991"/>
<polygon fill="#000000" stroke="#000000" points="1872.8114,-140.9909 1876.3114,-150.991 1879.8114,-140.991 1872.8114,-140.9909"/>
</g>
<!-- CarouselModule -->
<g id="node17" class="node">
<title>CarouselModule</title>
<polygon fill="#8dd3c7" stroke="#000000" points="1761.8118,-122 1758.8118,-126 1737.8118,-126 1734.8118,-122 1652.1882,-122 1652.1882,-86 1761.8118,-86 1761.8118,-122"/>
<text text-anchor="middle" x="1707" y="-99.8" font-family="Times,serif" font-size="14.00" fill="#000000">CarouselModule</text>
</g>
<!-- CarouselModule&#45;&gt;SharedModule -->
<g id="edge16" class="edge">
<title>CarouselModule&#45;&gt;SharedModule</title>
<path fill="none" stroke="#000000" d="M1754.4322,-122.2458C1754.4322,-136.1772 1754.4322,-153 1754.4322,-153 1754.4322,-153 1851.461,-153 1851.461,-153"/>
<polygon fill="#000000" stroke="#000000" points="1851.461,-156.5001 1861.461,-153 1851.4609,-149.5001 1851.461,-156.5001"/>
</g>
<!-- FormsModule -->
<g id="node18" class="node">
<title>FormsModule</title>
<polygon fill="#8dd3c7" stroke="#000000" points="1634.8288,-122 1631.8288,-126 1610.8288,-126 1607.8288,-122 1539.1712,-122 1539.1712,-86 1634.8288,-86 1634.8288,-122"/>
<text text-anchor="middle" x="1587" y="-99.8" font-family="Times,serif" font-size="14.00" fill="#000000">FormsModule</text>
</g>
<!-- FormsModule&#45;&gt;SharedModule -->
<g id="edge17" class="edge">
<title>FormsModule&#45;&gt;SharedModule</title>
<path fill="none" stroke="#000000" d="M1618.821,-122.1243C1618.821,-136.7832 1618.821,-155 1618.821,-155 1618.821,-155 1851.7662,-155 1851.7662,-155"/>
<polygon fill="#000000" stroke="#000000" points="1851.7662,-158.5001 1861.7662,-155 1851.7662,-151.5001 1851.7662,-158.5001"/>
</g>
<!-- ModalModule -->
<g id="node19" class="node">
<title>ModalModule</title>
<polygon fill="#8dd3c7" stroke="#000000" points="1521.0997,-122 1518.0997,-126 1497.0997,-126 1494.0997,-122 1424.9003,-122 1424.9003,-86 1521.0997,-86 1521.0997,-122"/>
<text text-anchor="middle" x="1473" y="-99.8" font-family="Times,serif" font-size="14.00" fill="#000000">ModalModule</text>
</g>
<!-- ModalModule&#45;&gt;SharedModule -->
<g id="edge18" class="edge">
<title>ModalModule&#45;&gt;SharedModule</title>
<path fill="none" stroke="#000000" d="M1473,-122.1871C1473,-137.1824 1473,-156 1473,-156 1473,-156 1851.6072,-156 1851.6072,-156"/>
<polygon fill="#000000" stroke="#000000" points="1851.6073,-159.5001 1861.6072,-156 1851.6072,-152.5001 1851.6073,-159.5001"/>
</g>
<!-- RouterModule -->
<g id="node20" class="node">
<title>RouterModule</title>
<polygon fill="#8dd3c7" stroke="#000000" points="1406.6528,-122 1403.6528,-126 1382.6528,-126 1379.6528,-122 1309.3472,-122 1309.3472,-86 1406.6528,-86 1406.6528,-122"/>
<text text-anchor="middle" x="1358" y="-99.8" font-family="Times,serif" font-size="14.00" fill="#000000">RouterModule</text>
</g>
<!-- RouterModule&#45;&gt;SharedModule -->
<g id="edge19" class="edge">
<title>RouterModule&#45;&gt;SharedModule</title>
<path fill="none" stroke="#000000" d="M1388.9399,-122.2819C1388.9399,-137.9478 1388.9399,-158 1388.9399,-158 1388.9399,-158 1851.4152,-158 1851.4152,-158"/>
<polygon fill="#000000" stroke="#000000" points="1851.4152,-161.5001 1861.4152,-158 1851.4152,-154.5001 1851.4152,-161.5001"/>
</g>
<!-- MyDateRangePickerModule -->
<g id="node21" class="node">
<title>MyDateRangePickerModule</title>
<polygon fill="#8dd3c7" stroke="#000000" points="1291.4496,-122 1288.4496,-126 1267.4496,-126 1264.4496,-122 1114.5504,-122 1114.5504,-86 1291.4496,-86 1291.4496,-122"/>
<text text-anchor="middle" x="1203" y="-99.8" font-family="Times,serif" font-size="14.00" fill="#000000">MyDateRangePickerModule</text>
</g>
<!-- MyDateRangePickerModule&#45;&gt;SharedModule -->
<g id="edge20" class="edge">
<title>MyDateRangePickerModule&#45;&gt;SharedModule</title>
<path fill="none" stroke="#000000" d="M1231.2292,-122.0091C1231.2292,-138.0494 1231.2292,-159 1231.2292,-159 1231.2292,-159 1851.565,-159 1851.565,-159"/>
<polygon fill="#000000" stroke="#000000" points="1851.565,-162.5001 1861.565,-159 1851.565,-155.5001 1851.565,-162.5001"/>
</g>
<!-- BsDropdownModule -->
<g id="node22" class="node">
<title>BsDropdownModule</title>
<polygon fill="#8dd3c7" stroke="#000000" points="1096.205,-122 1093.205,-126 1072.205,-126 1069.205,-122 961.795,-122 961.795,-86 1096.205,-86 1096.205,-122"/>
<text text-anchor="middle" x="1029" y="-99.8" font-family="Times,serif" font-size="14.00" fill="#000000">BsDropdownModule</text>
</g>
<!-- BsDropdownModule&#45;&gt;SharedModule -->
<g id="edge21" class="edge">
<title>BsDropdownModule&#45;&gt;SharedModule</title>
<path fill="none" stroke="#000000" d="M1029,-122.0352C1029,-138.7344 1029,-161 1029,-161 1029,-161 1851.6899,-161 1851.6899,-161"/>
<polygon fill="#000000" stroke="#000000" points="1851.69,-164.5001 1861.6899,-161 1851.6899,-157.5001 1851.69,-164.5001"/>
</g>
<!-- TooltipModule -->
<g id="node23" class="node">
<title>TooltipModule</title>
<polygon fill="#8dd3c7" stroke="#000000" points="944.2745,-122 941.2745,-126 920.2745,-126 917.2745,-122 843.7255,-122 843.7255,-86 944.2745,-86 944.2745,-122"/>
<text text-anchor="middle" x="894" y="-99.8" font-family="Times,serif" font-size="14.00" fill="#000000">TooltipModule</text>
</g>
<!-- TooltipModule&#45;&gt;SharedModule -->
<g id="edge22" class="edge">
<title>TooltipModule&#45;&gt;SharedModule</title>
<path fill="none" stroke="#000000" d="M927.5174,-122.0336C927.5174,-139.0597 927.5174,-162 927.5174,-162 927.5174,-162 1851.5549,-162 1851.5549,-162"/>
<polygon fill="#000000" stroke="#000000" points="1851.555,-165.5001 1861.5549,-162 1851.5549,-158.5001 1851.555,-165.5001"/>
</g>
<!-- ChartsModule -->
<g id="node24" class="node">
<title>ChartsModule</title>
<polygon fill="#8dd3c7" stroke="#000000" points="826.0968,-122 823.0968,-126 802.0968,-126 799.0968,-122 729.9032,-122 729.9032,-86 826.0968,-86 826.0968,-122"/>
<text text-anchor="middle" x="778" y="-99.8" font-family="Times,serif" font-size="14.00" fill="#000000">ChartsModule</text>
</g>
<!-- ChartsModule&#45;&gt;SharedModule -->
<g id="edge23" class="edge">
<title>ChartsModule&#45;&gt;SharedModule</title>
<path fill="none" stroke="#000000" d="M778,-122.002C778,-139.6754 778,-164 778,-164 778,-164 1851.5879,-164 1851.5879,-164"/>
<polygon fill="#000000" stroke="#000000" points="1851.5879,-167.5001 1861.5879,-164 1851.5878,-160.5001 1851.5879,-167.5001"/>
</g>
<!-- NgUploaderModule -->
<g id="node25" class="node">
<title>NgUploaderModule</title>
<polygon fill="#8dd3c7" stroke="#000000" points="712.2437,-122 709.2437,-126 688.2437,-126 685.2437,-122 583.7563,-122 583.7563,-86 712.2437,-86 712.2437,-122"/>
<text text-anchor="middle" x="648" y="-99.8" font-family="Times,serif" font-size="14.00" fill="#000000">NgUploaderModule</text>
</g>
<!-- NgUploaderModule&#45;&gt;SharedModule -->
<g id="edge24" class="edge">
<title>NgUploaderModule&#45;&gt;SharedModule</title>
<path fill="none" stroke="#000000" d="M696.783,-122.2667C696.783,-140.5552 696.783,-166 696.783,-166 696.783,-166 1851.5181,-166 1851.5181,-166"/>
<polygon fill="#000000" stroke="#000000" points="1851.5182,-169.5001 1861.5181,-166 1851.5181,-162.5001 1851.5182,-169.5001"/>
</g>
<!-- TypeaheadModule -->
<g id="node26" class="node">
<title>TypeaheadModule</title>
<polygon fill="#8dd3c7" stroke="#000000" points="565.4608,-122 562.4608,-126 541.4608,-126 538.4608,-122 444.5392,-122 444.5392,-86 565.4608,-86 565.4608,-122"/>
<text text-anchor="middle" x="505" y="-99.8" font-family="Times,serif" font-size="14.00" fill="#000000">TypeaheadModule</text>
</g>
<!-- TypeaheadModule&#45;&gt;SharedModule -->
<g id="edge25" class="edge">
<title>TypeaheadModule&#45;&gt;SharedModule</title>
<path fill="none" stroke="#000000" d="M531.787,-122.2222C531.787,-140.8285 531.787,-167 531.787,-167 531.787,-167 1851.5064,-167 1851.5064,-167"/>
<polygon fill="#000000" stroke="#000000" points="1851.5065,-170.5001 1861.5064,-167 1851.5064,-163.5001 1851.5065,-170.5001"/>
</g>
<!-- FileUploadModule -->
<g id="node27" class="node">
<title>FileUploadModule</title>
<polygon fill="#8dd3c7" stroke="#000000" points="426.0409,-122 423.0409,-126 402.0409,-126 399.0409,-122 303.9591,-122 303.9591,-86 426.0409,-86 426.0409,-122"/>
<text text-anchor="middle" x="365" y="-99.8" font-family="Times,serif" font-size="14.00" fill="#000000">FileUploadModule</text>
</g>
<!-- FileUploadModule&#45;&gt;SharedModule -->
<g id="edge26" class="edge">
<title>FileUploadModule&#45;&gt;SharedModule</title>
<path fill="none" stroke="#000000" d="M398.2081,-122.1061C398.2081,-141.3391 398.2081,-169 398.2081,-169 398.2081,-169 1851.5268,-169 1851.5268,-169"/>
<polygon fill="#000000" stroke="#000000" points="1851.5268,-172.5001 1861.5268,-169 1851.5267,-165.5001 1851.5268,-172.5001"/>
</g>
<!-- PopoverModule -->
<g id="node28" class="node">
<title>PopoverModule</title>
<polygon fill="#8dd3c7" stroke="#000000" points="286.2078,-122 283.2078,-126 262.2078,-126 259.2078,-122 179.7922,-122 179.7922,-86 286.2078,-86 286.2078,-122"/>
<text text-anchor="middle" x="233" y="-99.8" font-family="Times,serif" font-size="14.00" fill="#000000">PopoverModule</text>
</g>
<!-- PopoverModule&#45;&gt;SharedModule -->
<g id="edge27" class="edge">
<title>PopoverModule&#45;&gt;SharedModule</title>
<path fill="none" stroke="#000000" d="M266.9833,-122.0348C266.9833,-141.5762 266.9833,-170 266.9833,-170 266.9833,-170 1851.3499,-170 1851.3499,-170"/>
<polygon fill="#000000" stroke="#000000" points="1851.35,-173.5001 1861.3499,-170 1851.3499,-166.5001 1851.35,-173.5001"/>
</g>
<!-- NgxDatatableModule -->
<g id="node29" class="node">
<title>NgxDatatableModule</title>
<polygon fill="#8dd3c7" stroke="#000000" points="161.7935,-122 158.7935,-126 137.7935,-126 134.7935,-122 24.2065,-122 24.2065,-86 161.7935,-86 161.7935,-122"/>
<text text-anchor="middle" x="93" y="-99.8" font-family="Times,serif" font-size="14.00" fill="#000000">NgxDatatableModule</text>
</g>
<!-- NgxDatatableModule&#45;&gt;SharedModule -->
<g id="edge28" class="edge">
<title>NgxDatatableModule&#45;&gt;SharedModule</title>
<path fill="none" stroke="#000000" d="M121.6745,-122.2228C121.6745,-142.3652 121.6745,-172 121.6744,-172 121.6744,-172 1851.7448,-172 1851.7448,-172"/>
<polygon fill="#000000" stroke="#000000" points="1851.7448,-175.5001 1861.7448,-172 1851.7448,-168.5001 1851.7448,-175.5001"/>
</g>
</g>
</svg>
