<?xml version="1.0" encoding="UTF-8" standalone="no"?>
<!DOCTYPE svg PUBLIC "-//W3C//DTD SVG 1.1//EN"
 "http://www.w3.org/Graphics/SVG/1.1/DTD/svg11.dtd">
<!-- Generated by graphviz version 2.40.1 (20161225.0304)
 -->
<!-- Title: dependencies Pages: 1 -->
<svg width="1029pt" height="211pt"
 viewBox="0.00 0.00 1029.00 211.00" xmlns="http://www.w3.org/2000/svg" xmlns:xlink="http://www.w3.org/1999/xlink">
<g id="graph0" class="graph" transform="scale(1 1) rotate(0) translate(4 207)">
<title>dependencies</title>
<polygon fill="#ffffff" stroke="transparent" points="-4,4 -4,-207 1025,-207 1025,4 -4,4"/>
<text text-anchor="start" x="489.5091" y="-42.4" font-family="sans-serif" font-weight="bold" font-size="14.00" fill="#000000">Legend</text>
<polygon fill="#ffffb3" stroke="transparent" points="276.5,-10 276.5,-30 296.5,-30 296.5,-10 276.5,-10"/>
<text text-anchor="start" x="300.129" y="-15.4" font-family="sans-serif" font-size="14.00" fill="#000000"> &#160;Declarations</text>
<polygon fill="#8dd3c7" stroke="transparent" points="389.5,-10 389.5,-30 409.5,-30 409.5,-10 389.5,-10"/>
<text text-anchor="start" x="413.2251" y="-15.4" font-family="sans-serif" font-size="14.00" fill="#000000"> &#160;Module</text>
<polygon fill="#80b1d3" stroke="transparent" points="475.5,-10 475.5,-30 495.5,-30 495.5,-10 475.5,-10"/>
<text text-anchor="start" x="499.2812" y="-15.4" font-family="sans-serif" font-size="14.00" fill="#000000"> &#160;Bootstrap</text>
<polygon fill="#fdb462" stroke="transparent" points="572.5,-10 572.5,-30 592.5,-30 592.5,-10 572.5,-10"/>
<text text-anchor="start" x="596.1732" y="-15.4" font-family="sans-serif" font-size="14.00" fill="#000000"> &#160;Providers</text>
<polygon fill="#fb8072" stroke="transparent" points="668.5,-10 668.5,-30 688.5,-30 688.5,-10 668.5,-10"/>
<text text-anchor="start" x="692.2258" y="-15.4" font-family="sans-serif" font-size="14.00" fill="#000000"> &#160;Exports</text>
<g id="clust1" class="cluster">
<title>cluster_StatisticsModule</title>
<polygon fill="none" stroke="#000000" stroke-dasharray="1,5" points="8,-70 8,-195 1013,-195 1013,-70 8,-70"/>
</g>
<g id="clust2" class="cluster">
<title>cluster_StatisticsModule_declarations</title>
<polygon fill="none" stroke="#000000" points="694,-78 694,-130 1005,-130 1005,-78 694,-78"/>
</g>
<g id="clust5" class="cluster">
<title>cluster_StatisticsModule_imports</title>
<polygon fill="none" stroke="#000000" points="16,-78 16,-130 686,-130 686,-78 16,-78"/>
</g>
<!-- StatisticsComponent -->
<g id="node1" class="node">
<title>StatisticsComponent</title>
<polygon fill="#ffffb3" stroke="#000000" points="996.8864,-122 865.1136,-122 865.1136,-86 996.8864,-86 996.8864,-122"/>
<text text-anchor="middle" x="931" y="-99.8" font-family="Times,serif" font-size="14.00" fill="#000000">StatisticsComponent</text>
</g>
<!-- StatisticsModule -->
<g id="node3" class="node">
<title>StatisticsModule</title>
<polygon fill="#8dd3c7" stroke="#000000" points="561.1038,-187 558.1038,-191 537.1038,-191 534.1038,-187 450.8962,-187 450.8962,-151 561.1038,-151 561.1038,-187"/>
<text text-anchor="middle" x="506" y="-164.8" font-family="Times,serif" font-size="14.00" fill="#000000">StatisticsModule</text>
</g>
<!-- StatisticsComponent&#45;&gt;StatisticsModule -->
<g id="edge1" class="edge">
<title>StatisticsComponent&#45;&gt;StatisticsModule</title>
<path fill="none" stroke="#000000" d="M931,-122.2843C931,-143.3211 931,-175 931,-175 931,-175 571.1256,-175 571.1256,-175"/>
<polygon fill="#000000" stroke="#000000" points="571.1257,-171.5001 561.1256,-175 571.1256,-178.5001 571.1257,-171.5001"/>
</g>
<!-- WeekChartComponent -->
<g id="node2" class="node">
<title>WeekChartComponent</title>
<polygon fill="#ffffb3" stroke="#000000" points="847.5786,-122 702.4214,-122 702.4214,-86 847.5786,-86 847.5786,-122"/>
<text text-anchor="middle" x="775" y="-99.8" font-family="Times,serif" font-size="14.00" fill="#000000">WeekChartComponent</text>
</g>
<!-- WeekChartComponent&#45;&gt;StatisticsModule -->
<g id="edge2" class="edge">
<title>WeekChartComponent&#45;&gt;StatisticsModule</title>
<path fill="none" stroke="#000000" d="M775,-122.0225C775,-139.3734 775,-163 775,-163 775,-163 571.0853,-163 571.0853,-163"/>
<polygon fill="#000000" stroke="#000000" points="571.0853,-159.5001 561.0853,-163 571.0852,-166.5001 571.0853,-159.5001"/>
</g>
<!-- CommonModule -->
<g id="node4" class="node">
<title>CommonModule</title>
<polygon fill="#8dd3c7" stroke="#000000" points="677.6681,-122 674.6681,-126 653.6681,-126 650.6681,-122 566.3319,-122 566.3319,-86 677.6681,-86 677.6681,-122"/>
<text text-anchor="middle" x="622" y="-99.8" font-family="Times,serif" font-size="14.00" fill="#000000">CommonModule</text>
</g>
<!-- CommonModule&#45;&gt;StatisticsModule -->
<g id="edge3" class="edge">
<title>CommonModule&#45;&gt;StatisticsModule</title>
<path fill="none" stroke="#000000" d="M566.0628,-104C559.2496,-104 554.6354,-104 554.6354,-104 554.6354,-104 554.6354,-140.8939 554.6354,-140.8939"/>
<polygon fill="#000000" stroke="#000000" points="551.1354,-140.8938 554.6354,-150.8939 558.1354,-140.8939 551.1354,-140.8938"/>
</g>
<!-- HttpModule -->
<g id="node5" class="node">
<title>HttpModule</title>
<polygon fill="#8dd3c7" stroke="#000000" points="548.4387,-122 545.4387,-126 524.4387,-126 521.4387,-122 463.5613,-122 463.5613,-86 548.4387,-86 548.4387,-122"/>
<text text-anchor="middle" x="506" y="-99.8" font-family="Times,serif" font-size="14.00" fill="#000000">HttpModule</text>
</g>
<!-- HttpModule&#45;&gt;StatisticsModule -->
<g id="edge4" class="edge">
<title>HttpModule&#45;&gt;StatisticsModule</title>
<path fill="none" stroke="#000000" d="M506,-122.1061C506,-122.1061 506,-140.991 506,-140.991"/>
<polygon fill="#000000" stroke="#000000" points="502.5001,-140.9909 506,-150.991 509.5001,-140.991 502.5001,-140.9909"/>
</g>
<!-- ChartsModule -->
<g id="node6" class="node">
<title>ChartsModule</title>
<polygon fill="#8dd3c7" stroke="#000000" points="446.0968,-122 443.0968,-126 422.0968,-126 419.0968,-122 349.9032,-122 349.9032,-86 446.0968,-86 446.0968,-122"/>
<text text-anchor="middle" x="398" y="-99.8" font-family="Times,serif" font-size="14.00" fill="#000000">ChartsModule</text>
</g>
<!-- ChartsModule&#45;&gt;StatisticsModule -->
<g id="edge5" class="edge">
<title>ChartsModule&#45;&gt;StatisticsModule</title>
<path fill="none" stroke="#000000" d="M446.1986,-104C452.7983,-104 457.3647,-104 457.3647,-104 457.3647,-104 457.3647,-140.8939 457.3647,-140.8939"/>
<polygon fill="#000000" stroke="#000000" points="453.8647,-140.8938 457.3647,-150.8939 460.8647,-140.8939 453.8647,-140.8938"/>
</g>
<!-- BsDropdownModule -->
<g id="node7" class="node">
<title>BsDropdownModule</title>
<polygon fill="#8dd3c7" stroke="#000000" points="332.205,-122 329.205,-126 308.205,-126 305.205,-122 197.795,-122 197.795,-86 332.205,-86 332.205,-122"/>
<text text-anchor="middle" x="265" y="-99.8" font-family="Times,serif" font-size="14.00" fill="#000000">BsDropdownModule</text>
</g>
<!-- BsDropdownModule&#45;&gt;StatisticsModule -->
<g id="edge6" class="edge">
<title>BsDropdownModule&#45;&gt;StatisticsModule</title>
<path fill="none" stroke="#000000" d="M265,-122.0225C265,-139.3734 265,-163 265,-163 265,-163 440.7097,-163 440.7097,-163"/>
<polygon fill="#000000" stroke="#000000" points="440.7098,-166.5001 450.7097,-163 440.7097,-159.5001 440.7098,-166.5001"/>
</g>
<!-- StatisticsRoutingModule -->
<g id="node8" class="node">
<title>StatisticsRoutingModule</title>
<polygon fill="#8dd3c7" stroke="#000000" points="179.7218,-122 176.7218,-126 155.7218,-126 152.7218,-122 24.2782,-122 24.2782,-86 179.7218,-86 179.7218,-122"/>
<text text-anchor="middle" x="102" y="-99.8" font-family="Times,serif" font-size="14.00" fill="#000000">StatisticsRoutingModule</text>
</g>
<!-- StatisticsRoutingModule&#45;&gt;StatisticsModule -->
<g id="edge7" class="edge">
<title>StatisticsRoutingModule&#45;&gt;StatisticsModule</title>
<path fill="none" stroke="#000000" d="M102,-122.2843C102,-143.3211 102,-175 102,-175 102,-175 440.6726,-175 440.6726,-175"/>
<polygon fill="#000000" stroke="#000000" points="440.6727,-178.5001 450.6726,-175 440.6726,-171.5001 440.6727,-178.5001"/>
</g>
</g>
</svg>
