<?xml version="1.0" encoding="UTF-8" standalone="no"?>
<!DOCTYPE svg PUBLIC "-//W3C//DTD SVG 1.1//EN"
 "http://www.w3.org/Graphics/SVG/1.1/DTD/svg11.dtd">
<!-- Generated by graphviz version 2.40.1 (20161225.0304)
 -->
<!-- Title: dependencies Pages: 1 -->
<svg width="2493pt" height="211pt"
 viewBox="0.00 0.00 2493.00 211.00" xmlns="http://www.w3.org/2000/svg" xmlns:xlink="http://www.w3.org/1999/xlink">
<g id="graph0" class="graph" transform="scale(1 1) rotate(0) translate(4 207)">
<title>dependencies</title>
<polygon fill="#ffffff" stroke="transparent" points="-4,4 -4,-207 2489,-207 2489,4 -4,4"/>
<text text-anchor="start" x="1221.5091" y="-42.4" font-family="sans-serif" font-weight="bold" font-size="14.00" fill="#000000">Legend</text>
<polygon fill="#ffffb3" stroke="transparent" points="1008.5,-10 1008.5,-30 1028.5,-30 1028.5,-10 1008.5,-10"/>
<text text-anchor="start" x="1032.129" y="-15.4" font-family="sans-serif" font-size="14.00" fill="#000000"> &#160;Declarations</text>
<polygon fill="#8dd3c7" stroke="transparent" points="1121.5,-10 1121.5,-30 1141.5,-30 1141.5,-10 1121.5,-10"/>
<text text-anchor="start" x="1145.2251" y="-15.4" font-family="sans-serif" font-size="14.00" fill="#000000"> &#160;Module</text>
<polygon fill="#80b1d3" stroke="transparent" points="1207.5,-10 1207.5,-30 1227.5,-30 1227.5,-10 1207.5,-10"/>
<text text-anchor="start" x="1231.2812" y="-15.4" font-family="sans-serif" font-size="14.00" fill="#000000"> &#160;Bootstrap</text>
<polygon fill="#fdb462" stroke="transparent" points="1304.5,-10 1304.5,-30 1324.5,-30 1324.5,-10 1304.5,-10"/>
<text text-anchor="start" x="1328.1732" y="-15.4" font-family="sans-serif" font-size="14.00" fill="#000000"> &#160;Providers</text>
<polygon fill="#fb8072" stroke="transparent" points="1400.5,-10 1400.5,-30 1420.5,-30 1420.5,-10 1400.5,-10"/>
<text text-anchor="start" x="1424.2258" y="-15.4" font-family="sans-serif" font-size="14.00" fill="#000000"> &#160;Exports</text>
<g id="clust1" class="cluster">
<title>cluster_PaymentsModule</title>
<polygon fill="none" stroke="#000000" stroke-dasharray="1,5" points="8,-70 8,-195 2477,-195 2477,-70 8,-70"/>
</g>
<g id="clust2" class="cluster">
<title>cluster_PaymentsModule_declarations</title>
<polygon fill="none" stroke="#000000" points="1555,-78 1555,-130 2469,-130 2469,-78 1555,-78"/>
</g>
<g id="clust8" class="cluster">
<title>cluster_PaymentsModule_imports</title>
<polygon fill="none" stroke="#000000" points="16,-78 16,-130 1547,-130 1547,-78 16,-78"/>
</g>
<!-- PaymentsComponent -->
<g id="node1" class="node">
<title>PaymentsComponent</title>
<polygon fill="#ffffb3" stroke="#000000" points="2460.7702,-122 2325.2298,-122 2325.2298,-86 2460.7702,-86 2460.7702,-122"/>
<text text-anchor="middle" x="2393" y="-99.8" font-family="Times,serif" font-size="14.00" fill="#000000">PaymentsComponent</text>
</g>
<!-- PaymentsModule -->
<g id="node6" class="node">
<title>PaymentsModule</title>
<polygon fill="#8dd3c7" stroke="#000000" points="1244.9874,-187 1241.9874,-191 1220.9874,-191 1217.9874,-187 1131.0126,-187 1131.0126,-151 1244.9874,-151 1244.9874,-187"/>
<text text-anchor="middle" x="1188" y="-164.8" font-family="Times,serif" font-size="14.00" fill="#000000">PaymentsModule</text>
</g>
<!-- PaymentsComponent&#45;&gt;PaymentsModule -->
<g id="edge1" class="edge">
<title>PaymentsComponent&#45;&gt;PaymentsModule</title>
<path fill="none" stroke="#000000" d="M2393,-122.3228C2393,-145.6602 2393,-183 2393,-183 2393,-183 1255.309,-183 1255.309,-183"/>
<polygon fill="#000000" stroke="#000000" points="1255.309,-179.5001 1245.309,-183 1255.309,-186.5001 1255.309,-179.5001"/>
</g>
<!-- PaymentsTableComponent -->
<g id="node2" class="node">
<title>PaymentsTableComponent</title>
<polygon fill="#ffffb3" stroke="#000000" points="2306.6428,-122 2139.3572,-122 2139.3572,-86 2306.6428,-86 2306.6428,-122"/>
<text text-anchor="middle" x="2223" y="-99.8" font-family="Times,serif" font-size="14.00" fill="#000000">PaymentsTableComponent</text>
</g>
<!-- PaymentsTableComponent&#45;&gt;PaymentsModule -->
<g id="edge2" class="edge">
<title>PaymentsTableComponent&#45;&gt;PaymentsModule</title>
<path fill="none" stroke="#000000" d="M2223,-122.2921C2223,-144.2057 2223,-178 2223,-178 2223,-178 1255.1204,-178 1255.1204,-178"/>
<polygon fill="#000000" stroke="#000000" points="1255.1204,-174.5001 1245.1204,-178 1255.1203,-181.5001 1255.1204,-174.5001"/>
</g>
<!-- PaymentsTotalComponent -->
<g id="node3" class="node">
<title>PaymentsTotalComponent</title>
<polygon fill="#ffffb3" stroke="#000000" points="2121.8187,-122 1956.1813,-122 1956.1813,-86 2121.8187,-86 2121.8187,-122"/>
<text text-anchor="middle" x="2039" y="-99.8" font-family="Times,serif" font-size="14.00" fill="#000000">PaymentsTotalComponent</text>
</g>
<!-- PaymentsTotalComponent&#45;&gt;PaymentsModule -->
<g id="edge3" class="edge">
<title>PaymentsTotalComponent&#45;&gt;PaymentsModule</title>
<path fill="none" stroke="#000000" d="M2039,-122.0267C2039,-142.7672 2039,-174 2039,-174 2039,-174 1255.1579,-174 1255.1579,-174"/>
<polygon fill="#000000" stroke="#000000" points="1255.158,-170.5001 1245.1579,-174 1255.1579,-177.5001 1255.158,-170.5001"/>
</g>
<!-- PaymentsWidgetComponent -->
<g id="node4" class="node">
<title>PaymentsWidgetComponent</title>
<polygon fill="#ffffb3" stroke="#000000" points="1938.4804,-122 1761.5196,-122 1761.5196,-86 1938.4804,-86 1938.4804,-122"/>
<text text-anchor="middle" x="1850" y="-99.8" font-family="Times,serif" font-size="14.00" fill="#000000">PaymentsWidgetComponent</text>
</g>
<!-- PaymentsWidgetComponent&#45;&gt;PaymentsModule -->
<g id="edge4" class="edge">
<title>PaymentsWidgetComponent&#45;&gt;PaymentsModule</title>
<path fill="none" stroke="#000000" d="M1850,-122.1061C1850,-141.3391 1850,-169 1850,-169 1850,-169 1255.0147,-169 1255.0147,-169"/>
<polygon fill="#000000" stroke="#000000" points="1255.0147,-165.5001 1245.0147,-169 1255.0147,-172.5001 1255.0147,-165.5001"/>
</g>
<!-- PaymentsToolbarComponent -->
<g id="node5" class="node">
<title>PaymentsToolbarComponent</title>
<polygon fill="#ffffb3" stroke="#000000" points="1743.0884,-122 1562.9116,-122 1562.9116,-86 1743.0884,-86 1743.0884,-122"/>
<text text-anchor="middle" x="1653" y="-99.8" font-family="Times,serif" font-size="14.00" fill="#000000">PaymentsToolbarComponent</text>
</g>
<!-- PaymentsToolbarComponent&#45;&gt;PaymentsModule -->
<g id="edge5" class="edge">
<title>PaymentsToolbarComponent&#45;&gt;PaymentsModule</title>
<path fill="none" stroke="#000000" d="M1653,-122.302C1653,-140.2699 1653,-165 1653,-165 1653,-165 1255.0181,-165 1255.0181,-165"/>
<polygon fill="#000000" stroke="#000000" points="1255.0182,-161.5001 1245.0181,-165 1255.0181,-168.5001 1255.0182,-161.5001"/>
</g>
<!-- CommonModule -->
<g id="node7" class="node">
<title>CommonModule</title>
<polygon fill="#8dd3c7" stroke="#000000" points="1538.6681,-122 1535.6681,-126 1514.6681,-126 1511.6681,-122 1427.3319,-122 1427.3319,-86 1538.6681,-86 1538.6681,-122"/>
<text text-anchor="middle" x="1483" y="-99.8" font-family="Times,serif" font-size="14.00" fill="#000000">CommonModule</text>
</g>
<!-- CommonModule&#45;&gt;PaymentsModule -->
<g id="edge6" class="edge">
<title>CommonModule&#45;&gt;PaymentsModule</title>
<path fill="none" stroke="#000000" d="M1483,-122.027C1483,-138.3976 1483,-160 1483,-160 1483,-160 1255.2288,-160 1255.2288,-160"/>
<polygon fill="#000000" stroke="#000000" points="1255.2288,-156.5001 1245.2288,-160 1255.2287,-163.5001 1255.2288,-156.5001"/>
</g>
<!-- RouterModule -->
<g id="node8" class="node">
<title>RouterModule</title>
<polygon fill="#8dd3c7" stroke="#000000" points="1408.6528,-122 1405.6528,-126 1384.6528,-126 1381.6528,-122 1311.3472,-122 1311.3472,-86 1408.6528,-86 1408.6528,-122"/>
<text text-anchor="middle" x="1360" y="-99.8" font-family="Times,serif" font-size="14.00" fill="#000000">RouterModule</text>
</g>
<!-- RouterModule&#45;&gt;PaymentsModule -->
<g id="edge7" class="edge">
<title>RouterModule&#45;&gt;PaymentsModule</title>
<path fill="none" stroke="#000000" d="M1360,-122.1871C1360,-137.1824 1360,-156 1360,-156 1360,-156 1255.2735,-156 1255.2735,-156"/>
<polygon fill="#000000" stroke="#000000" points="1255.2735,-152.5001 1245.2735,-156 1255.2735,-159.5001 1255.2735,-152.5001"/>
</g>
<!-- FormsModule -->
<g id="node9" class="node">
<title>FormsModule</title>
<polygon fill="#8dd3c7" stroke="#000000" points="1293.8288,-122 1290.8288,-126 1269.8288,-126 1266.8288,-122 1198.1712,-122 1198.1712,-86 1293.8288,-86 1293.8288,-122"/>
<text text-anchor="middle" x="1246" y="-99.8" font-family="Times,serif" font-size="14.00" fill="#000000">FormsModule</text>
</g>
<!-- FormsModule&#45;&gt;PaymentsModule -->
<g id="edge8" class="edge">
<title>FormsModule&#45;&gt;PaymentsModule</title>
<path fill="none" stroke="#000000" d="M1221.6648,-122.1061C1221.6648,-122.1061 1221.6648,-140.991 1221.6648,-140.991"/>
<polygon fill="#000000" stroke="#000000" points="1218.1649,-140.9909 1221.6648,-150.991 1225.1649,-140.991 1218.1649,-140.9909"/>
</g>
<!-- TooltipModule -->
<g id="node10" class="node">
<title>TooltipModule</title>
<polygon fill="#8dd3c7" stroke="#000000" points="1180.2745,-122 1177.2745,-126 1156.2745,-126 1153.2745,-122 1079.7255,-122 1079.7255,-86 1180.2745,-86 1180.2745,-122"/>
<text text-anchor="middle" x="1130" y="-99.8" font-family="Times,serif" font-size="14.00" fill="#000000">TooltipModule</text>
</g>
<!-- TooltipModule&#45;&gt;PaymentsModule -->
<g id="edge9" class="edge">
<title>TooltipModule&#45;&gt;PaymentsModule</title>
<path fill="none" stroke="#000000" d="M1155.6967,-122.1061C1155.6967,-122.1061 1155.6967,-140.991 1155.6967,-140.991"/>
<polygon fill="#000000" stroke="#000000" points="1152.1968,-140.9909 1155.6967,-150.991 1159.1968,-140.991 1152.1968,-140.9909"/>
</g>
<!-- BsDropdownModule -->
<g id="node11" class="node">
<title>BsDropdownModule</title>
<polygon fill="#8dd3c7" stroke="#000000" points="1062.205,-122 1059.205,-126 1038.205,-126 1035.205,-122 927.795,-122 927.795,-86 1062.205,-86 1062.205,-122"/>
<text text-anchor="middle" x="995" y="-99.8" font-family="Times,serif" font-size="14.00" fill="#000000">BsDropdownModule</text>
</g>
<!-- BsDropdownModule&#45;&gt;PaymentsModule -->
<g id="edge10" class="edge">
<title>BsDropdownModule&#45;&gt;PaymentsModule</title>
<path fill="none" stroke="#000000" d="M995,-122.1871C995,-137.1824 995,-156 995,-156 995,-156 1120.877,-156 1120.877,-156"/>
<polygon fill="#000000" stroke="#000000" points="1120.877,-159.5001 1130.877,-156 1120.877,-152.5001 1120.877,-159.5001"/>
</g>
<!-- ModalModule -->
<g id="node12" class="node">
<title>ModalModule</title>
<polygon fill="#8dd3c7" stroke="#000000" points="910.0997,-122 907.0997,-126 886.0997,-126 883.0997,-122 813.9003,-122 813.9003,-86 910.0997,-86 910.0997,-122"/>
<text text-anchor="middle" x="862" y="-99.8" font-family="Times,serif" font-size="14.00" fill="#000000">ModalModule</text>
</g>
<!-- ModalModule&#45;&gt;PaymentsModule -->
<g id="edge11" class="edge">
<title>ModalModule&#45;&gt;PaymentsModule</title>
<path fill="none" stroke="#000000" d="M862,-122.027C862,-138.3976 862,-160 862,-160 862,-160 1120.8421,-160 1120.8421,-160"/>
<polygon fill="#000000" stroke="#000000" points="1120.8421,-163.5001 1130.8421,-160 1120.8421,-156.5001 1120.8421,-163.5001"/>
</g>
<!-- NgxDatatableModule -->
<g id="node13" class="node">
<title>NgxDatatableModule</title>
<polygon fill="#8dd3c7" stroke="#000000" points="795.7935,-122 792.7935,-126 771.7935,-126 768.7935,-122 658.2065,-122 658.2065,-86 795.7935,-86 795.7935,-122"/>
<text text-anchor="middle" x="727" y="-99.8" font-family="Times,serif" font-size="14.00" fill="#000000">NgxDatatableModule</text>
</g>
<!-- NgxDatatableModule&#45;&gt;PaymentsModule -->
<g id="edge12" class="edge">
<title>NgxDatatableModule&#45;&gt;PaymentsModule</title>
<path fill="none" stroke="#000000" d="M727,-122.302C727,-140.2699 727,-165 727,-165 727,-165 1121.01,-165 1121.01,-165"/>
<polygon fill="#000000" stroke="#000000" points="1121.01,-168.5001 1131.01,-165 1121.0099,-161.5001 1121.01,-168.5001"/>
</g>
<!-- MultiselectDropdownModule -->
<g id="node14" class="node">
<title>MultiselectDropdownModule</title>
<polygon fill="#8dd3c7" stroke="#000000" points="640.4101,-122 637.4101,-126 616.4101,-126 613.4101,-122 457.5899,-122 457.5899,-86 640.4101,-86 640.4101,-122"/>
<text text-anchor="middle" x="549" y="-99.8" font-family="Times,serif" font-size="14.00" fill="#000000">MultiselectDropdownModule</text>
</g>
<!-- MultiselectDropdownModule&#45;&gt;PaymentsModule -->
<g id="edge13" class="edge">
<title>MultiselectDropdownModule&#45;&gt;PaymentsModule</title>
<path fill="none" stroke="#000000" d="M549,-122.1061C549,-141.3391 549,-169 549,-169 549,-169 1121.0121,-169 1121.0121,-169"/>
<polygon fill="#000000" stroke="#000000" points="1121.0122,-172.5001 1131.0121,-169 1121.0121,-165.5001 1121.0122,-172.5001"/>
</g>
<!-- DatepickerModule -->
<g id="node15" class="node">
<title>DatepickerModule</title>
<polygon fill="#8dd3c7" stroke="#000000" points="439.4566,-122 436.4566,-126 415.4566,-126 412.4566,-122 318.5434,-122 318.5434,-86 439.4566,-86 439.4566,-122"/>
<text text-anchor="middle" x="379" y="-99.8" font-family="Times,serif" font-size="14.00" fill="#000000">DatepickerModule</text>
</g>
<!-- DatepickerModule&#45;&gt;PaymentsModule -->
<g id="edge14" class="edge">
<title>DatepickerModule&#45;&gt;PaymentsModule</title>
<path fill="none" stroke="#000000" d="M379,-122.0267C379,-142.7672 379,-174 379,-174 379,-174 1120.7904,-174 1120.7904,-174"/>
<polygon fill="#000000" stroke="#000000" points="1120.7904,-177.5001 1130.7904,-174 1120.7903,-170.5001 1120.7904,-177.5001"/>
</g>
<!-- SharedModule -->
<g id="node16" class="node">
<title>SharedModule</title>
<polygon fill="#8dd3c7" stroke="#000000" points="300.4231,-122 297.4231,-126 276.4231,-126 273.4231,-122 201.5769,-122 201.5769,-86 300.4231,-86 300.4231,-122"/>
<text text-anchor="middle" x="251" y="-99.8" font-family="Times,serif" font-size="14.00" fill="#000000">SharedModule</text>
</g>
<!-- SharedModule&#45;&gt;PaymentsModule -->
<g id="edge15" class="edge">
<title>SharedModule&#45;&gt;PaymentsModule</title>
<path fill="none" stroke="#000000" d="M251,-122.2921C251,-144.2057 251,-178 251,-178 251,-178 1120.7969,-178 1120.7969,-178"/>
<polygon fill="#000000" stroke="#000000" points="1120.797,-181.5001 1130.7969,-178 1120.7969,-174.5001 1120.797,-181.5001"/>
</g>
<!-- PaymentsRoutingModule -->
<g id="node17" class="node">
<title>PaymentsRoutingModule</title>
<polygon fill="#8dd3c7" stroke="#000000" points="183.6052,-122 180.6052,-126 159.6052,-126 156.6052,-122 24.3948,-122 24.3948,-86 183.6052,-86 183.6052,-122"/>
<text text-anchor="middle" x="104" y="-99.8" font-family="Times,serif" font-size="14.00" fill="#000000">PaymentsRoutingModule</text>
</g>
<!-- PaymentsRoutingModule&#45;&gt;PaymentsModule -->
<g id="edge16" class="edge">
<title>PaymentsRoutingModule&#45;&gt;PaymentsModule</title>
<path fill="none" stroke="#000000" d="M104,-122.3228C104,-145.6602 104,-183 104,-183 104,-183 1120.8658,-183 1120.8658,-183"/>
<polygon fill="#000000" stroke="#000000" points="1120.8658,-186.5001 1130.8658,-183 1120.8658,-179.5001 1120.8658,-186.5001"/>
</g>
</g>
</svg>
