<?xml version="1.0" encoding="UTF-8" standalone="no"?><!DOCTYPE svg PUBLIC "-//W3C//DTD SVG 1.1//EN" "http://www.w3.org/Graphics/SVG/1.1/DTD/svg11.dtd"><svg width="100%" height="100%" viewBox="0 0 135 37" version="1.1" xmlns="http://www.w3.org/2000/svg" xmlns:xlink="http://www.w3.org/1999/xlink" xml:space="preserve" style="fill-rule:evenodd;clip-rule:evenodd;stroke-linejoin:round;stroke-miterlimit:1.41421;"><g id="omni"><clipPath id="_clip1"><path d="M14.087,5.788c-6.691,0.797 -11.469,6.868 -10.671,13.559c0.797,6.691 6.868,11.469 13.559,10.672c6.691,-0.798 11.469,-6.869 10.672,-13.56c-0.739,-6.201 -6.007,-10.759 -12.101,-10.758c-0.481,0 -0.969,0.028 -1.459,0.087Z"/></clipPath><g clip-path="url(#_clip1)"><path d="M1.972,7.232l24.231,-2.888l2.888,24.231l-24.232,2.888l-2.887,-24.231Z" style="fill:url(#_Linear2);fill-rule:nonzero;"/></g><path d="M27.165,16.517c0.734,6.156 -3.447,11.766 -9.45,12.898c-0.263,0.049 -0.528,0.09 -0.797,0.122c-6.426,0.766 -12.255,-3.822 -13.021,-10.247c-0.766,-6.426 3.822,-12.255 10.247,-13.021c6.426,-0.766 12.255,3.822 13.021,10.248Z" style="fill-opacity:0.835294;"/><g><clipPath id="_clip3"><path d="M13.564,7.276c-2.929,0.539 -5.244,2.038 -6.945,4.495c-1.69,2.465 -2.266,5.162 -1.726,8.091c0.539,2.929 2.037,5.244 4.495,6.945c2.464,1.691 5.162,2.266 8.091,1.727c2.929,-0.54 5.244,-2.038 6.945,-4.495c1.69,-2.465 2.266,-5.162 1.727,-8.092c-0.54,-2.929 -2.038,-5.244 -4.496,-6.945c-1.868,-1.281 -3.87,-1.922 -6.006,-1.922c-0.681,0 -1.376,0.065 -2.085,0.196Zm-3.098,17.966c-2.025,-1.395 -3.261,-3.303 -3.706,-5.724c-0.446,-2.421 0.029,-4.644 1.424,-6.669c1.395,-2.025 3.303,-3.26 5.724,-3.706c2.421,-0.446 4.644,0.029 6.669,1.424c2.025,1.395 3.261,3.303 3.706,5.724c0.446,2.421 -0.029,4.645 -1.424,6.669c-1.395,2.025 -3.303,3.261 -5.724,3.707c-0.586,0.107 -1.161,0.161 -1.724,0.161c-1.762,0 -3.411,-0.528 -4.945,-1.586Z"/></clipPath><g clip-path="url(#_clip3)"><path d="M2.935,9.233l21.258,-3.914l3.915,21.257l-21.258,3.915l-3.915,-21.258Z" style="fill:url(#_Linear4);fill-rule:nonzero;"/></g><clipPath id="_clip5"><path d="M12.89,15.71c-0.252,0.35 -0.353,0.811 -0.368,1.248c-0.353,-0.232 -0.731,-0.427 -1.142,-0.475c-0.112,-0.034 -0.233,-0.043 -0.368,-0.013c-0.018,0.004 -0.035,0.01 -0.049,0.019c-0.014,0.002 -0.027,0.002 -0.04,0.005c-0.183,0.03 -0.15,0.318 0.034,0.287c0.022,-0.004 0.044,-0.006 0.066,-0.009c0.313,0.165 0.627,0.329 0.941,0.493c0.062,0.056 0.124,0.107 0.188,0.146c0.186,0.116 0.534,0.318 0.76,0.219c0.238,-0.103 0.318,-0.467 0.355,-0.695c0.013,-0.088 0.127,-1.236 0.339,-1.093c0.033,0.022 0.068,0.029 0.1,0.024c0.104,0.03 0.235,-0.106 0.16,-0.232c-0.1,-0.169 -0.249,-0.238 -0.404,-0.238c-0.214,0 -0.441,0.131 -0.572,0.314Z"/></clipPath><g clip-path="url(#_clip5)"><path d="M10.641,15.707l3.247,-0.387l0.266,2.234l-3.246,0.387l-0.267,-2.234Z" style="fill:url(#_Linear6);fill-rule:nonzero;"/></g><clipPath id="_clip7"><path d="M15.866,19.253c-0.002,0.01 -0.004,0.019 -0.006,0.029c-0.015,0.014 -0.029,0.031 -0.039,0.054c-0.266,0.582 -0.51,1.172 -0.736,1.77c-0.62,-0.101 -1.238,-0.211 -1.855,-0.33c-0.157,-0.048 -0.317,-0.084 -0.486,-0.094c-0.132,-0.008 -0.191,0.123 -0.147,0.211c0.003,0.047 0.028,0.091 0.084,0.115c0.89,0.374 1.795,0.707 2.715,0.999c0.071,0.023 0.161,0.004 0.19,-0.075c0.276,-0.747 0.443,-1.523 0.497,-2.316c0.024,-0.106 0.047,-0.213 0.069,-0.32c0.021,-0.102 -0.059,-0.16 -0.14,-0.16c-0.065,0 -0.13,0.037 -0.146,0.117Z"/></clipPath><g clip-path="url(#_clip7)"><path d="M12.404,19.558l3.759,-0.448l0.333,2.797l-3.758,0.448l-0.334,-2.797Z" style="fill:url(#_Linear8);fill-rule:nonzero;"/></g><clipPath id="_clip9"><path d="M17.237,21.59c-0.015,0.048 -0.031,0.094 -0.046,0.141l-0.584,0.876c-0.091,0.137 -0.183,0.274 -0.274,0.411c-0.136,0.203 -0.179,0.295 -0.44,0.253c-0.715,-0.112 -1.428,-0.244 -2.136,-0.394c-0.142,-0.03 -0.199,0.137 -0.131,0.23c0.01,0.036 0.035,0.067 0.081,0.084c0.069,0.026 0.138,0.051 0.207,0.076c0.155,0.06 0.312,0.114 0.47,0.162c0.068,0.022 0.137,0.043 0.205,0.064c0.631,0.261 1.243,0.572 1.933,0.648c0.062,0.007 0.13,-0.025 0.154,-0.086c0.291,-0.727 0.553,-1.465 0.786,-2.214c0.003,-0.009 0.005,-0.018 0.006,-0.027c0.011,-0.036 0.023,-0.072 0.034,-0.108c0.035,-0.115 -0.064,-0.204 -0.153,-0.204c-0.048,0 -0.093,0.026 -0.112,0.088Zm-0.809,2.245c0.012,-0.008 0.024,-0.018 0.035,-0.028c-0.004,0.011 -0.008,0.021 -0.013,0.032c-0.007,-0.001 -0.015,-0.002 -0.022,-0.004Z"/></clipPath><g clip-path="url(#_clip9)"><path d="M13.433,21.963l4.09,-0.488l0.301,2.525l-4.09,0.487l-0.301,-2.524Z" style="fill:url(#_Linear10);fill-rule:nonzero;"/></g><clipPath id="_clip11"><path d="M9.452,13.85c0.188,0.188 0.688,0.591 0.945,0.312c0.118,-0.129 0.021,-0.287 -0.125,-0.328c-0.217,-0.062 -0.419,-0.103 -0.623,-0.206c-0.008,-0.004 -0.015,-0.007 -0.023,-0.009c-0.026,-0.024 -0.054,-0.035 -0.081,-0.035c-0.106,0 -0.195,0.164 -0.093,0.266Z"/></clipPath><g clip-path="url(#_clip11)"><path d="M9.332,13.597l1.115,-0.133l0.111,0.927l-1.116,0.133l-0.11,-0.927Z" style="fill:url(#_Linear12);fill-rule:nonzero;"/></g><clipPath id="_clip13"><path d="M9.125,14.714c0.004,0.004 0.009,0.008 0.014,0.011c0.01,0.012 0.023,0.021 0.038,0.029c0.209,0.16 0.671,0.466 0.851,0.203c0.237,-0.347 -0.472,-0.426 -0.717,-0.464c-0.002,-0.002 -0.005,-0.004 -0.007,-0.006c-0.028,-0.022 -0.058,-0.032 -0.086,-0.032c-0.117,0 -0.211,0.166 -0.093,0.259Z"/></clipPath><g clip-path="url(#_clip13)"><path d="M8.989,14.468l1.242,-0.147l0.1,0.842l-1.241,0.148l-0.101,-0.843Z" style="fill:url(#_Linear14);fill-rule:nonzero;"/></g><clipPath id="_clip15"><path d="M8.757,15.163c-0.043,0.008 -0.074,0.026 -0.097,0.049c-0.104,0.043 -0.142,0.213 -0.009,0.266c0.004,0.001 0.008,0.003 0.011,0.004c0.014,0.021 0.03,0.041 0.048,0.057c0.16,0.147 0.373,0.254 0.575,0.327c0.091,0.032 0.166,-0.024 0.192,-0.095c0.032,-0.014 0.059,-0.04 0.076,-0.073c0.096,-0.176 -0.031,-0.357 -0.197,-0.424c-0.092,-0.037 -0.195,-0.057 -0.292,-0.077c-0.074,-0.014 -0.165,-0.04 -0.247,-0.04c-0.021,0 -0.041,0.002 -0.06,0.006Z"/></clipPath><g clip-path="url(#_clip15)"><path d="M8.49,15.193l1.104,-0.132l0.095,0.8l-1.103,0.132l-0.096,-0.8Z" style="fill:url(#_Linear16);fill-rule:nonzero;"/></g><clipPath id="_clip17"><path d="M8.354,16.071c-0.11,-0.01 -0.225,0.117 -0.135,0.228c0.154,0.19 0.317,0.371 0.492,0.542c0.131,0.128 0.34,0.255 0.499,0.083c0.159,-0.173 -0.02,-0.361 -0.148,-0.479c-0.169,-0.157 -0.362,-0.284 -0.569,-0.386c-0.022,-0.011 -0.043,-0.016 -0.062,-0.016c-0.029,0 -0.055,0.011 -0.077,0.028Z"/></clipPath><g clip-path="url(#_clip17)"><path d="M8.116,16.076l1.156,-0.138l0.133,1.116l-1.156,0.138l-0.133,-1.116Z" style="fill:url(#_Linear18);fill-rule:nonzero;"/></g><clipPath id="_clip19"><path d="M8.038,17.149c-0.012,0.007 -0.022,0.016 -0.031,0.024c-0.101,0.041 -0.138,0.211 -0.008,0.27c0.217,0.099 0.44,0.197 0.668,0.27c0.162,0.052 0.331,-0.017 0.328,-0.209c-0.003,-0.205 -0.211,-0.258 -0.372,-0.302c-0.131,-0.035 -0.273,-0.097 -0.409,-0.097c-0.06,0 -0.119,0.012 -0.176,0.044Z"/></clipPath><g clip-path="url(#_clip19)"><path d="M7.84,17.142l1.117,-0.133l0.088,0.731l-1.118,0.133l-0.087,-0.731Z" style="fill:url(#_Linear20);fill-rule:nonzero;"/></g><clipPath id="_clip21"><path d="M7.778,18.186c-0.008,0.004 -0.015,0.009 -0.022,0.014c-0.081,0.034 -0.134,0.129 -0.061,0.214c0.146,0.17 0.848,0.867 1.023,0.387c0.082,-0.223 -0.131,-0.356 -0.303,-0.43c-0.111,-0.048 -0.222,-0.096 -0.334,-0.144c-0.068,-0.029 -0.138,-0.065 -0.209,-0.065c-0.031,0 -0.062,0.007 -0.094,0.024Z"/></clipPath><g clip-path="url(#_clip21)"><path d="M7.605,18.19l1.132,-0.135l0.142,1.186l-1.133,0.135l-0.141,-1.186Z" style="fill:url(#_Linear22);fill-rule:nonzero;"/></g><clipPath id="_clip23"><path d="M7.536,19.326c-0.005,0.017 -0.011,0.034 -0.016,0.051c-0.076,0.051 -0.109,0.163 -0.012,0.226c0.172,0.114 0.343,0.252 0.529,0.343c0.143,0.07 0.33,0.066 0.425,-0.082c0.089,-0.139 0.015,-0.29 -0.114,-0.368c-0.184,-0.112 -0.421,-0.169 -0.621,-0.245c-0.018,-0.007 -0.037,-0.01 -0.057,-0.01c-0.057,0 -0.116,0.027 -0.134,0.085Z"/></clipPath><g clip-path="url(#_clip23)"><path d="M7.379,19.269l1.102,-0.132l0.102,0.85l-1.103,0.131l-0.101,-0.849Z" style="fill:url(#_Linear24);fill-rule:nonzero;"/></g><clipPath id="_clip25"><path d="M8.07,20.329c-0.155,0.002 -0.297,0.025 -0.434,0.087c-0.049,0.001 -0.086,0.026 -0.109,0.061c-0.1,0.089 0.011,0.252 0.141,0.234c0.237,0.037 0.91,0.149 0.782,-0.227c-0.048,-0.14 -0.208,-0.156 -0.337,-0.156c-0.015,0 -0.029,0 -0.043,0.001Z"/></clipPath><g clip-path="url(#_clip25)"><path d="M7.406,20.392l1.101,-0.131l0.071,0.599l-1.101,0.131l-0.071,-0.599Z" style="fill:url(#_Linear26);fill-rule:nonzero;"/></g><clipPath id="_clip27"><path d="M10.384,15.407c-0.004,0.004 -0.009,0.009 -0.013,0.015c-0.116,0.158 -0.55,0.955 -0.143,1.017c0.203,0.031 0.309,-0.244 0.361,-0.39c0.075,-0.213 0.1,-0.432 0.082,-0.656c-0.007,-0.084 -0.069,-0.123 -0.134,-0.123c-0.073,0 -0.149,0.048 -0.153,0.137Z"/></clipPath><g clip-path="url(#_clip27)"><path d="M9.7,15.361l0.957,-0.114l0.14,1.179l-0.956,0.114l-0.141,-1.179Z" style="fill:url(#_Linear28);fill-rule:nonzero;"/></g><clipPath id="_clip29"><path d="M9.891,17.226c-0.15,0.175 -0.251,0.384 -0.289,0.613c-0.024,0.145 -0.067,0.465 0.107,0.54c0.384,0.164 0.436,-0.792 0.459,-1.05c0.006,-0.017 0.007,-0.034 0.004,-0.05c0.006,-0.096 -0.074,-0.151 -0.15,-0.151c-0.058,0 -0.113,0.031 -0.131,0.098Z"/></clipPath><g clip-path="url(#_clip29)"><path d="M9.403,17.195l0.765,-0.091l0.168,1.41l-0.765,0.091l-0.168,-1.41Z" style="fill:url(#_Linear30);fill-rule:nonzero;"/></g><clipPath id="_clip31"><path d="M9.871,19.032c-0.006,0 -0.012,0.001 -0.018,0.002c-0.063,0.005 -0.117,0.06 -0.126,0.121c-0.001,0.006 -0.002,0.012 -0.003,0.018c-0.001,0.009 0,0.019 0,0.028c-0.095,0.186 -0.141,0.383 -0.154,0.596c-0.009,0.154 -0.053,0.481 0.188,0.473c0.211,-0.007 0.288,-0.312 0.301,-0.477c0.01,-0.119 -0.004,-0.237 -0.012,-0.355c-0.009,-0.113 0.02,-0.251 -0.044,-0.35c-0.025,-0.038 -0.073,-0.057 -0.118,-0.057c-0.005,0 -0.009,0 -0.014,0.001Z"/></clipPath><g clip-path="url(#_clip31)"><path d="M9.375,19.089l0.671,-0.08l0.146,1.228l-0.67,0.08l-0.147,-1.228Z" style="fill:url(#_Linear32);fill-rule:nonzero;"/></g><clipPath id="_clip33"><path d="M10.906,19.46c-0.003,0.003 -0.005,0.006 -0.008,0.009c-0.109,0.16 -0.148,0.333 -0.142,0.525c0.004,0.147 0.005,0.447 0.154,0.53c0.456,0.256 0.31,-0.874 0.281,-1.034c-0.016,-0.083 -0.083,-0.121 -0.149,-0.121c-0.06,0 -0.119,0.032 -0.136,0.091Z"/></clipPath><g clip-path="url(#_clip33)"><path d="M10.638,19.41l0.556,-0.066l0.172,1.436l-0.557,0.066l-0.171,-1.436Z" style="fill:url(#_Linear34);fill-rule:nonzero;"/></g><clipPath id="_clip35"><path d="M10.291,21.414c-0.103,0.226 -0.155,0.467 -0.144,0.716c0.006,0.157 0.024,0.448 0.226,0.483c0.206,0.036 0.301,-0.205 0.32,-0.367c0.028,-0.235 -0.055,-0.468 -0.061,-0.703c-0.002,-0.056 -0.029,-0.092 -0.067,-0.11c-0.018,-0.061 -0.084,-0.102 -0.148,-0.102c-0.05,0 -0.099,0.024 -0.126,0.083Z"/></clipPath><g clip-path="url(#_clip35)"><path d="M10.027,21.371l0.61,-0.072l0.157,1.324l-0.609,0.072l-0.158,-1.324Z" style="fill:url(#_Linear36);fill-rule:nonzero;"/></g><clipPath id="_clip37"><path d="M11.691,20.963c-0.023,0.009 -0.044,0.025 -0.061,0.053c-0.118,0.189 -0.181,0.392 -0.174,0.616c0.005,0.148 0.041,0.442 0.206,0.506c0.168,0.064 0.298,-0.134 0.324,-0.272c0.048,-0.261 -0.025,-0.564 -0.047,-0.825c-0.008,-0.084 -0.071,-0.123 -0.136,-0.123c-0.041,0 -0.083,0.016 -0.112,0.045Z"/></clipPath><g clip-path="url(#_clip37)"><path d="M11.364,20.966l0.586,-0.07l0.152,1.273l-0.586,0.07l-0.152,-1.273Z" style="fill:url(#_Linear38);fill-rule:nonzero;"/></g><clipPath id="_clip39"><path d="M11.552,23.108c-0.021,0.013 -0.04,0.033 -0.053,0.061c-0.092,0.199 -0.123,0.42 -0.078,0.636c0.034,0.166 0.125,0.43 0.317,0.47c0.2,0.042 0.321,-0.149 0.312,-0.326c-0.013,-0.276 -0.133,-0.573 -0.24,-0.823c-0.026,-0.061 -0.076,-0.086 -0.127,-0.086c-0.051,0 -0.103,0.026 -0.131,0.068Z"/></clipPath><g clip-path="url(#_clip39)"><path d="M11.315,23.078l0.642,-0.077l0.154,1.295l-0.642,0.077l-0.154,-1.295Z" style="fill:url(#_Linear40);fill-rule:nonzero;"/></g><clipPath id="_clip41"><path d="M12.76,22.732c-0.01,0.444 0.027,0.955 0.491,1.157c0.094,0.041 0.176,-0.023 0.2,-0.111c0.048,-0.17 -0.021,-0.318 -0.108,-0.463c-0.117,-0.192 -0.215,-0.384 -0.285,-0.598c-0.02,-0.059 -0.063,-0.085 -0.109,-0.089c-0.022,-0.009 -0.045,-0.014 -0.068,-0.014c-0.062,0 -0.119,0.037 -0.121,0.118Z"/></clipPath><g clip-path="url(#_clip41)"><path d="M12.661,22.633l0.712,-0.085l0.162,1.36l-0.712,0.085l-0.162,-1.36Z" style="fill:url(#_Linear42);fill-rule:nonzero;"/></g><clipPath id="_clip43"><path d="M10.061,11.01c-0.136,0.334 -0.057,0.662 0.067,0.988c0.171,0.45 0.362,0.894 0.55,1.336c0.364,0.859 0.759,1.703 1.223,2.513c0.029,0.051 0.088,0.064 0.142,0.052c0.08,0.004 0.167,-0.053 0.158,-0.157c-0.002,-0.025 -0.005,-0.051 -0.008,-0.076c0.067,-0.322 -0.042,-0.624 -0.18,-0.925c-0.036,-0.136 -0.073,-0.272 -0.11,-0.408c-0.141,-0.515 -0.249,-1.036 -0.309,-1.566c-0.043,-0.384 0.026,-0.899 -0.232,-1.22c-0.246,-0.306 -0.77,-0.45 -1.111,-0.612c-0.017,-0.008 -0.036,-0.012 -0.055,-0.012c-0.056,0 -0.113,0.034 -0.135,0.087Z"/></clipPath><g clip-path="url(#_clip43)"><path d="M9.878,10.954l1.833,-0.218l0.613,5.143l-1.833,0.218l-0.613,-5.143Z" style="fill:url(#_Linear44);fill-rule:nonzero;"/></g><clipPath id="_clip45"><path d="M19.125,10.692c-0.131,0.235 -0.158,0.501 -0.103,0.763c0.027,0.134 0.078,0.312 0.152,0.471c-0.018,0.008 -0.036,0.018 -0.053,0.029c-0.057,-0.072 -0.152,-0.093 -0.232,-0.136c-0.277,-0.146 -0.425,-0.433 -0.31,-0.738c0.066,-0.173 -0.199,-0.289 -0.265,-0.115c-0.087,0.23 -0.091,0.467 0.018,0.691c0.048,0.099 0.118,0.189 0.199,0.263c0.021,0.019 0.34,0.223 0.329,0.181c0.01,0.038 -0.088,0.255 -0.088,0.316c0.001,0.101 0.022,0.202 0.065,0.294c0.021,0.045 0.047,0.086 0.075,0.124c-0.021,-0.004 -0.043,-0.007 -0.065,-0.01c-0.034,-0.013 -0.069,-0.025 -0.107,-0.034c-0.035,-0.009 -0.064,-0.005 -0.088,0.007c-0.08,-0.01 -0.159,-0.019 -0.235,-0.032c-0.119,-0.02 -0.238,-0.043 -0.357,-0.067c0.088,-0.145 0.143,-0.306 0.151,-0.477c0.004,-0.085 -0.054,-0.14 -0.119,-0.157c-0.068,-0.045 -0.174,-0.041 -0.22,0.054c-0.079,0.161 -0.113,0.335 -0.105,0.513c-0.001,0.001 -0.003,0.001 -0.004,0.002c-0.15,-0.035 -0.301,-0.072 -0.45,-0.111c0.005,-0.008 0.009,-0.016 0.013,-0.026c0.081,-0.196 0.113,-0.4 0.098,-0.611c-0.01,-0.156 -0.213,-0.156 -0.271,-0.042c-0.011,0.016 -0.019,0.035 -0.022,0.059c-0.027,0.171 -0.054,0.343 -0.08,0.515c-0.002,0.013 -0.002,0.024 -0.001,0.036c-0.151,-0.04 -0.302,-0.08 -0.453,-0.12c0.166,-0.178 0.163,-0.428 0.13,-0.664c-0.019,-0.141 -0.19,-0.154 -0.259,-0.071c-0.02,0.014 -0.037,0.033 -0.049,0.06c-0.085,0.191 -0.121,0.392 -0.114,0.599c-0.142,-0.037 -0.285,-0.072 -0.428,-0.105c0.145,-0.175 0.167,-0.4 0.158,-0.627c0,-0.007 0,-0.013 -0.001,-0.02c-0.001,-0.018 -0.002,-0.036 -0.003,-0.054c-0.011,-0.186 -0.298,-0.151 -0.287,0.034c0,0.001 0,0.003 0,0.004c-0.086,0.188 -0.14,0.386 -0.16,0.592c0,0.002 0.001,0.004 0,0.006c-0.132,-0.027 -0.265,-0.053 -0.398,-0.075c0.087,-0.224 0.116,-0.462 0.08,-0.701c-0.022,-0.153 -0.225,-0.155 -0.276,-0.045c-0.002,0.003 -0.004,0.005 -0.005,0.008c-0.11,0.214 -0.148,0.455 -0.11,0.691c-0.161,-0.021 -0.322,-0.037 -0.484,-0.047c0.011,-0.03 0.019,-0.06 0.024,-0.088c0.039,-0.208 -0.047,-0.413 -0.048,-0.62c-0.001,-0.168 -0.235,-0.155 -0.279,-0.015c-0.006,0.007 -0.011,0.014 -0.016,0.022c-0.093,0.163 -0.144,0.344 -0.147,0.532c-0.001,0.024 -0.001,0.05 0,0.077c-0.291,-0.18 -0.69,-0.263 -0.986,-0.253c-0.724,0.025 -1.35,0.69 -1.22,1.36c0.005,0.036 0.012,0.072 0.021,0.109c0.24,0.949 1.794,1.118 2.328,0.358c0.188,-0.267 0.32,-0.689 0.25,-1.04c0.015,0.004 0.031,0.008 0.046,0.012c0.148,0.173 0.449,0.243 0.642,0.321c0.442,0.18 0.884,0.363 1.327,0.539c0.389,0.155 0.788,0.3 1.195,0.387c-0.152,0.005 -0.303,0.026 -0.457,0.072c-0.329,0.097 -0.629,0.268 -0.948,0.391c-0.356,0.136 -0.729,0.224 -1.11,0.259c-0.189,0.018 -0.492,-0.038 -0.611,0.156c-0.106,0.172 0.005,0.408 0.121,0.543c0.281,0.324 0.769,0.36 1.176,0.308c-0.253,0.254 -0.333,0.63 -0.042,0.929c0.367,0.378 0.9,0.596 1.403,0.718c0.838,0.205 1.681,0.123 2.526,0.042c0.515,-0.05 1.031,-0.099 1.547,-0.084c0.176,0.005 0.385,0.01 0.536,0.114c0.058,0.039 0.15,0.142 0.157,0.222c0.023,0.285 -0.252,0.241 -0.41,0.181c-0.273,-0.105 -0.486,-0.244 -0.785,-0.282c-0.224,-0.028 -0.451,-0.019 -0.676,0.016c-1.465,0.176 -2.775,1.269 -2.819,2.817c-0.019,0.647 0.204,1.42 0.777,1.791c0.303,0.195 0.657,0.204 1.006,0.187c0.331,-0.016 0.662,-0.038 0.993,-0.061c0.087,0.005 0.174,0.013 0.26,0.028c0.171,0.028 1.104,0.379 0.668,0.667c-0.131,0.087 -0.518,0.012 -0.656,-0.004c-0.166,-0.019 -0.331,-0.048 -0.495,-0.078c-0.373,-0.067 -0.743,-0.141 -1.123,-0.147c-0.111,-0.002 -0.236,-0.005 -0.363,0.002c-0.095,-0.001 -0.191,0.004 -0.289,0.017c-0.039,0.005 -0.068,0.022 -0.088,0.045c-0.038,0.013 -0.074,0.027 -0.109,0.045c-0.051,-0.002 -0.104,0.021 -0.133,0.08c-0.002,0.004 -0.004,0.009 -0.006,0.013c-0.209,0.183 -0.331,0.5 -0.443,0.738c-0.135,0.285 -0.252,0.987 -0.65,0.941c-0.4,-0.047 -0.82,-0.247 -1.202,-0.37c-0.439,-0.141 -0.878,-0.282 -1.317,-0.423c-0.045,-0.014 -0.086,-0.008 -0.119,0.011c-0.153,-0.021 -0.242,0.212 -0.08,0.274c0.504,0.191 1.003,0.394 1.496,0.612c0.263,0.116 0.524,0.236 0.783,0.36c0.184,0.088 0.39,0.239 0.59,0.278c0.43,0.083 0.471,-0.544 0.575,-0.833c0.166,-0.461 0.36,-0.912 0.574,-1.353c0.118,-0.087 0.265,-0.13 0.42,-0.147c0.772,0.002 1.475,0.444 2.24,0.538c0.302,0.037 0.648,0.019 0.874,-0.213c0.202,-0.206 0.365,-0.633 0.307,-0.922c-0.063,-0.317 -0.374,-0.432 -0.654,-0.502c-0.016,-0.004 -0.032,-0.007 -0.048,-0.011c0.286,-0.105 0.229,-0.55 0.241,-0.796c0.001,-0.017 -0.001,-0.032 -0.005,-0.046c0.022,-0.119 -0.156,-0.227 -0.261,-0.112c-0.222,0.24 -0.282,0.574 -0.181,0.881c0.004,0.012 0.011,0.024 0.019,0.034c-0.218,-0.04 -0.439,-0.066 -0.659,-0.097c0.089,-0.021 0.165,-0.095 0.205,-0.183c0.071,-0.155 0.07,-0.35 0.062,-0.519c0.047,-0.128 -0.145,-0.257 -0.255,-0.133c-0.15,0.171 -0.513,0.638 -0.18,0.81c-0.121,-0.019 -0.241,-0.042 -0.36,-0.071c-0.461,-0.114 -0.917,-0.344 -1.118,-0.798c-0.189,-0.426 -0.128,-0.936 0.13,-1.319c0.295,-0.438 0.773,-0.69 1.284,-0.769c-0.031,0.011 -0.06,0.028 -0.084,0.05c-0.082,-0.003 -0.163,0.052 -0.141,0.154c0.043,0.197 0.097,0.39 0.164,0.58c0.036,0.101 0.186,0.121 0.248,0.035c0.107,-0.15 0.231,-0.342 0.212,-0.536c-0.015,-0.156 -0.131,-0.282 -0.289,-0.296c-0.001,0 -0.002,0 -0.003,0c0.406,-0.043 0.826,0.021 1.189,0.188c0.323,0.149 0.477,0.447 0.87,0.357c0.339,-0.078 0.651,-0.291 0.87,-0.558c0.42,-0.514 0.456,-1.241 0.069,-1.784c-0.08,-0.112 -0.175,-0.205 -0.28,-0.283c0.527,-0.256 1.115,-0.955 0.819,-1.566c-0.336,-0.693 -1.403,-0.582 -2.026,-0.602c-0.419,-0.013 -0.859,-0.057 -1.224,-0.283c-0.299,-0.185 -0.404,-0.512 -0.623,-0.754c0.139,0.008 0.283,-0.009 0.388,-0.071c0.067,-0.04 0.117,-0.101 0.153,-0.172c0.151,0.045 0.298,0.097 0.431,0.132c0.311,0.082 0.612,0.16 0.934,0.089c0.18,-0.039 0.147,-0.327 -0.034,-0.287c-0.359,0.079 -0.713,-0.05 -1.058,-0.141c-0.064,-0.017 -0.129,-0.036 -0.194,-0.056c0.008,-0.052 0.012,-0.104 0.014,-0.153c0.01,-0.002 0.021,-0.004 0.031,-0.006c0.099,-0.024 0.198,-0.05 0.296,-0.08c0.258,-0.078 0.503,-0.182 0.742,-0.305c0.164,-0.085 0.057,-0.354 -0.109,-0.268c-0.223,0.115 -0.452,0.215 -0.691,0.29c-0.101,0.032 -0.204,0.058 -0.307,0.082c-0.042,-0.118 -0.117,-0.207 -0.214,-0.27c0.158,-0.32 0.427,-0.619 0.618,-0.894c0.106,-0.153 -0.12,-0.332 -0.227,-0.179c-0.214,0.307 -0.489,0.624 -0.658,0.973c-0.089,-0.014 -0.182,-0.016 -0.276,-0.005c-0.073,-0.141 -0.124,-0.332 -0.147,-0.436c-0.047,-0.216 -0.027,-0.41 0.081,-0.604c0.06,-0.107 -0.035,-0.193 -0.133,-0.193c-0.05,0 -0.101,0.023 -0.132,0.077Zm-6.449,2.339c-0.012,-0.038 -0.018,-0.075 -0.02,-0.111c0.025,-0.064 0.067,-0.126 0.129,-0.182c0.12,-0.108 0.308,-0.18 0.47,-0.157c0.206,0.03 0.225,0.211 0.204,0.389c-0.03,0.249 -0.205,0.376 -0.385,0.376c-0.163,0 -0.331,-0.104 -0.398,-0.315Zm-0.426,0.27c-0.017,-0.014 -0.033,-0.029 -0.049,-0.044c0.015,0.004 0.029,0.006 0.044,0.006c0.001,0.005 0.002,0.009 0.003,0.015c0.002,0.009 0.005,0.019 0.008,0.027c-0.002,-0.001 -0.004,-0.003 -0.006,-0.004Zm5.947,3.024c0.066,-0.007 0.13,-0.017 0.193,-0.03c0.507,-0.055 0.994,-0.435 1.053,-0.957c0.043,-0.384 -0.168,-0.714 -0.513,-0.872c-0.086,-0.039 -0.183,-0.077 -0.282,-0.104c0.17,-0.128 0.329,-0.307 0.466,-0.433c0.003,0.013 0.005,0.027 0.008,0.04c0.115,0.5 0.252,1.012 0.609,1.399c0.308,0.335 0.682,0.458 1.129,0.449c0.153,-0.004 0.308,-0.021 0.46,0c0.154,0.02 0.279,0.088 0.422,0.142c0.188,0.07 0.345,0.082 0.518,-0.026c0.097,-0.06 0.06,-0.204 -0.03,-0.247c-0.139,-0.031 -0.145,-0.087 -0.02,-0.169c0.024,-0.07 0.064,-0.108 0.12,-0.117c0.011,0 0.022,0.001 0.033,0.002c0,-0.002 0,-0.003 0,-0.005c0.012,0.001 0.025,0.002 0.039,0.005c0.161,-0.008 0.167,-0.272 0.004,-0.286c-0.139,-0.012 -0.278,-0.023 -0.416,-0.035c-0.029,-0.002 -0.073,-0.002 -0.122,-0.002c-0.121,0.001 -0.276,0.001 -0.329,-0.037c-0.141,-0.102 0.135,-0.163 0.224,-0.19c0.102,-0.031 0.205,-0.056 0.309,-0.077c0.004,0 0.008,0 0.012,0.001c0.28,0.022 0.756,0.047 0.781,0.415c0.014,0.208 -0.193,0.409 -0.294,0.574c-0.091,0.15 -0.146,0.293 -0.144,0.465c-0.489,-0.229 -1.114,-0.218 -1.622,-0.137c-0.267,0.043 -0.5,0.131 -0.77,0.076c-0.237,-0.048 -0.418,-0.017 -0.652,0.039c-0.338,0.079 -0.684,0.12 -1.03,0.12c-0.052,0 -0.104,-0.001 -0.156,-0.003Zm0.298,-2.26c0.013,-0.002 0.026,-0.005 0.038,-0.007c-0.008,0.008 -0.016,0.015 -0.024,0.023c-0.004,-0.006 -0.009,-0.011 -0.014,-0.016Zm-0.918,0.451c0.361,-0.103 -0.064,0.066 -0.144,0.103c-0.102,0.047 -0.206,0.092 -0.31,0.135c0.144,-0.099 0.291,-0.191 0.454,-0.238Zm0.647,1.035c-0.122,-0.183 0.029,-0.404 0.249,-0.373c0.053,0.007 0.108,0.025 0.158,0.051c0.078,0.142 0.027,0.311 -0.072,0.396c-0.041,0.021 -0.085,0.039 -0.129,0.055c-0.003,0 -0.005,0 -0.007,0c-0.067,0 -0.138,-0.037 -0.199,-0.129Zm-1.849,0.291c-0.402,-0.301 0.137,-0.499 0.377,-0.539c0.143,-0.024 0.274,-0.049 0.402,-0.098c-0.004,0.009 -0.008,0.018 -0.012,0.027c-0.126,0.332 -0.027,0.725 0.268,0.929c0.067,0.046 0.139,0.082 0.214,0.108c-0.427,-0.063 -0.917,-0.178 -1.249,-0.427Zm4.28,1.913c0.01,0.002 0.02,0.004 0.031,0.006c-0.134,-0.006 -0.269,-0.008 -0.403,-0.005c0.125,-0.006 0.249,-0.007 0.372,-0.001Z"/></clipPath><g clip-path="url(#_clip45)"><path d="M11.483,11.372l11.656,-1.389l1.692,14.202l-11.656,1.389l-1.692,-14.202Z" style="fill:url(#_Linear46);fill-rule:nonzero;"/></g><clipPath id="_clip47"><path d="M19.351,20.377l-0.222,0.211c-0.056,0.054 -0.119,0.106 -0.162,0.171c-0.082,0.126 -0.075,0.317 0.073,0.393c0.325,0.167 0.51,-0.331 0.52,-0.566c0.001,-0.008 0,-0.015 0,-0.022c0.028,-0.049 0.031,-0.108 -0.007,-0.159c-0.026,-0.035 -0.075,-0.058 -0.122,-0.058c-0.03,0 -0.059,0.009 -0.08,0.03Z"/></clipPath><g clip-path="url(#_clip47)"><path d="M18.814,20.417l0.762,-0.091l0.113,0.954l-0.762,0.091l-0.113,-0.954Z" style="fill:url(#_Linear48);fill-rule:nonzero;"/></g><clipPath id="_clip49"><path d="M21.455,19.153c-0.016,0.004 -0.031,0.009 -0.045,0.017c-0.038,0.008 -0.073,0.033 -0.091,0.082c-0.116,0.301 -0.075,0.625 0.116,0.886c0.073,0.099 0.243,0.058 0.258,-0.066c0.029,-0.225 0.209,-0.403 0.16,-0.644c-0.032,-0.155 -0.172,-0.284 -0.329,-0.284c-0.023,0 -0.046,0.003 -0.069,0.009Z"/></clipPath><g clip-path="url(#_clip49)"><path d="M21.159,19.185l0.675,-0.081l0.129,1.079l-0.675,0.08l-0.129,-1.078Z" style="fill:url(#_Linear50);fill-rule:nonzero;"/></g><clipPath id="_clip51"><path d="M20.677,18.61c-0.065,-0.001 -0.128,0.036 -0.138,0.119c-0.029,0.243 -0.005,0.478 0.069,0.711c0.031,0.099 0.19,0.123 0.247,0.034c0.121,-0.187 0.307,-0.444 0.25,-0.68c-0.032,-0.134 -0.157,-0.228 -0.285,-0.228c-0.049,0 -0.098,0.014 -0.143,0.044Z"/></clipPath><g clip-path="url(#_clip51)"><path d="M20.462,18.603l0.64,-0.076l0.118,0.986l-0.64,0.076l-0.118,-0.986Z" style="fill:url(#_Linear52);fill-rule:nonzero;"/></g><clipPath id="_clip53"><path d="M14.023,16.02c-0.275,0.19 -0.444,0.633 -0.553,0.934c-0.126,0.347 -0.146,0.759 -0.346,1.075c-0.309,-0.137 -0.624,-0.261 -0.945,-0.369c-0.337,-0.112 -0.707,-0.25 -1.06,-0.294c-0.509,-0.064 -0.437,0.602 -0.312,1.037c-0.011,0.1 -0.009,0.202 0.004,0.302c0.013,0.097 0.109,0.148 0.198,0.117c0.209,-0.072 0.305,-0.24 0.301,-0.455c-0.001,-0.069 -0.042,-0.108 -0.093,-0.119c-0.005,-0.045 -0.011,-0.091 -0.017,-0.136c0.006,-0.009 0.012,-0.019 0.018,-0.028c0.074,-0.054 0.141,-0.05 0.201,0.013c0.18,0.053 0.353,0.164 0.535,0.224c0.427,0.14 0.865,0.251 1.297,0.374c0.322,0.091 0.558,0.14 0.668,-0.225c0.114,-0.377 0.142,-0.783 0.226,-1.168c0.048,-0.218 0.108,-0.433 0.197,-0.638c0.058,-0.134 0.15,-0.262 0.157,-0.411c0.008,-0.19 -0.123,-0.299 -0.275,-0.299c-0.067,0 -0.137,0.021 -0.201,0.066Z"/></clipPath><g clip-path="url(#_clip53)"><path d="M10.494,16.391l3.995,-0.476l0.334,2.799l-3.995,0.476l-0.334,-2.799Z" style="fill:url(#_Linear54);fill-rule:nonzero;"/></g><clipPath id="_clip55"><path d="M14.65,17.134c-0.433,0.553 -0.724,1.19 -0.86,1.876c-0.628,-0.188 -1.27,-0.282 -1.926,-0.28c-0.011,-0.006 -0.022,-0.012 -0.033,-0.018c-0.061,-0.035 -0.115,-0.019 -0.15,0.021c-0.167,0.021 -0.128,0.289 0.05,0.285c0.009,-0.001 0.017,-0.001 0.025,-0.001c0.007,0 0.014,0 0.022,0c0.019,0.023 0.048,0.038 0.087,0.041c0.001,0 0.001,0 0.002,0c0.745,0.372 1.607,0.395 2.37,0.726c0.091,0.039 0.18,-0.021 0.201,-0.111c0.182,-0.798 0.427,-1.608 0.469,-2.428c0.005,-0.093 -0.071,-0.167 -0.15,-0.167c-0.038,0 -0.076,0.017 -0.107,0.056Z"/></clipPath><g clip-path="url(#_clip55)"><path d="M11.362,17.478l3.538,-0.421l0.317,2.66l-3.538,0.421l-0.317,-2.66Z" style="fill:url(#_Linear56);fill-rule:nonzero;"/></g><clipPath id="_clip57"><path d="M15.435,17.971c-0.023,0.03 -0.044,0.061 -0.064,0.093c-0.02,0.013 -0.038,0.031 -0.051,0.058c-0.311,0.627 -0.623,1.254 -0.934,1.88c-0.681,-0.188 -1.376,-0.274 -2.083,-0.257c-0.009,-0.001 -0.017,-0.003 -0.026,-0.005c-0.034,-0.007 -0.063,-0.003 -0.086,0.008c-0.152,0.009 -0.153,0.216 -0.038,0.276c0.499,0.26 1.059,0.414 1.588,0.601c0.272,0.097 0.55,0.226 0.831,0.292c0.134,0.032 0.274,0.04 0.378,-0.069c0.126,-0.131 0.123,-0.375 0.159,-0.54c0.062,-0.288 0.143,-0.572 0.241,-0.85c0.161,-0.454 0.457,-0.916 0.342,-1.414c-0.017,-0.075 -0.084,-0.127 -0.151,-0.127c-0.038,0 -0.076,0.016 -0.106,0.054Z"/></clipPath><g clip-path="url(#_clip57)"><path d="M11.846,18.353l3.884,-0.463l0.348,2.92l-3.884,0.463l-0.348,-2.92Z" style="fill:url(#_Linear58);fill-rule:nonzero;"/></g><clipPath id="_clip59"><path d="M16.513,20.379c-0.027,0.089 -0.055,0.178 -0.084,0.267c-0.154,0.305 -0.308,0.609 -0.463,0.913c-0.081,0.161 -0.151,0.349 -0.252,0.498c-0.064,0.094 -0.058,0.124 -0.185,0.119c-0.081,-0.003 -0.187,-0.047 -0.265,-0.065c-0.662,-0.154 -1.337,-0.238 -2.016,-0.263c-0.025,-0.008 -0.049,-0.008 -0.072,-0.003c-0.006,0 -0.013,-0.001 -0.02,-0.001c-0.065,-0.031 -0.121,-0.01 -0.157,0.032c-0.092,0.074 -0.088,0.249 0.057,0.252c0.008,0 0.016,0.001 0.025,0.001c0.436,0.217 0.876,0.428 1.348,0.556c0.513,0.138 1.045,0.19 1.548,0.367c0.102,0.036 0.214,-0.035 0.202,-0.149c-0.001,-0.007 -0.002,-0.014 -0.002,-0.02c0.018,-0.014 0.034,-0.032 0.044,-0.056c0.255,-0.613 0.428,-1.251 0.518,-1.906c0.026,-0.088 0.052,-0.176 0.077,-0.264c0.016,-0.056 -0.001,-0.099 -0.034,-0.125c0.002,-0.025 0.005,-0.049 0.007,-0.073c0.007,-0.095 -0.082,-0.168 -0.163,-0.168c-0.048,0 -0.093,0.026 -0.113,0.088Zm-0.845,2.107c0.009,-0.001 0.017,-0.004 0.026,-0.006c-0.002,0.004 -0.004,0.007 -0.006,0.011c0,0 0,0 0,0c-0.007,-0.002 -0.013,-0.003 -0.02,-0.005Z"/></clipPath><g clip-path="url(#_clip59)"><path d="M12.747,20.748l4.045,-0.482l0.322,2.699l-4.045,0.482l-0.322,-2.699Z" style="fill:url(#_Linear60);fill-rule:nonzero;"/></g><clipPath id="_clip61"><path d="M17.943,23.163c0.34,0.201 0.693,0.372 1.061,0.513c-0.474,0.322 -0.948,0.645 -1.422,0.967c-0.069,0.047 -0.068,0.132 -0.031,0.193c-0.022,0.126 0.158,0.238 0.257,0.114c0.135,-0.168 0.346,-0.237 0.538,-0.32c0.217,-0.094 0.436,-0.186 0.655,-0.274c0.423,-0.171 0.849,-0.329 1.28,-0.478c0.148,-0.051 0.092,-0.244 -0.033,-0.277c-0.743,-0.195 -1.472,-0.43 -2.19,-0.703c-0.022,-0.008 -0.042,-0.012 -0.061,-0.012c-0.137,0 -0.192,0.196 -0.054,0.277Z"/></clipPath><g clip-path="url(#_clip61)"><path d="M17.29,22.954l2.992,-0.356l0.255,2.139l-2.992,0.356l-0.255,-2.139Z" style="fill:url(#_Linear62);fill-rule:nonzero;"/></g></g><path d="M15.315,8.399c0.303,0.009 0.6,0.018 0.905,0.027c0.025,-0.405 0.05,-0.801 0.075,-1.21c-0.821,-0.026 -1.628,-0.077 -2.434,0.106c0.088,0.497 0.175,0.983 0.261,1.469c-0.508,0.115 -1.001,0.226 -1.505,0.34c-0.119,-0.405 -0.238,-0.812 -0.363,-1.239c0.342,-0.077 0.672,-0.151 1.003,-0.226c0.054,0.24 0.109,0.484 0.165,0.734c-0.109,0.025 -0.209,0.047 -0.329,0.074c-0.033,-0.148 -0.065,-0.292 -0.096,-0.427c-0.116,0.026 -0.211,0.048 -0.293,0.066c0.051,0.227 0.1,0.443 0.148,0.656c0.308,-0.07 0.598,-0.135 0.902,-0.204c-0.09,-0.398 -0.178,-0.785 -0.267,-1.181c-0.787,0.18 -1.574,0.347 -2.308,0.728c0.212,0.453 0.421,0.899 0.628,1.343c-0.458,0.246 -0.905,0.487 -1.36,0.731c-0.22,-0.363 -0.442,-0.728 -0.672,-1.104c0.308,-0.172 0.604,-0.338 0.909,-0.508c0.123,0.237 0.239,0.46 0.359,0.69c-0.103,0.056 -0.196,0.106 -0.296,0.159c-0.077,-0.135 -0.15,-0.263 -0.226,-0.397c-0.096,0.056 -0.182,0.105 -0.274,0.157c0.117,0.203 0.23,0.397 0.344,0.594c0.268,-0.144 0.526,-0.283 0.797,-0.428c-0.18,-0.363 -0.358,-0.721 -0.541,-1.087c-0.725,0.389 -1.449,0.749 -2.054,1.309c0.323,0.384 0.641,0.761 0.955,1.134c-0.379,0.356 -0.749,0.704 -1.125,1.058c-0.308,-0.294 -0.617,-0.589 -0.935,-0.893c0.254,-0.247 0.497,-0.483 0.747,-0.725c0.18,0.197 0.35,0.382 0.525,0.574c-0.086,0.081 -0.163,0.153 -0.245,0.231c-0.11,-0.112 -0.214,-0.217 -0.321,-0.326c-0.079,0.078 -0.149,0.147 -0.225,0.222c0.167,0.166 0.326,0.325 0.487,0.485c0.223,-0.21 0.439,-0.413 0.659,-0.621c-0.27,-0.305 -0.533,-0.603 -0.803,-0.908c-0.599,0.559 -1.204,1.096 -1.647,1.795c0.412,0.287 0.819,0.571 1.228,0.856c-0.292,0.434 -0.575,0.854 -0.864,1.284c-0.329,-0.18 -0.706,-0.386 -1.095,-0.599c0.181,-0.302 0.357,-0.596 0.517,-0.864c0.231,0.139 0.446,0.269 0.659,0.397c-0.055,0.09 -0.11,0.181 -0.168,0.277c-0.128,-0.077 -0.255,-0.153 -0.388,-0.232c-0.057,0.096 -0.107,0.181 -0.161,0.273c0.201,0.117 0.396,0.229 0.562,0.325c0.173,-0.256 0.339,-0.502 0.508,-0.753c-0.336,-0.223 -0.668,-0.443 -1.009,-0.668c-0.433,0.695 -0.88,1.37 -1.126,2.16c0.471,0.17 0.935,0.338 1.394,0.504c-0.15,0.498 -0.297,0.987 -0.445,1.48c-0.419,-0.103 -0.831,-0.203 -1.256,-0.307c0.096,-0.338 0.189,-0.666 0.284,-1.001c0.256,0.081 0.498,0.158 0.743,0.236c-0.036,0.116 -0.067,0.217 -0.1,0.321c-0.152,-0.042 -0.291,-0.082 -0.437,-0.123c-0.03,0.104 -0.056,0.199 -0.086,0.305c0.227,0.061 0.446,0.119 0.665,0.177c0.089,-0.296 0.173,-0.577 0.26,-0.866c-0.382,-0.128 -0.759,-0.255 -1.148,-0.386c-0.241,0.782 -0.496,1.552 -0.53,2.378c0.503,0.044 0.993,0.086 1.477,0.127c-0.016,0.525 -0.032,1.032 -0.047,1.544c-0.429,0.009 -0.853,0.019 -1.292,0.029c0.005,-0.356 0.01,-0.695 0.016,-1.041c0.269,0.012 0.519,0.024 0.777,0.035c-0.005,0.122 -0.009,0.228 -0.013,0.337c-0.156,-0.002 -0.301,-0.004 -0.456,-0.006c0.001,0.109 0.001,0.21 0.001,0.318c0.238,-0.001 0.459,-0.001 0.685,-0.001c0.009,-0.306 0.018,-0.602 0.027,-0.906c-0.408,-0.025 -0.804,-0.049 -1.21,-0.073c-0.027,0.822 -0.077,1.628 0.106,2.433c0.496,-0.088 0.978,-0.174 1.469,-0.262c0.114,0.505 0.226,1.001 0.34,1.506c-0.407,0.119 -0.814,0.238 -1.24,0.363c-0.077,-0.344 -0.152,-0.674 -0.227,-1.006c0.24,-0.054 0.483,-0.109 0.732,-0.165c0.025,0.109 0.048,0.211 0.075,0.33c-0.147,0.033 -0.287,0.065 -0.428,0.097c0.026,0.112 0.047,0.207 0.067,0.294c0.227,-0.052 0.445,-0.101 0.662,-0.15c-0.07,-0.306 -0.134,-0.593 -0.203,-0.898c-0.395,0.09 -0.783,0.177 -1.184,0.268c0.178,0.78 0.344,1.57 0.727,2.305c0.454,-0.213 0.901,-0.421 1.342,-0.628c0.248,0.46 0.488,0.907 0.732,1.36c-0.365,0.222 -0.73,0.444 -1.105,0.672c-0.172,-0.309 -0.338,-0.606 -0.507,-0.91c0.238,-0.123 0.461,-0.239 0.691,-0.358c0.055,0.104 0.105,0.197 0.158,0.297c-0.136,0.077 -0.265,0.15 -0.397,0.225c0.056,0.098 0.105,0.183 0.157,0.274c0.204,-0.118 0.398,-0.231 0.594,-0.345c-0.145,-0.269 -0.284,-0.527 -0.429,-0.796c-0.363,0.18 -0.718,0.357 -1.085,0.54c0.384,0.724 0.748,1.445 1.307,2.055c0.383,-0.322 0.762,-0.641 1.134,-0.955c0.358,0.38 0.704,0.748 1.058,1.125c-0.291,0.306 -0.586,0.615 -0.892,0.935c-0.244,-0.252 -0.481,-0.495 -0.725,-0.746c0.195,-0.179 0.38,-0.349 0.574,-0.527c0.08,0.087 0.153,0.166 0.229,0.248c-0.112,0.11 -0.216,0.211 -0.325,0.319c0.078,0.078 0.149,0.15 0.224,0.224c0.168,-0.169 0.326,-0.328 0.484,-0.486c-0.212,-0.225 -0.414,-0.439 -0.621,-0.659c-0.303,0.268 -0.601,0.531 -0.908,0.802c0.558,0.599 1.096,1.207 1.795,1.647c0.288,-0.413 0.571,-0.818 0.855,-1.226c0.433,0.291 0.855,0.574 1.285,0.863c-0.184,0.335 -0.389,0.71 -0.6,1.095c-0.305,-0.183 -0.597,-0.358 -0.87,-0.521c0.139,-0.228 0.271,-0.443 0.406,-0.665c0.088,0.059 0.176,0.119 0.271,0.183c-0.073,0.122 -0.149,0.249 -0.229,0.383c0.097,0.056 0.184,0.107 0.275,0.16c0.117,-0.204 0.228,-0.396 0.324,-0.563c-0.253,-0.171 -0.5,-0.337 -0.752,-0.507c-0.224,0.337 -0.445,0.671 -0.67,1.011c0.699,0.434 1.374,0.88 2.161,1.125c0.172,-0.475 0.339,-0.939 0.504,-1.395c0.499,0.151 0.985,0.297 1.479,0.446c-0.102,0.417 -0.203,0.831 -0.306,1.256c-0.344,-0.097 -0.67,-0.191 -1.001,-0.285c0.081,-0.257 0.157,-0.497 0.235,-0.743c0.113,0.036 0.214,0.067 0.323,0.101c-0.043,0.149 -0.082,0.288 -0.125,0.437c0.106,0.029 0.203,0.056 0.306,0.085c0.061,-0.229 0.119,-0.445 0.177,-0.664c-0.293,-0.088 -0.575,-0.173 -0.867,-0.261c-0.128,0.383 -0.255,0.762 -0.385,1.15c0.785,0.239 1.552,0.496 2.378,0.528c0.043,-0.499 0.085,-0.99 0.127,-1.476c0.523,0.016 1.03,0.032 1.543,0.047c0.01,0.426 0.019,0.851 0.029,1.292c-0.352,-0.005 -0.691,-0.01 -1.04,-0.015c0.012,-0.268 0.023,-0.519 0.035,-0.777c0.119,0.004 0.225,0.008 0.337,0.012c-0.002,0.155 -0.004,0.299 -0.006,0.455c0.108,0 0.209,0 0.317,0c0,-0.237 0,-0.458 0,-0.685c-0.305,-0.009 -0.601,-0.018 -0.906,-0.027c-0.025,0.407 -0.049,0.802 -0.074,1.211c0.822,0.025 1.628,0.077 2.433,-0.107c-0.088,-0.498 -0.174,-0.983 -0.261,-1.469c0.51,-0.115 1.003,-0.226 1.506,-0.34c0.119,0.407 0.238,0.814 0.362,1.239c-0.343,0.078 -0.673,0.152 -1.006,0.227c-0.054,-0.239 -0.109,-0.481 -0.165,-0.731c0.108,-0.025 0.211,-0.048 0.334,-0.076c0.033,0.147 0.065,0.29 0.095,0.425c0.116,-0.026 0.211,-0.048 0.292,-0.066c-0.051,-0.228 -0.1,-0.443 -0.149,-0.659c-0.306,0.069 -0.593,0.134 -0.897,0.202c0.089,0.398 0.177,0.787 0.267,1.185c0.784,-0.18 1.571,-0.345 2.305,-0.727c-0.213,-0.453 -0.421,-0.899 -0.629,-1.343c0.459,-0.246 0.906,-0.487 1.36,-0.731c0.221,0.363 0.443,0.729 0.672,1.105c-0.308,0.172 -0.605,0.337 -0.909,0.507c-0.123,-0.237 -0.239,-0.46 -0.359,-0.69c0.104,-0.055 0.197,-0.106 0.297,-0.159c0.077,0.135 0.15,0.263 0.225,0.397c0.097,-0.056 0.182,-0.105 0.274,-0.157c-0.117,-0.203 -0.23,-0.397 -0.344,-0.594c-0.268,0.144 -0.527,0.284 -0.797,0.429c0.181,0.363 0.359,0.721 0.541,1.086c0.726,-0.389 1.45,-0.75 2.055,-1.309c-0.324,-0.384 -0.642,-0.761 -0.955,-1.133c0.379,-0.357 0.749,-0.705 1.125,-1.059c0.308,0.294 0.617,0.589 0.935,0.893c-0.255,0.248 -0.499,0.484 -0.747,0.725c-0.181,-0.197 -0.35,-0.383 -0.526,-0.574c0.087,-0.081 0.163,-0.153 0.246,-0.231c0.11,0.112 0.213,0.217 0.32,0.327c0.079,-0.078 0.149,-0.148 0.225,-0.222c-0.167,-0.167 -0.326,-0.326 -0.487,-0.486c-0.223,0.21 -0.439,0.414 -0.659,0.621c0.27,0.305 0.533,0.603 0.804,0.909c0.598,-0.56 1.204,-1.096 1.646,-1.795c-0.41,-0.286 -0.815,-0.569 -1.227,-0.857c0.288,-0.429 0.572,-0.852 0.863,-1.284c0.33,0.181 0.706,0.387 1.095,0.599c-0.18,0.302 -0.357,0.597 -0.517,0.864c-0.23,-0.139 -0.445,-0.27 -0.665,-0.403c0.057,-0.087 0.115,-0.176 0.176,-0.269c0.126,0.075 0.253,0.151 0.387,0.23c0.056,-0.096 0.106,-0.181 0.16,-0.273c-0.201,-0.116 -0.396,-0.229 -0.56,-0.323c-0.173,0.255 -0.34,0.501 -0.51,0.751c0.337,0.223 0.669,0.443 1.009,0.669c0.433,-0.695 0.88,-1.37 1.126,-2.161c-0.47,-0.17 -0.934,-0.338 -1.394,-0.504c0.15,-0.497 0.297,-0.986 0.446,-1.479c0.418,0.102 0.83,0.202 1.255,0.306c-0.096,0.338 -0.188,0.666 -0.284,1.001c-0.255,-0.081 -0.497,-0.157 -0.743,-0.235c0.036,-0.116 0.067,-0.217 0.1,-0.323c0.152,0.043 0.292,0.083 0.437,0.125c0.03,-0.104 0.057,-0.199 0.087,-0.306c-0.228,-0.06 -0.447,-0.119 -0.665,-0.177c-0.089,0.296 -0.174,0.577 -0.261,0.867c0.384,0.128 0.764,0.255 1.151,0.385c0.237,-0.788 0.496,-1.554 0.526,-2.378c-0.501,-0.043 -0.992,-0.086 -1.475,-0.127c0.016,-0.525 0.031,-1.032 0.047,-1.544c0.428,-0.009 0.852,-0.018 1.292,-0.028c-0.006,0.355 -0.011,0.694 -0.016,1.04c-0.269,-0.012 -0.52,-0.024 -0.777,-0.035c0.004,-0.122 0.008,-0.227 0.012,-0.337c0.156,0.002 0.301,0.004 0.456,0.006c0,-0.109 -0.001,-0.21 -0.001,-0.317c-0.237,0 -0.458,0 -0.684,0c-0.01,0.306 -0.019,0.602 -0.028,0.906c0.408,0.025 0.804,0.049 1.21,0.074c0.028,-0.822 0.077,-1.629 -0.105,-2.434c-0.496,0.089 -0.978,0.175 -1.469,0.262c-0.114,-0.504 -0.226,-1 -0.34,-1.506c0.406,-0.119 0.813,-0.238 1.239,-0.362c0.077,0.343 0.152,0.673 0.227,1.006c-0.239,0.054 -0.482,0.108 -0.732,0.165c-0.024,-0.109 -0.047,-0.211 -0.074,-0.331c0.146,-0.032 0.286,-0.064 0.423,-0.095c-0.026,-0.115 -0.048,-0.213 -0.066,-0.295c-0.229,0.052 -0.444,0.101 -0.658,0.149c0.069,0.307 0.134,0.593 0.203,0.898c0.395,-0.089 0.782,-0.177 1.183,-0.267c-0.177,-0.781 -0.345,-1.57 -0.726,-2.306c-0.455,0.213 -0.901,0.422 -1.343,0.628c-0.247,-0.46 -0.488,-0.907 -0.731,-1.36c0.365,-0.221 0.73,-0.443 1.105,-0.671c0.172,0.309 0.337,0.605 0.506,0.909c-0.238,0.124 -0.461,0.239 -0.69,0.358c-0.056,-0.104 -0.105,-0.198 -0.158,-0.297c0.136,-0.077 0.264,-0.15 0.397,-0.225c-0.057,-0.098 -0.106,-0.184 -0.158,-0.274c-0.203,0.119 -0.397,0.231 -0.593,0.345c0.145,0.27 0.284,0.528 0.428,0.796c0.363,-0.18 0.719,-0.357 1.073,-0.533c-0.179,-0.501 -0.971,-1.756 -1.299,-2.058c-0.378,0.318 -0.758,0.637 -1.13,0.951c-0.357,-0.38 -0.704,-0.748 -1.058,-1.125c0.292,-0.305 0.587,-0.615 0.892,-0.935c0.245,0.252 0.482,0.495 0.726,0.747c-0.197,0.18 -0.384,0.352 -0.575,0.526c-0.084,-0.09 -0.155,-0.167 -0.23,-0.247c0.114,-0.111 0.217,-0.212 0.327,-0.319c-0.078,-0.079 -0.15,-0.15 -0.224,-0.225c-0.168,0.169 -0.327,0.328 -0.484,0.486c0.211,0.225 0.413,0.439 0.62,0.66c0.303,-0.268 0.602,-0.532 0.909,-0.803c-0.558,-0.599 -1.097,-1.206 -1.796,-1.647c-0.288,0.413 -0.57,0.819 -0.854,1.227c-0.433,-0.291 -0.856,-0.574 -1.286,-0.863c0.184,-0.335 0.39,-0.71 0.6,-1.096c0.305,0.183 0.597,0.357 0.875,0.524c-0.139,0.228 -0.271,0.443 -0.401,0.655c-0.093,-0.059 -0.186,-0.117 -0.281,-0.176c0.076,-0.126 0.15,-0.25 0.229,-0.382c-0.096,-0.056 -0.183,-0.107 -0.275,-0.161c-0.117,0.205 -0.229,0.4 -0.326,0.568c0.257,0.173 0.501,0.337 0.752,0.506c0.226,-0.34 0.447,-0.674 0.673,-1.014c-0.699,-0.434 -1.374,-0.881 -2.161,-1.126c-0.171,0.474 -0.34,0.939 -0.505,1.395c-0.497,-0.15 -0.983,-0.297 -1.478,-0.446c0.101,-0.415 0.202,-0.83 0.306,-1.256c0.342,0.097 0.669,0.191 1.001,0.285c-0.081,0.256 -0.157,0.496 -0.235,0.743c-0.112,-0.035 -0.213,-0.066 -0.321,-0.1c0.041,-0.151 0.08,-0.292 0.12,-0.439c-0.108,-0.03 -0.202,-0.056 -0.304,-0.084c-0.06,0.228 -0.118,0.445 -0.176,0.664c0.292,0.088 0.574,0.173 0.866,0.261c0.128,-0.381 0.255,-0.761 0.385,-1.15c-0.784,-0.239 -1.551,-0.494 -2.377,-0.528c-0.043,0.499 -0.085,0.99 -0.127,1.476c-0.523,-0.016 -1.03,-0.031 -1.544,-0.047c-0.009,-0.426 -0.019,-0.85 -0.029,-1.292c0.352,0.006 0.691,0.011 1.04,0.016c-0.012,0.267 -0.023,0.517 -0.034,0.776c-0.119,-0.004 -0.225,-0.007 -0.336,-0.011c0.001,-0.157 0.002,-0.304 0.003,-0.456c-0.112,0 -0.21,0 -0.316,-0.001c0.001,0.237 0.001,0.459 0.001,0.686m10.946,7.074c1.369,5.916 -2.39,11.821 -8.228,13.149c-2.962,0.673 -5.748,0.229 -8.325,-1.378c-2.619,-1.632 -4.272,-3.975 -4.933,-6.99c-0.645,-2.941 -0.156,-5.704 1.459,-8.246c1.635,-2.575 3.962,-4.187 6.939,-4.858c5.845,-1.317 11.777,2.4 13.088,8.323" style="fill-opacity:0.835294;fill-rule:nonzero;"/></g><g><path d="M41.919,11.362c3.106,0 4.66,2.193 4.66,6.578c0,4.386 -1.554,6.579 -4.66,6.579l-2.048,0c-3.107,0 -4.66,-2.193 -4.66,-6.579c0,-4.385 1.553,-6.578 4.66,-6.578l2.048,0Zm-0.862,2.798l-0.324,0c-1.687,0.012 -2.53,1.025 -2.53,3.039l0,1.575c0,1.983 0.871,2.974 2.613,2.974l0.157,0c1.742,0 2.613,-0.991 2.613,-2.974l0,-1.575c0,-2.014 -0.843,-3.027 -2.529,-3.039Z" style="fill:#333;fill-rule:nonzero;"/><path d="M58.522,11.427c-0.328,-0.074 -0.735,-0.043 -1.223,0.093c-0.303,0.135 -0.525,0.342 -0.667,0.62l-2.799,5.865l-2.862,-5.939c-0.149,-0.278 -0.374,-0.485 -0.677,-0.621c-0.488,-0.129 -0.892,-0.16 -1.214,-0.092c-0.327,0.074 -0.593,0.235 -0.796,0.482c-0.21,0.24 -0.315,0.518 -0.315,0.833l0,11.758l2.872,0l0,-5.985l1.705,3.78c0.123,0.228 0.302,0.411 0.537,0.546c0.235,0.136 0.485,0.204 0.75,0.204c0.278,0 0.532,-0.068 0.76,-0.204c0.235,-0.135 0.411,-0.321 0.528,-0.555l1.64,-3.66l0,5.874l2.872,0l0,-11.683c0,-0.315 -0.105,-0.596 -0.315,-0.844c-0.21,-0.247 -0.475,-0.404 -0.796,-0.472Z" style="fill:#333;fill-rule:nonzero;"/><path d="M68.222,11.473l0,6.792l-4.568,-6.403c-0.191,-0.253 -0.435,-0.426 -0.731,-0.518c-0.303,-0.099 -0.603,-0.099 -0.899,0c-0.297,0.098 -0.538,0.274 -0.723,0.528c-0.185,0.259 -0.278,0.543 -0.278,0.852l0,11.711l2.909,0l0,-6.902l4.577,6.411c0.186,0.253 0.427,0.426 0.723,0.519c0.303,0.099 0.602,0.099 0.899,0c0.302,-0.099 0.543,-0.275 0.722,-0.528c0.186,-0.253 0.278,-0.538 0.278,-0.853l0,-11.609l-2.909,0Z" style="fill:#333;fill-rule:nonzero;"/><rect x="72.521" y="11.483" width="2.937" height="12.99" style="fill:#333;fill-rule:nonzero;"/><path d="M79.711,16.56l2.168,0c1.093,0 1.64,-0.389 1.64,-1.168c0,-0.759 -0.547,-1.139 -1.64,-1.139l-2.168,-0.009l0,2.316Zm-0.009,2.733l-0.01,5.114l-2.844,0l0,-12.952l6.133,0.028c2.304,-0.007 3.456,1.297 3.456,3.909c0,2.601 -1.152,3.901 -3.456,3.901l-3.279,0Z" style="fill:#d45769;fill-rule:nonzero;"/><path d="M88.763,22.489l-0.741,1.928l-2.974,0l4.586,-12.24c0.111,-0.24 0.278,-0.435 0.5,-0.583c0.222,-0.142 0.47,-0.213 0.741,-0.213c0.266,0 0.516,0.071 0.751,0.213c0.235,0.148 0.404,0.343 0.509,0.583l4.651,12.249l-2.983,0l-0.75,-1.937l-4.29,0Zm3.196,-2.807l-1.074,-2.752l-1.057,2.752l2.131,0Z" style="fill:#d45769;fill-rule:nonzero;"/><path d="M103.244,21.656l0,-3.512l2.937,0l0,6.282l-4.354,0c-3.36,0 -5.041,-2.162 -5.041,-6.486c0,-4.323 1.681,-6.485 5.041,-6.485l4.354,0l0,2.798l-3.048,0c-2.236,0 -3.354,1.013 -3.354,3.039l0,1.389c0,1.983 1.075,2.975 3.224,2.975l0.241,0Z" style="fill:#d45769;fill-rule:nonzero;"/><path d="M114.279,11.362c3.107,0 4.66,2.193 4.66,6.578c0,4.386 -1.553,6.579 -4.66,6.579l-2.048,0c-3.106,0 -4.66,-2.193 -4.66,-6.579c0,-4.385 1.554,-6.578 4.66,-6.578l2.048,0Zm-0.862,2.798l-0.324,0c-1.686,0.012 -2.529,1.025 -2.529,3.039l0,1.575c0,1.983 0.871,2.974 2.612,2.974l0.158,0c1.742,0 2.613,-0.991 2.613,-2.974l0,-1.575c0,-2.014 -0.843,-3.027 -2.53,-3.039Z" style="fill:#d45769;fill-rule:nonzero;"/><path d="M120.802,24.426l5.54,-0.009c0.284,-0.007 0.541,-0.028 0.769,-0.065c0.593,-0.105 1.118,-0.318 1.575,-0.64c0.544,-0.383 0.945,-0.895 1.205,-1.538c0.265,-0.636 0.358,-1.315 0.278,-2.038c-0.044,-1.507 -0.717,-2.508 -2.02,-3.002l-4.225,-0.973c-0.395,-0.135 -0.593,-0.463 -0.593,-0.982c0.031,-0.568 0.392,-0.874 1.084,-0.917l4.799,0l0,-2.779l-4.669,0c-0.013,0 -0.034,0 -0.065,0l-0.093,0c-0.092,0.006 -0.185,0.012 -0.278,0.018c-0.253,0.012 -0.503,0.04 -0.75,0.083c-0.723,0.124 -1.303,0.34 -1.742,0.649c-0.494,0.346 -0.88,0.791 -1.158,1.334c-0.272,0.544 -0.405,1.121 -0.399,1.733c0.007,0.648 0.158,1.251 0.454,1.806c0.297,0.563 0.705,1.017 1.223,1.362c0.352,0.241 0.788,0.427 1.307,0.556l3.289,0.658c0.395,0.111 0.593,0.377 0.593,0.797c0.043,0.432 -0.059,0.735 -0.306,0.908c-0.222,0.161 -0.726,0.235 -1.51,0.222l-4.308,0l0,2.817Z" style="fill:#d45769;fill-rule:nonzero;"/></g><defs><linearGradient id="_Linear2" x1="0" y1="0" x2="1" y2="0" gradientUnits="userSpaceOnUse" gradientTransform="matrix(24.2311,-2.88789,2.88789,24.2311,3.41551,19.3472)"><stop offset="0" style="stop-color:#e3853e;stop-opacity:1"/><stop offset="1" style="stop-color:#ffb848;stop-opacity:1"/></linearGradient><linearGradient id="_Linear4" x1="0" y1="0" x2="1" y2="0" gradientUnits="userSpaceOnUse" gradientTransform="matrix(21.2579,-3.91433,3.91433,21.2579,4.89261,19.8618)"><stop offset="0" style="stop-color:#e3853e;stop-opacity:1"/><stop offset="1" style="stop-color:#ffb848;stop-opacity:1"/></linearGradient><linearGradient id="_Linear6" x1="0" y1="0" x2="1" y2="0" gradientUnits="userSpaceOnUse" gradientTransform="matrix(3.1548,-0.375993,0.375993,3.1548,10.8191,16.8)"><stop offset="0" style="stop-color:#e3853e;stop-opacity:1"/><stop offset="1" style="stop-color:#ffb848;stop-opacity:1"/></linearGradient><linearGradient id="_Linear8" x1="0" y1="0" x2="1" y2="0" gradientUnits="userSpaceOnUse" gradientTransform="matrix(3.70834,-0.441964,0.441964,3.70834,12.596,20.95)"><stop offset="0" style="stop-color:#e3853e;stop-opacity:1"/><stop offset="1" style="stop-color:#ffb848;stop-opacity:1"/></linearGradient><linearGradient id="_Linear10" x1="0" y1="0" x2="1" y2="0" gradientUnits="userSpaceOnUse" gradientTransform="matrix(4.01883,-0.478969,0.478969,4.01883,13.6202,23.2181)"><stop offset="0" style="stop-color:#e3853e;stop-opacity:1"/><stop offset="1" style="stop-color:#ffb848;stop-opacity:1"/></linearGradient><linearGradient id="_Linear12" x1="0" y1="0" x2="1" y2="0" gradientUnits="userSpaceOnUse" gradientTransform="matrix(0.995497,-0.118644,0.118644,0.995497,9.43334,13.9726)"><stop offset="0" style="stop-color:#e3853e;stop-opacity:1"/><stop offset="1" style="stop-color:#ffb848;stop-opacity:1"/></linearGradient><linearGradient id="_Linear14" x1="0" y1="0" x2="1" y2="0" gradientUnits="userSpaceOnUse" gradientTransform="matrix(0.967573,-0.115317,0.115317,0.967573,9.09381,14.8091)"><stop offset="0" style="stop-color:#e3853e;stop-opacity:1"/><stop offset="1" style="stop-color:#ffb848;stop-opacity:1"/></linearGradient><linearGradient id="_Linear16" x1="0" y1="0" x2="1" y2="0" gradientUnits="userSpaceOnUse" gradientTransform="matrix(0.983347,-0.117196,0.117196,0.983347,8.59074,15.5734)"><stop offset="0" style="stop-color:#e3853e;stop-opacity:1"/><stop offset="1" style="stop-color:#ffb848;stop-opacity:1"/></linearGradient><linearGradient id="_Linear18" x1="0" y1="0" x2="1" y2="0" gradientUnits="userSpaceOnUse" gradientTransform="matrix(1.00662,-0.11997,0.11997,1.00662,8.23015,16.5856)"><stop offset="0" style="stop-color:#e3853e;stop-opacity:1"/><stop offset="1" style="stop-color:#ffb848;stop-opacity:1"/></linearGradient><linearGradient id="_Linear20" x1="0" y1="0" x2="1" y2="0" gradientUnits="userSpaceOnUse" gradientTransform="matrix(1.0452,-0.124568,0.124568,1.0452,7.93421,17.4835)"><stop offset="0" style="stop-color:#e3853e;stop-opacity:1"/><stop offset="1" style="stop-color:#ffb848;stop-opacity:1"/></linearGradient><linearGradient id="_Linear22" x1="0" y1="0" x2="1" y2="0" gradientUnits="userSpaceOnUse" gradientTransform="matrix(1.0191,-0.121458,0.121458,1.0191,7.69453,18.6238)"><stop offset="0" style="stop-color:#e3853e;stop-opacity:1"/><stop offset="1" style="stop-color:#ffb848;stop-opacity:1"/></linearGradient><linearGradient id="_Linear24" x1="0" y1="0" x2="1" y2="0" gradientUnits="userSpaceOnUse" gradientTransform="matrix(1.01297,-0.120727,0.120727,1.01297,7.46781,19.673)"><stop offset="0" style="stop-color:#e3853e;stop-opacity:1"/><stop offset="1" style="stop-color:#ffb848;stop-opacity:1"/></linearGradient><linearGradient id="_Linear26" x1="0" y1="0" x2="1" y2="0" gradientUnits="userSpaceOnUse" gradientTransform="matrix(0.965183,-0.115032,0.115032,0.965183,7.49383,20.6131)"><stop offset="0" style="stop-color:#e3853e;stop-opacity:1"/><stop offset="1" style="stop-color:#ffb848;stop-opacity:1"/></linearGradient><linearGradient id="_Linear28" x1="0" y1="0" x2="1" y2="0" gradientUnits="userSpaceOnUse" gradientTransform="matrix(0.704325,-0.0839423,0.0839423,0.704325,10.0174,15.901)"><stop offset="0" style="stop-color:#e3853e;stop-opacity:1"/><stop offset="1" style="stop-color:#ffb848;stop-opacity:1"/></linearGradient><linearGradient id="_Linear30" x1="0" y1="0" x2="1" y2="0" gradientUnits="userSpaceOnUse" gradientTransform="matrix(0.686854,-0.08186,0.08186,0.686854,9.54111,17.8067)"><stop offset="0" style="stop-color:#e3853e;stop-opacity:1"/><stop offset="1" style="stop-color:#ffb848;stop-opacity:1"/></linearGradient><linearGradient id="_Linear32" x1="0" y1="0" x2="1" y2="0" gradientUnits="userSpaceOnUse" gradientTransform="matrix(0.57048,-0.0679905,0.0679905,0.57048,9.52065,19.6861)"><stop offset="0" style="stop-color:#e3853e;stop-opacity:1"/><stop offset="1" style="stop-color:#ffb848;stop-opacity:1"/></linearGradient><linearGradient id="_Linear34" x1="0" y1="0" x2="1" y2="0" gradientUnits="userSpaceOnUse" gradientTransform="matrix(0.504683,-0.0601487,0.0601487,0.504683,10.7427,20.0003)"><stop offset="0" style="stop-color:#e3853e;stop-opacity:1"/><stop offset="1" style="stop-color:#ffb848;stop-opacity:1"/></linearGradient><linearGradient id="_Linear36" x1="0" y1="0" x2="1" y2="0" gradientUnits="userSpaceOnUse" gradientTransform="matrix(0.557333,-0.0664236,0.0664236,0.557333,10.1257,22.0083)"><stop offset="0" style="stop-color:#e3853e;stop-opacity:1"/><stop offset="1" style="stop-color:#ffb848;stop-opacity:1"/></linearGradient><linearGradient id="_Linear38" x1="0" y1="0" x2="1" y2="0" gradientUnits="userSpaceOnUse" gradientTransform="matrix(0.551164,-0.0656883,0.0656883,0.551164,11.4443,21.5724)"><stop offset="0" style="stop-color:#e3853e;stop-opacity:1"/><stop offset="1" style="stop-color:#ffb848;stop-opacity:1"/></linearGradient><linearGradient id="_Linear40" x1="0" y1="0" x2="1" y2="0" gradientUnits="userSpaceOnUse" gradientTransform="matrix(0.610083,-0.0727103,0.0727103,0.610083,11.4045,23.7004)"><stop offset="0" style="stop-color:#e3853e;stop-opacity:1"/><stop offset="1" style="stop-color:#ffb848;stop-opacity:1"/></linearGradient><linearGradient id="_Linear42" x1="0" y1="0" x2="1" y2="0" gradientUnits="userSpaceOnUse" gradientTransform="matrix(0.624524,-0.0744315,0.0744315,0.624524,12.7922,23.2941)"><stop offset="0" style="stop-color:#e3853e;stop-opacity:1"/><stop offset="1" style="stop-color:#ffb848;stop-opacity:1"/></linearGradient><linearGradient id="_Linear44" x1="0" y1="0" x2="1" y2="0" gradientUnits="userSpaceOnUse" gradientTransform="matrix(1.72754,-0.205891,0.205891,1.72754,10.2365,13.517)"><stop offset="0" style="stop-color:#e3853e;stop-opacity:1"/><stop offset="1" style="stop-color:#ffb848;stop-opacity:1"/></linearGradient><linearGradient id="_Linear46" x1="0" y1="0" x2="1" y2="0" gradientUnits="userSpaceOnUse" gradientTransform="matrix(11.4323,-1.36251,1.36251,11.4323,12.3714,18.4324)"><stop offset="0" style="stop-color:#e3853e;stop-opacity:1"/><stop offset="1" style="stop-color:#ffb848;stop-opacity:1"/></linearGradient><linearGradient id="_Linear48" x1="0" y1="0" x2="1" y2="0" gradientUnits="userSpaceOnUse" gradientTransform="matrix(0.713159,-0.0849952,0.0849952,0.713159,18.898,20.8144)"><stop offset="0" style="stop-color:#e3853e;stop-opacity:1"/><stop offset="1" style="stop-color:#ffb848;stop-opacity:1"/></linearGradient><linearGradient id="_Linear50" x1="0" y1="0" x2="1" y2="0" gradientUnits="userSpaceOnUse" gradientTransform="matrix(0.617188,-0.0735572,0.0735572,0.617188,21.2608,19.701)"><stop offset="0" style="stop-color:#e3853e;stop-opacity:1"/><stop offset="1" style="stop-color:#ffb848;stop-opacity:1"/></linearGradient><linearGradient id="_Linear52" x1="0" y1="0" x2="1" y2="0" gradientUnits="userSpaceOnUse" gradientTransform="matrix(0.599697,-0.0714726,0.0714726,0.599697,20.5334,19.0771)"><stop offset="0" style="stop-color:#e3853e;stop-opacity:1"/><stop offset="1" style="stop-color:#ffb848;stop-opacity:1"/></linearGradient><linearGradient id="_Linear54" x1="0" y1="0" x2="1" y2="0" gradientUnits="userSpaceOnUse" gradientTransform="matrix(3.93045,-0.468436,0.468436,3.93045,10.6946,17.7406)"><stop offset="0" style="stop-color:#e3853e;stop-opacity:1"/><stop offset="1" style="stop-color:#ffb848;stop-opacity:1"/></linearGradient><linearGradient id="_Linear56" x1="0" y1="0" x2="1" y2="0" gradientUnits="userSpaceOnUse" gradientTransform="matrix(3.47886,-0.414615,0.414615,3.47886,11.5652,18.7899)"><stop offset="0" style="stop-color:#e3853e;stop-opacity:1"/><stop offset="1" style="stop-color:#ffb848;stop-opacity:1"/></linearGradient><linearGradient id="_Linear58" x1="0" y1="0" x2="1" y2="0" gradientUnits="userSpaceOnUse" gradientTransform="matrix(3.7931,-0.452066,0.452066,3.7931,12.0599,19.7946)"><stop offset="0" style="stop-color:#e3853e;stop-opacity:1"/><stop offset="1" style="stop-color:#ffb848;stop-opacity:1"/></linearGradient><linearGradient id="_Linear60" x1="0" y1="0" x2="1" y2="0" gradientUnits="userSpaceOnUse" gradientTransform="matrix(3.99605,-0.476253,0.476253,3.99605,12.9448,22.0797)"><stop offset="0" style="stop-color:#e3853e;stop-opacity:1"/><stop offset="1" style="stop-color:#ffb848;stop-opacity:1"/></linearGradient><linearGradient id="_Linear62" x1="0" y1="0" x2="1" y2="0" gradientUnits="userSpaceOnUse" gradientTransform="matrix(2.92196,-0.348243,0.348243,2.92196,17.4348,23.9943)"><stop offset="0" style="stop-color:#e3853e;stop-opacity:1"/><stop offset="1" style="stop-color:#ffb848;stop-opacity:1"/></linearGradient></defs></svg>