<?xml version="1.0" encoding="UTF-8" standalone="no"?>
<!DOCTYPE svg PUBLIC "-//W3C//DTD SVG 1.1//EN"
 "http://www.w3.org/Graphics/SVG/1.1/DTD/svg11.dtd">
<!-- Generated by graphviz version 2.40.1 (20161225.0304)
 -->
<!-- Title: dependencies Pages: 1 -->
<svg width="3094pt" height="211pt"
 viewBox="0.00 0.00 3094.00 211.00" xmlns="http://www.w3.org/2000/svg" xmlns:xlink="http://www.w3.org/1999/xlink">
<g id="graph0" class="graph" transform="scale(1 1) rotate(0) translate(4 207)">
<title>dependencies</title>
<polygon fill="#ffffff" stroke="transparent" points="-4,4 -4,-207 3090,-207 3090,4 -4,4"/>
<text text-anchor="start" x="1522.0091" y="-42.4" font-family="sans-serif" font-weight="bold" font-size="14.00" fill="#000000">Legend</text>
<polygon fill="#ffffb3" stroke="transparent" points="1309,-10 1309,-30 1329,-30 1329,-10 1309,-10"/>
<text text-anchor="start" x="1332.629" y="-15.4" font-family="sans-serif" font-size="14.00" fill="#000000"> &#160;Declarations</text>
<polygon fill="#8dd3c7" stroke="transparent" points="1422,-10 1422,-30 1442,-30 1442,-10 1422,-10"/>
<text text-anchor="start" x="1445.7251" y="-15.4" font-family="sans-serif" font-size="14.00" fill="#000000"> &#160;Module</text>
<polygon fill="#80b1d3" stroke="transparent" points="1508,-10 1508,-30 1528,-30 1528,-10 1508,-10"/>
<text text-anchor="start" x="1531.7812" y="-15.4" font-family="sans-serif" font-size="14.00" fill="#000000"> &#160;Bootstrap</text>
<polygon fill="#fdb462" stroke="transparent" points="1605,-10 1605,-30 1625,-30 1625,-10 1605,-10"/>
<text text-anchor="start" x="1628.6732" y="-15.4" font-family="sans-serif" font-size="14.00" fill="#000000"> &#160;Providers</text>
<polygon fill="#fb8072" stroke="transparent" points="1701,-10 1701,-30 1721,-30 1721,-10 1701,-10"/>
<text text-anchor="start" x="1724.7258" y="-15.4" font-family="sans-serif" font-size="14.00" fill="#000000"> &#160;Exports</text>
<g id="clust1" class="cluster">
<title>cluster_TransactionsModule</title>
<polygon fill="none" stroke="#000000" stroke-dasharray="1,5" points="8,-70 8,-195 3078,-195 3078,-70 8,-70"/>
</g>
<g id="clust2" class="cluster">
<title>cluster_TransactionsModule_declarations</title>
<polygon fill="none" stroke="#000000" points="1454,-78 1454,-130 3070,-130 3070,-78 1454,-78"/>
</g>
<g id="clust11" class="cluster">
<title>cluster_TransactionsModule_imports</title>
<polygon fill="none" stroke="#000000" points="16,-78 16,-130 1446,-130 1446,-78 16,-78"/>
</g>
<!-- TransactionsComponent -->
<g id="node1" class="node">
<title>TransactionsComponent</title>
<polygon fill="#ffffb3" stroke="#000000" points="3062.3599,-122 2909.6401,-122 2909.6401,-86 3062.3599,-86 3062.3599,-122"/>
<text text-anchor="middle" x="2986" y="-99.8" font-family="Times,serif" font-size="14.00" fill="#000000">TransactionsComponent</text>
</g>
<!-- TransactionsModule -->
<g id="node9" class="node">
<title>TransactionsModule</title>
<polygon fill="#8dd3c7" stroke="#000000" points="1386.5772,-187 1383.5772,-191 1362.5772,-191 1359.5772,-187 1255.4228,-187 1255.4228,-151 1386.5772,-151 1386.5772,-187"/>
<text text-anchor="middle" x="1321" y="-164.8" font-family="Times,serif" font-size="14.00" fill="#000000">TransactionsModule</text>
</g>
<!-- TransactionsComponent&#45;&gt;TransactionsModule -->
<g id="edge1" class="edge">
<title>TransactionsComponent&#45;&gt;TransactionsModule</title>
<path fill="none" stroke="#000000" d="M2986,-122.3228C2986,-145.6602 2986,-183 2986,-183 2986,-183 1396.7828,-183 1396.7828,-183"/>
<polygon fill="#000000" stroke="#000000" points="1396.7828,-179.5001 1386.7828,-183 1396.7828,-186.5001 1396.7828,-179.5001"/>
</g>
<!-- TransactionWidgetComponent -->
<g id="node2" class="node">
<title>TransactionWidgetComponent</title>
<polygon fill="#ffffb3" stroke="#000000" points="2891.126,-122 2702.874,-122 2702.874,-86 2891.126,-86 2891.126,-122"/>
<text text-anchor="middle" x="2797" y="-99.8" font-family="Times,serif" font-size="14.00" fill="#000000">TransactionWidgetComponent</text>
</g>
<!-- TransactionWidgetComponent&#45;&gt;TransactionsModule -->
<g id="edge2" class="edge">
<title>TransactionWidgetComponent&#45;&gt;TransactionsModule</title>
<path fill="none" stroke="#000000" d="M2797,-122.1554C2797,-144.3519 2797,-179 2797,-179 2797,-179 1396.8064,-179 1396.8064,-179"/>
<polygon fill="#000000" stroke="#000000" points="1396.8065,-175.5001 1386.8064,-179 1396.8064,-182.5001 1396.8065,-175.5001"/>
</g>
<!-- TransactionsTableComponent -->
<g id="node3" class="node">
<title>TransactionsTableComponent</title>
<polygon fill="#ffffb3" stroke="#000000" points="2684.2324,-122 2499.7676,-122 2499.7676,-86 2684.2324,-86 2684.2324,-122"/>
<text text-anchor="middle" x="2592" y="-99.8" font-family="Times,serif" font-size="14.00" fill="#000000">TransactionsTableComponent</text>
</g>
<!-- TransactionsTableComponent&#45;&gt;TransactionsModule -->
<g id="edge3" class="edge">
<title>TransactionsTableComponent&#45;&gt;TransactionsModule</title>
<path fill="none" stroke="#000000" d="M2592,-122.2843C2592,-143.3211 2592,-175 2592,-175 2592,-175 1396.6581,-175 1396.6581,-175"/>
<polygon fill="#000000" stroke="#000000" points="1396.6581,-171.5001 1386.6581,-175 1396.658,-178.5001 1396.6581,-171.5001"/>
</g>
<!-- TransactionDetailComponent -->
<g id="node4" class="node">
<title>TransactionDetailComponent</title>
<polygon fill="#ffffb3" stroke="#000000" points="2481.6232,-122 2300.3768,-122 2300.3768,-86 2481.6232,-86 2481.6232,-122"/>
<text text-anchor="middle" x="2391" y="-99.8" font-family="Times,serif" font-size="14.00" fill="#000000">TransactionDetailComponent</text>
</g>
<!-- TransactionDetailComponent&#45;&gt;TransactionsModule -->
<g id="edge4" class="edge">
<title>TransactionDetailComponent&#45;&gt;TransactionsModule</title>
<path fill="none" stroke="#000000" d="M2391,-122.308C2391,-142.1455 2391,-171 2391,-171 2391,-171 1396.7237,-171 1396.7237,-171"/>
<polygon fill="#000000" stroke="#000000" points="1396.7237,-167.5001 1386.7237,-171 1396.7236,-174.5001 1396.7237,-167.5001"/>
</g>
<!-- TransactionCardComponent -->
<g id="node5" class="node">
<title>TransactionCardComponent</title>
<polygon fill="#ffffb3" stroke="#000000" points="2282.1274,-122 2107.8726,-122 2107.8726,-86 2282.1274,-86 2282.1274,-122"/>
<text text-anchor="middle" x="2195" y="-99.8" font-family="Times,serif" font-size="14.00" fill="#000000">TransactionCardComponent</text>
</g>
<!-- TransactionCardComponent&#45;&gt;TransactionsModule -->
<g id="edge5" class="edge">
<title>TransactionCardComponent&#45;&gt;TransactionsModule</title>
<path fill="none" stroke="#000000" d="M2195,-122.2222C2195,-140.8285 2195,-167 2195,-167 2195,-167 1396.6921,-167 1396.6921,-167"/>
<polygon fill="#000000" stroke="#000000" points="1396.6921,-163.5001 1386.6921,-167 1396.692,-170.5001 1396.6921,-163.5001"/>
</g>
<!-- TransactionLogComponent -->
<g id="node6" class="node">
<title>TransactionLogComponent</title>
<polygon fill="#ffffb3" stroke="#000000" points="2089.9678,-122 1920.0322,-122 1920.0322,-86 2089.9678,-86 2089.9678,-122"/>
<text text-anchor="middle" x="2005" y="-99.8" font-family="Times,serif" font-size="14.00" fill="#000000">TransactionLogComponent</text>
</g>
<!-- TransactionLogComponent&#45;&gt;TransactionsModule -->
<g id="edge6" class="edge">
<title>TransactionLogComponent&#45;&gt;TransactionsModule</title>
<path fill="none" stroke="#000000" d="M2005,-122.0225C2005,-139.3734 2005,-163 2005,-163 2005,-163 1396.5848,-163 1396.5848,-163"/>
<polygon fill="#000000" stroke="#000000" points="1396.5848,-159.5001 1386.5848,-163 1396.5848,-166.5001 1396.5848,-159.5001"/>
</g>
<!-- TransactionsToolbarComponent -->
<g id="node7" class="node">
<title>TransactionsToolbarComponent</title>
<polygon fill="#ffffb3" stroke="#000000" points="1901.6783,-122 1704.3217,-122 1704.3217,-86 1901.6783,-86 1901.6783,-122"/>
<text text-anchor="middle" x="1803" y="-99.8" font-family="Times,serif" font-size="14.00" fill="#000000">TransactionsToolbarComponent</text>
</g>
<!-- TransactionsToolbarComponent&#45;&gt;TransactionsModule -->
<g id="edge7" class="edge">
<title>TransactionsToolbarComponent&#45;&gt;TransactionsModule</title>
<path fill="none" stroke="#000000" d="M1803,-122.0091C1803,-138.0494 1803,-159 1803,-159 1803,-159 1396.7577,-159 1396.7577,-159"/>
<polygon fill="#000000" stroke="#000000" points="1396.7577,-155.5001 1386.7577,-159 1396.7576,-162.5001 1396.7577,-155.5001"/>
</g>
<!-- UpdateTransactionModalComponent -->
<g id="node8" class="node">
<title>UpdateTransactionModalComponent</title>
<polygon fill="#ffffb3" stroke="#000000" points="1686.3917,-122 1461.6083,-122 1461.6083,-86 1686.3917,-86 1686.3917,-122"/>
<text text-anchor="middle" x="1574" y="-99.8" font-family="Times,serif" font-size="14.00" fill="#000000">UpdateTransactionModalComponent</text>
</g>
<!-- UpdateTransactionModalComponent&#45;&gt;TransactionsModule -->
<g id="edge8" class="edge">
<title>UpdateTransactionModalComponent&#45;&gt;TransactionsModule</title>
<path fill="none" stroke="#000000" d="M1574,-122.1243C1574,-136.7832 1574,-155 1574,-155 1574,-155 1396.8123,-155 1396.8123,-155"/>
<polygon fill="#000000" stroke="#000000" points="1396.8124,-151.5001 1386.8123,-155 1396.8123,-158.5001 1396.8124,-151.5001"/>
</g>
<!-- CommonModule -->
<g id="node10" class="node">
<title>CommonModule</title>
<polygon fill="#8dd3c7" stroke="#000000" points="1437.6681,-122 1434.6681,-126 1413.6681,-126 1410.6681,-122 1326.3319,-122 1326.3319,-86 1437.6681,-86 1437.6681,-122"/>
<text text-anchor="middle" x="1382" y="-99.8" font-family="Times,serif" font-size="14.00" fill="#000000">CommonModule</text>
</g>
<!-- CommonModule&#45;&gt;TransactionsModule -->
<g id="edge9" class="edge">
<title>CommonModule&#45;&gt;TransactionsModule</title>
<path fill="none" stroke="#000000" d="M1356.3524,-122.1061C1356.3524,-122.1061 1356.3524,-140.991 1356.3524,-140.991"/>
<polygon fill="#000000" stroke="#000000" points="1352.8525,-140.9909 1356.3524,-150.991 1359.8525,-140.991 1352.8525,-140.9909"/>
</g>
<!-- FormsModule -->
<g id="node11" class="node">
<title>FormsModule</title>
<polygon fill="#8dd3c7" stroke="#000000" points="1308.8288,-122 1305.8288,-126 1284.8288,-126 1281.8288,-122 1213.1712,-122 1213.1712,-86 1308.8288,-86 1308.8288,-122"/>
<text text-anchor="middle" x="1261" y="-99.8" font-family="Times,serif" font-size="14.00" fill="#000000">FormsModule</text>
</g>
<!-- FormsModule&#45;&gt;TransactionsModule -->
<g id="edge10" class="edge">
<title>FormsModule&#45;&gt;TransactionsModule</title>
<path fill="none" stroke="#000000" d="M1282.0628,-122.1061C1282.0628,-122.1061 1282.0628,-140.991 1282.0628,-140.991"/>
<polygon fill="#000000" stroke="#000000" points="1278.5628,-140.9909 1282.0628,-150.991 1285.5628,-140.991 1278.5628,-140.9909"/>
</g>
<!-- NgxDatatableModule -->
<g id="node12" class="node">
<title>NgxDatatableModule</title>
<polygon fill="#8dd3c7" stroke="#000000" points="1195.7935,-122 1192.7935,-126 1171.7935,-126 1168.7935,-122 1058.2065,-122 1058.2065,-86 1195.7935,-86 1195.7935,-122"/>
<text text-anchor="middle" x="1127" y="-99.8" font-family="Times,serif" font-size="14.00" fill="#000000">NgxDatatableModule</text>
</g>
<!-- NgxDatatableModule&#45;&gt;TransactionsModule -->
<g id="edge11" class="edge">
<title>NgxDatatableModule&#45;&gt;TransactionsModule</title>
<path fill="none" stroke="#000000" d="M1127,-122.1243C1127,-136.7832 1127,-155 1127,-155 1127,-155 1245.3204,-155 1245.3204,-155"/>
<polygon fill="#000000" stroke="#000000" points="1245.3205,-158.5001 1255.3204,-155 1245.3204,-151.5001 1245.3205,-158.5001"/>
</g>
<!-- TooltipModule -->
<g id="node13" class="node">
<title>TooltipModule</title>
<polygon fill="#8dd3c7" stroke="#000000" points="1040.2745,-122 1037.2745,-126 1016.2745,-126 1013.2745,-122 939.7255,-122 939.7255,-86 1040.2745,-86 1040.2745,-122"/>
<text text-anchor="middle" x="990" y="-99.8" font-family="Times,serif" font-size="14.00" fill="#000000">TooltipModule</text>
</g>
<!-- TooltipModule&#45;&gt;TransactionsModule -->
<g id="edge12" class="edge">
<title>TooltipModule&#45;&gt;TransactionsModule</title>
<path fill="none" stroke="#000000" d="M990,-122.0091C990,-138.0494 990,-159 990,-159 990,-159 1245.2093,-159 1245.2093,-159"/>
<polygon fill="#000000" stroke="#000000" points="1245.2093,-162.5001 1255.2093,-159 1245.2093,-155.5001 1245.2093,-162.5001"/>
</g>
<!-- BsDropdownModule -->
<g id="node14" class="node">
<title>BsDropdownModule</title>
<polygon fill="#8dd3c7" stroke="#000000" points="922.205,-122 919.205,-126 898.205,-126 895.205,-122 787.795,-122 787.795,-86 922.205,-86 922.205,-122"/>
<text text-anchor="middle" x="855" y="-99.8" font-family="Times,serif" font-size="14.00" fill="#000000">BsDropdownModule</text>
</g>
<!-- BsDropdownModule&#45;&gt;TransactionsModule -->
<g id="edge13" class="edge">
<title>BsDropdownModule&#45;&gt;TransactionsModule</title>
<path fill="none" stroke="#000000" d="M855,-122.0225C855,-139.3734 855,-163 855,-163 855,-163 1245.2219,-163 1245.2219,-163"/>
<polygon fill="#000000" stroke="#000000" points="1245.222,-166.5001 1255.2219,-163 1245.2219,-159.5001 1245.222,-166.5001"/>
</g>
<!-- ModalModule -->
<g id="node15" class="node">
<title>ModalModule</title>
<polygon fill="#8dd3c7" stroke="#000000" points="770.0997,-122 767.0997,-126 746.0997,-126 743.0997,-122 673.9003,-122 673.9003,-86 770.0997,-86 770.0997,-122"/>
<text text-anchor="middle" x="722" y="-99.8" font-family="Times,serif" font-size="14.00" fill="#000000">ModalModule</text>
</g>
<!-- ModalModule&#45;&gt;TransactionsModule -->
<g id="edge14" class="edge">
<title>ModalModule&#45;&gt;TransactionsModule</title>
<path fill="none" stroke="#000000" d="M722,-122.2222C722,-140.8285 722,-167 722,-167 722,-167 1245.1831,-167 1245.1831,-167"/>
<polygon fill="#000000" stroke="#000000" points="1245.1831,-170.5001 1255.1831,-167 1245.183,-163.5001 1245.1831,-170.5001"/>
</g>
<!-- MultiselectDropdownModule -->
<g id="node16" class="node">
<title>MultiselectDropdownModule</title>
<polygon fill="#8dd3c7" stroke="#000000" points="656.4101,-122 653.4101,-126 632.4101,-126 629.4101,-122 473.5899,-122 473.5899,-86 656.4101,-86 656.4101,-122"/>
<text text-anchor="middle" x="565" y="-99.8" font-family="Times,serif" font-size="14.00" fill="#000000">MultiselectDropdownModule</text>
</g>
<!-- MultiselectDropdownModule&#45;&gt;TransactionsModule -->
<g id="edge15" class="edge">
<title>MultiselectDropdownModule&#45;&gt;TransactionsModule</title>
<path fill="none" stroke="#000000" d="M565,-122.308C565,-142.1455 565,-171 565,-171 565,-171 1245.2325,-171 1245.2325,-171"/>
<polygon fill="#000000" stroke="#000000" points="1245.2325,-174.5001 1255.2325,-171 1245.2324,-167.5001 1245.2325,-174.5001"/>
</g>
<!-- DatepickerModule -->
<g id="node17" class="node">
<title>DatepickerModule</title>
<polygon fill="#8dd3c7" stroke="#000000" points="455.4566,-122 452.4566,-126 431.4566,-126 428.4566,-122 334.5434,-122 334.5434,-86 455.4566,-86 455.4566,-122"/>
<text text-anchor="middle" x="395" y="-99.8" font-family="Times,serif" font-size="14.00" fill="#000000">DatepickerModule</text>
</g>
<!-- DatepickerModule&#45;&gt;TransactionsModule -->
<g id="edge16" class="edge">
<title>DatepickerModule&#45;&gt;TransactionsModule</title>
<path fill="none" stroke="#000000" d="M395,-122.2843C395,-143.3211 395,-175 395,-175 395,-175 1245.1467,-175 1245.1467,-175"/>
<polygon fill="#000000" stroke="#000000" points="1245.1467,-178.5001 1255.1467,-175 1245.1467,-171.5001 1245.1467,-178.5001"/>
</g>
<!-- SharedModule -->
<g id="node18" class="node">
<title>SharedModule</title>
<polygon fill="#8dd3c7" stroke="#000000" points="316.4231,-122 313.4231,-126 292.4231,-126 289.4231,-122 217.5769,-122 217.5769,-86 316.4231,-86 316.4231,-122"/>
<text text-anchor="middle" x="267" y="-99.8" font-family="Times,serif" font-size="14.00" fill="#000000">SharedModule</text>
</g>
<!-- SharedModule&#45;&gt;TransactionsModule -->
<g id="edge17" class="edge">
<title>SharedModule&#45;&gt;TransactionsModule</title>
<path fill="none" stroke="#000000" d="M267,-122.1554C267,-144.3519 267,-179 267,-179 267,-179 1245.0676,-179 1245.0676,-179"/>
<polygon fill="#000000" stroke="#000000" points="1245.0676,-182.5001 1255.0676,-179 1245.0675,-175.5001 1245.0676,-182.5001"/>
</g>
<!-- TransactionsRoutingModule -->
<g id="node19" class="node">
<title>TransactionsRoutingModule</title>
<polygon fill="#8dd3c7" stroke="#000000" points="200.1951,-122 197.1951,-126 176.1951,-126 173.1951,-122 23.8049,-122 23.8049,-86 200.1951,-86 200.1951,-122"/>
<text text-anchor="middle" x="112" y="-99.8" font-family="Times,serif" font-size="14.00" fill="#000000">TransactionsRoutingModule</text>
</g>
<!-- TransactionsRoutingModule&#45;&gt;TransactionsModule -->
<g id="edge18" class="edge">
<title>TransactionsRoutingModule&#45;&gt;TransactionsModule</title>
<path fill="none" stroke="#000000" d="M112,-122.3228C112,-145.6602 112,-183 112,-183 112,-183 1245.1403,-183 1245.1403,-183"/>
<polygon fill="#000000" stroke="#000000" points="1245.1404,-186.5001 1255.1403,-183 1245.1403,-179.5001 1245.1404,-186.5001"/>
</g>
</g>
</svg>
