<?xml version="1.0" encoding="UTF-8" standalone="no"?>
<!DOCTYPE svg PUBLIC "-//W3C//DTD SVG 1.1//EN"
 "http://www.w3.org/Graphics/SVG/1.1/DTD/svg11.dtd">
<!-- Generated by graphviz version 2.40.1 (20161225.0304)
 -->
<!-- Title: dependencies Pages: 1 -->
<svg width="6730pt" height="284pt"
 viewBox="0.00 0.00 6730.00 284.00" xmlns="http://www.w3.org/2000/svg" xmlns:xlink="http://www.w3.org/1999/xlink">
<g id="graph0" class="graph" transform="scale(1 1) rotate(0) translate(4 280)">
<title>dependencies</title>
<polygon fill="#ffffff" stroke="transparent" points="-4,4 -4,-280 6726,-280 6726,4 -4,4"/>
<text text-anchor="start" x="3340.0091" y="-42.4" font-family="sans-serif" font-weight="bold" font-size="14.00" fill="#000000">Legend</text>
<polygon fill="#ffffb3" stroke="transparent" points="3127,-10 3127,-30 3147,-30 3147,-10 3127,-10"/>
<text text-anchor="start" x="3150.629" y="-15.4" font-family="sans-serif" font-size="14.00" fill="#000000"> &#160;Declarations</text>
<polygon fill="#8dd3c7" stroke="transparent" points="3240,-10 3240,-30 3260,-30 3260,-10 3240,-10"/>
<text text-anchor="start" x="3263.7251" y="-15.4" font-family="sans-serif" font-size="14.00" fill="#000000"> &#160;Module</text>
<polygon fill="#80b1d3" stroke="transparent" points="3326,-10 3326,-30 3346,-30 3346,-10 3326,-10"/>
<text text-anchor="start" x="3349.7812" y="-15.4" font-family="sans-serif" font-size="14.00" fill="#000000"> &#160;Bootstrap</text>
<polygon fill="#fdb462" stroke="transparent" points="3423,-10 3423,-30 3443,-30 3443,-10 3423,-10"/>
<text text-anchor="start" x="3446.6732" y="-15.4" font-family="sans-serif" font-size="14.00" fill="#000000"> &#160;Providers</text>
<polygon fill="#fb8072" stroke="transparent" points="3519,-10 3519,-30 3539,-30 3539,-10 3519,-10"/>
<text text-anchor="start" x="3542.7258" y="-15.4" font-family="sans-serif" font-size="14.00" fill="#000000"> &#160;Exports</text>
<g id="clust1" class="cluster">
<title>cluster_AppModule</title>
<polygon fill="none" stroke="#000000" stroke-dasharray="1,5" points="8,-70 8,-268 6714,-268 6714,-70 8,-70"/>
</g>
<g id="clust2" class="cluster">
<title>cluster_AppModule_declarations</title>
<polygon fill="none" stroke="#000000" points="5456,-78 5456,-130 6706,-130 6706,-78 5456,-78"/>
</g>
<g id="clust12" class="cluster">
<title>cluster_AppModule_imports</title>
<polygon fill="none" stroke="#000000" points="1320,-78 1320,-130 5448,-130 5448,-78 1320,-78"/>
</g>
<g id="clust14" class="cluster">
<title>cluster_AppModule_bootstrap</title>
<polygon fill="none" stroke="#000000" points="3889,-208 3889,-260 4013,-260 4013,-208 3889,-208"/>
</g>
<g id="clust15" class="cluster">
<title>cluster_AppModule_providers</title>
<polygon fill="none" stroke="#000000" points="16,-78 16,-130 1312,-130 1312,-78 16,-78"/>
</g>
<!-- AppComponent -->
<g id="node1" class="node">
<title>AppComponent</title>
<polygon fill="#ffffb3" stroke="#000000" points="6697.9399,-122 6592.0601,-122 6592.0601,-86 6697.9399,-86 6697.9399,-122"/>
<text text-anchor="middle" x="6645" y="-99.8" font-family="Times,serif" font-size="14.00" fill="#000000">AppComponent</text>
</g>
<!-- AppModule -->
<g id="node10" class="node">
<title>AppModule</title>
<polygon fill="#8dd3c7" stroke="#000000" points="3992.6571,-187 3989.6571,-191 3968.6571,-191 3965.6571,-187 3909.3429,-187 3909.3429,-151 3992.6571,-151 3992.6571,-187"/>
<text text-anchor="middle" x="3951" y="-164.8" font-family="Times,serif" font-size="14.00" fill="#000000">AppModule</text>
</g>
<!-- AppComponent&#45;&gt;AppModule -->
<g id="edge1" class="edge">
<title>AppComponent&#45;&gt;AppModule</title>
<path fill="none" stroke="#000000" d="M6645,-122.3802C6645,-146.2785 6645,-185 6645,-185 6645,-185 4002.7756,-185 4002.7756,-185"/>
<polygon fill="#000000" stroke="#000000" points="4002.7757,-181.5001 3992.7756,-185 4002.7756,-188.5001 4002.7757,-181.5001"/>
</g>
<!-- P404Component -->
<g id="node2" class="node">
<title>P404Component</title>
<polygon fill="#ffffb3" stroke="#000000" points="6574.1151,-122 6463.8849,-122 6463.8849,-86 6574.1151,-86 6574.1151,-122"/>
<text text-anchor="middle" x="6519" y="-99.8" font-family="Times,serif" font-size="14.00" fill="#000000">P404Component</text>
</g>
<!-- P404Component&#45;&gt;AppModule -->
<g id="edge2" class="edge">
<title>P404Component&#45;&gt;AppModule</title>
<path fill="none" stroke="#000000" d="M6519,-122.3228C6519,-145.6602 6519,-183 6519,-183 6519,-183 4002.902,-183 4002.902,-183"/>
<polygon fill="#000000" stroke="#000000" points="4002.9021,-179.5001 3992.902,-183 4002.902,-186.5001 4002.9021,-179.5001"/>
</g>
<!-- P500Component -->
<g id="node3" class="node">
<title>P500Component</title>
<polygon fill="#ffffb3" stroke="#000000" points="6446.1151,-122 6335.8849,-122 6335.8849,-86 6446.1151,-86 6446.1151,-122"/>
<text text-anchor="middle" x="6391" y="-99.8" font-family="Times,serif" font-size="14.00" fill="#000000">P500Component</text>
</g>
<!-- P500Component&#45;&gt;AppModule -->
<g id="edge3" class="edge">
<title>P500Component&#45;&gt;AppModule</title>
<path fill="none" stroke="#000000" d="M6391,-122.2479C6391,-145.0179 6391,-181 6391,-181 6391,-181 4002.8374,-181 4002.8374,-181"/>
<polygon fill="#000000" stroke="#000000" points="4002.8374,-177.5001 3992.8374,-181 4002.8374,-184.5001 4002.8374,-177.5001"/>
</g>
<!-- LoginComponent -->
<g id="node4" class="node">
<title>LoginComponent</title>
<polygon fill="#ffffb3" stroke="#000000" points="6318.2758,-122 6203.7242,-122 6203.7242,-86 6318.2758,-86 6318.2758,-122"/>
<text text-anchor="middle" x="6261" y="-99.8" font-family="Times,serif" font-size="14.00" fill="#000000">LoginComponent</text>
</g>
<!-- LoginComponent&#45;&gt;AppModule -->
<g id="edge4" class="edge">
<title>LoginComponent&#45;&gt;AppModule</title>
<path fill="none" stroke="#000000" d="M6261,-122.1554C6261,-144.3519 6261,-179 6261,-179 6261,-179 4003.0663,-179 4003.0663,-179"/>
<polygon fill="#000000" stroke="#000000" points="4003.0663,-175.5001 3993.0663,-179 4003.0663,-182.5001 4003.0663,-175.5001"/>
</g>
<!-- RegisterComponent -->
<g id="node5" class="node">
<title>RegisterComponent</title>
<polygon fill="#ffffb3" stroke="#000000" points="6185.9846,-122 6058.0154,-122 6058.0154,-86 6185.9846,-86 6185.9846,-122"/>
<text text-anchor="middle" x="6122" y="-99.8" font-family="Times,serif" font-size="14.00" fill="#000000">RegisterComponent</text>
</g>
<!-- RegisterComponent&#45;&gt;AppModule -->
<g id="edge5" class="edge">
<title>RegisterComponent&#45;&gt;AppModule</title>
<path fill="none" stroke="#000000" d="M6122,-122.0449C6122,-143.6623 6122,-177 6122,-177 6122,-177 4002.9103,-177 4002.9103,-177"/>
<polygon fill="#000000" stroke="#000000" points="4002.9103,-173.5001 3992.9103,-177 4002.9102,-180.5001 4002.9103,-173.5001"/>
</g>
<!-- WelcomeComponent -->
<g id="node6" class="node">
<title>WelcomeComponent</title>
<polygon fill="#ffffb3" stroke="#000000" points="6040.472,-122 5905.528,-122 5905.528,-86 6040.472,-86 6040.472,-122"/>
<text text-anchor="middle" x="5973" y="-99.8" font-family="Times,serif" font-size="14.00" fill="#000000">WelcomeComponent</text>
</g>
<!-- WelcomeComponent&#45;&gt;AppModule -->
<g id="edge6" class="edge">
<title>WelcomeComponent&#45;&gt;AppModule</title>
<path fill="none" stroke="#000000" d="M5973,-122.2843C5973,-143.3211 5973,-175 5973,-175 5973,-175 4002.7682,-175 4002.7682,-175"/>
<polygon fill="#000000" stroke="#000000" points="4002.7682,-171.5001 3992.7682,-175 4002.7682,-178.5001 4002.7682,-171.5001"/>
</g>
<!-- SupportComponent -->
<g id="node7" class="node">
<title>SupportComponent</title>
<polygon fill="#ffffb3" stroke="#000000" points="5887.6666,-122 5762.3334,-122 5762.3334,-86 5887.6666,-86 5887.6666,-122"/>
<text text-anchor="middle" x="5825" y="-99.8" font-family="Times,serif" font-size="14.00" fill="#000000">SupportComponent</text>
</g>
<!-- SupportComponent&#45;&gt;AppModule -->
<g id="edge7" class="edge">
<title>SupportComponent&#45;&gt;AppModule</title>
<path fill="none" stroke="#000000" d="M5825,-122.1289C5825,-142.5724 5825,-173 5825,-173 5825,-173 4002.7686,-173 4002.7686,-173"/>
<polygon fill="#000000" stroke="#000000" points="4002.7687,-169.5001 3992.7686,-173 4002.7686,-176.5001 4002.7687,-169.5001"/>
</g>
<!-- DashboardComponent -->
<g id="node8" class="node">
<title>DashboardComponent</title>
<polygon fill="#ffffb3" stroke="#000000" points="5743.9734,-122 5602.0266,-122 5602.0266,-86 5743.9734,-86 5743.9734,-122"/>
<text text-anchor="middle" x="5673" y="-99.8" font-family="Times,serif" font-size="14.00" fill="#000000">DashboardComponent</text>
</g>
<!-- DashboardComponent&#45;&gt;AppModule -->
<g id="edge8" class="edge">
<title>DashboardComponent&#45;&gt;AppModule</title>
<path fill="none" stroke="#000000" d="M5673,-122.308C5673,-142.1455 5673,-171 5673,-171 5673,-171 4002.7133,-171 4002.7133,-171"/>
<polygon fill="#000000" stroke="#000000" points="4002.7133,-167.5001 3992.7133,-171 4002.7133,-174.5001 4002.7133,-167.5001"/>
</g>
<!-- ProfileComponent -->
<g id="node9" class="node">
<title>ProfileComponent</title>
<polygon fill="#ffffb3" stroke="#000000" points="5583.9328,-122 5464.0672,-122 5464.0672,-86 5583.9328,-86 5583.9328,-122"/>
<text text-anchor="middle" x="5524" y="-99.8" font-family="Times,serif" font-size="14.00" fill="#000000">ProfileComponent</text>
</g>
<!-- ProfileComponent&#45;&gt;AppModule -->
<g id="edge9" class="edge">
<title>ProfileComponent&#45;&gt;AppModule</title>
<path fill="none" stroke="#000000" d="M5524,-122.1061C5524,-141.3391 5524,-169 5524,-169 5524,-169 4002.6688,-169 4002.6688,-169"/>
<polygon fill="#000000" stroke="#000000" points="4002.6688,-165.5001 3992.6688,-169 4002.6687,-172.5001 4002.6688,-165.5001"/>
</g>
<!-- AppComponent  -->
<g id="node35" class="node">
<title>AppComponent </title>
<polygon fill="#80b1d3" stroke="#000000" points="4005.439,-252 3896.561,-252 3896.561,-216 4005.439,-216 4005.439,-252"/>
<text text-anchor="middle" x="3951" y="-229.8" font-family="Times,serif" font-size="14.00" fill="#000000">AppComponent </text>
</g>
<!-- AppModule&#45;&gt;AppComponent  -->
<g id="edge38" class="edge">
<title>AppModule&#45;&gt;AppComponent </title>
<path fill="none" stroke="#000000" stroke-dasharray="1,5" d="M3951,-187.1061C3951,-187.1061 3951,-205.991 3951,-205.991"/>
<polygon fill="#000000" stroke="#000000" points="3947.5001,-205.9909 3951,-215.991 3954.5001,-205.991 3947.5001,-205.9909"/>
</g>
<!-- BrowserModule -->
<g id="node11" class="node">
<title>BrowserModule</title>
<polygon fill="#8dd3c7" stroke="#000000" points="5440.4734,-122 5437.4734,-126 5416.4734,-126 5413.4734,-122 5333.5266,-122 5333.5266,-86 5440.4734,-86 5440.4734,-122"/>
<text text-anchor="middle" x="5387" y="-99.8" font-family="Times,serif" font-size="14.00" fill="#000000">BrowserModule</text>
</g>
<!-- BrowserModule&#45;&gt;AppModule -->
<g id="edge10" class="edge">
<title>BrowserModule&#45;&gt;AppModule</title>
<path fill="none" stroke="#000000" d="M5387,-122.2222C5387,-140.8285 5387,-167 5387,-167 5387,-167 4002.8127,-167 4002.8127,-167"/>
<polygon fill="#000000" stroke="#000000" points="4002.8128,-163.5001 3992.8127,-167 4002.8127,-170.5001 4002.8128,-163.5001"/>
</g>
<!-- FormsModule -->
<g id="node12" class="node">
<title>FormsModule</title>
<polygon fill="#8dd3c7" stroke="#000000" points="5315.8288,-122 5312.8288,-126 5291.8288,-126 5288.8288,-122 5220.1712,-122 5220.1712,-86 5315.8288,-86 5315.8288,-122"/>
<text text-anchor="middle" x="5268" y="-99.8" font-family="Times,serif" font-size="14.00" fill="#000000">FormsModule</text>
</g>
<!-- FormsModule&#45;&gt;AppModule -->
<g id="edge11" class="edge">
<title>FormsModule&#45;&gt;AppModule</title>
<path fill="none" stroke="#000000" d="M5268,-122.302C5268,-140.2699 5268,-165 5268,-165 5268,-165 4002.9581,-165 4002.9581,-165"/>
<polygon fill="#000000" stroke="#000000" points="4002.9581,-161.5001 3992.9581,-165 4002.9581,-168.5001 4002.9581,-161.5001"/>
</g>
<!-- HttpModule -->
<g id="node13" class="node">
<title>HttpModule</title>
<polygon fill="#8dd3c7" stroke="#000000" points="5202.4387,-122 5199.4387,-126 5178.4387,-126 5175.4387,-122 5117.5613,-122 5117.5613,-86 5202.4387,-86 5202.4387,-122"/>
<text text-anchor="middle" x="5160" y="-99.8" font-family="Times,serif" font-size="14.00" fill="#000000">HttpModule</text>
</g>
<!-- HttpModule&#45;&gt;AppModule -->
<g id="edge12" class="edge">
<title>HttpModule&#45;&gt;AppModule</title>
<path fill="none" stroke="#000000" d="M5160,-122.0225C5160,-139.3734 5160,-163 5160,-163 5160,-163 4002.9676,-163 4002.9676,-163"/>
<polygon fill="#000000" stroke="#000000" points="4002.9676,-159.5001 3992.9676,-163 4002.9676,-166.5001 4002.9676,-159.5001"/>
</g>
<!-- BrowserAnimationsModule -->
<g id="node14" class="node">
<title>BrowserAnimationsModule</title>
<polygon fill="#8dd3c7" stroke="#000000" points="5100.3019,-122 5097.3019,-126 5076.3019,-126 5073.3019,-122 4927.6981,-122 4927.6981,-86 5100.3019,-86 5100.3019,-122"/>
<text text-anchor="middle" x="5014" y="-99.8" font-family="Times,serif" font-size="14.00" fill="#000000">BrowserAnimationsModule</text>
</g>
<!-- BrowserAnimationsModule&#45;&gt;AppModule -->
<g id="edge13" class="edge">
<title>BrowserAnimationsModule&#45;&gt;AppModule</title>
<path fill="none" stroke="#000000" d="M5014,-122.0352C5014,-138.7344 5014,-161 5014,-161 5014,-161 4002.6709,-161 4002.6709,-161"/>
<polygon fill="#000000" stroke="#000000" points="4002.6709,-157.5001 3992.6709,-161 4002.6708,-164.5001 4002.6709,-157.5001"/>
</g>
<!-- CookieModule.forRoot() -->
<g id="node15" class="node">
<title>CookieModule.forRoot()</title>
<polygon fill="#8dd3c7" stroke="#000000" points="4910.3616,-122 4907.3616,-126 4886.3616,-126 4883.3616,-122 4753.6384,-122 4753.6384,-86 4910.3616,-86 4910.3616,-122"/>
<text text-anchor="middle" x="4832" y="-99.8" font-family="Times,serif" font-size="14.00" fill="#000000">CookieModule.forRoot()</text>
</g>
<!-- CookieModule.forRoot()&#45;&gt;AppModule -->
<g id="edge14" class="edge">
<title>CookieModule.forRoot()&#45;&gt;AppModule</title>
<path fill="none" stroke="#000000" d="M4832,-122.0091C4832,-138.0494 4832,-159 4832,-159 4832,-159 4002.8998,-159 4002.8998,-159"/>
<polygon fill="#000000" stroke="#000000" points="4002.8998,-155.5001 3992.8998,-159 4002.8997,-162.5001 4002.8998,-155.5001"/>
</g>
<!-- PopoverModule.forRoot() -->
<g id="node16" class="node">
<title>PopoverModule.forRoot()</title>
<polygon fill="#8dd3c7" stroke="#000000" points="4736.0777,-122 4733.0777,-126 4712.0777,-126 4709.0777,-122 4573.9223,-122 4573.9223,-86 4736.0777,-86 4736.0777,-122"/>
<text text-anchor="middle" x="4655" y="-99.8" font-family="Times,serif" font-size="14.00" fill="#000000">PopoverModule.forRoot()</text>
</g>
<!-- PopoverModule.forRoot()&#45;&gt;AppModule -->
<g id="edge15" class="edge">
<title>PopoverModule.forRoot()&#45;&gt;AppModule</title>
<path fill="none" stroke="#000000" d="M4655,-122.2396C4655,-137.5706 4655,-157 4655,-157 4655,-157 4002.6698,-157 4002.6698,-157"/>
<polygon fill="#000000" stroke="#000000" points="4002.6698,-153.5001 3992.6698,-157 4002.6697,-160.5001 4002.6698,-153.5001"/>
</g>
<!-- StoreModule.provideStore(args) -->
<g id="node17" class="node">
<title>StoreModule.provideStore(args)</title>
<polygon fill="#8dd3c7" stroke="#000000" points="4555.5539,-122 4552.5539,-126 4531.5539,-126 4528.5539,-122 4358.4461,-122 4358.4461,-86 4555.5539,-86 4555.5539,-122"/>
<text text-anchor="middle" x="4457" y="-99.8" font-family="Times,serif" font-size="14.00" fill="#000000">StoreModule.provideStore(args)</text>
</g>
<!-- StoreModule.provideStore(args)&#45;&gt;AppModule -->
<g id="edge16" class="edge">
<title>StoreModule.provideStore(args)&#45;&gt;AppModule</title>
<path fill="none" stroke="#000000" d="M4457,-122.1243C4457,-136.7832 4457,-155 4457,-155 4457,-155 4002.8386,-155 4002.8386,-155"/>
<polygon fill="#000000" stroke="#000000" points="4002.8386,-151.5001 3992.8386,-155 4002.8386,-158.5001 4002.8386,-151.5001"/>
</g>
<!-- RouterStoreModule.connectRouter() -->
<g id="node18" class="node">
<title>RouterStoreModule.connectRouter()</title>
<polygon fill="#8dd3c7" stroke="#000000" points="4339.6589,-122 4336.6589,-126 4315.6589,-126 4312.6589,-122 4118.3411,-122 4118.3411,-86 4339.6589,-86 4339.6589,-122"/>
<text text-anchor="middle" x="4229" y="-99.8" font-family="Times,serif" font-size="14.00" fill="#000000">RouterStoreModule.connectRouter()</text>
</g>
<!-- RouterStoreModule.connectRouter()&#45;&gt;AppModule -->
<g id="edge17" class="edge">
<title>RouterStoreModule.connectRouter()&#45;&gt;AppModule</title>
<path fill="none" stroke="#000000" d="M4229,-122.2458C4229,-136.1772 4229,-153 4229,-153 4229,-153 4002.9204,-153 4002.9204,-153"/>
<polygon fill="#000000" stroke="#000000" points="4002.9204,-149.5001 3992.9204,-153 4002.9204,-156.5001 4002.9204,-149.5001"/>
</g>
<!-- EffectsModule.run(args) -->
<g id="node19" class="node">
<title>EffectsModule.run(args)</title>
<polygon fill="#8dd3c7" stroke="#000000" points="4099.9896,-122 4096.9896,-126 4075.9896,-126 4072.9896,-122 3946.0104,-122 3946.0104,-86 4099.9896,-86 4099.9896,-122"/>
<text text-anchor="middle" x="4023" y="-99.8" font-family="Times,serif" font-size="14.00" fill="#000000">EffectsModule.run(args)</text>
</g>
<!-- EffectsModule.run(args)&#45;&gt;AppModule -->
<g id="edge18" class="edge">
<title>EffectsModule.run(args)&#45;&gt;AppModule</title>
<path fill="none" stroke="#000000" d="M3985.0244,-122.1061C3985.0244,-122.1061 3985.0244,-140.991 3985.0244,-140.991"/>
<polygon fill="#000000" stroke="#000000" points="3981.5245,-140.9909 3985.0244,-150.991 3988.5245,-140.991 3981.5245,-140.9909"/>
</g>
<!-- EffectsModule.run(args)&#45;&gt;AppModule -->
<g id="edge19" class="edge">
<title>EffectsModule.run(args)&#45;&gt;AppModule</title>
<path fill="none" stroke="#000000" d="M3977.2205,-122.1061C3977.2205,-122.1061 3977.2205,-140.991 3977.2205,-140.991"/>
<polygon fill="#000000" stroke="#000000" points="3973.7206,-140.9909 3977.2205,-150.991 3980.7206,-140.991 3973.7206,-140.9909"/>
</g>
<!-- EffectsModule.run(args)&#45;&gt;AppModule -->
<g id="edge20" class="edge">
<title>EffectsModule.run(args)&#45;&gt;AppModule</title>
<path fill="none" stroke="#000000" d="M3961.6129,-122.1061C3961.6129,-122.1061 3961.6129,-140.991 3961.6129,-140.991"/>
<polygon fill="#000000" stroke="#000000" points="3958.113,-140.9909 3961.6129,-150.991 3965.113,-140.991 3958.113,-140.9909"/>
</g>
<!-- EffectsModule.run(args)&#45;&gt;AppModule -->
<g id="edge21" class="edge">
<title>EffectsModule.run(args)&#45;&gt;AppModule</title>
<path fill="none" stroke="#000000" d="M3969.4167,-122.1061C3969.4167,-122.1061 3969.4167,-140.991 3969.4167,-140.991"/>
<polygon fill="#000000" stroke="#000000" points="3965.9168,-140.9909 3969.4167,-150.991 3972.9168,-140.991 3965.9168,-140.9909"/>
</g>
<!-- EffectsModule.run(args)&#45;&gt;AppModule -->
<g id="edge22" class="edge">
<title>EffectsModule.run(args)&#45;&gt;AppModule</title>
<path fill="none" stroke="#000000" d="M3953.809,-122.1061C3953.809,-122.1061 3953.809,-140.991 3953.809,-140.991"/>
<polygon fill="#000000" stroke="#000000" points="3950.3091,-140.9909 3953.809,-150.991 3957.3091,-140.991 3950.3091,-140.9909"/>
</g>
<!-- ChartsModule -->
<g id="node20" class="node">
<title>ChartsModule</title>
<polygon fill="#8dd3c7" stroke="#000000" points="3928.0968,-122 3925.0968,-126 3904.0968,-126 3901.0968,-122 3831.9032,-122 3831.9032,-86 3928.0968,-86 3928.0968,-122"/>
<text text-anchor="middle" x="3880" y="-99.8" font-family="Times,serif" font-size="14.00" fill="#000000">ChartsModule</text>
</g>
<!-- ChartsModule&#45;&gt;AppModule -->
<g id="edge23" class="edge">
<title>ChartsModule&#45;&gt;AppModule</title>
<path fill="none" stroke="#000000" d="M3918.6101,-122.1061C3918.6101,-122.1061 3918.6101,-140.991 3918.6101,-140.991"/>
<polygon fill="#000000" stroke="#000000" points="3915.1102,-140.9909 3918.6101,-150.991 3922.1102,-140.991 3915.1102,-140.9909"/>
</g>
<!-- ToastrModule.forRoot(args) -->
<g id="node21" class="node">
<title>ToastrModule.forRoot(args)</title>
<polygon fill="#8dd3c7" stroke="#000000" points="3813.5022,-122 3810.5022,-126 3789.5022,-126 3786.5022,-122 3638.4978,-122 3638.4978,-86 3813.5022,-86 3813.5022,-122"/>
<text text-anchor="middle" x="3726" y="-99.8" font-family="Times,serif" font-size="14.00" fill="#000000">ToastrModule.forRoot(args)</text>
</g>
<!-- ToastrModule.forRoot(args)&#45;&gt;AppModule -->
<g id="edge24" class="edge">
<title>ToastrModule.forRoot(args)&#45;&gt;AppModule</title>
<path fill="none" stroke="#000000" d="M3726,-122.2458C3726,-136.1772 3726,-153 3726,-153 3726,-153 3899.2065,-153 3899.2065,-153"/>
<polygon fill="#000000" stroke="#000000" points="3899.2066,-156.5001 3909.2065,-153 3899.2065,-149.5001 3899.2066,-156.5001"/>
</g>
<!-- NgxDatatableModule -->
<g id="node22" class="node">
<title>NgxDatatableModule</title>
<polygon fill="#8dd3c7" stroke="#000000" points="3620.7935,-122 3617.7935,-126 3596.7935,-126 3593.7935,-122 3483.2065,-122 3483.2065,-86 3620.7935,-86 3620.7935,-122"/>
<text text-anchor="middle" x="3552" y="-99.8" font-family="Times,serif" font-size="14.00" fill="#000000">NgxDatatableModule</text>
</g>
<!-- NgxDatatableModule&#45;&gt;AppModule -->
<g id="edge25" class="edge">
<title>NgxDatatableModule&#45;&gt;AppModule</title>
<path fill="none" stroke="#000000" d="M3552,-122.1243C3552,-136.7832 3552,-155 3552,-155 3552,-155 3899.0541,-155 3899.0541,-155"/>
<polygon fill="#000000" stroke="#000000" points="3899.0542,-158.5001 3909.0541,-155 3899.0541,-151.5001 3899.0542,-158.5001"/>
</g>
<!-- ToastContainerModule.forRoot() -->
<g id="node23" class="node">
<title>ToastContainerModule.forRoot()</title>
<polygon fill="#8dd3c7" stroke="#000000" points="3465.2295,-122 3462.2295,-126 3441.2295,-126 3438.2295,-122 3262.7705,-122 3262.7705,-86 3465.2295,-86 3465.2295,-122"/>
<text text-anchor="middle" x="3364" y="-99.8" font-family="Times,serif" font-size="14.00" fill="#000000">ToastContainerModule.forRoot()</text>
</g>
<!-- ToastContainerModule.forRoot()&#45;&gt;AppModule -->
<g id="edge26" class="edge">
<title>ToastContainerModule.forRoot()&#45;&gt;AppModule</title>
<path fill="none" stroke="#000000" d="M3364,-122.1871C3364,-137.1824 3364,-156 3364,-156 3364,-156 3899.255,-156 3899.255,-156"/>
<polygon fill="#000000" stroke="#000000" points="3899.255,-159.5001 3909.255,-156 3899.255,-152.5001 3899.255,-159.5001"/>
</g>
<!-- BsDropdownModule.forRoot() -->
<g id="node24" class="node">
<title>BsDropdownModule.forRoot()</title>
<polygon fill="#8dd3c7" stroke="#000000" points="3245.0749,-122 3242.0749,-126 3221.0749,-126 3218.0749,-122 3054.9251,-122 3054.9251,-86 3245.0749,-86 3245.0749,-122"/>
<text text-anchor="middle" x="3150" y="-99.8" font-family="Times,serif" font-size="14.00" fill="#000000">BsDropdownModule.forRoot()</text>
</g>
<!-- BsDropdownModule.forRoot()&#45;&gt;AppModule -->
<g id="edge27" class="edge">
<title>BsDropdownModule.forRoot()&#45;&gt;AppModule</title>
<path fill="none" stroke="#000000" d="M3150,-122.2819C3150,-137.9478 3150,-158 3150,-158 3150,-158 3899.3424,-158 3899.3424,-158"/>
<polygon fill="#000000" stroke="#000000" points="3899.3425,-161.5001 3909.3424,-158 3899.3424,-154.5001 3899.3425,-161.5001"/>
</g>
<!-- TypeaheadModule.forRoot() -->
<g id="node25" class="node">
<title>TypeaheadModule.forRoot()</title>
<polygon fill="#8dd3c7" stroke="#000000" points="3036.8307,-122 3033.8307,-126 3012.8307,-126 3009.8307,-122 2859.1693,-122 2859.1693,-86 3036.8307,-86 3036.8307,-122"/>
<text text-anchor="middle" x="2948" y="-99.8" font-family="Times,serif" font-size="14.00" fill="#000000">TypeaheadModule.forRoot()</text>
</g>
<!-- TypeaheadModule.forRoot()&#45;&gt;AppModule -->
<g id="edge28" class="edge">
<title>TypeaheadModule.forRoot()&#45;&gt;AppModule</title>
<path fill="none" stroke="#000000" d="M2948,-122.027C2948,-138.3976 2948,-160 2948,-160 2948,-160 3899.1793,-160 3899.1793,-160"/>
<polygon fill="#000000" stroke="#000000" points="3899.1793,-163.5001 3909.1793,-160 3899.1793,-156.5001 3899.1793,-163.5001"/>
</g>
<!-- TooltipModule.forRoot() -->
<g id="node26" class="node">
<title>TooltipModule.forRoot()</title>
<polygon fill="#8dd3c7" stroke="#000000" points="2841.6439,-122 2838.6439,-126 2817.6439,-126 2814.6439,-122 2684.3561,-122 2684.3561,-86 2841.6439,-86 2841.6439,-122"/>
<text text-anchor="middle" x="2763" y="-99.8" font-family="Times,serif" font-size="14.00" fill="#000000">TooltipModule.forRoot()</text>
</g>
<!-- TooltipModule.forRoot()&#45;&gt;AppModule -->
<g id="edge29" class="edge">
<title>TooltipModule.forRoot()&#45;&gt;AppModule</title>
<path fill="none" stroke="#000000" d="M2763,-122.0352C2763,-138.7344 2763,-161 2763,-161 2763,-161 3899.0674,-161 3899.0674,-161"/>
<polygon fill="#000000" stroke="#000000" points="3899.0674,-164.5001 3909.0674,-161 3899.0674,-157.5001 3899.0674,-164.5001"/>
</g>
<!-- CarouselModule.forRoot() -->
<g id="node27" class="node">
<title>CarouselModule.forRoot()</title>
<polygon fill="#8dd3c7" stroke="#000000" points="2666.6813,-122 2663.6813,-126 2642.6813,-126 2639.6813,-122 2501.3187,-122 2501.3187,-86 2666.6813,-86 2666.6813,-122"/>
<text text-anchor="middle" x="2584" y="-99.8" font-family="Times,serif" font-size="14.00" fill="#000000">CarouselModule.forRoot()</text>
</g>
<!-- CarouselModule.forRoot()&#45;&gt;AppModule -->
<g id="edge30" class="edge">
<title>CarouselModule.forRoot()&#45;&gt;AppModule</title>
<path fill="none" stroke="#000000" d="M2584,-122.0225C2584,-139.3734 2584,-163 2584,-163 2584,-163 3899.342,-163 3899.342,-163"/>
<polygon fill="#000000" stroke="#000000" points="3899.342,-166.5001 3909.342,-163 3899.342,-159.5001 3899.342,-166.5001"/>
</g>
<!-- TabsModule.forRoot() -->
<g id="node28" class="node">
<title>TabsModule.forRoot()</title>
<polygon fill="#8dd3c7" stroke="#000000" points="2483.6313,-122 2480.6313,-126 2459.6313,-126 2456.6313,-122 2340.3687,-122 2340.3687,-86 2483.6313,-86 2483.6313,-122"/>
<text text-anchor="middle" x="2412" y="-99.8" font-family="Times,serif" font-size="14.00" fill="#000000">TabsModule.forRoot()</text>
</g>
<!-- TabsModule.forRoot()&#45;&gt;AppModule -->
<g id="edge31" class="edge">
<title>TabsModule.forRoot()&#45;&gt;AppModule</title>
<path fill="none" stroke="#000000" d="M2412,-122.302C2412,-140.2699 2412,-165 2412,-165 2412,-165 3899.0373,-165 3899.0373,-165"/>
<polygon fill="#000000" stroke="#000000" points="3899.0373,-168.5001 3909.0373,-165 3899.0373,-161.5001 3899.0373,-168.5001"/>
</g>
<!-- ModalModule.forRoot() -->
<g id="node29" class="node">
<title>ModalModule.forRoot()</title>
<polygon fill="#8dd3c7" stroke="#000000" points="2322.4699,-122 2319.4699,-126 2298.4699,-126 2295.4699,-122 2169.5301,-122 2169.5301,-86 2322.4699,-86 2322.4699,-122"/>
<text text-anchor="middle" x="2246" y="-99.8" font-family="Times,serif" font-size="14.00" fill="#000000">ModalModule.forRoot()</text>
</g>
<!-- ModalModule.forRoot()&#45;&gt;AppModule -->
<g id="edge32" class="edge">
<title>ModalModule.forRoot()&#45;&gt;AppModule</title>
<path fill="none" stroke="#000000" d="M2246,-122.2667C2246,-140.5552 2246,-166 2246,-166 2246,-166 3899.2771,-166 3899.2771,-166"/>
<polygon fill="#000000" stroke="#000000" points="3899.2771,-169.5001 3909.2771,-166 3899.2771,-162.5001 3899.2771,-169.5001"/>
</g>
<!-- DatepickerModule.forRoot() -->
<g id="node30" class="node">
<title>DatepickerModule.forRoot()</title>
<polygon fill="#8dd3c7" stroke="#000000" points="2151.8265,-122 2148.8265,-126 2127.8265,-126 2124.8265,-122 1974.1735,-122 1974.1735,-86 2151.8265,-86 2151.8265,-122"/>
<text text-anchor="middle" x="2063" y="-99.8" font-family="Times,serif" font-size="14.00" fill="#000000">DatepickerModule.forRoot()</text>
</g>
<!-- DatepickerModule.forRoot()&#45;&gt;AppModule -->
<g id="edge33" class="edge">
<title>DatepickerModule.forRoot()&#45;&gt;AppModule</title>
<path fill="none" stroke="#000000" d="M2063,-122.1686C2063,-141.0898 2063,-168 2063,-168 2063,-168 3898.9193,-168 3898.9193,-168"/>
<polygon fill="#000000" stroke="#000000" points="3898.9194,-171.5001 3908.9193,-168 3898.9193,-164.5001 3898.9194,-171.5001"/>
</g>
<!-- AppRoutingModule -->
<g id="node31" class="node">
<title>AppRoutingModule</title>
<polygon fill="#8dd3c7" stroke="#000000" points="1956.2744,-122 1953.2744,-126 1932.2744,-126 1929.2744,-122 1827.7256,-122 1827.7256,-86 1956.2744,-86 1956.2744,-122"/>
<text text-anchor="middle" x="1892" y="-99.8" font-family="Times,serif" font-size="14.00" fill="#000000">AppRoutingModule</text>
</g>
<!-- AppRoutingModule&#45;&gt;AppModule -->
<g id="edge34" class="edge">
<title>AppRoutingModule&#45;&gt;AppModule</title>
<path fill="none" stroke="#000000" d="M1892,-122.1061C1892,-141.3391 1892,-169 1892,-169 1892,-169 3898.9377,-169 3898.9377,-169"/>
<polygon fill="#000000" stroke="#000000" points="3898.9377,-172.5001 3908.9377,-169 3898.9376,-165.5001 3898.9377,-172.5001"/>
</g>
<!-- SharedModule -->
<g id="node32" class="node">
<title>SharedModule</title>
<polygon fill="#8dd3c7" stroke="#000000" points="1809.4231,-122 1806.4231,-126 1785.4231,-126 1782.4231,-122 1710.5769,-122 1710.5769,-86 1809.4231,-86 1809.4231,-122"/>
<text text-anchor="middle" x="1760" y="-99.8" font-family="Times,serif" font-size="14.00" fill="#000000">SharedModule</text>
</g>
<!-- SharedModule&#45;&gt;AppModule -->
<g id="edge35" class="edge">
<title>SharedModule&#45;&gt;AppModule</title>
<path fill="none" stroke="#000000" d="M1760,-122.308C1760,-142.1455 1760,-171 1760,-171 1760,-171 3899.1883,-171 3899.1883,-171"/>
<polygon fill="#000000" stroke="#000000" points="3899.1883,-174.5001 3909.1883,-171 3899.1883,-167.5001 3899.1883,-174.5001"/>
</g>
<!-- LayoutsModule -->
<g id="node33" class="node">
<title>LayoutsModule</title>
<polygon fill="#8dd3c7" stroke="#000000" points="1692.1528,-122 1689.1528,-126 1668.1528,-126 1665.1528,-122 1587.8472,-122 1587.8472,-86 1692.1528,-86 1692.1528,-122"/>
<text text-anchor="middle" x="1640" y="-99.8" font-family="Times,serif" font-size="14.00" fill="#000000">LayoutsModule</text>
</g>
<!-- LayoutsModule&#45;&gt;AppModule -->
<g id="edge36" class="edge">
<title>LayoutsModule&#45;&gt;AppModule</title>
<path fill="none" stroke="#000000" d="M1640,-122.1289C1640,-142.5724 1640,-173 1640,-173 1640,-173 3898.9155,-173 3898.9155,-173"/>
<polygon fill="#000000" stroke="#000000" points="3898.9155,-176.5001 3908.9155,-173 3898.9155,-169.5001 3898.9155,-176.5001"/>
</g>
<!-- StoreDevtoolsModule.instrumentStore() -->
<g id="node34" class="node">
<title>StoreDevtoolsModule.instrumentStore()</title>
<polygon fill="#8dd3c7" stroke="#000000" points="1569.897,-122 1566.897,-126 1545.897,-126 1542.897,-122 1328.103,-122 1328.103,-86 1569.897,-86 1569.897,-122"/>
<text text-anchor="middle" x="1449" y="-99.8" font-family="Times,serif" font-size="14.00" fill="#000000">StoreDevtoolsModule.instrumentStore()</text>
</g>
<!-- StoreDevtoolsModule.instrumentStore()&#45;&gt;AppModule -->
<g id="edge37" class="edge">
<title>StoreDevtoolsModule.instrumentStore()&#45;&gt;AppModule</title>
<path fill="none" stroke="#000000" d="M1449,-122.0267C1449,-142.7672 1449,-174 1449,-174 1449,-174 3899.1433,-174 3899.1433,-174"/>
<polygon fill="#000000" stroke="#000000" points="3899.1433,-177.5001 3909.1433,-174 3899.1432,-170.5001 3899.1433,-177.5001"/>
</g>
<!-- { provide: LOCALE_ID, useValue: &#39;es&#45;MX&#39; } -->
<g id="node36" class="node">
<title>{ provide: LOCALE_ID, useValue: &#39;es&#45;MX&#39; }</title>
<ellipse fill="#fdb462" stroke="#000000" cx="1112" cy="-104" rx="191.8454" ry="18"/>
<text text-anchor="middle" x="1112" y="-99.8" font-family="Times,serif" font-size="14.00" fill="#000000">{ provide: LOCALE_ID, useValue: &#39;es&#45;MX&#39; }</text>
</g>
<!-- { provide: LOCALE_ID, useValue: &#39;es&#45;MX&#39; }&#45;&gt;AppModule -->
<g id="edge39" class="edge">
<title>{ provide: LOCALE_ID, useValue: &#39;es&#45;MX&#39; }&#45;&gt;AppModule</title>
<path fill="none" stroke="#000000" d="M1112,-122.1686C1112,-143.498 1112,-176 1112,-176 1112,-176 3899.2202,-176 3899.2202,-176"/>
<polygon fill="#000000" stroke="#000000" points="3899.2203,-179.5001 3909.2202,-176 3899.2202,-172.5001 3899.2203,-179.5001"/>
</g>
<!-- AppGuard -->
<g id="node37" class="node">
<title>AppGuard</title>
<ellipse fill="#fdb462" stroke="#000000" cx="850" cy="-104" rx="51.59" ry="18"/>
<text text-anchor="middle" x="850" y="-99.8" font-family="Times,serif" font-size="14.00" fill="#000000">AppGuard</text>
</g>
<!-- AppGuard&#45;&gt;AppModule -->
<g id="edge40" class="edge">
<title>AppGuard&#45;&gt;AppModule</title>
<path fill="none" stroke="#000000" d="M850,-122.2921C850,-144.2057 850,-178 850,-178 850,-178 3899.2185,-178 3899.2185,-178"/>
<polygon fill="#000000" stroke="#000000" points="3899.2185,-181.5001 3909.2185,-178 3899.2184,-174.5001 3899.2185,-181.5001"/>
</g>
<!-- UserService -->
<g id="node38" class="node">
<title>UserService</title>
<ellipse fill="#fdb462" stroke="#000000" cx="722" cy="-104" rx="58.4415" ry="18"/>
<text text-anchor="middle" x="722" y="-99.8" font-family="Times,serif" font-size="14.00" fill="#000000">UserService</text>
</g>
<!-- UserService&#45;&gt;AppModule -->
<g id="edge41" class="edge">
<title>UserService&#45;&gt;AppModule</title>
<path fill="none" stroke="#000000" d="M722,-122.1554C722,-144.3519 722,-179 722,-179 722,-179 3899.2893,-179 3899.2893,-179"/>
<polygon fill="#000000" stroke="#000000" points="3899.2893,-182.5001 3909.2893,-179 3899.2892,-175.5001 3899.2893,-182.5001"/>
</g>
<!-- TransactionService -->
<g id="node39" class="node">
<title>TransactionService</title>
<ellipse fill="#fdb462" stroke="#000000" cx="560" cy="-104" rx="85.6493" ry="18"/>
<text text-anchor="middle" x="560" y="-99.8" font-family="Times,serif" font-size="14.00" fill="#000000">TransactionService</text>
</g>
<!-- TransactionService&#45;&gt;AppModule -->
<g id="edge42" class="edge">
<title>TransactionService&#45;&gt;AppModule</title>
<path fill="none" stroke="#000000" d="M560,-122.2479C560,-145.0179 560,-181 560,-181 560,-181 3899.0444,-181 3899.0444,-181"/>
<polygon fill="#000000" stroke="#000000" points="3899.0444,-184.5001 3909.0444,-181 3899.0443,-177.5001 3899.0444,-184.5001"/>
</g>
<!-- BusinessService -->
<g id="node40" class="node">
<title>BusinessService</title>
<ellipse fill="#fdb462" stroke="#000000" cx="382" cy="-104" rx="74.1528" ry="18"/>
<text text-anchor="middle" x="382" y="-99.8" font-family="Times,serif" font-size="14.00" fill="#000000">BusinessService</text>
</g>
<!-- BusinessService&#45;&gt;AppModule -->
<g id="edge43" class="edge">
<title>BusinessService&#45;&gt;AppModule</title>
<path fill="none" stroke="#000000" d="M382,-122.3228C382,-145.6602 382,-183 382,-183 382,-183 3899.0604,-183 3899.0604,-183"/>
<polygon fill="#000000" stroke="#000000" points="3899.0604,-186.5001 3909.0604,-183 3899.0604,-179.5001 3899.0604,-186.5001"/>
</g>
<!-- ClientService -->
<g id="node41" class="node">
<title>ClientService</title>
<ellipse fill="#fdb462" stroke="#000000" cx="226" cy="-104" rx="63.6967" ry="18"/>
<text text-anchor="middle" x="226" y="-99.8" font-family="Times,serif" font-size="14.00" fill="#000000">ClientService</text>
</g>
<!-- ClientService&#45;&gt;AppModule -->
<g id="edge44" class="edge">
<title>ClientService&#45;&gt;AppModule</title>
<path fill="none" stroke="#000000" d="M226,-122.1532C226,-145.7566 226,-184 226,-184 226,-184 3899.1665,-184 3899.1665,-184"/>
<polygon fill="#000000" stroke="#000000" points="3899.1665,-187.5001 3909.1665,-184 3899.1665,-180.5001 3899.1665,-187.5001"/>
</g>
<!-- ErrorService -->
<g id="node42" class="node">
<title>ErrorService</title>
<ellipse fill="#fdb462" stroke="#000000" cx="84" cy="-104" rx="60.2287" ry="18"/>
<text text-anchor="middle" x="84" y="-99.8" font-family="Times,serif" font-size="14.00" fill="#000000">ErrorService</text>
</g>
<!-- ErrorService&#45;&gt;AppModule -->
<g id="edge45" class="edge">
<title>ErrorService&#45;&gt;AppModule</title>
<path fill="none" stroke="#000000" d="M84,-122.1985C84,-146.3563 84,-186 84,-186 84,-186 3899.2162,-186 3899.2162,-186"/>
<polygon fill="#000000" stroke="#000000" points="3899.2162,-189.5001 3909.2162,-186 3899.2161,-182.5001 3899.2162,-189.5001"/>
</g>
</g>
</svg>
