<?xml version="1.0" encoding="UTF-8" standalone="no"?><!DOCTYPE svg PUBLIC "-//W3C//DTD SVG 1.1//EN" "http://www.w3.org/Graphics/SVG/1.1/DTD/svg11.dtd"><svg width="100%" height="100%" viewBox="0 0 346 195" version="1.1" xmlns="http://www.w3.org/2000/svg" xmlns:xlink="http://www.w3.org/1999/xlink" xml:space="preserve" style="fill-rule:evenodd;clip-rule:evenodd;stroke-linejoin:round;stroke-miterlimit:1.41421;"><path id="ebits" d="M291.19,89.972c0,0.135 -0.068,0.202 -0.202,0.202c-0.193,0 -0.203,0.068 -0.203,1.467l0,1.466l1.018,0c0.56,0 1.111,-0.05 1.225,-0.111c0.149,-0.08 0.237,-0.08 0.317,0c0.313,0.314 0.373,0.123 0.372,-1.179c-0.001,-0.709 -0.029,-1.46 -0.064,-1.668l-0.063,-0.379l-1.2,0c-1.133,0 -1.2,0.011 -1.2,0.202m5.875,1.466l-0.024,1.669l0.924,0c0.508,0 1.003,-0.042 1.1,-0.094c0.29,-0.155 0.485,0.031 0.332,0.317c-0.096,0.18 -0.119,1.154 -0.096,4.095l0.03,3.858l-0.291,0.059c-0.16,0.031 -0.786,0.058 -1.39,0.058l-1.1,0l0,2.703l0.469,0.064c0.258,0.035 0.866,0.064 1.351,0.064l0.882,0l0.017,1.441c0.009,0.793 0.044,1.589 0.076,1.77l0.059,0.329l-1.177,0l-1.177,0l-0.106,0.278c-0.103,0.27 -0.053,2.207 0.076,2.933l0.058,0.328l2.82,0l-0.018,-1.896l-0.019,-1.896l1.252,-0.051l1.252,-0.05l0.029,-1.365c0.042,-1.975 0.152,-1.821 -1.295,-1.821l-1.212,0l0,-1.517l0,-1.517l1.056,0c0.595,0 1.083,-0.044 1.118,-0.101c0.098,-0.157 0.326,-0.119 0.397,0.068c0.036,0.092 0.018,0.215 -0.039,0.273c-0.173,0.173 -0.121,0.713 0.086,0.89c0.139,0.119 0.21,0.364 0.261,0.907c0.078,0.823 0.237,1.301 0.435,1.301c0.206,0 0.381,0.47 0.238,0.642c-0.094,0.113 -0.074,0.153 0.1,0.199c0.194,0.051 0.211,0.104 0.153,0.467c-0.052,0.328 -0.035,0.411 0.087,0.411c0.084,0 0.153,0.068 0.153,0.152c0,0.084 0.09,0.151 0.202,0.151c0.147,0 0.203,0.068 0.203,0.246c0,0.178 0.063,0.255 0.227,0.278c0.173,0.025 0.235,0.109 0.259,0.354c0.037,0.381 -0.334,0.483 -1.536,0.421l-0.674,-0.035l0.027,1.72l0.028,1.719l1.429,0.028l1.429,0.028l0.062,-0.635c0.034,-0.349 0.06,-0.948 0.057,-1.331c-0.004,-0.383 0.037,-0.74 0.09,-0.794c0.155,-0.154 0.47,-0.043 0.502,0.177c0.02,0.14 0.172,0.246 0.506,0.352c0.349,0.112 0.484,0.21 0.507,0.369c0.022,0.157 0.084,0.203 0.222,0.166c0.171,-0.044 0.195,0.019 0.222,0.593c0.028,0.588 0.051,0.645 0.27,0.676c0.132,0.019 0.262,0.121 0.29,0.228c0.067,0.258 5.69,0.308 5.69,0.05c0,-0.079 0.125,-0.169 0.278,-0.199c0.811,-0.161 1.018,-0.174 1.082,-0.071c0.127,0.205 0.865,0.136 0.865,-0.082c0,-0.243 0.258,-0.345 0.521,-0.204c0.264,0.141 0.49,0.049 0.49,-0.199c0,-0.239 0.176,-0.315 0.474,-0.205c0.182,0.068 0.227,0.042 0.253,-0.14c0.033,-0.231 0.206,-0.262 0.664,-0.119c0.171,0.054 0.227,0.031 0.227,-0.092c0,-0.09 0.046,-0.164 0.101,-0.164c0.056,0 0.102,-0.115 0.102,-0.257c0,-0.235 0.032,-0.255 0.377,-0.227c0.347,0.027 0.385,0.003 0.487,-0.305c0.158,-0.478 0.834,-1.1 1.289,-1.186c0.275,-0.051 0.375,-0.121 0.375,-0.261c0,-0.108 0.07,-0.191 0.163,-0.191c0.131,0 0.15,-0.068 0.096,-0.354c-0.063,-0.339 -0.01,-0.41 0.272,-0.366c0.042,0.007 0.076,-0.124 0.076,-0.291c0,-0.236 0.045,-0.304 0.202,-0.304c0.111,0 0.202,-0.051 0.202,-0.115c0,-0.063 0.08,-0.174 0.177,-0.247c0.151,-0.112 0.158,-0.162 0.046,-0.346c-0.171,-0.28 -0.064,-0.606 0.2,-0.606c0.186,0 0.201,-0.044 0.145,-0.43c-0.07,-0.485 0.041,-0.742 0.282,-0.65c0.208,0.08 0.216,-0.322 0.018,-0.892l-0.141,-0.405l-1.223,-0.028l-1.223,-0.029l0,-1.513l0,-1.514l3.034,0l0,-0.313c0,-0.224 -0.056,-0.328 -0.195,-0.364c-0.249,-0.065 -0.339,-0.296 -0.209,-0.538c0.174,-0.325 0.125,-0.707 -0.091,-0.707c-0.25,0 -0.329,-0.226 -0.251,-0.716c0.057,-0.353 0.041,-0.396 -0.145,-0.396c-0.265,0 -0.373,-0.326 -0.201,-0.607c0.112,-0.183 0.105,-0.234 -0.046,-0.346c-0.097,-0.072 -0.177,-0.183 -0.177,-0.247c0,-0.063 -0.091,-0.115 -0.202,-0.115c-0.111,0 -0.197,-0.034 -0.19,-0.076c0.04,-0.253 -0.039,-0.413 -0.228,-0.462c-0.182,-0.048 -0.206,-0.108 -0.154,-0.37c0.045,-0.226 0.021,-0.329 -0.087,-0.371c-0.083,-0.031 -0.15,-0.137 -0.15,-0.234c0,-0.127 -0.122,-0.203 -0.43,-0.268c-0.401,-0.085 -0.435,-0.118 -0.52,-0.52c-0.067,-0.319 -0.139,-0.429 -0.278,-0.429c-0.103,0 -0.188,-0.069 -0.188,-0.152c0,-0.084 -0.063,-0.152 -0.141,-0.152c-0.077,0 -0.167,-0.068 -0.199,-0.152c-0.039,-0.102 -0.17,-0.144 -0.39,-0.127c-0.277,0.022 -0.337,-0.011 -0.364,-0.201c-0.018,-0.125 -0.075,-0.228 -0.127,-0.228c-0.051,0 -0.094,-0.068 -0.094,-0.151c0,-0.18 -0.314,-0.202 -0.481,-0.035c-0.136,0.137 -0.429,-0.051 -0.429,-0.275c0,-0.095 -0.1,-0.117 -0.354,-0.075c-0.329,0.053 -0.354,0.039 -0.354,-0.209c0,-0.289 -0.173,-0.343 -0.516,-0.159c-0.269,0.144 -0.596,0.026 -0.596,-0.215c0,-0.219 -0.576,-0.287 -0.772,-0.091c-0.071,0.071 -0.388,0.071 -1.006,0.001c-0.939,-0.108 -10.851,-0.147 -11.233,-0.044c-0.276,0.074 -0.302,0.274 -0.238,1.86l0.051,1.264l0.891,0.014c0.999,0.016 0.948,-0.001 0.996,0.336c0.026,0.183 -0.031,0.282 -0.217,0.375c-0.139,0.07 -0.255,0.186 -0.259,0.257c-0.003,0.072 -0.042,0.222 -0.086,0.333c-0.044,0.111 -0.097,0.259 -0.118,0.329c-0.02,0.069 -0.129,0.126 -0.24,0.126c-0.172,0 -0.194,0.047 -0.142,0.303c0.052,0.265 0.031,0.304 -0.165,0.304c-0.174,0 -0.21,0.041 -0.157,0.177c0.142,0.364 0.091,0.521 -0.204,0.634c-0.229,0.087 -0.25,0.137 -0.191,0.452c0.062,0.332 0.049,0.355 -0.196,0.355c-0.295,0 -0.484,-0.429 -0.278,-0.635c0.215,-0.215 0.151,-2.905 -0.069,-2.905c-0.101,0 -0.272,-0.067 -0.38,-0.148c-0.249,-0.189 -0.646,-0.19 -0.894,-0.003c-0.167,0.127 -0.226,0.125 -0.464,-0.016c-0.249,-0.147 -0.294,-0.147 -0.517,-0.001c-0.333,0.217 -0.605,0.067 -0.419,-0.232c0.085,-0.138 0.126,-0.663 0.126,-1.621l0,-1.417l-0.247,0c-0.136,0 -0.275,-0.046 -0.309,-0.101c-0.036,-0.058 -0.535,-0.101 -1.152,-0.101l-1.089,0l-0.025,1.668m15.434,0.86c-0.058,0.22 0.457,0.309 0.585,0.101c0.154,-0.248 0.86,-0.072 0.86,0.214c0,0.164 0.028,0.175 0.195,0.071c0.258,-0.162 0.74,0.037 0.652,0.268c-0.045,0.118 0.013,0.155 0.239,0.155c0.421,0 0.937,0.279 0.937,0.507c0,0.104 0.046,0.217 0.102,0.252c0.057,0.035 0.077,0.106 0.045,0.158c-0.032,0.052 0.104,0.094 0.302,0.094c0.344,0 0.36,0.016 0.36,0.354c0,0.247 0.045,0.354 0.151,0.354c0.084,0 0.152,0.068 0.152,0.152c0,0.084 0.09,0.152 0.202,0.152c0.113,0 0.203,0.067 0.203,0.151c0,0.086 0.09,0.152 0.21,0.152c0.181,0 0.201,0.042 0.144,0.303c-0.058,0.261 -0.038,0.304 0.141,0.304c0.256,0 0.398,0.449 0.227,0.721c-0.189,0.304 -0.141,0.576 0.109,0.612c0.215,0.031 0.223,0.069 0.194,0.903c-0.028,0.792 -0.012,0.876 0.167,0.922c0.159,0.042 0.21,0.176 0.267,0.701c0.087,0.816 -0.048,1.256 -0.339,1.1c-0.127,-0.068 -1.681,-0.105 -4.394,-0.105l-4.198,0l-0.062,0.48c-0.035,0.265 -0.106,0.585 -0.158,0.713c-0.172,0.42 -0.12,0.83 0.106,0.83c0.148,0 0.194,0.059 0.177,0.227c-0.018,0.164 0.023,0.22 0.145,0.2c0.093,-0.016 0.23,0.056 0.303,0.158c0.074,0.103 0.218,0.218 0.321,0.256c0.103,0.038 0.21,0.161 0.239,0.271c0.071,0.272 1.344,0.311 1.344,0.042c0,-0.089 0.137,-0.212 0.304,-0.275c0.166,-0.063 0.303,-0.15 0.303,-0.194c0,-0.043 0.063,-0.079 0.14,-0.079c0.077,0 0.165,-0.097 0.196,-0.215c0.038,-0.144 0.109,-0.195 0.214,-0.155c0.099,0.038 0.158,0.005 0.158,-0.088c0,-0.225 4.428,-0.222 4.514,0.003c0.106,0.275 -0.054,0.658 -0.273,0.658c-0.18,0 -0.197,0.044 -0.139,0.354c0.059,0.313 0.042,0.353 -0.147,0.353c-0.16,0 -0.213,0.063 -0.213,0.253c0,0.139 -0.046,0.253 -0.101,0.253c-0.056,0 -0.102,0.081 -0.102,0.18c0,0.346 -1.136,1.392 -1.392,1.281c-0.33,-0.143 -0.428,-0.128 -0.428,0.065c0,0.106 -0.068,0.193 -0.152,0.193c-0.084,0 -0.151,0.09 -0.151,0.204c0,0.181 -0.046,0.196 -0.405,0.139c-0.36,-0.058 -0.404,-0.043 -0.404,0.139c0,0.25 -0.252,0.362 -0.507,0.226c-0.352,-0.189 -1.111,-0.127 -1.111,0.09c0,0.235 -0.673,0.363 -1.366,0.259c-0.354,-0.053 -0.455,-0.11 -0.455,-0.259c0,-0.224 -0.677,-0.275 -0.997,-0.075c-0.268,0.167 -0.722,0.029 -0.722,-0.219c0,-0.155 -0.068,-0.2 -0.303,-0.2c-0.189,0 -0.294,-0.048 -0.279,-0.127c0.016,-0.075 -0.106,-0.139 -0.303,-0.158c-0.243,-0.023 -0.329,-0.081 -0.329,-0.222c0,-0.19 -0.247,-0.209 -0.521,-0.04c-0.064,0.04 -0.166,0.005 -0.227,-0.076c-0.061,-0.082 -0.187,-0.177 -0.28,-0.212c-0.093,-0.035 -0.184,-0.166 -0.203,-0.293c-0.019,-0.135 -0.123,-0.252 -0.252,-0.284c-0.297,-0.074 -0.674,-0.573 -0.612,-0.81c0.035,-0.132 0.007,-0.174 -0.09,-0.136c-0.101,0.038 -0.141,-0.035 -0.141,-0.261c0,-0.25 -0.042,-0.314 -0.208,-0.314c-0.189,0 -0.202,-0.041 -0.141,-0.447c0.062,-0.415 0.049,-0.449 -0.171,-0.48c-0.22,-0.031 -0.236,-0.074 -0.205,-0.551c0.029,-0.448 0.006,-0.524 -0.17,-0.57c-0.249,-0.065 -0.389,-0.665 -0.226,-0.969c0.141,-0.264 0.144,-2.36 0.003,-2.67c-0.132,-0.29 0.029,-0.785 0.256,-0.785c0.171,0 0.203,-0.273 0.059,-0.501c-0.128,-0.202 0.055,-0.511 0.303,-0.511c0.173,0 0.197,-0.059 0.174,-0.429c-0.023,-0.362 0.001,-0.426 0.149,-0.401c0.11,0.019 0.177,-0.034 0.177,-0.137c0,-0.105 0.055,-0.146 0.148,-0.11c0.12,0.046 0.138,-0.019 0.093,-0.343c-0.031,-0.22 -0.014,-0.4 0.038,-0.4c0.051,0 0.143,-0.108 0.203,-0.24c0.073,-0.162 0.228,-0.262 0.471,-0.308c0.218,-0.041 0.362,-0.126 0.362,-0.215c0,-0.081 0.046,-0.147 0.101,-0.147c0.056,0 0.101,-0.095 0.101,-0.212c0,-0.127 0.082,-0.233 0.203,-0.265c0.111,-0.029 0.202,-0.093 0.202,-0.142c0,-0.049 0.136,-0.089 0.303,-0.089c0.199,0 0.304,-0.051 0.304,-0.148c0,-0.293 0.736,-0.495 0.843,-0.231c0.028,0.069 0.055,0.029 0.059,-0.09c0.01,-0.284 0.918,-0.52 0.918,-0.239c0,0.056 0.182,0.101 0.405,0.101c0.337,0 0.404,-0.034 0.404,-0.202c0,-0.187 0.068,-0.202 0.871,-0.202c0.822,0 0.869,0.011 0.819,0.202m-27.553,0.719c-0.031,0.12 -0.14,0.191 -0.291,0.191l-0.241,0l0,2.704l0.379,0.063c0.209,0.034 0.892,0.063 1.517,0.064l1.138,0.001l0,-0.298c0,-0.163 -0.046,-0.325 -0.101,-0.36c-0.057,-0.035 -0.101,-0.522 -0.101,-1.113c0,-0.894 -0.027,-1.066 -0.177,-1.154c-0.098,-0.057 -0.121,-0.104 -0.051,-0.106c0.07,-0.002 0.127,-0.041 0.127,-0.087c0,-0.2 -2.146,-0.107 -2.199,0.095m25.851,2.608c-0.007,0.033 -0.007,0.095 0,0.137c0.007,0.041 -0.056,0.075 -0.14,0.075c-0.083,0 -0.151,0.089 -0.151,0.197c0,0.108 -0.049,0.226 -0.108,0.262c-0.059,0.037 -0.149,0.176 -0.199,0.31c-0.056,0.146 -0.174,0.243 -0.298,0.243c-0.258,0 -0.29,0.754 -0.052,1.214l0.151,0.293l1.644,0.036c0.903,0.019 1.745,0.072 1.87,0.117c0.223,0.081 0.228,0.066 0.228,-0.637c0,-0.644 -0.021,-0.72 -0.196,-0.72c-0.24,0 -0.371,-0.36 -0.205,-0.561c0.1,-0.12 0.086,-0.147 -0.072,-0.147c-0.244,0 -0.437,-0.187 -0.437,-0.425c0,-0.126 -0.077,-0.182 -0.253,-0.182c-0.161,0 -0.253,-0.057 -0.253,-0.157c0,-0.157 -1.498,-0.211 -1.529,-0.055m-19.405,0.402c0,0.243 -0.255,0.457 -0.454,0.381c-0.131,-0.05 -0.153,0.116 -0.153,1.181l0,1.24l0.457,0.123c0.602,0.16 2.295,0.161 2.456,0c0.192,-0.192 0.165,-2.446 -0.03,-2.609c-0.084,-0.069 -0.152,-0.211 -0.152,-0.316c0,-0.173 -0.091,-0.19 -1.062,-0.19c-0.971,0 -1.062,0.017 -1.062,0.19m-3.312,3.39l-0.329,0.103l0,2.486l0.247,0c0.136,0 0.275,0.046 0.31,0.101c0.129,0.21 2.255,0.125 2.373,-0.094c0.226,-0.424 0.13,-2.412 -0.125,-2.579c-0.267,-0.176 -1.933,-0.187 -2.476,-0.017m2.93,3.062c-0.313,0.337 -0.311,2.736 0.003,2.683c0.13,-0.022 0.177,0.039 0.177,0.228l0,0.257l1.207,0c0.76,0 1.233,-0.041 1.276,-0.11c0.108,-0.175 0.18,-2.128 0.102,-2.756l-0.071,-0.572l-1.232,0.01c-1.172,0.01 -1.243,0.023 -1.462,0.26" style="fill:url(#_Radial1);"/><g id="walmart"><clipPath id="_clip2"><rect id="path2974" x="302.487" y="153.681" width="3.295" height="8.117"/></clipPath><g clip-path="url(#_clip2)"><path d="M304.131,161.798c0.565,0 1.03,-0.294 1.093,-0.673l0.558,-6.308c0,-0.624 -0.73,-1.136 -1.649,-1.136c-0.917,0 -1.646,0.512 -1.646,1.136l0.556,6.308c0.063,0.379 0.528,0.673 1.09,0.673l-0.002,0" style="fill:url(#_Linear3);fill-rule:nonzero;"/></g><path id="path2976" d="M300.722,163.768c0.284,-0.488 0.262,-1.038 -0.036,-1.281l-5.185,-3.637c-0.539,-0.312 -1.347,0.064 -1.806,0.859c-0.46,0.794 -0.379,1.682 0.159,1.994l5.74,2.673c0.36,0.133 0.849,-0.123 1.13,-0.611l-0.002,0.003" style="fill:url(#_Linear4);fill-rule:nonzero;"/><path id="path2978" d="M307.544,163.765c0.283,0.488 0.77,0.744 1.129,0.611l5.741,-2.673c0.541,-0.312 0.618,-1.2 0.162,-1.994c-0.461,-0.795 -1.271,-1.171 -1.809,-0.859l-5.185,3.637c-0.296,0.243 -0.318,0.793 -0.036,1.281l-0.002,-0.003" style="fill:url(#_Linear5);fill-rule:nonzero;"/><path id="path2980" d="M304.132,169.677c0.565,0 1.03,0.292 1.092,0.671l0.559,6.308c0,0.625 -0.73,1.136 -1.649,1.136c-0.918,0 -1.647,-0.511 -1.647,-1.136l0.557,-6.308c0.062,-0.379 0.527,-0.671 1.09,-0.671l-0.002,0" style="fill:url(#_Linear6);fill-rule:nonzero;"/><path id="path2982" d="M307.544,167.707c0.283,-0.489 0.77,-0.744 1.129,-0.609l5.741,2.671c0.541,0.312 0.618,1.201 0.162,1.996c-0.461,0.793 -1.271,1.17 -1.809,0.858l-5.185,-3.633c-0.296,-0.246 -0.318,-0.796 -0.036,-1.284l-0.002,0.001" style="fill:url(#_Linear7);fill-rule:nonzero;"/><path id="path2984" d="M300.722,167.706c0.284,0.488 0.262,1.038 -0.036,1.284l-5.185,3.633c-0.539,0.312 -1.347,-0.065 -1.806,-0.858c-0.46,-0.795 -0.379,-1.684 0.159,-1.996l5.74,-2.671c0.36,-0.135 0.849,0.12 1.13,0.609l-0.002,-0.001" style="fill:url(#_Linear8);fill-rule:nonzero;"/></g><path id="soriana" d="M312.65,19.903l0,4.055l-10.48,0c-0.681,0 -1.305,0.567 -1.305,1.361l0,5.359c0,1.361 -1.049,2.694 -2.637,2.694l-1.304,0l0,1.361l5.246,0c0.709,0 1.304,-0.595 1.304,-1.333l0,-5.387c0,-1.673 1.333,-2.694 2.637,-2.694l6.539,0l0,4.027l-2.597,0c-0.738,0 -1.333,0.567 -1.333,1.332l0,5.388c0,1.503 -1.163,2.694 -2.609,2.694l-9.187,0l0,1.361l12.476,0c1.106,0 1.957,-0.908 1.957,-2.013l0,-7.43l1.293,0l0,7.727c-0.148,1.849 -1.66,3.077 -3.25,3.077l-13.781,0l0,-4.055l10.492,0c0.709,0 1.304,-0.595 1.304,-1.361l0,-5.388c0,-1.332 1.021,-2.665 2.638,-2.665l1.304,0l0,-1.361l-5.246,0c-0.907,0 -1.304,0.652 -1.304,1.361l0,5.387c0,1.503 -1.191,2.666 -2.637,2.666l-6.551,0l0,-4.027l2.609,0c0.652,0.029 1.304,-0.567 1.304,-1.361l0,-5.359c0,-1.361 1.05,-2.694 2.638,-2.694l9.187,0l0,-1.361l-12.477,0c-1.134,0.028 -1.956,0.964 -1.956,2.013l0,7.401l-1.305,0l0,-7.401c0,-1.814 1.475,-3.346 3.261,-3.346l13.77,-0.028Z" style="fill:url(#_Linear9);"/><g id="paynet"><path d="M301.723,53.69c-0.138,0.157 -0.414,0.442 -0.674,0.702c-0.112,0.111 -0.378,0.375 -0.59,0.582c-0.423,0.417 -0.487,0.492 -0.77,0.873c-0.106,0.143 -0.259,0.343 -0.34,0.443c-0.08,0.099 -0.163,0.217 -0.186,0.26c-0.019,0.043 -0.077,0.107 -0.128,0.139c-0.048,0.032 -0.115,0.111 -0.148,0.171c-0.032,0.061 -0.109,0.171 -0.173,0.243c-0.221,0.249 -0.59,0.766 -0.734,1.027c-0.048,0.085 -0.138,0.214 -0.202,0.285c-0.064,0.068 -0.145,0.189 -0.183,0.268c-0.035,0.078 -0.096,0.174 -0.135,0.214c-0.038,0.039 -0.106,0.142 -0.144,0.231c-0.042,0.089 -0.141,0.246 -0.222,0.35c-0.08,0.107 -0.147,0.21 -0.147,0.235c0,0.025 -0.058,0.104 -0.128,0.179c-0.071,0.071 -0.148,0.185 -0.174,0.249c-0.025,0.068 -0.096,0.182 -0.157,0.257c-0.061,0.078 -0.134,0.196 -0.167,0.264c-0.032,0.068 -0.118,0.2 -0.195,0.292c-0.077,0.093 -0.141,0.186 -0.141,0.211c0,0.025 -0.065,0.121 -0.145,0.214c-0.08,0.092 -0.144,0.196 -0.144,0.224c0,0.029 -0.064,0.143 -0.141,0.25c-0.08,0.103 -0.173,0.257 -0.209,0.339c-0.041,0.089 -0.118,0.178 -0.208,0.235c-0.074,0.05 -0.164,0.121 -0.196,0.161c-0.032,0.039 -0.09,0.071 -0.131,0.071c-0.09,0 -0.376,-0.253 -0.825,-0.735c-0.16,-0.171 -0.423,-0.371 -0.49,-0.371c-0.074,0 -0.116,0.179 -0.097,0.393c0.013,0.107 0.032,0.503 0.052,0.877c0.025,0.606 0.038,0.717 0.125,0.999c0.118,0.403 0.157,0.695 0.195,1.494c0.026,0.549 0.042,0.695 0.129,1.016c0.115,0.439 0.147,0.682 0.192,1.405c0.029,0.493 0.042,0.55 0.148,0.814c0.096,0.235 0.118,0.349 0.144,0.663c0.055,0.66 0.083,0.845 0.167,1.045c0.109,0.257 0.141,0.421 0.18,0.991c0.028,0.403 0.051,0.517 0.128,0.714c0.054,0.128 0.106,0.292 0.118,0.36c0.01,0.068 0.049,0.16 0.087,0.207c0.064,0.078 0.067,0.078 1.094,0.078c1.376,0 1.729,-0.036 2.024,-0.192c0.263,-0.14 0.33,-0.154 0.827,-0.197c0.331,-0.028 0.388,-0.042 0.549,-0.142c0.115,-0.075 0.285,-0.139 0.484,-0.186c0.305,-0.068 0.391,-0.103 0.584,-0.26c0.058,-0.046 0.199,-0.104 0.314,-0.128c0.17,-0.036 0.231,-0.068 0.311,-0.165c0.058,-0.064 0.161,-0.146 0.231,-0.178c0.074,-0.028 0.193,-0.11 0.267,-0.178c0.077,-0.071 0.202,-0.15 0.282,-0.178c0.099,-0.04 0.163,-0.093 0.208,-0.179c0.039,-0.064 0.113,-0.15 0.164,-0.182c0.054,-0.035 0.125,-0.114 0.16,-0.178c0.036,-0.064 0.113,-0.146 0.173,-0.189c0.09,-0.061 0.116,-0.107 0.151,-0.278c0.029,-0.15 0.074,-0.243 0.17,-0.36l0.129,-0.157l0.019,-1.02l-0.138,-0.168c-0.186,-0.221 -0.244,-0.285 -0.472,-0.513c-0.109,-0.107 -0.272,-0.275 -0.365,-0.368c-0.09,-0.093 -0.238,-0.246 -0.327,-0.335c-0.158,-0.157 -0.478,-0.51 -0.738,-0.81c-0.071,-0.082 -0.161,-0.203 -0.199,-0.274c-0.039,-0.068 -0.109,-0.15 -0.157,-0.175c-0.045,-0.028 -0.119,-0.132 -0.164,-0.228c-0.045,-0.1 -0.122,-0.236 -0.173,-0.307c-0.051,-0.068 -0.115,-0.214 -0.144,-0.321c-0.029,-0.107 -0.084,-0.235 -0.125,-0.285c-0.167,-0.193 -0.186,-0.318 -0.203,-1.166c-0.019,-1.027 0,-1.209 0.138,-1.434c0.058,-0.093 0.138,-0.285 0.174,-0.421c0.038,-0.139 0.112,-0.314 0.166,-0.389c0.055,-0.078 0.132,-0.214 0.174,-0.303c0.041,-0.089 0.125,-0.203 0.186,-0.256c0.061,-0.05 0.128,-0.143 0.15,-0.2c0.023,-0.061 0.055,-0.111 0.071,-0.111c0.016,0 0.122,-0.1 0.237,-0.224c0.353,-0.378 0.443,-0.468 0.574,-0.575c0.071,-0.057 0.164,-0.142 0.209,-0.192c0.045,-0.05 0.144,-0.136 0.224,-0.193c0.077,-0.057 0.203,-0.189 0.276,-0.299c0.157,-0.232 0.154,-0.221 0.206,-1.477c0.041,-1.052 0.067,-1.241 0.176,-1.348l0.083,-0.078l1.354,0c1.225,0 1.363,0.007 1.466,0.064c0.176,0.096 0.24,0.257 0.24,0.603c0,0.174 0.016,0.31 0.039,0.335c0.019,0.021 0.119,0.039 0.218,0.039c0.138,0 0.218,-0.025 0.359,-0.118c0.257,-0.157 0.318,-0.174 0.828,-0.21c0.266,-0.018 0.507,-0.054 0.593,-0.089c0.08,-0.032 0.279,-0.086 0.446,-0.118c0.208,-0.043 0.314,-0.082 0.337,-0.125c0.045,-0.078 0.003,-0.11 -0.228,-0.185c-0.09,-0.029 -0.221,-0.107 -0.295,-0.175c-0.093,-0.086 -0.192,-0.135 -0.356,-0.178c-0.128,-0.032 -0.286,-0.1 -0.363,-0.157c-0.147,-0.114 -0.279,-0.168 -0.503,-0.203c-0.154,-0.029 -0.253,-0.075 -0.43,-0.207c-0.061,-0.047 -0.224,-0.111 -0.372,-0.143c-0.173,-0.039 -0.321,-0.1 -0.443,-0.182c-0.163,-0.114 -0.221,-0.128 -0.535,-0.164c-0.401,-0.043 -0.51,-0.075 -0.741,-0.217c-0.129,-0.082 -0.228,-0.111 -0.497,-0.14c-0.414,-0.046 -0.546,-0.085 -0.754,-0.217c-0.132,-0.082 -0.228,-0.111 -0.481,-0.139c-0.427,-0.047 -0.475,-0.061 -0.725,-0.2c-0.119,-0.068 -0.25,-0.121 -0.292,-0.121c-0.042,0 -0.122,0.053 -0.186,0.125Z" style="fill:url(#_Linear10);fill-rule:nonzero;"/><path d="M311.317,58.629c-0.312,0.018 -0.456,0.043 -0.642,0.114c-0.16,0.061 -0.369,0.107 -0.619,0.132c-0.276,0.025 -0.43,0.061 -0.577,0.129c-0.286,0.135 -0.475,0.185 -0.857,0.228c-0.304,0.035 -0.353,0.053 -0.506,0.167c-0.11,0.086 -0.241,0.147 -0.379,0.179c-0.141,0.032 -0.266,0.092 -0.362,0.171c-0.081,0.064 -0.215,0.143 -0.302,0.175c-0.083,0.032 -0.212,0.11 -0.289,0.182c-0.073,0.067 -0.208,0.153 -0.298,0.192c-0.176,0.071 -0.237,0.132 -0.799,0.753c-0.301,0.338 -0.368,0.431 -0.384,0.542c-0.013,0.075 -0.055,0.189 -0.1,0.253c-0.042,0.064 -0.099,0.157 -0.131,0.207c-0.049,0.071 -0.058,0.16 -0.058,0.485l0,0.399l0.106,0.139c0.057,0.075 0.154,0.211 0.215,0.3c0.061,0.093 0.166,0.207 0.231,0.253c0.067,0.05 0.182,0.153 0.256,0.228c0.071,0.075 0.221,0.229 0.327,0.336c0.616,0.617 1.303,1.43 1.415,1.676c0.038,0.089 0.112,0.21 0.163,0.267c0.052,0.061 0.119,0.2 0.154,0.314c0.036,0.114 0.109,0.271 0.161,0.357c0.15,0.235 0.173,0.413 0.173,1.38c0,0.966 -0.026,1.152 -0.17,1.355c-0.051,0.075 -0.116,0.221 -0.141,0.332c-0.058,0.242 -0.087,0.303 -0.196,0.417c-0.048,0.05 -0.112,0.153 -0.144,0.232c-0.032,0.078 -0.125,0.228 -0.205,0.335c-0.084,0.103 -0.164,0.221 -0.183,0.257c-0.016,0.035 -0.106,0.132 -0.199,0.21c-0.093,0.079 -0.238,0.207 -0.327,0.286c-0.087,0.078 -0.238,0.21 -0.331,0.296c-0.166,0.146 -0.5,0.456 -0.638,0.588c-0.099,0.1 -0.128,0.339 -0.17,1.362c-0.045,1.145 -0.051,1.231 -0.138,1.423c-0.128,0.293 -0.157,0.303 -0.847,0.293c-0.33,-0.004 -0.891,-0.022 -1.244,-0.04c-0.353,-0.017 -0.68,-0.035 -0.728,-0.035c-0.045,0 -0.132,-0.043 -0.19,-0.096c-0.144,-0.136 -0.218,-0.343 -0.221,-0.6c0,-0.303 -0.016,-0.317 -0.263,-0.288c-0.603,0.067 -0.712,0.092 -0.892,0.196c-0.237,0.139 -0.465,0.178 -1.154,0.203c-0.821,0.028 -0.918,0.053 -0.616,0.178c0.083,0.036 0.208,0.107 0.279,0.164c0.07,0.057 0.221,0.132 0.34,0.171c0.115,0.04 0.237,0.104 0.273,0.147c0.089,0.11 0.195,0.16 0.429,0.21c0.231,0.05 0.356,0.111 0.491,0.235c0.048,0.047 0.141,0.093 0.209,0.104c0.314,0.053 0.455,0.1 0.554,0.182c0.154,0.128 0.228,0.157 0.575,0.214c0.166,0.028 0.356,0.082 0.417,0.117c0.061,0.036 0.157,0.09 0.211,0.122c0.055,0.032 0.241,0.075 0.414,0.096c0.391,0.046 0.516,0.082 0.757,0.221c0.151,0.089 0.247,0.114 0.488,0.139c0.381,0.036 0.439,0.054 0.712,0.204c0.195,0.106 -0.117,-0.064 0.599,0.16c0.717,0.224 0.575,0.025 0.767,-0.189c0.087,-0.096 0.183,-0.182 0.215,-0.193c0.032,-0.014 0.08,-0.064 0.106,-0.114c0.022,-0.05 0.086,-0.125 0.141,-0.167c0.051,-0.04 0.164,-0.147 0.247,-0.236c0.08,-0.089 0.173,-0.192 0.208,-0.224c0.068,-0.068 0.135,-0.139 0.488,-0.532c0.141,-0.157 0.295,-0.335 0.343,-0.392c0.048,-0.057 0.096,-0.104 0.109,-0.104c0.01,0 0.052,-0.06 0.09,-0.135c0.035,-0.075 0.106,-0.157 0.151,-0.185c0.048,-0.029 0.112,-0.111 0.147,-0.182c0.032,-0.075 0.103,-0.168 0.157,-0.211c0.055,-0.043 0.122,-0.128 0.151,-0.189c0.026,-0.064 0.103,-0.171 0.167,-0.239c0.064,-0.067 0.164,-0.196 0.218,-0.285c0.18,-0.275 0.327,-0.474 0.475,-0.649c0.08,-0.093 0.144,-0.189 0.144,-0.214c0,-0.029 0.052,-0.107 0.116,-0.175c0.064,-0.064 0.144,-0.192 0.179,-0.274c0.036,-0.086 0.113,-0.214 0.17,-0.286c0.058,-0.075 0.135,-0.196 0.17,-0.274c0.036,-0.079 0.109,-0.179 0.164,-0.225c0.054,-0.043 0.128,-0.143 0.163,-0.221c0.036,-0.075 0.1,-0.178 0.142,-0.225c0.041,-0.05 0.115,-0.164 0.157,-0.26c0.045,-0.096 0.118,-0.214 0.167,-0.264c0.048,-0.05 0.115,-0.153 0.15,-0.232c0.036,-0.078 0.106,-0.182 0.157,-0.225c0.052,-0.046 0.126,-0.153 0.164,-0.231c0.035,-0.082 0.109,-0.204 0.157,-0.268c0.052,-0.064 0.129,-0.196 0.173,-0.292c0.045,-0.097 0.119,-0.204 0.164,-0.236c0.045,-0.035 0.109,-0.121 0.144,-0.199c0.081,-0.179 0.414,-0.553 0.517,-0.582c0.109,-0.032 0.231,0.029 0.378,0.186c0.173,0.189 0.414,0.41 0.546,0.51c0.06,0.046 0.173,0.146 0.247,0.221c0.144,0.142 0.218,0.164 0.314,0.089c0.048,-0.043 0.054,-0.078 0.035,-0.207c-0.064,-0.456 -0.083,-0.695 -0.112,-1.287c-0.026,-0.525 -0.048,-0.714 -0.116,-0.953c-0.125,-0.467 -0.173,-0.82 -0.208,-1.537c-0.029,-0.602 -0.067,-0.888 -0.157,-1.148c-0.061,-0.175 -0.129,-0.678 -0.164,-1.205c-0.029,-0.446 -0.048,-0.55 -0.128,-0.749c-0.122,-0.296 -0.148,-0.443 -0.193,-1.031c-0.032,-0.403 -0.051,-0.517 -0.128,-0.695c-0.119,-0.282 -0.147,-0.439 -0.189,-1.017c-0.032,-0.446 -0.045,-0.499 -0.167,-0.802c-0.202,-0.489 -0.122,-0.45 -0.908,-0.442c-0.372,0.003 -0.856,0.014 -1.077,0.028Z" style="fill:url(#_Linear11);fill-rule:nonzero;"/></g><g id="oxxo"><path d="M284.414,125.205l0,-0.557c0,-0.675 0.553,-1.228 1.228,-1.228l36.985,0c0.675,0 1.228,0.553 1.228,1.228l0,15.722c0,0.676 -0.553,1.228 -1.228,1.228l-36.985,0c-0.675,0 -1.228,-0.552 -1.228,-1.228l0,-0.557l39.441,0l0,-14.608l-39.441,0l0,14.608l0,-14.608Z" style="fill:url(#_Linear12);"/><path d="M317.839,128.999c-1.805,0 -3.276,1.471 -3.276,3.275c0,1.804 1.471,3.276 3.276,3.276c1.804,0 3.275,-1.472 3.275,-3.276c0,-1.804 -1.471,-3.275 -3.275,-3.275Zm-26.998,0c-1.804,0 -3.275,1.471 -3.275,3.275c0,1.804 1.471,3.276 3.275,3.276c1.804,0 3.275,-1.472 3.275,-3.276c0,-1.804 -1.471,-3.275 -3.275,-3.275Z" style="fill:url(#_Radial13);"/><path d="M317.582,126.116c-3.032,-0.07 -4.458,1.875 -6.527,4.273l-1.951,2.262l3.09,3.7c0.736,1.136 -0.669,2.265 -1.541,1.224l-2.857,-3.408l-2.784,3.228c-0.887,1.027 -2.276,-0.121 -1.524,-1.247l3.022,-3.515l-1.98,-2.362l1.274,-1.577l2.014,2.419l1.736,-2.02c0.852,-0.99 1.721,-2.302 2.847,-2.977l-27.987,0l0,12.787l6.543,0c3.033,0 4.409,-1.814 6.422,-4.259l1.9,-2.307l-3.176,-3.627c-0.762,-1.119 0.617,-2.28 1.513,-1.26l2.935,3.342l2.71,-3.291c0.862,-1.048 2.277,0.068 1.552,1.211l-2.942,3.584l2.035,2.316l-1.282,1.518l-2.025,-2.284l-1.689,2.059c-0.829,1.009 -1.668,2.297 -2.778,2.997l27.722,0l0,-12.786l-6.272,0l0,0Zm-21.566,6.158c0,2.851 -2.324,5.175 -5.175,5.175c-2.851,0 -5.175,-2.324 -5.175,-5.175c0,-2.85 2.324,-5.175 5.175,-5.175c2.851,0 5.175,2.325 5.175,5.175Zm21.823,5.175c-2.851,0 -5.176,-2.324 -5.176,-5.175c0,-2.85 2.325,-5.175 5.176,-5.175c2.85,0 5.175,2.325 5.175,5.175c0,2.851 -2.325,5.175 -5.175,5.175Z" style="fill:url(#_Linear14);"/></g><g id="Negocio"><path d="M46.749,83.797l6.419,0l0,-1.604l-6.419,0l0,1.604Zm14.442,8.023l0,6.018c0,0.551 -0.197,1.024 -0.589,1.416c-0.393,0.393 -0.865,0.59 -1.417,0.59l-18.453,0c-0.552,0 -1.024,-0.197 -1.417,-0.59c-0.393,-0.392 -0.589,-0.865 -0.589,-1.416l0,-6.018l8.424,0l0,2.006c0,0.218 0.08,0.406 0.238,0.564c0.159,0.159 0.347,0.239 0.565,0.239l4.011,0c0.217,0 0.405,-0.08 0.564,-0.239c0.159,-0.158 0.238,-0.346 0.238,-0.564l0,-2.006l8.425,0Zm-9.628,0l0,1.605l-3.209,0l0,-1.605l3.209,0Zm9.628,-6.017l0,4.814l-22.465,0l0,-4.814c0,-0.551 0.196,-1.024 0.589,-1.416c0.393,-0.393 0.865,-0.59 1.417,-0.59l4.412,0l0,-2.005c0,-0.335 0.117,-0.619 0.351,-0.853c0.234,-0.234 0.519,-0.351 0.853,-0.351l7.221,0c0.334,0 0.618,0.117 0.852,0.351c0.234,0.234 0.351,0.518 0.351,0.853l0,2.005l4.413,0c0.552,0 1.024,0.197 1.417,0.59c0.392,0.392 0.589,0.865 0.589,1.416Z" style="fill:#d45769;fill-opacity:0.898039;fill-rule:nonzero;"/><g transform="matrix(0.0919107,0,0,0.0919107,21.2975,113.67)"><text x="0px" y="0px" style="font-family:'QueenofCamelot', 'Queen of Camelot';font-size:121.552px;fill:#d45769;fill-opacity:0.898039;">T<tspan x="62.853px " y="0px ">u</tspan></text><text x="159.062px" y="0px" style="font-family:'QueenofCamelot', 'Queen of Camelot';font-size:121.552px;fill:#808080;fill-opacity:0.898039;">ne<tspan x="293.731px " y="0px ">g</tspan>ocio</text></g></g><g id="omni"><clipPath id="_clip15"><path d="M208.094,73.211c-14.143,1.686 -24.242,14.518 -22.556,28.661c1.685,14.143 14.517,24.242 28.66,22.557c14.144,-1.686 24.243,-14.518 22.557,-28.661c-1.562,-13.108 -12.696,-22.741 -25.576,-22.74c-1.018,0 -2.049,0.06 -3.085,0.183Z"/></clipPath><g clip-path="url(#_clip15)"><path d="M182.486,76.263l51.217,-6.104l6.104,51.218l-51.217,6.104l-6.104,-51.218Z" style="fill:url(#_Linear16);fill-rule:nonzero;"/></g><path d="M235.738,95.889c1.551,13.013 -7.287,24.87 -19.976,27.263c-0.555,0.105 -1.116,0.191 -1.685,0.259c-13.581,1.619 -25.903,-8.079 -27.522,-21.66c-1.618,-13.582 8.079,-25.904 21.661,-27.522c13.581,-1.619 25.903,8.079 27.522,21.66Z" style="fill-opacity:0.898039;"/><g><clipPath id="_clip17"><path d="M206.99,76.357c-6.192,1.14 -11.086,4.307 -14.681,9.501c-3.573,5.21 -4.789,10.91 -3.649,17.102c1.14,6.191 4.307,11.085 9.501,14.681c5.21,3.573 10.911,4.789 17.102,3.648c6.192,-1.14 11.085,-4.306 14.681,-9.501c3.573,-5.209 4.789,-10.91 3.649,-17.102c-1.14,-6.191 -4.307,-11.085 -9.501,-14.681c-3.95,-2.708 -8.182,-4.062 -12.695,-4.062c-1.441,0 -2.91,0.138 -4.407,0.414Zm-6.55,37.976c-4.28,-2.949 -6.891,-6.982 -7.834,-12.1c-0.942,-5.117 0.061,-9.816 3.011,-14.096c2.948,-4.28 6.982,-6.892 12.099,-7.834c5.118,-0.942 9.816,0.061 14.097,3.01c4.28,2.95 6.891,6.982 7.834,12.1c0.942,5.117 -0.062,9.816 -3.011,14.096c-2.949,4.281 -6.982,6.892 -12.1,7.834c-1.239,0.228 -2.453,0.342 -3.644,0.342c-3.724,0 -7.208,-1.117 -10.452,-3.352Z"/></clipPath><g clip-path="url(#_clip17)"><path d="M184.523,80.493l44.933,-8.273l8.274,44.933l-44.933,8.273l-8.274,-44.933Z" style="fill:url(#_Linear18);fill-rule:nonzero;"/></g><clipPath id="_clip19"><path d="M205.563,94.184c-0.531,0.74 -0.746,1.715 -0.776,2.639c-0.748,-0.491 -1.545,-0.904 -2.415,-1.004c-0.237,-0.073 -0.493,-0.093 -0.778,-0.029c-0.038,0.008 -0.073,0.022 -0.103,0.04c-0.029,0.004 -0.057,0.006 -0.085,0.011c-0.386,0.065 -0.316,0.672 0.072,0.606c0.047,-0.007 0.093,-0.011 0.139,-0.017c0.663,0.347 1.326,0.694 1.989,1.04c0.132,0.119 0.263,0.226 0.398,0.31c0.392,0.245 1.129,0.671 1.607,0.464c0.503,-0.219 0.673,-0.988 0.749,-1.47c0.029,-0.187 0.27,-2.614 0.717,-2.311c0.071,0.047 0.144,0.06 0.213,0.052c0.22,0.063 0.495,-0.225 0.337,-0.492c-0.211,-0.356 -0.526,-0.502 -0.855,-0.502c-0.452,0 -0.931,0.275 -1.209,0.663Z"/></clipPath><g clip-path="url(#_clip19)"><path d="M200.811,94.177l6.863,-0.818l0.563,4.722l-6.863,0.818l-0.563,-4.722Z" style="fill:url(#_Linear20);fill-rule:nonzero;"/></g><clipPath id="_clip21"><path d="M211.854,101.673c-0.004,0.02 -0.009,0.041 -0.013,0.062c-0.032,0.028 -0.061,0.065 -0.083,0.113c-0.561,1.23 -1.077,2.478 -1.554,3.742c-1.311,-0.214 -2.618,-0.446 -3.922,-0.697c-0.331,-0.102 -0.669,-0.179 -1.026,-0.2c-0.279,-0.016 -0.404,0.26 -0.311,0.447c0.006,0.098 0.059,0.193 0.178,0.243c1.88,0.791 3.793,1.495 5.738,2.111c0.15,0.048 0.34,0.01 0.402,-0.158c0.583,-1.58 0.937,-3.219 1.051,-4.896c0.05,-0.225 0.099,-0.45 0.145,-0.676c0.044,-0.215 -0.125,-0.338 -0.297,-0.338c-0.135,0 -0.273,0.077 -0.308,0.247Z"/></clipPath><g clip-path="url(#_clip21)"><path d="M204.538,102.318l7.943,-0.946l0.705,5.911l-7.944,0.947l-0.704,-5.912Z" style="fill:url(#_Linear22);fill-rule:nonzero;"/></g><clipPath id="_clip23"><path d="M214.752,106.614c-0.03,0.1 -0.064,0.198 -0.097,0.297l-1.234,1.851c-0.193,0.289 -0.387,0.579 -0.58,0.868c-0.287,0.431 -0.377,0.624 -0.929,0.537c-1.513,-0.238 -3.018,-0.518 -4.516,-0.834c-0.3,-0.063 -0.42,0.29 -0.276,0.487c0.02,0.075 0.074,0.141 0.171,0.178c0.145,0.054 0.291,0.106 0.437,0.158c0.327,0.128 0.659,0.242 0.995,0.344c0.144,0.047 0.288,0.09 0.433,0.135c1.333,0.552 2.627,1.208 4.085,1.369c0.132,0.015 0.275,-0.051 0.326,-0.18c0.615,-1.538 1.169,-3.098 1.661,-4.68c0.006,-0.019 0.01,-0.039 0.012,-0.058c0.025,-0.076 0.049,-0.152 0.073,-0.228c0.074,-0.242 -0.136,-0.431 -0.324,-0.431c-0.101,0 -0.196,0.055 -0.237,0.187Zm-1.71,4.745c0.026,-0.019 0.051,-0.038 0.074,-0.06c-0.009,0.022 -0.017,0.045 -0.026,0.067c-0.016,-0.003 -0.032,-0.004 -0.048,-0.007Z"/></clipPath><g clip-path="url(#_clip23)"><path d="M206.712,107.401l8.646,-1.03l0.636,5.336l-8.646,1.03l-0.636,-5.336Z" style="fill:url(#_Linear24);fill-rule:nonzero;"/></g><clipPath id="_clip25"><path d="M198.298,90.254c0.396,0.396 1.453,1.248 1.996,0.658c0.25,-0.272 0.045,-0.606 -0.264,-0.694c-0.458,-0.13 -0.884,-0.218 -1.316,-0.435c-0.017,-0.008 -0.033,-0.013 -0.049,-0.019c-0.055,-0.051 -0.114,-0.073 -0.171,-0.073c-0.225,0 -0.413,0.345 -0.196,0.563Z"/></clipPath><g clip-path="url(#_clip25)"><path d="M198.043,89.718l2.358,-0.281l0.233,1.96l-2.357,0.281l-0.234,-1.96Z" style="fill:url(#_Linear26);fill-rule:nonzero;"/></g><clipPath id="_clip27"><path d="M197.606,92.08c0.009,0.007 0.019,0.015 0.029,0.023c0.022,0.024 0.049,0.045 0.08,0.061c0.443,0.337 1.42,0.985 1.8,0.429c0.502,-0.733 -0.997,-0.901 -1.515,-0.981c-0.006,-0.005 -0.011,-0.008 -0.016,-0.013c-0.06,-0.047 -0.122,-0.067 -0.182,-0.067c-0.247,0 -0.445,0.35 -0.196,0.548Z"/></clipPath><g clip-path="url(#_clip27)"><path d="M197.319,91.56l2.625,-0.313l0.212,1.781l-2.625,0.313l-0.212,-1.781Z" style="fill:url(#_Linear28);fill-rule:nonzero;"/></g><clipPath id="_clip29"><path d="M196.829,93.027c-0.091,0.018 -0.157,0.056 -0.205,0.104c-0.22,0.092 -0.301,0.45 -0.019,0.562c0.008,0.003 0.015,0.007 0.023,0.01c0.029,0.044 0.062,0.086 0.101,0.121c0.337,0.31 0.789,0.535 1.216,0.689c0.192,0.07 0.35,-0.05 0.405,-0.199c0.067,-0.031 0.124,-0.086 0.161,-0.155c0.202,-0.371 -0.065,-0.756 -0.416,-0.897c-0.195,-0.078 -0.412,-0.12 -0.618,-0.162c-0.155,-0.031 -0.349,-0.085 -0.522,-0.085c-0.044,0 -0.086,0.004 -0.126,0.012Z"/></clipPath><g clip-path="url(#_clip29)"><path d="M196.264,93.091l2.333,-0.278l0.201,1.691l-2.332,0.278l-0.202,-1.691Z" style="fill:url(#_Linear30);fill-rule:nonzero;"/></g><clipPath id="_clip31"><path d="M195.977,94.948c-0.234,-0.023 -0.476,0.246 -0.286,0.481c0.325,0.401 0.67,0.785 1.039,1.145c0.279,0.272 0.719,0.54 1.055,0.176c0.336,-0.366 -0.041,-0.762 -0.311,-1.013c-0.358,-0.332 -0.767,-0.599 -1.203,-0.815c-0.047,-0.023 -0.091,-0.033 -0.132,-0.033c-0.062,0 -0.117,0.022 -0.162,0.059Z"/></clipPath><g clip-path="url(#_clip31)"><path d="M195.473,94.957l2.443,-0.291l0.281,2.359l-2.443,0.291l-0.281,-2.359Z" style="fill:url(#_Linear32);fill-rule:nonzero;"/></g><clipPath id="_clip33"><path d="M195.309,97.226c-0.026,0.015 -0.047,0.033 -0.066,0.051c-0.213,0.087 -0.292,0.445 -0.018,0.57c0.46,0.21 0.93,0.417 1.412,0.572c0.344,0.11 0.701,-0.037 0.694,-0.443c-0.006,-0.432 -0.447,-0.546 -0.787,-0.638c-0.277,-0.074 -0.576,-0.206 -0.863,-0.206c-0.128,0 -0.252,0.026 -0.372,0.094Z"/></clipPath><g clip-path="url(#_clip33)"><path d="M194.89,97.211l2.362,-0.281l0.184,1.545l-2.362,0.281l-0.184,-1.545Z" style="fill:url(#_Linear34);fill-rule:nonzero;"/></g><clipPath id="_clip35"><path d="M194.759,99.417c-0.017,0.009 -0.032,0.02 -0.046,0.031c-0.171,0.07 -0.285,0.272 -0.131,0.451c0.31,0.36 1.794,1.834 2.164,0.819c0.173,-0.471 -0.277,-0.752 -0.64,-0.909c-0.235,-0.102 -0.471,-0.203 -0.706,-0.304c-0.145,-0.063 -0.292,-0.138 -0.443,-0.138c-0.065,0 -0.131,0.014 -0.198,0.05Z"/></clipPath><g clip-path="url(#_clip35)"><path d="M194.393,99.427l2.394,-0.286l0.299,2.507l-2.394,0.286l-0.299,-2.507Z" style="fill:url(#_Linear36);fill-rule:nonzero;"/></g><clipPath id="_clip37"><path d="M194.248,101.826c-0.011,0.037 -0.023,0.073 -0.035,0.11c-0.16,0.108 -0.229,0.343 -0.025,0.478c0.364,0.239 0.726,0.532 1.118,0.723c0.303,0.15 0.698,0.141 0.898,-0.172c0.189,-0.295 0.033,-0.613 -0.24,-0.779c-0.388,-0.237 -0.89,-0.357 -1.314,-0.518c-0.037,-0.014 -0.078,-0.021 -0.119,-0.021c-0.12,0 -0.245,0.058 -0.283,0.179Z"/></clipPath><g clip-path="url(#_clip37)"><path d="M193.915,101.706l2.33,-0.278l0.214,1.796l-2.33,0.277l-0.214,-1.795Z" style="fill:url(#_Linear38);fill-rule:nonzero;"/></g><clipPath id="_clip39"><path d="M195.377,103.946c-0.329,0.006 -0.629,0.055 -0.918,0.186c-0.104,0.002 -0.182,0.055 -0.23,0.129c-0.213,0.188 0.024,0.531 0.297,0.493c0.5,0.08 1.925,0.316 1.654,-0.478c-0.102,-0.298 -0.44,-0.331 -0.714,-0.331c-0.031,0 -0.06,0.001 -0.089,0.001Z"/></clipPath><g clip-path="url(#_clip39)"><path d="M193.972,104.081l2.328,-0.278l0.151,1.267l-2.328,0.277l-0.151,-1.266Z" style="fill:url(#_Linear40);fill-rule:nonzero;"/></g><clipPath id="_clip41"><path d="M200.268,93.543c-0.01,0.01 -0.02,0.019 -0.029,0.031c-0.246,0.336 -1.162,2.019 -0.301,2.151c0.429,0.066 0.653,-0.516 0.762,-0.825c0.159,-0.449 0.212,-0.913 0.174,-1.386c-0.014,-0.178 -0.147,-0.26 -0.284,-0.26c-0.154,0 -0.314,0.103 -0.322,0.289Z"/></clipPath><g clip-path="url(#_clip41)"><path d="M198.822,93.446l2.022,-0.241l0.297,2.493l-2.022,0.241l-0.297,-2.493Z" style="fill:url(#_Linear42);fill-rule:nonzero;"/></g><clipPath id="_clip43"><path d="M199.225,97.388c-0.317,0.37 -0.531,0.813 -0.611,1.296c-0.051,0.306 -0.142,0.984 0.225,1.141c0.813,0.348 0.923,-1.673 0.972,-2.218c0.011,-0.036 0.013,-0.072 0.009,-0.106c0.011,-0.203 -0.157,-0.319 -0.319,-0.319c-0.121,0 -0.239,0.065 -0.276,0.206Z"/></clipPath><g clip-path="url(#_clip43)"><path d="M198.193,97.324l1.618,-0.193l0.356,2.98l-1.619,0.193l-0.355,-2.98Z" style="fill:url(#_Linear44);fill-rule:nonzero;"/></g><clipPath id="_clip45"><path d="M199.182,101.206c-0.012,0.001 -0.025,0.002 -0.037,0.003c-0.133,0.013 -0.247,0.128 -0.267,0.258c-0.001,0.013 -0.003,0.025 -0.005,0.038c-0.003,0.019 -0.002,0.039 -0.001,0.059c-0.201,0.393 -0.298,0.808 -0.325,1.258c-0.02,0.326 -0.112,1.017 0.396,1.001c0.447,-0.015 0.61,-0.659 0.637,-1.009c0.02,-0.25 -0.007,-0.5 -0.026,-0.75c-0.018,-0.239 0.043,-0.531 -0.092,-0.739c-0.052,-0.081 -0.155,-0.121 -0.249,-0.121c-0.01,0 -0.021,0.001 -0.031,0.002Z"/></clipPath><g clip-path="url(#_clip45)"><path d="M198.135,101.326l1.418,-0.169l0.309,2.595l-1.418,0.169l-0.309,-2.595Z" style="fill:url(#_Linear46);fill-rule:nonzero;"/></g><clipPath id="_clip47"><path d="M201.37,102.111c-0.005,0.006 -0.011,0.012 -0.016,0.019c-0.231,0.338 -0.313,0.703 -0.301,1.11c0.009,0.311 0.011,0.945 0.325,1.121c0.964,0.54 0.656,-1.849 0.594,-2.187c-0.032,-0.175 -0.175,-0.256 -0.314,-0.256c-0.128,0 -0.252,0.068 -0.288,0.193Z"/></clipPath><g clip-path="url(#_clip47)"><path d="M200.804,102.005l1.176,-0.14l0.362,3.036l-1.176,0.14l-0.362,-3.036Z" style="fill:url(#_Linear48);fill-rule:nonzero;"/></g><clipPath id="_clip49"><path d="M200.071,106.24c-0.219,0.478 -0.328,0.987 -0.306,1.514c0.015,0.331 0.052,0.947 0.479,1.021c0.435,0.075 0.636,-0.434 0.677,-0.775c0.059,-0.498 -0.117,-0.99 -0.13,-1.486c-0.003,-0.119 -0.062,-0.195 -0.141,-0.232c-0.039,-0.13 -0.177,-0.217 -0.313,-0.217c-0.105,0 -0.209,0.051 -0.266,0.175Z"/></clipPath><g clip-path="url(#_clip49)"><path d="M199.513,106.15l1.288,-0.153l0.333,2.799l-1.287,0.153l-0.334,-2.799Z" style="fill:url(#_Linear50);fill-rule:nonzero;"/></g><clipPath id="_clip51"><path d="M203.029,105.287c-0.048,0.018 -0.093,0.054 -0.129,0.113c-0.248,0.4 -0.383,0.828 -0.366,1.302c0.01,0.312 0.085,0.934 0.435,1.068c0.354,0.136 0.629,-0.281 0.683,-0.574c0.103,-0.552 -0.051,-1.191 -0.099,-1.744c-0.015,-0.177 -0.148,-0.259 -0.286,-0.259c-0.087,0 -0.175,0.032 -0.238,0.094Z"/></clipPath><g clip-path="url(#_clip51)"><path d="M202.339,105.293l1.238,-0.148l0.32,2.693l-1.237,0.147l-0.321,-2.692Z" style="fill:url(#_Linear52);fill-rule:nonzero;"/></g><clipPath id="_clip53"><path d="M202.735,109.821c-0.044,0.028 -0.083,0.07 -0.111,0.129c-0.195,0.421 -0.261,0.887 -0.166,1.344c0.074,0.351 0.266,0.909 0.67,0.994c0.423,0.089 0.679,-0.315 0.661,-0.689c-0.029,-0.583 -0.281,-1.211 -0.508,-1.74c-0.054,-0.128 -0.16,-0.182 -0.268,-0.182c-0.108,0 -0.218,0.055 -0.278,0.144Z"/></clipPath><g clip-path="url(#_clip53)"><path d="M202.234,109.757l1.357,-0.161l0.326,2.737l-1.357,0.162l-0.326,-2.738Z" style="fill:url(#_Linear54);fill-rule:nonzero;"/></g><clipPath id="_clip55"><path d="M205.29,109.028c-0.023,0.938 0.056,2.016 1.036,2.445c0.199,0.087 0.372,-0.049 0.424,-0.235c0.102,-0.36 -0.045,-0.673 -0.229,-0.979c-0.247,-0.407 -0.453,-0.811 -0.603,-1.264c-0.041,-0.125 -0.132,-0.181 -0.23,-0.188c-0.046,-0.019 -0.095,-0.03 -0.143,-0.03c-0.132,0 -0.251,0.078 -0.255,0.251Z"/></clipPath><g clip-path="url(#_clip55)"><path d="M205.08,108.817l1.505,-0.179l0.342,2.874l-1.504,0.179l-0.343,-2.874Z" style="fill:url(#_Linear56);fill-rule:nonzero;"/></g><clipPath id="_clip57"><path d="M199.584,84.25c-0.287,0.706 -0.12,1.399 0.142,2.088c0.361,0.951 0.765,1.889 1.162,2.825c0.77,1.815 1.604,3.599 2.585,5.31c0.062,0.108 0.187,0.137 0.301,0.112c0.17,0.006 0.353,-0.113 0.334,-0.333c-0.004,-0.054 -0.011,-0.108 -0.017,-0.162c0.142,-0.68 -0.089,-1.319 -0.381,-1.954c-0.075,-0.288 -0.154,-0.575 -0.232,-0.863c-0.298,-1.088 -0.527,-2.188 -0.653,-3.31c-0.091,-0.811 0.056,-1.899 -0.49,-2.577c-0.521,-0.649 -1.629,-0.952 -2.348,-1.295c-0.037,-0.017 -0.077,-0.025 -0.117,-0.025c-0.119,0 -0.24,0.072 -0.286,0.184Z"/></clipPath><g clip-path="url(#_clip57)"><path d="M199.198,84.132l3.874,-0.462l1.296,10.871l-3.874,0.461l-1.296,-10.87Z" style="fill:url(#_Linear58);fill-rule:nonzero;"/></g><clipPath id="_clip59"><path d="M218.743,83.579c-0.277,0.496 -0.333,1.058 -0.218,1.611c0.058,0.283 0.166,0.661 0.322,0.995c-0.039,0.019 -0.076,0.04 -0.113,0.062c-0.121,-0.152 -0.32,-0.197 -0.49,-0.287c-0.586,-0.309 -0.899,-0.916 -0.655,-1.559c0.139,-0.368 -0.421,-0.613 -0.56,-0.244c-0.185,0.485 -0.192,0.987 0.038,1.461c0.101,0.208 0.249,0.398 0.42,0.554c0.044,0.041 0.718,0.472 0.696,0.384c0.02,0.08 -0.186,0.539 -0.186,0.667c0.001,0.214 0.047,0.427 0.137,0.622c0.044,0.095 0.099,0.181 0.16,0.262c-0.046,-0.008 -0.093,-0.015 -0.139,-0.022c-0.072,-0.027 -0.146,-0.051 -0.225,-0.071c-0.074,-0.018 -0.137,-0.009 -0.188,0.016c-0.168,-0.021 -0.334,-0.042 -0.495,-0.069c-0.253,-0.042 -0.504,-0.09 -0.755,-0.141c0.187,-0.307 0.302,-0.646 0.319,-1.009c0.009,-0.18 -0.114,-0.296 -0.252,-0.331c-0.143,-0.095 -0.367,-0.087 -0.465,0.113c-0.167,0.341 -0.238,0.709 -0.222,1.086c-0.002,0.001 -0.005,0.002 -0.007,0.003c-0.319,-0.074 -0.636,-0.153 -0.953,-0.234c0.011,-0.017 0.021,-0.035 0.029,-0.055c0.17,-0.414 0.237,-0.846 0.208,-1.292c-0.022,-0.329 -0.452,-0.33 -0.575,-0.089c-0.022,0.034 -0.039,0.075 -0.047,0.125c-0.056,0.363 -0.112,0.725 -0.168,1.088c-0.004,0.027 -0.004,0.053 -0.002,0.077c-0.319,-0.085 -0.638,-0.17 -0.957,-0.254c0.35,-0.375 0.343,-0.905 0.275,-1.404c-0.041,-0.297 -0.402,-0.325 -0.549,-0.149c-0.041,0.028 -0.078,0.069 -0.103,0.127c-0.178,0.403 -0.255,0.827 -0.24,1.265c-0.301,-0.077 -0.603,-0.151 -0.905,-0.221c0.307,-0.371 0.352,-0.846 0.333,-1.325c0.001,-0.015 0,-0.029 -0.001,-0.042c-0.002,-0.039 -0.004,-0.077 -0.006,-0.115c-0.025,-0.393 -0.631,-0.319 -0.607,0.072c0,0.003 0,0.006 0,0.009c-0.181,0.396 -0.296,0.816 -0.338,1.251c0,0.004 0.001,0.008 0,0.013c-0.28,-0.059 -0.561,-0.112 -0.842,-0.16c0.185,-0.472 0.245,-0.975 0.17,-1.481c-0.047,-0.323 -0.475,-0.327 -0.584,-0.095c-0.004,0.006 -0.008,0.011 -0.011,0.017c-0.232,0.452 -0.313,0.961 -0.233,1.461c-0.339,-0.045 -0.679,-0.079 -1.022,-0.1c0.023,-0.063 0.039,-0.126 0.05,-0.185c0.082,-0.441 -0.098,-0.873 -0.101,-1.312c-0.002,-0.355 -0.496,-0.326 -0.59,-0.031c-0.012,0.015 -0.023,0.03 -0.033,0.047c-0.197,0.345 -0.305,0.726 -0.312,1.124c0,0.051 0,0.106 0.002,0.163c-0.617,-0.381 -1.46,-0.555 -2.085,-0.534c-1.531,0.051 -2.854,1.458 -2.58,2.874c0.012,0.075 0.026,0.151 0.046,0.229c0.508,2.006 3.791,2.363 4.921,0.758c0.397,-0.565 0.675,-1.457 0.527,-2.199c0.032,0.009 0.065,0.018 0.098,0.027c0.313,0.364 0.949,0.512 1.356,0.678c0.935,0.38 1.868,0.765 2.806,1.139c0.821,0.327 1.665,0.633 2.526,0.817c-0.322,0.01 -0.641,0.054 -0.968,0.152c-0.694,0.207 -1.328,0.568 -2.002,0.827c-0.753,0.289 -1.542,0.473 -2.346,0.548c-0.4,0.037 -1.04,-0.08 -1.293,0.33c-0.224,0.362 0.011,0.862 0.257,1.146c0.594,0.686 1.625,0.763 2.486,0.653c-0.535,0.536 -0.704,1.331 -0.089,1.963c0.776,0.798 1.903,1.259 2.965,1.518c1.772,0.432 3.554,0.26 5.339,0.088c1.089,-0.105 2.18,-0.21 3.269,-0.178c0.374,0.011 0.814,0.021 1.134,0.241c0.122,0.084 0.317,0.301 0.331,0.469c0.05,0.604 -0.531,0.51 -0.865,0.383c-0.577,-0.221 -1.027,-0.516 -1.659,-0.595c-0.475,-0.059 -0.955,-0.04 -1.429,0.033c-3.098,0.372 -5.867,2.683 -5.96,5.955c-0.039,1.367 0.433,3.002 1.643,3.784c0.64,0.414 1.389,0.432 2.126,0.396c0.7,-0.033 1.399,-0.081 2.099,-0.128c0.184,0.011 0.368,0.028 0.549,0.058c0.362,0.061 2.335,0.802 1.414,1.411c-0.278,0.184 -1.096,0.024 -1.387,-0.008c-0.351,-0.04 -0.7,-0.102 -1.048,-0.165c-0.787,-0.142 -1.569,-0.298 -2.372,-0.311c-0.234,-0.005 -0.5,-0.011 -0.768,0.003c-0.201,-0.002 -0.404,0.008 -0.611,0.036c-0.082,0.011 -0.143,0.047 -0.186,0.096c-0.079,0.026 -0.156,0.057 -0.229,0.094c-0.11,-0.003 -0.22,0.045 -0.282,0.17c-0.005,0.009 -0.009,0.019 -0.014,0.028c-0.441,0.386 -0.699,1.056 -0.936,1.56c-0.284,0.601 -0.532,2.085 -1.372,1.987c-0.846,-0.097 -1.733,-0.52 -2.542,-0.78c-0.928,-0.298 -1.856,-0.597 -2.783,-0.895c-0.095,-0.03 -0.181,-0.017 -0.252,0.023c-0.323,-0.045 -0.512,0.449 -0.169,0.579c1.065,0.404 2.12,0.834 3.162,1.294c0.555,0.246 1.107,0.5 1.655,0.762c0.389,0.185 0.825,0.505 1.247,0.586c0.908,0.175 0.995,-1.15 1.215,-1.76c0.351,-0.975 0.761,-1.927 1.214,-2.86c0.248,-0.185 0.559,-0.274 0.888,-0.312c1.631,0.005 3.118,0.941 4.735,1.138c0.638,0.078 1.369,0.04 1.847,-0.449c0.427,-0.436 0.77,-1.34 0.649,-1.949c-0.134,-0.671 -0.792,-0.913 -1.383,-1.061c-0.033,-0.009 -0.067,-0.015 -0.101,-0.023c0.605,-0.223 0.484,-1.163 0.509,-1.684c0.002,-0.034 -0.003,-0.066 -0.01,-0.096c0.045,-0.251 -0.33,-0.48 -0.553,-0.237c-0.468,0.507 -0.594,1.213 -0.382,1.862c0.009,0.026 0.023,0.05 0.041,0.072c-0.461,-0.086 -0.928,-0.141 -1.393,-0.206c0.188,-0.045 0.347,-0.201 0.433,-0.386c0.15,-0.329 0.148,-0.741 0.13,-1.097c0.101,-0.272 -0.306,-0.544 -0.538,-0.281c-0.318,0.362 -1.084,1.349 -0.381,1.711c-0.256,-0.04 -0.51,-0.088 -0.761,-0.15c-0.974,-0.24 -1.938,-0.725 -2.363,-1.686c-0.399,-0.901 -0.27,-1.978 0.275,-2.789c0.623,-0.925 1.633,-1.458 2.715,-1.624c-0.067,0.024 -0.127,0.06 -0.179,0.105c-0.174,-0.006 -0.344,0.11 -0.297,0.326c0.091,0.416 0.205,0.825 0.347,1.227c0.075,0.213 0.392,0.256 0.523,0.073c0.228,-0.316 0.489,-0.724 0.449,-1.134c-0.032,-0.33 -0.277,-0.595 -0.612,-0.626c-0.002,0 -0.004,0 -0.006,0c0.858,-0.09 1.746,0.046 2.513,0.399c0.684,0.315 1.009,0.944 1.839,0.753c0.717,-0.165 1.377,-0.613 1.839,-1.179c0.889,-1.086 0.965,-2.623 0.145,-3.771c-0.168,-0.236 -0.368,-0.433 -0.59,-0.597c1.114,-0.542 2.357,-2.019 1.73,-3.311c-0.71,-1.464 -2.965,-1.23 -4.282,-1.271c-0.887,-0.028 -1.816,-0.122 -2.587,-0.599c-0.633,-0.392 -0.853,-1.083 -1.318,-1.593c0.295,0.017 0.598,-0.019 0.821,-0.151c0.143,-0.085 0.247,-0.214 0.324,-0.364c0.319,0.096 0.63,0.206 0.91,0.279c0.659,0.173 1.294,0.339 1.974,0.19c0.381,-0.084 0.312,-0.692 -0.072,-0.607c-0.758,0.167 -1.506,-0.107 -2.236,-0.299c-0.134,-0.035 -0.271,-0.076 -0.41,-0.118c0.017,-0.111 0.026,-0.221 0.03,-0.324c0.022,-0.005 0.044,-0.008 0.065,-0.013c0.211,-0.049 0.42,-0.105 0.627,-0.168c0.544,-0.165 1.063,-0.386 1.569,-0.646c0.346,-0.179 0.119,-0.747 -0.231,-0.566c-0.471,0.243 -0.955,0.454 -1.461,0.614c-0.214,0.067 -0.431,0.123 -0.649,0.172c-0.09,-0.248 -0.249,-0.437 -0.452,-0.569c0.334,-0.678 0.902,-1.31 1.307,-1.892c0.223,-0.322 -0.256,-0.701 -0.481,-0.378c-0.452,0.65 -1.033,1.32 -1.392,2.058c-0.186,-0.031 -0.384,-0.035 -0.583,-0.01c-0.153,-0.3 -0.261,-0.702 -0.309,-0.923c-0.1,-0.456 -0.059,-0.866 0.17,-1.277c0.127,-0.226 -0.074,-0.408 -0.281,-0.408c-0.106,0 -0.214,0.049 -0.279,0.165Zm-13.631,4.944c-0.026,-0.082 -0.038,-0.16 -0.043,-0.236c0.053,-0.135 0.142,-0.267 0.274,-0.386c0.252,-0.227 0.65,-0.38 0.993,-0.33c0.434,0.062 0.475,0.446 0.43,0.822c-0.062,0.526 -0.433,0.794 -0.814,0.794c-0.344,0 -0.698,-0.219 -0.84,-0.664Zm-0.9,0.568c-0.037,-0.029 -0.071,-0.06 -0.103,-0.092c0.03,0.008 0.061,0.012 0.092,0.012c0.002,0.011 0.004,0.021 0.006,0.032c0.004,0.021 0.011,0.04 0.018,0.058c-0.004,-0.003 -0.009,-0.006 -0.013,-0.01Zm12.571,6.394c0.137,-0.015 0.274,-0.037 0.407,-0.065c1.07,-0.115 2.1,-0.919 2.225,-2.022c0.092,-0.812 -0.356,-1.51 -1.084,-1.843c-0.183,-0.083 -0.386,-0.162 -0.596,-0.219c0.359,-0.271 0.694,-0.651 0.985,-0.916c0.005,0.028 0.011,0.056 0.017,0.084c0.244,1.058 0.533,2.139 1.287,2.958c0.651,0.707 1.442,0.968 2.385,0.948c0.324,-0.007 0.652,-0.044 0.974,-0.001c0.325,0.044 0.59,0.188 0.892,0.301c0.396,0.148 0.729,0.174 1.094,-0.053c0.205,-0.129 0.127,-0.432 -0.063,-0.524c-0.293,-0.064 -0.307,-0.183 -0.042,-0.356c0.051,-0.148 0.136,-0.23 0.253,-0.249c0.023,0.002 0.047,0.003 0.07,0.005c0,-0.003 0,-0.006 0,-0.009c0.026,0.001 0.053,0.004 0.082,0.01c0.341,-0.019 0.354,-0.577 0.01,-0.605c-0.294,-0.025 -0.587,-0.05 -0.881,-0.074c-0.061,-0.005 -0.153,-0.005 -0.257,-0.004c-0.256,0.001 -0.583,0.003 -0.695,-0.079c-0.298,-0.216 0.285,-0.345 0.473,-0.402c0.216,-0.065 0.434,-0.118 0.653,-0.163c0.009,0.001 0.018,0.002 0.026,0.002c0.592,0.047 1.598,0.101 1.651,0.879c0.029,0.439 -0.409,0.864 -0.622,1.213c-0.193,0.316 -0.31,0.62 -0.305,0.982c-1.033,-0.483 -2.355,-0.46 -3.428,-0.289c-0.565,0.09 -1.056,0.276 -1.628,0.16c-0.5,-0.101 -0.883,-0.035 -1.377,0.082c-0.715,0.169 -1.445,0.254 -2.177,0.254c-0.11,0 -0.22,-0.001 -0.329,-0.005Zm0.628,-4.779c0.027,-0.004 0.055,-0.009 0.082,-0.013c-0.017,0.016 -0.034,0.032 -0.051,0.048c-0.009,-0.012 -0.019,-0.024 -0.031,-0.035Zm-1.94,0.955c0.763,-0.219 -0.136,0.138 -0.303,0.216c-0.217,0.101 -0.437,0.196 -0.657,0.287c0.304,-0.21 0.616,-0.404 0.96,-0.503Zm1.367,2.187c-0.257,-0.386 0.062,-0.855 0.526,-0.789c0.113,0.016 0.23,0.053 0.336,0.109c0.165,0.3 0.056,0.657 -0.153,0.837c-0.088,0.043 -0.18,0.082 -0.274,0.116c-0.005,0 -0.01,0 -0.015,0c-0.14,0 -0.29,-0.078 -0.42,-0.273Zm-3.907,0.616c-0.851,-0.637 0.289,-1.055 0.797,-1.14c0.302,-0.051 0.579,-0.105 0.849,-0.208c-0.008,0.02 -0.017,0.038 -0.025,0.058c-0.266,0.701 -0.057,1.533 0.567,1.964c0.141,0.098 0.292,0.172 0.451,0.228c-0.903,-0.134 -1.938,-0.377 -2.639,-0.902Zm9.046,4.043c0.022,0.005 0.043,0.008 0.065,0.013c-0.283,-0.013 -0.567,-0.018 -0.851,-0.011c0.263,-0.013 0.526,-0.014 0.786,-0.002Z"/></clipPath><g clip-path="url(#_clip59)"><path d="M202.589,85.015l24.638,-2.936l3.577,30.019l-24.637,2.936l-3.578,-30.019Z" style="fill:url(#_Linear60);fill-rule:nonzero;"/></g><clipPath id="_clip61"><path d="M219.22,104.049l-0.468,0.447c-0.119,0.114 -0.252,0.222 -0.343,0.361c-0.174,0.266 -0.158,0.67 0.154,0.83c0.687,0.353 1.079,-0.701 1.1,-1.197c0.001,-0.016 0,-0.031 -0.001,-0.046c0.06,-0.104 0.066,-0.227 -0.014,-0.336c-0.055,-0.074 -0.158,-0.123 -0.258,-0.123c-0.063,0 -0.124,0.02 -0.17,0.064Z"/></clipPath><g clip-path="url(#_clip61)"><path d="M218.085,104.133l1.611,-0.192l0.24,2.017l-1.611,0.192l-0.24,-2.017Z" style="fill:url(#_Linear62);fill-rule:nonzero;"/></g><clipPath id="_clip63"><path d="M223.667,101.461c-0.034,0.008 -0.065,0.021 -0.095,0.036c-0.08,0.018 -0.153,0.071 -0.192,0.174c-0.244,0.636 -0.158,1.322 0.246,1.872c0.153,0.21 0.513,0.123 0.546,-0.138c0.06,-0.477 0.44,-0.852 0.337,-1.362c-0.066,-0.329 -0.363,-0.6 -0.695,-0.6c-0.048,0 -0.097,0.006 -0.147,0.018Z"/></clipPath><g clip-path="url(#_clip63)"><path d="M223.043,101.529l1.427,-0.17l0.271,2.279l-1.426,0.17l-0.272,-2.279Z" style="fill:url(#_Linear64);fill-rule:nonzero;"/></g><clipPath id="_clip65"><path d="M222.024,100.315c-0.137,-0.003 -0.27,0.074 -0.291,0.25c-0.062,0.513 -0.011,1.01 0.144,1.502c0.066,0.211 0.402,0.261 0.523,0.074c0.256,-0.396 0.649,-0.939 0.529,-1.438c-0.068,-0.284 -0.333,-0.481 -0.603,-0.481c-0.103,0 -0.208,0.029 -0.302,0.093Z"/></clipPath><g clip-path="url(#_clip65)"><path d="M221.57,100.3l1.352,-0.162l0.248,2.084l-1.352,0.161l-0.248,-2.083Z" style="fill:url(#_Linear66);fill-rule:nonzero;"/></g><clipPath id="_clip67"><path d="M207.958,94.839c-0.581,0.402 -0.938,1.339 -1.168,1.974c-0.266,0.734 -0.31,1.606 -0.73,2.272c-0.655,-0.289 -1.32,-0.552 -1.999,-0.778c-0.712,-0.238 -1.494,-0.53 -2.241,-0.623c-1.075,-0.134 -0.923,1.273 -0.659,2.192c-0.022,0.213 -0.019,0.428 0.009,0.639c0.027,0.205 0.231,0.312 0.419,0.247c0.441,-0.153 0.644,-0.507 0.635,-0.961c-0.002,-0.147 -0.089,-0.228 -0.195,-0.252c-0.012,-0.096 -0.025,-0.192 -0.036,-0.287c0.012,-0.02 0.024,-0.04 0.037,-0.059c0.156,-0.116 0.298,-0.107 0.425,0.026c0.381,0.113 0.745,0.347 1.131,0.473c0.902,0.297 1.827,0.531 2.741,0.791c0.68,0.193 1.179,0.296 1.412,-0.474c0.24,-0.798 0.301,-1.657 0.479,-2.47c0.1,-0.46 0.227,-0.916 0.415,-1.349c0.123,-0.282 0.317,-0.554 0.331,-0.868c0.018,-0.401 -0.259,-0.631 -0.58,-0.631c-0.141,0 -0.29,0.044 -0.426,0.138Z"/></clipPath><g clip-path="url(#_clip67)"><path d="M200.5,95.624l8.445,-1.007l0.705,5.917l-8.445,1.006l-0.705,-5.916Z" style="fill:url(#_Linear68);fill-rule:nonzero;"/></g><clipPath id="_clip69"><path d="M209.285,97.194c-0.916,1.17 -1.532,2.515 -1.818,3.966c-1.328,-0.399 -2.686,-0.597 -4.072,-0.593c-0.023,-0.013 -0.046,-0.024 -0.069,-0.037c-0.129,-0.075 -0.244,-0.04 -0.318,0.043c-0.352,0.046 -0.271,0.612 0.107,0.602c0.018,0 0.035,0 0.052,0c0.015,0 0.03,0 0.046,0c0.041,0.047 0.101,0.08 0.185,0.086c0.001,0 0.002,0 0.003,0c1.575,0.786 3.397,0.836 5.011,1.533c0.192,0.083 0.38,-0.044 0.424,-0.234c0.385,-1.685 0.903,-3.397 0.991,-5.131c0.011,-0.196 -0.15,-0.353 -0.317,-0.353c-0.079,0 -0.16,0.036 -0.225,0.118Z"/></clipPath><g clip-path="url(#_clip69)"><path d="M202.335,97.922l7.478,-0.891l0.671,5.622l-7.479,0.892l-0.67,-5.623Z" style="fill:url(#_Linear70);fill-rule:nonzero;"/></g><clipPath id="_clip71"><path d="M210.944,98.964c-0.049,0.063 -0.093,0.129 -0.135,0.195c-0.043,0.028 -0.081,0.067 -0.108,0.123c-0.658,1.325 -1.317,2.65 -1.975,3.975c-1.44,-0.398 -2.907,-0.581 -4.402,-0.543c-0.019,-0.004 -0.038,-0.008 -0.056,-0.012c-0.072,-0.015 -0.132,-0.007 -0.182,0.017c-0.32,0.019 -0.323,0.456 -0.079,0.583c1.053,0.549 2.238,0.875 3.355,1.272c0.575,0.204 1.163,0.477 1.757,0.617c0.284,0.067 0.579,0.083 0.799,-0.146c0.267,-0.277 0.26,-0.793 0.336,-1.143c0.132,-0.609 0.303,-1.209 0.511,-1.796c0.34,-0.96 0.965,-1.936 0.723,-2.989c-0.037,-0.157 -0.178,-0.269 -0.321,-0.269c-0.08,0 -0.16,0.035 -0.223,0.116Z"/></clipPath><g clip-path="url(#_clip71)"><path d="M203.357,99.77l8.209,-0.979l0.736,6.173l-8.209,0.978l-0.736,-6.172Z" style="fill:url(#_Linear72);fill-rule:nonzero;"/></g><clipPath id="_clip73"><path d="M213.223,104.053c-0.059,0.189 -0.118,0.377 -0.178,0.565c-0.326,0.643 -0.652,1.287 -0.978,1.93c-0.172,0.339 -0.32,0.737 -0.533,1.052c-0.136,0.198 -0.124,0.263 -0.391,0.252c-0.172,-0.007 -0.396,-0.1 -0.561,-0.138c-1.4,-0.325 -2.826,-0.504 -4.261,-0.557c-0.054,-0.015 -0.105,-0.015 -0.152,-0.005c-0.014,-0.001 -0.028,-0.001 -0.042,-0.002c-0.137,-0.067 -0.257,-0.022 -0.331,0.067c-0.196,0.157 -0.187,0.526 0.119,0.533c0.017,0 0.035,0.001 0.052,0.002c0.923,0.459 1.852,0.905 2.851,1.175c1.084,0.292 2.208,0.403 3.272,0.777c0.215,0.075 0.452,-0.075 0.425,-0.317c-0.002,-0.014 -0.002,-0.028 -0.004,-0.041c0.04,-0.03 0.073,-0.069 0.093,-0.118c0.541,-1.296 0.906,-2.645 1.095,-4.029c0.056,-0.186 0.111,-0.372 0.164,-0.558c0.034,-0.119 -0.003,-0.209 -0.072,-0.265c0.004,-0.052 0.011,-0.103 0.015,-0.155c0.014,-0.201 -0.175,-0.354 -0.345,-0.354c-0.102,0 -0.197,0.055 -0.238,0.186Zm-1.788,4.453c0.02,-0.002 0.038,-0.008 0.056,-0.012c-0.004,0.008 -0.008,0.015 -0.012,0.023c0,0 0,0.001 0,0.001c-0.015,-0.004 -0.029,-0.008 -0.044,-0.012Z"/></clipPath><g clip-path="url(#_clip73)"><path d="M205.262,104.832l8.551,-1.019l0.68,5.705l-8.551,1.019l-0.68,-5.705Z" style="fill:url(#_Linear74);fill-rule:nonzero;"/></g><clipPath id="_clip75"><path d="M216.244,109.938c0.72,0.425 1.466,0.785 2.243,1.084c-1.002,0.681 -2.004,1.363 -3.006,2.045c-0.146,0.099 -0.143,0.278 -0.065,0.406c-0.046,0.266 0.333,0.503 0.544,0.241c0.285,-0.355 0.731,-0.5 1.136,-0.676c0.459,-0.199 0.921,-0.393 1.385,-0.58c0.893,-0.36 1.795,-0.694 2.705,-1.01c0.313,-0.108 0.195,-0.515 -0.07,-0.585c-1.569,-0.413 -3.111,-0.909 -4.628,-1.485c-0.046,-0.018 -0.089,-0.025 -0.129,-0.025c-0.289,0 -0.406,0.413 -0.115,0.585Z"/></clipPath><g clip-path="url(#_clip75)"><path d="M214.864,109.496l6.325,-0.754l0.539,4.522l-6.325,0.754l-0.539,-4.522Z" style="fill:url(#_Linear76);fill-rule:nonzero;"/></g></g><path d="M210.69,78.732c0.641,0.019 1.267,0.038 1.913,0.057c0.053,-0.858 0.105,-1.694 0.158,-2.559c-1.736,-0.055 -3.441,-0.162 -5.145,0.224c0.187,1.051 0.37,2.077 0.552,3.106c-1.074,0.243 -2.115,0.478 -3.181,0.718c-0.251,-0.857 -0.503,-1.717 -0.767,-2.618c0.722,-0.163 1.421,-0.32 2.119,-0.478c0.114,0.507 0.231,1.024 0.35,1.551c-0.231,0.052 -0.441,0.099 -0.695,0.157c-0.071,-0.314 -0.139,-0.617 -0.204,-0.903c-0.245,0.055 -0.447,0.101 -0.619,0.139c0.109,0.48 0.211,0.936 0.313,1.386c0.652,-0.147 1.263,-0.285 1.905,-0.43c-0.19,-0.842 -0.374,-1.66 -0.563,-2.496c-1.663,0.381 -3.328,0.733 -4.879,1.538c0.448,0.957 0.89,1.901 1.328,2.839c-0.968,0.52 -1.914,1.028 -2.874,1.545c-0.467,-0.766 -0.936,-1.538 -1.42,-2.334c0.65,-0.363 1.277,-0.713 1.92,-1.072c0.261,0.501 0.506,0.972 0.758,1.458c-0.217,0.117 -0.414,0.222 -0.625,0.336c-0.163,-0.286 -0.317,-0.557 -0.477,-0.839c-0.204,0.117 -0.384,0.22 -0.579,0.332c0.248,0.428 0.485,0.838 0.727,1.255c0.566,-0.304 1.112,-0.598 1.685,-0.906c-0.382,-0.766 -0.758,-1.523 -1.144,-2.296c-1.533,0.821 -3.062,1.583 -4.342,2.766c0.683,0.812 1.355,1.609 2.018,2.397c-0.799,0.752 -1.582,1.488 -2.378,2.237c-0.649,-0.621 -1.303,-1.245 -1.976,-1.888c0.537,-0.522 1.052,-1.021 1.579,-1.533c0.381,0.417 0.74,0.809 1.11,1.214c-0.182,0.171 -0.344,0.323 -0.518,0.487c-0.233,-0.236 -0.451,-0.458 -0.678,-0.689c-0.167,0.165 -0.314,0.311 -0.475,0.47c0.352,0.351 0.689,0.686 1.029,1.026c0.471,-0.444 0.927,-0.874 1.393,-1.313c-0.57,-0.645 -1.127,-1.274 -1.698,-1.92c-1.265,1.182 -2.544,2.317 -3.481,3.794c0.871,0.607 1.731,1.207 2.595,1.81c-0.617,0.917 -1.214,1.805 -1.826,2.714c-0.696,-0.381 -1.491,-0.816 -2.314,-1.267c0.382,-0.638 0.754,-1.26 1.093,-1.826c0.487,0.294 0.942,0.568 1.393,0.84c-0.116,0.191 -0.234,0.383 -0.356,0.584c-0.27,-0.161 -0.539,-0.322 -0.819,-0.49c-0.121,0.204 -0.227,0.384 -0.342,0.578c0.427,0.246 0.839,0.484 1.19,0.686c0.364,-0.54 0.716,-1.061 1.073,-1.591c-0.711,-0.471 -1.412,-0.935 -2.133,-1.413c-0.915,1.47 -1.859,2.896 -2.379,4.567c0.994,0.36 1.975,0.715 2.946,1.066c-0.317,1.051 -0.628,2.085 -0.942,3.126c-0.884,-0.215 -1.756,-0.428 -2.654,-0.647c0.203,-0.716 0.4,-1.408 0.601,-2.116c0.54,0.171 1.052,0.334 1.571,0.498c-0.077,0.245 -0.143,0.459 -0.212,0.68c-0.322,-0.091 -0.617,-0.173 -0.925,-0.26c-0.062,0.219 -0.119,0.42 -0.182,0.644c0.482,0.128 0.944,0.251 1.406,0.375c0.188,-0.627 0.367,-1.221 0.551,-1.832c-0.808,-0.271 -1.604,-0.538 -2.428,-0.815c-0.508,1.653 -1.048,3.28 -1.119,5.027c1.063,0.091 2.099,0.18 3.121,0.268c-0.034,1.109 -0.067,2.181 -0.1,3.263c-0.906,0.02 -1.802,0.04 -2.731,0.06c0.012,-0.75 0.023,-1.467 0.034,-2.198c0.57,0.025 1.098,0.049 1.643,0.073c-0.01,0.258 -0.019,0.481 -0.028,0.713c-0.329,-0.005 -0.635,-0.008 -0.962,-0.013c0.001,0.231 0.001,0.444 0.002,0.671c0.502,-0.001 0.969,-0.001 1.447,-0.002c0.019,-0.645 0.038,-1.272 0.057,-1.914c-0.862,-0.053 -1.699,-0.104 -2.558,-0.156c-0.057,1.738 -0.163,3.442 0.224,5.144c1.049,-0.187 2.068,-0.369 3.105,-0.554c0.241,1.068 0.478,2.115 0.719,3.183c-0.86,0.252 -1.721,0.504 -2.62,0.767c-0.164,-0.727 -0.321,-1.425 -0.48,-2.126c0.508,-0.115 1.02,-0.23 1.547,-0.349c0.052,0.23 0.101,0.446 0.158,0.698c-0.31,0.07 -0.606,0.137 -0.904,0.204c0.054,0.237 0.099,0.439 0.14,0.622c0.48,-0.109 0.941,-0.213 1.399,-0.316c-0.146,-0.649 -0.283,-1.255 -0.428,-1.898c-0.835,0.189 -1.654,0.373 -2.502,0.565c0.375,1.649 0.728,3.318 1.535,4.873c0.962,-0.45 1.905,-0.891 2.839,-1.328c0.523,0.972 1.031,1.917 1.546,2.874c-0.772,0.47 -1.543,0.939 -2.336,1.42c-0.364,-0.653 -0.713,-1.279 -1.071,-1.921c0.504,-0.262 0.975,-0.506 1.46,-0.758c0.117,0.22 0.222,0.418 0.333,0.627c-0.287,0.164 -0.558,0.317 -0.838,0.476c0.119,0.207 0.223,0.388 0.333,0.579c0.429,-0.249 0.839,-0.487 1.255,-0.728c-0.307,-0.569 -0.601,-1.115 -0.907,-1.683c-0.767,0.381 -1.518,0.755 -2.294,1.141c0.812,1.531 1.582,3.055 2.763,4.345c0.809,-0.681 1.61,-1.356 2.398,-2.019c0.755,0.803 1.487,1.581 2.236,2.377c-0.616,0.646 -1.24,1.3 -1.886,1.976c-0.517,-0.531 -1.017,-1.046 -1.533,-1.576c0.412,-0.379 0.803,-0.738 1.213,-1.114c0.169,0.183 0.325,0.351 0.486,0.524c-0.239,0.233 -0.458,0.447 -0.689,0.673c0.166,0.166 0.317,0.317 0.473,0.474c0.356,-0.357 0.691,-0.693 1.023,-1.027c-0.447,-0.475 -0.874,-0.928 -1.311,-1.393c-0.641,0.567 -1.271,1.123 -1.92,1.697c1.18,1.265 2.318,2.55 3.794,3.481c0.61,-0.875 1.207,-1.731 1.807,-2.592c0.916,0.615 1.809,1.214 2.717,1.823c-0.389,0.709 -0.823,1.502 -1.268,2.315c-0.646,-0.387 -1.263,-0.756 -1.84,-1.101c0.295,-0.483 0.573,-0.937 0.859,-1.405c0.185,0.125 0.373,0.251 0.573,0.385c-0.154,0.259 -0.314,0.528 -0.483,0.811c0.204,0.119 0.388,0.226 0.58,0.338c0.248,-0.432 0.482,-0.838 0.685,-1.191c-0.535,-0.36 -1.057,-0.712 -1.59,-1.071c-0.473,0.713 -0.94,1.419 -1.415,2.136c1.477,0.919 2.903,1.862 4.566,2.378c0.363,-1.004 0.718,-1.984 1.067,-2.947c1.054,0.318 2.082,0.628 3.126,0.943c-0.215,0.881 -0.429,1.757 -0.648,2.655c-0.726,-0.207 -1.416,-0.404 -2.116,-0.604c0.173,-0.543 0.333,-1.051 0.497,-1.569c0.24,0.075 0.453,0.141 0.682,0.213c-0.089,0.314 -0.173,0.608 -0.263,0.923c0.224,0.062 0.429,0.119 0.647,0.18c0.129,-0.483 0.251,-0.941 0.374,-1.403c-0.62,-0.187 -1.215,-0.366 -1.832,-0.552c-0.271,0.808 -0.539,1.611 -0.814,2.431c1.659,0.505 3.28,1.047 5.026,1.116c0.09,-1.056 0.18,-2.093 0.268,-3.119c1.105,0.033 2.178,0.066 3.263,0.098c0.02,0.902 0.04,1.798 0.061,2.731c-0.744,-0.011 -1.461,-0.021 -2.199,-0.032c0.026,-0.567 0.049,-1.096 0.074,-1.643c0.252,0.009 0.476,0.017 0.712,0.025c-0.005,0.328 -0.008,0.634 -0.013,0.963c0.229,0 0.441,0 0.671,0c-0.001,-0.5 -0.001,-0.968 -0.001,-1.448c-0.643,-0.019 -1.27,-0.038 -1.914,-0.057c-0.053,0.86 -0.104,1.696 -0.157,2.56c1.737,0.053 3.441,0.163 5.143,-0.226c-0.187,-1.052 -0.369,-2.078 -0.551,-3.106c1.077,-0.243 2.118,-0.478 3.181,-0.718c0.252,0.859 0.504,1.72 0.767,2.62c-0.725,0.163 -1.424,0.321 -2.127,0.479c-0.114,-0.505 -0.23,-1.017 -0.349,-1.546c0.229,-0.052 0.446,-0.101 0.705,-0.159c0.07,0.31 0.139,0.613 0.203,0.897c0.245,-0.056 0.446,-0.101 0.616,-0.139c-0.108,-0.481 -0.211,-0.937 -0.314,-1.394c-0.647,0.147 -1.253,0.283 -1.898,0.429c0.19,0.839 0.376,1.663 0.566,2.505c1.656,-0.382 3.321,-0.731 4.871,-1.538c-0.448,-0.958 -0.89,-1.901 -1.328,-2.838c0.97,-0.521 1.915,-1.029 2.875,-1.545c0.466,0.767 0.936,1.539 1.419,2.334c-0.651,0.364 -1.278,0.713 -1.92,1.072c-0.261,-0.502 -0.506,-0.973 -0.759,-1.458c0.218,-0.117 0.415,-0.223 0.627,-0.337c0.162,0.286 0.316,0.557 0.477,0.839c0.204,-0.117 0.384,-0.22 0.578,-0.332c-0.248,-0.428 -0.486,-0.838 -0.728,-1.254c-0.567,0.305 -1.113,0.599 -1.683,0.906c0.382,0.767 0.759,1.524 1.143,2.295c1.535,-0.821 3.063,-1.584 4.342,-2.765c-0.684,-0.813 -1.356,-1.611 -2.018,-2.397c0.801,-0.753 1.584,-1.49 2.378,-2.237c0.65,0.622 1.304,1.246 1.976,1.888c-0.539,0.523 -1.053,1.023 -1.579,1.533c-0.382,-0.418 -0.74,-0.81 -1.11,-1.215c0.182,-0.171 0.345,-0.323 0.519,-0.487c0.232,0.237 0.451,0.459 0.677,0.69c0.167,-0.165 0.315,-0.311 0.475,-0.47c-0.353,-0.351 -0.689,-0.687 -1.029,-1.026c-0.471,0.444 -0.927,0.874 -1.393,1.313c0.571,0.645 1.127,1.274 1.699,1.92c1.263,-1.183 2.544,-2.317 3.48,-3.794c-0.867,-0.604 -1.722,-1.201 -2.595,-1.81c0.61,-0.907 1.211,-1.801 1.825,-2.714c0.697,0.381 1.492,0.816 2.315,1.266c-0.382,0.639 -0.754,1.261 -1.093,1.826c-0.486,-0.295 -0.94,-0.57 -1.407,-0.853c0.121,-0.183 0.245,-0.371 0.374,-0.568c0.266,0.159 0.535,0.319 0.816,0.487c0.12,-0.203 0.226,-0.383 0.34,-0.578c-0.425,-0.245 -0.837,-0.483 -1.184,-0.683c-0.365,0.539 -0.719,1.059 -1.078,1.588c0.711,0.471 1.413,0.936 2.133,1.413c0.915,-1.468 1.859,-2.895 2.38,-4.566c-0.994,-0.359 -1.975,-0.715 -2.947,-1.066c0.316,-1.051 0.628,-2.085 0.943,-3.126c0.883,0.215 1.755,0.427 2.653,0.647c-0.203,0.715 -0.399,1.406 -0.601,2.116c-0.539,-0.171 -1.051,-0.333 -1.57,-0.498c0.075,-0.245 0.141,-0.458 0.21,-0.682c0.323,0.092 0.617,0.176 0.925,0.263c0.062,-0.22 0.119,-0.42 0.183,-0.645c-0.481,-0.128 -0.943,-0.251 -1.406,-0.375c-0.188,0.626 -0.367,1.22 -0.551,1.832c0.812,0.272 1.614,0.541 2.433,0.815c0.501,-1.666 1.048,-3.285 1.112,-5.027c-1.06,-0.091 -2.096,-0.18 -3.118,-0.268c0.034,-1.109 0.066,-2.181 0.099,-3.263c0.906,-0.02 1.802,-0.04 2.731,-0.06c-0.012,0.749 -0.022,1.466 -0.034,2.199c-0.569,-0.026 -1.098,-0.05 -1.642,-0.075c0.009,-0.257 0.017,-0.48 0.026,-0.712c0.33,0.004 0.636,0.008 0.963,0.013c0,-0.23 -0.001,-0.443 -0.002,-0.671c-0.502,0.001 -0.969,0.001 -1.446,0.002c-0.02,0.645 -0.039,1.272 -0.058,1.914c0.863,0.052 1.699,0.103 2.558,0.156c0.059,-1.738 0.161,-3.442 -0.223,-5.144c-1.048,0.187 -2.068,0.368 -3.106,0.553c-0.241,-1.066 -0.477,-2.114 -0.718,-3.182c0.859,-0.252 1.719,-0.504 2.619,-0.767c0.163,0.725 0.321,1.424 0.479,2.127c-0.505,0.114 -1.017,0.229 -1.546,0.349c-0.052,-0.23 -0.101,-0.446 -0.157,-0.699c0.308,-0.069 0.605,-0.136 0.895,-0.202c-0.055,-0.243 -0.102,-0.449 -0.141,-0.622c-0.482,0.109 -0.938,0.212 -1.39,0.314c0.146,0.648 0.283,1.254 0.428,1.898c0.836,-0.189 1.654,-0.374 2.502,-0.565c-0.374,-1.65 -0.73,-3.318 -1.535,-4.873c-0.962,0.45 -1.905,0.891 -2.839,1.328c-0.523,-0.973 -1.031,-1.918 -1.545,-2.875c0.772,-0.469 1.543,-0.938 2.335,-1.419c0.364,0.653 0.714,1.28 1.071,1.921c-0.504,0.262 -0.975,0.506 -1.46,0.758c-0.117,-0.221 -0.222,-0.419 -0.333,-0.628c0.288,-0.163 0.559,-0.317 0.838,-0.476c-0.12,-0.208 -0.223,-0.388 -0.333,-0.579c-0.43,0.25 -0.84,0.488 -1.254,0.729c0.307,0.571 0.601,1.116 0.906,1.683c0.767,-0.381 1.519,-0.755 2.267,-1.127c-0.378,-1.06 -2.053,-3.713 -2.746,-4.351c-0.799,0.673 -1.601,1.348 -2.388,2.011c-0.755,-0.803 -1.487,-1.581 -2.236,-2.378c0.616,-0.646 1.241,-1.3 1.886,-1.976c0.516,0.531 1.017,1.046 1.534,1.578c-0.416,0.381 -0.812,0.743 -1.215,1.113c-0.177,-0.191 -0.329,-0.354 -0.486,-0.523c0.239,-0.234 0.458,-0.448 0.69,-0.674c-0.165,-0.166 -0.316,-0.317 -0.473,-0.475c-0.356,0.357 -0.691,0.694 -1.024,1.027c0.448,0.475 0.874,0.928 1.312,1.394c0.641,-0.566 1.271,-1.123 1.92,-1.697c-1.179,-1.265 -2.317,-2.549 -3.794,-3.481c-0.61,0.874 -1.206,1.73 -1.807,2.593c-0.915,-0.614 -1.808,-1.213 -2.717,-1.823c0.388,-0.709 0.823,-1.502 1.269,-2.316c0.643,0.385 1.26,0.754 1.848,1.106c-0.294,0.482 -0.572,0.936 -0.847,1.385c-0.198,-0.124 -0.393,-0.247 -0.593,-0.373c0.159,-0.266 0.315,-0.529 0.482,-0.807c-0.202,-0.119 -0.386,-0.227 -0.58,-0.34c-0.249,0.434 -0.485,0.845 -0.689,1.2c0.543,0.366 1.059,0.714 1.59,1.071c0.476,-0.72 0.944,-1.426 1.421,-2.145c-1.476,-0.916 -2.903,-1.86 -4.567,-2.378c-0.363,1.002 -0.718,1.983 -1.067,2.948c-1.051,-0.317 -2.08,-0.627 -3.126,-0.943c0.214,-0.878 0.428,-1.755 0.647,-2.655c0.723,0.206 1.414,0.403 2.116,0.603c-0.171,0.541 -0.331,1.048 -0.496,1.569c-0.237,-0.073 -0.451,-0.139 -0.679,-0.21c0.087,-0.319 0.169,-0.618 0.254,-0.929c-0.228,-0.063 -0.428,-0.117 -0.642,-0.176c-0.128,0.481 -0.25,0.94 -0.374,1.402c0.619,0.187 1.214,0.366 1.832,0.552c0.27,-0.806 0.539,-1.608 0.815,-2.43c-1.658,-0.506 -3.279,-1.046 -5.026,-1.117c-0.091,1.055 -0.18,2.092 -0.269,3.12c-1.103,-0.033 -2.177,-0.066 -3.262,-0.099c-0.021,-0.9 -0.041,-1.796 -0.061,-2.73c0.743,0.011 1.459,0.022 2.198,0.032c-0.025,0.565 -0.049,1.095 -0.073,1.642c-0.251,-0.009 -0.475,-0.016 -0.71,-0.024c0.002,-0.331 0.004,-0.642 0.007,-0.964c-0.238,0 -0.444,-0.001 -0.667,-0.001c0,0.501 0,0.968 0.001,1.45m23.136,14.951c2.894,12.505 -5.052,24.987 -17.39,27.793c-6.261,1.423 -12.15,0.484 -17.598,-2.912c-5.537,-3.451 -9.029,-8.402 -10.427,-14.774c-1.363,-6.218 -0.33,-12.057 3.083,-17.431c3.458,-5.443 8.377,-8.85 14.668,-10.268c12.356,-2.784 24.894,5.074 27.664,17.592" style="fill-opacity:0.898039;fill-rule:nonzero;"/></g><path d="M111.783,101.593l0,8.19l-12.6,-12.6l12.6,-12.6l0,8.19l36.72,0l0,-8.19l12.6,12.6l-12.6,12.6l0,-8.19l-36.72,0Z" style="fill:url(#_Linear77);"/><path d="M270.36,104.67l-8.388,0l0,8.19l-12.6,-12.6l12.6,-12.6l0,8.19l8.388,0l0,-83.25c0,-2.484 2.016,-4.5 4.5,-4.5l57.322,0l0,5.22l-56.782,0l0,171l56.88,0l0,5.22l-4.598,0l-52.102,0c-2.883,0 -5.22,-2.337 -5.22,-5.22l0,-79.65Z" style="fill:url(#_Linear78);"/><defs><radialGradient id="_Radial1" cx="0" cy="0" r="1" gradientUnits="userSpaceOnUse" gradientTransform="matrix(39.4407,0,0,21.5788,284.414,100.548)"><stop offset="0" style="stop-color:#ca3058;stop-opacity:0.898039"/><stop offset="0.44" style="stop-color:#cb2c54;stop-opacity:0.898039"/><stop offset="0.56" style="stop-color:#cd2148;stop-opacity:0.898039"/><stop offset="0.66" style="stop-color:#d0143a;stop-opacity:0.898039"/><stop offset="0.85" style="stop-color:#d93b38;stop-opacity:0.898039"/><stop offset="1" style="stop-color:#ffd632;stop-opacity:0.898039"/></radialGradient><linearGradient id="_Linear3" x1="0" y1="0" x2="1" y2="0" gradientUnits="userSpaceOnUse" gradientTransform="matrix(21.4795,0,0,24.1107,293.394,165.737)"><stop offset="0" style="stop-color:#50c9c3;stop-opacity:0.898039"/><stop offset="1" style="stop-color:#0081d5;stop-opacity:0.898039"/></linearGradient><linearGradient id="_Linear4" x1="0" y1="0" x2="1" y2="0" gradientUnits="userSpaceOnUse" gradientTransform="matrix(21.4795,0,0,24.1107,293.395,165.737)"><stop offset="0" style="stop-color:#50c9c3;stop-opacity:0.898039"/><stop offset="1" style="stop-color:#0081d5;stop-opacity:0.898039"/></linearGradient><linearGradient id="_Linear5" x1="0" y1="0" x2="1" y2="0" gradientUnits="userSpaceOnUse" gradientTransform="matrix(21.4795,0,0,24.1107,293.395,165.737)"><stop offset="0" style="stop-color:#50c9c3;stop-opacity:0.898039"/><stop offset="1" style="stop-color:#0081d5;stop-opacity:0.898039"/></linearGradient><linearGradient id="_Linear6" x1="0" y1="0" x2="1" y2="0" gradientUnits="userSpaceOnUse" gradientTransform="matrix(21.4795,0,0,24.1107,293.395,165.737)"><stop offset="0" style="stop-color:#50c9c3;stop-opacity:0.898039"/><stop offset="1" style="stop-color:#0081d5;stop-opacity:0.898039"/></linearGradient><linearGradient id="_Linear7" x1="0" y1="0" x2="1" y2="0" gradientUnits="userSpaceOnUse" gradientTransform="matrix(21.4795,0,0,24.1107,293.395,165.737)"><stop offset="0" style="stop-color:#50c9c3;stop-opacity:0.898039"/><stop offset="1" style="stop-color:#0081d5;stop-opacity:0.898039"/></linearGradient><linearGradient id="_Linear8" x1="0" y1="0" x2="1" y2="0" gradientUnits="userSpaceOnUse" gradientTransform="matrix(21.4795,0,0,24.1107,293.395,165.737)"><stop offset="0" style="stop-color:#50c9c3;stop-opacity:0.898039"/><stop offset="1" style="stop-color:#0081d5;stop-opacity:0.898039"/></linearGradient><linearGradient id="_Linear9" x1="0" y1="0" x2="1" y2="0" gradientUnits="userSpaceOnUse" gradientTransform="matrix(17.122,0,0,21.782,295.528,30.6925)"><stop offset="0" style="stop-color:#ca3058;stop-opacity:0.898039"/><stop offset="1" style="stop-color:#ff8d48;stop-opacity:0.898039"/></linearGradient><linearGradient id="_Linear10" x1="0" y1="0" x2="1" y2="0" gradientUnits="userSpaceOnUse" gradientTransform="matrix(15.5451,0,0,-19.0442,293.395,63.087)"><stop offset="0" style="stop-color:#0081d5;stop-opacity:0.898039"/><stop offset="1" style="stop-color:#a133d5;stop-opacity:0.898039"/></linearGradient><linearGradient id="_Linear11" x1="0" y1="0" x2="1" y2="0" gradientUnits="userSpaceOnUse" gradientTransform="matrix(15.8132,0,0,-19.0788,299.061,68.1362)"><stop offset="0" style="stop-color:#0081d5;stop-opacity:0.898039"/><stop offset="1" style="stop-color:#a133d5;stop-opacity:0.898039"/></linearGradient><linearGradient id="_Linear12" x1="0" y1="0" x2="1" y2="0" gradientUnits="userSpaceOnUse" gradientTransform="matrix(39.4407,0,0,18.1781,284.414,132.509)"><stop offset="0" style="stop-color:#ff4027;stop-opacity:0.898039"/><stop offset="1" style="stop-color:#ff3024;stop-opacity:0.898039"/></linearGradient><radialGradient id="_Radial13" cx="0" cy="0" r="1" gradientUnits="userSpaceOnUse" gradientTransform="matrix(16.7741,0,0,3.27545,304.34,132.274)"><stop offset="0" style="stop-color:#ff3024;stop-opacity:0.898039"/><stop offset="0.55" style="stop-color:#ff3325;stop-opacity:0.898039"/><stop offset="1" style="stop-color:#ff4027;stop-opacity:0.898039"/></radialGradient><linearGradient id="_Linear14" x1="0" y1="0" x2="1" y2="0" gradientUnits="userSpaceOnUse" gradientTransform="matrix(39.4403,0,0,12.7883,284.414,132.508)"><stop offset="0" style="stop-color:#ff4027;stop-opacity:0.898039"/><stop offset="1" style="stop-color:#ff3024;stop-opacity:0.898039"/></linearGradient><linearGradient id="_Linear16" x1="0" y1="0" x2="1" y2="0" gradientUnits="userSpaceOnUse" gradientTransform="matrix(51.2174,-6.10415,6.10415,51.2174,185.538,101.872)"><stop offset="0" style="stop-color:#e3853e;stop-opacity:0.898039"/><stop offset="1" style="stop-color:#ffb848;stop-opacity:0.898039"/></linearGradient><linearGradient id="_Linear18" x1="0" y1="0" x2="1" y2="0" gradientUnits="userSpaceOnUse" gradientTransform="matrix(44.933,-8.27374,8.27374,44.933,188.66,102.96)"><stop offset="0" style="stop-color:#e3853e;stop-opacity:0.898039"/><stop offset="1" style="stop-color:#ffb848;stop-opacity:0.898039"/></linearGradient><linearGradient id="_Linear20" x1="0" y1="0" x2="1" y2="0" gradientUnits="userSpaceOnUse" gradientTransform="matrix(6.66832,-0.794738,0.794738,6.66832,201.187,96.4881)"><stop offset="0" style="stop-color:#e3853e;stop-opacity:0.898039"/><stop offset="1" style="stop-color:#ffb848;stop-opacity:0.898039"/></linearGradient><linearGradient id="_Linear22" x1="0" y1="0" x2="1" y2="0" gradientUnits="userSpaceOnUse" gradientTransform="matrix(7.83834,-0.934183,0.934183,7.83834,204.943,105.26)"><stop offset="0" style="stop-color:#e3853e;stop-opacity:0.898039"/><stop offset="1" style="stop-color:#ffb848;stop-opacity:0.898039"/></linearGradient><linearGradient id="_Linear24" x1="0" y1="0" x2="1" y2="0" gradientUnits="userSpaceOnUse" gradientTransform="matrix(8.49463,-1.0124,1.0124,8.49463,207.108,110.054)"><stop offset="0" style="stop-color:#e3853e;stop-opacity:0.898039"/><stop offset="1" style="stop-color:#ffb848;stop-opacity:0.898039"/></linearGradient><linearGradient id="_Linear26" x1="0" y1="0" x2="1" y2="0" gradientUnits="userSpaceOnUse" gradientTransform="matrix(2.10419,-0.25078,0.25078,2.10419,198.258,90.5118)"><stop offset="0" style="stop-color:#e3853e;stop-opacity:0.898039"/><stop offset="1" style="stop-color:#ffb848;stop-opacity:0.898039"/></linearGradient><linearGradient id="_Linear28" x1="0" y1="0" x2="1" y2="0" gradientUnits="userSpaceOnUse" gradientTransform="matrix(2.04517,-0.243745,0.243745,2.04517,197.54,92.28)"><stop offset="0" style="stop-color:#e3853e;stop-opacity:0.898039"/><stop offset="1" style="stop-color:#ffb848;stop-opacity:0.898039"/></linearGradient><linearGradient id="_Linear30" x1="0" y1="0" x2="1" y2="0" gradientUnits="userSpaceOnUse" gradientTransform="matrix(2.07851,-0.247719,0.247719,2.07851,196.477,93.8954)"><stop offset="0" style="stop-color:#e3853e;stop-opacity:0.898039"/><stop offset="1" style="stop-color:#ffb848;stop-opacity:0.898039"/></linearGradient><linearGradient id="_Linear32" x1="0" y1="0" x2="1" y2="0" gradientUnits="userSpaceOnUse" gradientTransform="matrix(2.12769,-0.253581,0.253581,2.12769,195.715,96.0349)"><stop offset="0" style="stop-color:#e3853e;stop-opacity:0.898039"/><stop offset="1" style="stop-color:#ffb848;stop-opacity:0.898039"/></linearGradient><linearGradient id="_Linear34" x1="0" y1="0" x2="1" y2="0" gradientUnits="userSpaceOnUse" gradientTransform="matrix(2.20925,-0.263301,0.263301,2.20925,195.089,97.9327)"><stop offset="0" style="stop-color:#e3853e;stop-opacity:0.898039"/><stop offset="1" style="stop-color:#ffb848;stop-opacity:0.898039"/></linearGradient><linearGradient id="_Linear36" x1="0" y1="0" x2="1" y2="0" gradientUnits="userSpaceOnUse" gradientTransform="matrix(2.15408,-0.256726,0.256726,2.15408,194.582,100.343)"><stop offset="0" style="stop-color:#e3853e;stop-opacity:0.898039"/><stop offset="1" style="stop-color:#ffb848;stop-opacity:0.898039"/></linearGradient><linearGradient id="_Linear38" x1="0" y1="0" x2="1" y2="0" gradientUnits="userSpaceOnUse" gradientTransform="matrix(2.14111,-0.25518,0.25518,2.14111,194.103,102.561)"><stop offset="0" style="stop-color:#e3853e;stop-opacity:0.898039"/><stop offset="1" style="stop-color:#ffb848;stop-opacity:0.898039"/></linearGradient><linearGradient id="_Linear40" x1="0" y1="0" x2="1" y2="0" gradientUnits="userSpaceOnUse" gradientTransform="matrix(2.04011,-0.243143,0.243143,2.04011,194.158,104.548)"><stop offset="0" style="stop-color:#e3853e;stop-opacity:0.898039"/><stop offset="1" style="stop-color:#ffb848;stop-opacity:0.898039"/></linearGradient><linearGradient id="_Linear42" x1="0" y1="0" x2="1" y2="0" gradientUnits="userSpaceOnUse" gradientTransform="matrix(1.48874,-0.177429,0.177429,1.48874,199.492,94.5879)"><stop offset="0" style="stop-color:#e3853e;stop-opacity:0.898039"/><stop offset="1" style="stop-color:#ffb848;stop-opacity:0.898039"/></linearGradient><linearGradient id="_Linear44" x1="0" y1="0" x2="1" y2="0" gradientUnits="userSpaceOnUse" gradientTransform="matrix(1.45181,-0.173028,0.173028,1.45181,198.486,98.6159)"><stop offset="0" style="stop-color:#e3853e;stop-opacity:0.898039"/><stop offset="1" style="stop-color:#ffb848;stop-opacity:0.898039"/></linearGradient><linearGradient id="_Linear46" x1="0" y1="0" x2="1" y2="0" gradientUnits="userSpaceOnUse" gradientTransform="matrix(1.20583,-0.143712,0.143712,1.20583,198.442,102.589)"><stop offset="0" style="stop-color:#e3853e;stop-opacity:0.898039"/><stop offset="1" style="stop-color:#ffb848;stop-opacity:0.898039"/></linearGradient><linearGradient id="_Linear48" x1="0" y1="0" x2="1" y2="0" gradientUnits="userSpaceOnUse" gradientTransform="matrix(1.06675,-0.127137,0.127137,1.06675,201.025,103.253)"><stop offset="0" style="stop-color:#e3853e;stop-opacity:0.898039"/><stop offset="1" style="stop-color:#ffb848;stop-opacity:0.898039"/></linearGradient><linearGradient id="_Linear50" x1="0" y1="0" x2="1" y2="0" gradientUnits="userSpaceOnUse" gradientTransform="matrix(1.17804,-0.1404,0.1404,1.17804,199.721,107.497)"><stop offset="0" style="stop-color:#e3853e;stop-opacity:0.898039"/><stop offset="1" style="stop-color:#ffb848;stop-opacity:0.898039"/></linearGradient><linearGradient id="_Linear52" x1="0" y1="0" x2="1" y2="0" gradientUnits="userSpaceOnUse" gradientTransform="matrix(1.165,-0.138846,0.138846,1.165,202.508,106.576)"><stop offset="0" style="stop-color:#e3853e;stop-opacity:0.898039"/><stop offset="1" style="stop-color:#ffb848;stop-opacity:0.898039"/></linearGradient><linearGradient id="_Linear54" x1="0" y1="0" x2="1" y2="0" gradientUnits="userSpaceOnUse" gradientTransform="matrix(1.28954,-0.153688,0.153688,1.28954,202.424,111.073)"><stop offset="0" style="stop-color:#e3853e;stop-opacity:0.898039"/><stop offset="1" style="stop-color:#ffb848;stop-opacity:0.898039"/></linearGradient><linearGradient id="_Linear56" x1="0" y1="0" x2="1" y2="0" gradientUnits="userSpaceOnUse" gradientTransform="matrix(1.32006,-0.157326,0.157326,1.32006,205.357,110.215)"><stop offset="0" style="stop-color:#e3853e;stop-opacity:0.898039"/><stop offset="1" style="stop-color:#ffb848;stop-opacity:0.898039"/></linearGradient><linearGradient id="_Linear58" x1="0" y1="0" x2="1" y2="0" gradientUnits="userSpaceOnUse" gradientTransform="matrix(3.65152,-0.435193,0.435193,3.65152,199.955,89.5487)"><stop offset="0" style="stop-color:#e3853e;stop-opacity:0.898039"/><stop offset="1" style="stop-color:#ffb848;stop-opacity:0.898039"/></linearGradient><linearGradient id="_Linear60" x1="0" y1="0" x2="1" y2="0" gradientUnits="userSpaceOnUse" gradientTransform="matrix(24.1644,-2.87994,2.87994,24.1644,204.468,99.9385)"><stop offset="0" style="stop-color:#e3853e;stop-opacity:0.898039"/><stop offset="1" style="stop-color:#ffb848;stop-opacity:0.898039"/></linearGradient><linearGradient id="_Linear62" x1="0" y1="0" x2="1" y2="0" gradientUnits="userSpaceOnUse" gradientTransform="matrix(1.50741,-0.179655,0.179655,1.50741,218.263,104.973)"><stop offset="0" style="stop-color:#e3853e;stop-opacity:0.898039"/><stop offset="1" style="stop-color:#ffb848;stop-opacity:0.898039"/></linearGradient><linearGradient id="_Linear64" x1="0" y1="0" x2="1" y2="0" gradientUnits="userSpaceOnUse" gradientTransform="matrix(1.30455,-0.155478,0.155478,1.30455,223.257,102.62)"><stop offset="0" style="stop-color:#e3853e;stop-opacity:0.898039"/><stop offset="1" style="stop-color:#ffb848;stop-opacity:0.898039"/></linearGradient><linearGradient id="_Linear66" x1="0" y1="0" x2="1" y2="0" gradientUnits="userSpaceOnUse" gradientTransform="matrix(1.26758,-0.151072,0.151072,1.26758,221.72,101.301)"><stop offset="0" style="stop-color:#e3853e;stop-opacity:0.898039"/><stop offset="1" style="stop-color:#ffb848;stop-opacity:0.898039"/></linearGradient><linearGradient id="_Linear68" x1="0" y1="0" x2="1" y2="0" gradientUnits="userSpaceOnUse" gradientTransform="matrix(8.30782,-0.990135,0.990135,8.30782,200.924,98.4763)"><stop offset="0" style="stop-color:#e3853e;stop-opacity:0.898039"/><stop offset="1" style="stop-color:#ffb848;stop-opacity:0.898039"/></linearGradient><linearGradient id="_Linear70" x1="0" y1="0" x2="1" y2="0" gradientUnits="userSpaceOnUse" gradientTransform="matrix(7.3533,-0.876375,0.876375,7.3533,202.764,100.694)"><stop offset="0" style="stop-color:#e3853e;stop-opacity:0.898039"/><stop offset="1" style="stop-color:#ffb848;stop-opacity:0.898039"/></linearGradient><linearGradient id="_Linear72" x1="0" y1="0" x2="1" y2="0" gradientUnits="userSpaceOnUse" gradientTransform="matrix(8.0175,-0.955535,0.955535,8.0175,203.81,102.818)"><stop offset="0" style="stop-color:#e3853e;stop-opacity:0.898039"/><stop offset="1" style="stop-color:#ffb848;stop-opacity:0.898039"/></linearGradient><linearGradient id="_Linear74" x1="0" y1="0" x2="1" y2="0" gradientUnits="userSpaceOnUse" gradientTransform="matrix(8.44647,-1.00666,1.00666,8.44647,205.68,107.648)"><stop offset="0" style="stop-color:#e3853e;stop-opacity:0.898039"/><stop offset="1" style="stop-color:#ffb848;stop-opacity:0.898039"/></linearGradient><linearGradient id="_Linear76" x1="0" y1="0" x2="1" y2="0" gradientUnits="userSpaceOnUse" gradientTransform="matrix(6.17616,-0.736083,0.736083,6.17616,215.17,111.695)"><stop offset="0" style="stop-color:#e3853e;stop-opacity:0.898039"/><stop offset="1" style="stop-color:#ffb848;stop-opacity:0.898039"/></linearGradient><linearGradient id="_Linear77" x1="0" y1="0" x2="1" y2="0" gradientUnits="userSpaceOnUse" gradientTransform="matrix(356.04,0,0,181.44,99.1833,92.8635)"><stop offset="0" style="stop-color:#0081d5;stop-opacity:0.898039"/><stop offset="0.46" style="stop-color:#7e44d5;stop-opacity:0.898039"/><stop offset="1" style="stop-color:#a133d5;stop-opacity:0.898039"/></linearGradient><linearGradient id="_Linear78" x1="0" y1="0" x2="1" y2="0" gradientUnits="userSpaceOnUse" gradientTransform="matrix(231.84,0,0,181.44,100.44,98.82)"><stop offset="0" style="stop-color:#0081d5;stop-opacity:0.898039"/><stop offset="1" style="stop-color:#a133d5;stop-opacity:0.898039"/></linearGradient></defs></svg>