<?xml version="1.0" encoding="UTF-8" standalone="no"?><!DOCTYPE svg PUBLIC "-//W3C//DTD SVG 1.1//EN" "http://www.w3.org/Graphics/SVG/1.1/DTD/svg11.dtd"><svg width="100%" height="100%" viewBox="0 0 45 45" version="1.1" xmlns="http://www.w3.org/2000/svg" xmlns:xlink="http://www.w3.org/1999/xlink" xml:space="preserve" style="fill-rule:evenodd;clip-rule:evenodd;stroke-linejoin:round;stroke-miterlimit:1.41421;"><g id="omni"><clipPath id="_clip1"><path d="M20.39,0.768c-9.779,1.165 -16.761,10.037 -15.595,19.815c1.165,9.779 10.037,16.761 19.815,15.596c9.778,-1.166 16.761,-10.037 15.595,-19.816c-1.08,-9.062 -8.777,-15.723 -17.683,-15.722c-0.703,0 -1.416,0.042 -2.132,0.127Z"/></clipPath><g clip-path="url(#_clip1)"><path d="M2.685,2.878l35.41,-4.22l4.22,35.411l-35.41,4.22l-4.22,-35.411Z" style="fill:url(#_Linear2);fill-rule:nonzero;"/></g><path d="M39.502,16.447c1.072,8.997 -5.038,17.194 -13.811,18.849c-0.383,0.072 -0.772,0.132 -1.165,0.179c-9.39,1.119 -17.909,-5.586 -19.028,-14.975c-1.119,-9.39 5.586,-17.909 14.976,-19.029c9.39,-1.119 17.909,5.586 19.028,14.976Z" style="fill-opacity:0.835294;"/><g><clipPath id="_clip3"><path d="M19.626,2.943c-4.281,0.788 -7.664,2.978 -10.15,6.568c-2.47,3.603 -3.311,7.544 -2.523,11.825c0.789,4.28 2.978,7.664 6.569,10.15c3.602,2.47 7.544,3.31 11.824,2.522c4.281,-0.788 7.664,-2.977 10.15,-6.569c2.47,-3.601 3.311,-7.543 2.523,-11.824c-0.788,-4.28 -2.978,-7.664 -6.569,-10.15c-2.731,-1.872 -5.656,-2.808 -8.777,-2.808c-0.996,0 -2.012,0.095 -3.047,0.286Zm-4.528,26.256c-2.959,-2.039 -4.765,-4.828 -5.416,-8.366c-0.652,-3.538 0.042,-6.786 2.081,-9.746c2.039,-2.959 4.827,-4.764 8.365,-5.416c3.538,-0.651 6.787,0.043 9.746,2.081c2.959,2.039 4.765,4.828 5.417,8.366c0.651,3.538 -0.043,6.787 -2.082,9.746c-2.039,2.959 -4.827,4.764 -8.365,5.416c-0.857,0.158 -1.697,0.236 -2.52,0.236c-2.575,0 -4.984,-0.772 -7.226,-2.317Z"/></clipPath><g clip-path="url(#_clip3)"><path d="M4.093,5.803l31.066,-5.721l5.72,31.066l-31.066,5.72l-5.72,-31.065Z" style="fill:url(#_Linear4);fill-rule:nonzero;"/></g><clipPath id="_clip5"><path d="M18.64,15.268c-0.367,0.512 -0.516,1.186 -0.537,1.825c-0.517,-0.34 -1.068,-0.625 -1.67,-0.695c-0.163,-0.05 -0.34,-0.064 -0.537,-0.02c-0.027,0.006 -0.051,0.016 -0.072,0.028c-0.019,0.003 -0.039,0.004 -0.058,0.008c-0.267,0.044 -0.219,0.464 0.05,0.419c0.032,-0.005 0.064,-0.008 0.096,-0.012c0.458,0.24 0.916,0.48 1.375,0.719c0.091,0.082 0.182,0.156 0.275,0.215c0.271,0.169 0.78,0.463 1.111,0.32c0.347,-0.151 0.465,-0.683 0.518,-1.016c0.02,-0.13 0.186,-1.807 0.496,-1.598c0.049,0.033 0.099,0.042 0.146,0.036c0.153,0.043 0.343,-0.156 0.233,-0.34c-0.145,-0.246 -0.363,-0.347 -0.59,-0.347c-0.313,0 -0.644,0.19 -0.836,0.458Z"/></clipPath><g clip-path="url(#_clip5)"><path d="M15.354,15.264l4.745,-0.566l0.389,3.265l-4.744,0.565l-0.39,-3.264Z" style="fill:url(#_Linear6);fill-rule:nonzero;"/></g><clipPath id="_clip7"><path d="M22.989,20.446c-0.002,0.014 -0.006,0.028 -0.009,0.043c-0.022,0.019 -0.042,0.044 -0.057,0.078c-0.388,0.85 -0.745,1.713 -1.074,2.587c-0.907,-0.148 -1.811,-0.308 -2.712,-0.482c-0.229,-0.07 -0.463,-0.123 -0.71,-0.138c-0.192,-0.012 -0.279,0.179 -0.214,0.309c0.004,0.068 0.04,0.133 0.122,0.168c1.3,0.546 2.623,1.033 3.967,1.46c0.104,0.033 0.236,0.006 0.278,-0.11c0.404,-1.092 0.648,-2.225 0.727,-3.385c0.035,-0.155 0.068,-0.311 0.1,-0.467c0.031,-0.149 -0.086,-0.234 -0.205,-0.234c-0.094,0 -0.189,0.053 -0.213,0.171Z"/></clipPath><g clip-path="url(#_clip7)"><path d="M17.931,20.892l5.492,-0.655l0.487,4.087l-5.492,0.655l-0.487,-4.087Z" style="fill:url(#_Linear8);fill-rule:nonzero;"/></g><clipPath id="_clip9"><path d="M24.993,23.862c-0.021,0.069 -0.045,0.137 -0.067,0.206l-0.854,1.279c-0.133,0.2 -0.267,0.4 -0.4,0.6c-0.199,0.298 -0.261,0.431 -0.643,0.371c-1.046,-0.164 -2.086,-0.357 -3.122,-0.576c-0.208,-0.044 -0.29,0.2 -0.191,0.336c0.014,0.052 0.051,0.098 0.119,0.123c0.1,0.038 0.201,0.074 0.302,0.11c0.226,0.088 0.455,0.167 0.687,0.238c0.1,0.032 0.2,0.062 0.3,0.093c0.921,0.382 1.816,0.835 2.824,0.947c0.091,0.01 0.19,-0.036 0.226,-0.125c0.425,-1.063 0.808,-2.142 1.148,-3.236c0.004,-0.013 0.007,-0.026 0.008,-0.04c0.017,-0.052 0.034,-0.105 0.05,-0.158c0.052,-0.167 -0.093,-0.298 -0.223,-0.298c-0.07,0 -0.136,0.039 -0.164,0.13Zm-1.182,3.281c0.017,-0.013 0.034,-0.027 0.051,-0.042c-0.006,0.016 -0.012,0.031 -0.018,0.046c-0.011,-0.001 -0.022,-0.003 -0.033,-0.004Z"/></clipPath><g clip-path="url(#_clip9)"><path d="M19.434,24.406l5.977,-0.712l0.44,3.689l-5.978,0.712l-0.439,-3.689Z" style="fill:url(#_Linear10);fill-rule:nonzero;"/></g><clipPath id="_clip11"><path d="M13.617,12.551c0.274,0.273 1.005,0.863 1.38,0.455c0.173,-0.188 0.031,-0.419 -0.183,-0.48c-0.316,-0.09 -0.611,-0.15 -0.91,-0.301c-0.011,-0.005 -0.022,-0.009 -0.033,-0.012c-0.039,-0.036 -0.08,-0.051 -0.119,-0.051c-0.155,0 -0.285,0.239 -0.135,0.389Z"/></clipPath><g clip-path="url(#_clip11)"><path d="M13.441,12.18l1.63,-0.194l0.161,1.355l-1.63,0.195l-0.161,-1.356Z" style="fill:url(#_Linear12);fill-rule:nonzero;"/></g><clipPath id="_clip13"><path d="M13.138,13.813c0.007,0.005 0.014,0.011 0.021,0.016c0.015,0.017 0.033,0.031 0.055,0.043c0.306,0.232 0.982,0.681 1.244,0.296c0.347,-0.507 -0.689,-0.623 -1.047,-0.678c-0.004,-0.003 -0.008,-0.006 -0.011,-0.009c-0.042,-0.033 -0.085,-0.047 -0.126,-0.047c-0.171,0 -0.307,0.243 -0.136,0.379Z"/></clipPath><g clip-path="url(#_clip13)"><path d="M12.94,13.454l1.814,-0.216l0.147,1.231l-1.814,0.216l-0.147,-1.231Z" style="fill:url(#_Linear14);fill-rule:nonzero;"/></g><clipPath id="_clip15"><path d="M12.601,14.468c-0.063,0.013 -0.109,0.039 -0.142,0.072c-0.152,0.063 -0.208,0.311 -0.013,0.389c0.006,0.002 0.011,0.004 0.016,0.006c0.02,0.031 0.043,0.06 0.07,0.084c0.233,0.214 0.546,0.37 0.841,0.477c0.133,0.048 0.242,-0.035 0.28,-0.138c0.046,-0.022 0.085,-0.059 0.111,-0.107c0.14,-0.257 -0.045,-0.523 -0.287,-0.62c-0.135,-0.055 -0.286,-0.084 -0.428,-0.112c-0.107,-0.022 -0.241,-0.059 -0.361,-0.059c-0.03,0 -0.059,0.003 -0.087,0.008Z"/></clipPath><g clip-path="url(#_clip15)"><path d="M12.211,14.512l1.612,-0.192l0.14,1.169l-1.613,0.192l-0.139,-1.169Z" style="fill:url(#_Linear16);fill-rule:nonzero;"/></g><clipPath id="_clip17"><path d="M12.012,15.796c-0.162,-0.015 -0.329,0.17 -0.198,0.333c0.225,0.277 0.464,0.542 0.719,0.792c0.192,0.188 0.497,0.373 0.729,0.121c0.232,-0.253 -0.028,-0.527 -0.215,-0.7c-0.247,-0.23 -0.53,-0.414 -0.832,-0.564c-0.032,-0.016 -0.062,-0.023 -0.091,-0.023c-0.043,0 -0.081,0.016 -0.112,0.041Z"/></clipPath><g clip-path="url(#_clip17)"><path d="M11.664,15.803l1.689,-0.202l0.194,1.631l-1.689,0.202l-0.194,-1.631Z" style="fill:url(#_Linear18);fill-rule:nonzero;"/></g><clipPath id="_clip19"><path d="M11.551,17.371c-0.019,0.011 -0.033,0.023 -0.046,0.036c-0.148,0.06 -0.203,0.307 -0.013,0.394c0.318,0.145 0.643,0.288 0.977,0.395c0.238,0.076 0.484,-0.025 0.48,-0.306c-0.005,-0.299 -0.31,-0.378 -0.545,-0.441c-0.191,-0.052 -0.398,-0.143 -0.597,-0.143c-0.088,0 -0.174,0.018 -0.256,0.065Z"/></clipPath><g clip-path="url(#_clip19)"><path d="M11.26,17.361l1.634,-0.195l0.127,1.069l-1.633,0.194l-0.128,-1.068Z" style="fill:url(#_Linear20);fill-rule:nonzero;"/></g><clipPath id="_clip21"><path d="M11.17,18.886c-0.012,0.006 -0.022,0.014 -0.032,0.021c-0.118,0.049 -0.197,0.189 -0.09,0.312c0.214,0.249 1.24,1.268 1.496,0.567c0.119,-0.326 -0.192,-0.52 -0.443,-0.629c-0.162,-0.071 -0.325,-0.14 -0.488,-0.21c-0.1,-0.044 -0.202,-0.095 -0.306,-0.095c-0.045,0 -0.091,0.009 -0.137,0.034Z"/></clipPath><g clip-path="url(#_clip21)"><path d="M10.917,18.893l1.655,-0.197l0.207,1.733l-1.655,0.197l-0.207,-1.733Z" style="fill:url(#_Linear22);fill-rule:nonzero;"/></g><clipPath id="_clip23"><path d="M10.817,20.552c-0.008,0.025 -0.016,0.05 -0.024,0.076c-0.111,0.074 -0.159,0.237 -0.018,0.33c0.252,0.165 0.502,0.368 0.773,0.5c0.21,0.103 0.483,0.098 0.621,-0.119c0.131,-0.204 0.023,-0.423 -0.166,-0.539c-0.268,-0.163 -0.615,-0.246 -0.908,-0.358c-0.026,-0.009 -0.054,-0.014 -0.083,-0.014c-0.083,0 -0.169,0.04 -0.195,0.124Z"/></clipPath><g clip-path="url(#_clip23)"><path d="M10.587,20.469l1.611,-0.192l0.148,1.241l-1.611,0.192l-0.148,-1.241Z" style="fill:url(#_Linear24);fill-rule:nonzero;"/></g><clipPath id="_clip25"><path d="M11.597,22.018c-0.227,0.004 -0.434,0.037 -0.634,0.128c-0.072,0.001 -0.126,0.038 -0.16,0.089c-0.146,0.13 0.017,0.367 0.206,0.341c0.346,0.055 1.331,0.218 1.143,-0.331c-0.07,-0.205 -0.304,-0.228 -0.493,-0.228c-0.021,0 -0.042,0 -0.062,0.001Z"/></clipPath><g clip-path="url(#_clip25)"><path d="M10.626,22.11l1.609,-0.191l0.105,0.875l-1.609,0.192l-0.105,-0.876Z" style="fill:url(#_Linear26);fill-rule:nonzero;"/></g><clipPath id="_clip27"><path d="M14.979,14.825c-0.007,0.007 -0.014,0.013 -0.02,0.022c-0.17,0.232 -0.803,1.395 -0.208,1.486c0.296,0.046 0.451,-0.356 0.527,-0.57c0.11,-0.31 0.146,-0.631 0.12,-0.958c-0.01,-0.123 -0.102,-0.18 -0.197,-0.18c-0.106,0 -0.217,0.071 -0.222,0.2Z"/></clipPath><g clip-path="url(#_clip27)"><path d="M13.979,14.758l1.398,-0.167l0.205,1.724l-1.398,0.167l-0.205,-1.724Z" style="fill:url(#_Linear28);fill-rule:nonzero;"/></g><clipPath id="_clip29"><path d="M14.258,17.483c-0.219,0.256 -0.367,0.562 -0.423,0.897c-0.035,0.211 -0.098,0.679 0.156,0.788c0.562,0.241 0.638,-1.157 0.672,-1.534c0.008,-0.024 0.009,-0.049 0.006,-0.073c0.008,-0.14 -0.108,-0.22 -0.22,-0.22c-0.084,0 -0.166,0.045 -0.191,0.142Z"/></clipPath><g clip-path="url(#_clip29)"><path d="M13.544,17.439l1.119,-0.133l0.246,2.06l-1.119,0.134l-0.246,-2.061Z" style="fill:url(#_Linear30);fill-rule:nonzero;"/></g><clipPath id="_clip31"><path d="M14.228,20.123c-0.008,0.001 -0.017,0.001 -0.026,0.002c-0.092,0.009 -0.171,0.088 -0.184,0.178c-0.001,0.009 -0.002,0.018 -0.004,0.026c-0.002,0.014 -0.001,0.028 0,0.041c-0.139,0.272 -0.206,0.559 -0.225,0.87c-0.014,0.226 -0.078,0.704 0.274,0.692c0.309,-0.01 0.421,-0.455 0.44,-0.697c0.014,-0.173 -0.005,-0.346 -0.018,-0.519c-0.013,-0.165 0.03,-0.367 -0.063,-0.511c-0.037,-0.056 -0.108,-0.083 -0.173,-0.083c-0.007,0 -0.014,0 -0.021,0.001Z"/></clipPath><g clip-path="url(#_clip31)"><path d="M13.504,20.206l0.98,-0.117l0.214,1.794l-0.98,0.117l-0.214,-1.794Z" style="fill:url(#_Linear32);fill-rule:nonzero;"/></g><clipPath id="_clip33"><path d="M15.741,20.749c-0.004,0.004 -0.008,0.008 -0.011,0.013c-0.16,0.233 -0.217,0.486 -0.208,0.767c0.006,0.215 0.007,0.653 0.224,0.775c0.667,0.373 0.454,-1.278 0.411,-1.512c-0.022,-0.121 -0.121,-0.177 -0.217,-0.177c-0.088,0 -0.175,0.047 -0.199,0.134Z"/></clipPath><g clip-path="url(#_clip33)"><path d="M15.35,20.675l0.813,-0.097l0.25,2.099l-0.813,0.097l-0.25,-2.099Z" style="fill:url(#_Linear34);fill-rule:nonzero;"/></g><clipPath id="_clip35"><path d="M14.843,23.603c-0.152,0.331 -0.227,0.683 -0.212,1.047c0.01,0.229 0.036,0.655 0.331,0.706c0.301,0.052 0.44,-0.3 0.468,-0.536c0.041,-0.344 -0.081,-0.684 -0.089,-1.027c-0.003,-0.083 -0.043,-0.135 -0.098,-0.161c-0.027,-0.09 -0.122,-0.15 -0.217,-0.15c-0.072,0 -0.144,0.036 -0.183,0.121Z"/></clipPath><g clip-path="url(#_clip35)"><path d="M14.457,23.541l0.89,-0.106l0.231,1.936l-0.89,0.106l-0.231,-1.936Z" style="fill:url(#_Linear36);fill-rule:nonzero;"/></g><clipPath id="_clip37"><path d="M16.888,22.944c-0.033,0.013 -0.064,0.038 -0.09,0.079c-0.171,0.276 -0.264,0.572 -0.253,0.9c0.008,0.215 0.059,0.645 0.301,0.738c0.245,0.094 0.435,-0.194 0.473,-0.397c0.071,-0.381 -0.036,-0.823 -0.069,-1.205c-0.011,-0.123 -0.103,-0.18 -0.198,-0.18c-0.06,0 -0.121,0.023 -0.164,0.065Z"/></clipPath><g clip-path="url(#_clip37)"><path d="M16.411,22.949l0.855,-0.102l0.222,1.861l-0.855,0.102l-0.222,-1.861Z" style="fill:url(#_Linear38);fill-rule:nonzero;"/></g><clipPath id="_clip39"><path d="M16.684,26.079c-0.03,0.02 -0.057,0.048 -0.076,0.089c-0.135,0.292 -0.181,0.614 -0.115,0.93c0.051,0.242 0.184,0.628 0.463,0.687c0.293,0.061 0.47,-0.218 0.457,-0.476c-0.02,-0.403 -0.194,-0.838 -0.351,-1.204c-0.038,-0.088 -0.111,-0.125 -0.185,-0.125c-0.075,0 -0.151,0.038 -0.193,0.099Z"/></clipPath><g clip-path="url(#_clip39)"><path d="M16.338,26.035l0.938,-0.112l0.226,1.893l-0.938,0.112l-0.226,-1.893Z" style="fill:url(#_Linear40);fill-rule:nonzero;"/></g><clipPath id="_clip41"><path d="M18.451,25.531c-0.016,0.648 0.038,1.394 0.716,1.69c0.138,0.06 0.258,-0.033 0.294,-0.162c0.07,-0.249 -0.032,-0.466 -0.159,-0.677c-0.17,-0.281 -0.313,-0.561 -0.417,-0.874c-0.028,-0.086 -0.091,-0.125 -0.159,-0.13c-0.032,-0.013 -0.066,-0.02 -0.099,-0.02c-0.091,0 -0.173,0.053 -0.176,0.173Z"/></clipPath><g clip-path="url(#_clip41)"><path d="M18.306,25.385l1.04,-0.124l0.237,1.987l-1.04,0.124l-0.237,-1.987Z" style="fill:url(#_Linear42);fill-rule:nonzero;"/></g><clipPath id="_clip43"><path d="M14.506,8.4c-0.199,0.488 -0.083,0.967 0.098,1.444c0.25,0.657 0.529,1.305 0.803,1.953c0.533,1.255 1.109,2.488 1.788,3.671c0.042,0.075 0.129,0.095 0.208,0.077c0.117,0.005 0.244,-0.078 0.231,-0.23c-0.003,-0.037 -0.008,-0.074 -0.012,-0.112c0.098,-0.47 -0.062,-0.912 -0.263,-1.351c-0.052,-0.199 -0.107,-0.398 -0.161,-0.597c-0.206,-0.752 -0.364,-1.512 -0.451,-2.288c-0.063,-0.561 0.038,-1.313 -0.339,-1.782c-0.361,-0.448 -1.126,-0.658 -1.624,-0.895c-0.025,-0.012 -0.053,-0.017 -0.08,-0.017c-0.083,0 -0.166,0.05 -0.198,0.127Z"/></clipPath><g clip-path="url(#_clip43)"><path d="M14.239,8.318l2.679,-0.319l0.895,7.516l-2.678,0.319l-0.896,-7.516Z" style="fill:url(#_Linear44);fill-rule:nonzero;"/></g><clipPath id="_clip45"><path d="M27.752,7.936c-0.192,0.343 -0.23,0.731 -0.151,1.114c0.041,0.195 0.115,0.457 0.223,0.688c-0.027,0.013 -0.053,0.027 -0.078,0.042c-0.084,-0.104 -0.221,-0.136 -0.339,-0.198c-0.405,-0.213 -0.621,-0.633 -0.453,-1.078c0.096,-0.254 -0.291,-0.423 -0.387,-0.169c-0.128,0.336 -0.133,0.683 0.026,1.011c0.07,0.144 0.172,0.275 0.29,0.383c0.031,0.028 0.497,0.326 0.482,0.266c0.014,0.055 -0.129,0.372 -0.128,0.46c0,0.148 0.032,0.296 0.094,0.43c0.031,0.066 0.068,0.126 0.11,0.182c-0.032,-0.006 -0.064,-0.011 -0.096,-0.016c-0.049,-0.018 -0.101,-0.035 -0.155,-0.048c-0.051,-0.013 -0.095,-0.007 -0.13,0.01c-0.116,-0.014 -0.231,-0.029 -0.342,-0.047c-0.175,-0.029 -0.349,-0.062 -0.522,-0.098c0.129,-0.212 0.208,-0.447 0.221,-0.698c0.006,-0.124 -0.08,-0.204 -0.175,-0.228c-0.099,-0.066 -0.253,-0.06 -0.321,0.078c-0.116,0.236 -0.165,0.49 -0.154,0.751c-0.002,0 -0.003,0.001 -0.005,0.002c-0.22,-0.051 -0.439,-0.106 -0.658,-0.162c0.007,-0.012 0.014,-0.024 0.019,-0.038c0.118,-0.286 0.165,-0.585 0.144,-0.893c-0.015,-0.228 -0.313,-0.228 -0.397,-0.062c-0.016,0.024 -0.027,0.052 -0.033,0.086c-0.038,0.251 -0.077,0.502 -0.116,0.753c-0.003,0.019 -0.003,0.036 -0.001,0.053c-0.221,-0.059 -0.441,-0.118 -0.662,-0.176c0.242,-0.259 0.237,-0.626 0.19,-0.97c-0.028,-0.205 -0.278,-0.225 -0.379,-0.104c-0.029,0.02 -0.054,0.049 -0.072,0.088c-0.123,0.279 -0.176,0.572 -0.166,0.875c-0.208,-0.053 -0.416,-0.104 -0.625,-0.153c0.212,-0.256 0.243,-0.585 0.23,-0.916c0.001,-0.01 0,-0.019 -0.001,-0.029c-0.001,-0.026 -0.002,-0.053 -0.004,-0.079c-0.017,-0.272 -0.436,-0.221 -0.42,0.05c0,0.001 0.001,0.004 0.001,0.006c-0.126,0.274 -0.205,0.564 -0.234,0.864c0,0.003 0,0.006 0,0.009c-0.194,-0.04 -0.388,-0.077 -0.583,-0.11c0.128,-0.327 0.17,-0.674 0.118,-1.024c-0.033,-0.224 -0.329,-0.226 -0.404,-0.065c-0.002,0.004 -0.005,0.007 -0.007,0.011c-0.161,0.313 -0.217,0.665 -0.161,1.01c-0.234,-0.031 -0.47,-0.054 -0.707,-0.069c0.016,-0.044 0.027,-0.087 0.035,-0.128c0.057,-0.305 -0.068,-0.603 -0.07,-0.907c-0.001,-0.245 -0.343,-0.226 -0.408,-0.021c-0.008,0.01 -0.016,0.02 -0.023,0.032c-0.136,0.238 -0.211,0.502 -0.215,0.777c-0.001,0.035 -0.001,0.073 0,0.113c-0.426,-0.264 -1.009,-0.384 -1.44,-0.369c-1.06,0.035 -1.974,1.008 -1.784,1.987c0.008,0.052 0.018,0.104 0.031,0.158c0.351,1.387 2.622,1.634 3.402,0.524c0.275,-0.39 0.467,-1.007 0.365,-1.52c0.022,0.006 0.045,0.012 0.068,0.018c0.216,0.252 0.656,0.354 0.937,0.469c0.647,0.263 1.292,0.529 1.94,0.788c0.568,0.225 1.151,0.437 1.747,0.565c-0.223,0.007 -0.443,0.037 -0.669,0.105c-0.48,0.143 -0.918,0.392 -1.385,0.571c-0.521,0.2 -1.066,0.327 -1.621,0.379c-0.278,0.026 -0.719,-0.055 -0.895,0.229c-0.154,0.25 0.008,0.596 0.178,0.792c0.411,0.474 1.123,0.527 1.719,0.451c-0.37,0.371 -0.487,0.921 -0.062,1.358c0.537,0.551 1.316,0.87 2.05,1.049c1.225,0.298 2.457,0.18 3.691,0.061c0.753,-0.073 1.507,-0.145 2.261,-0.123c0.258,0.008 0.563,0.014 0.783,0.166c0.085,0.058 0.22,0.208 0.23,0.325c0.034,0.417 -0.368,0.353 -0.599,0.264c-0.398,-0.152 -0.71,-0.356 -1.147,-0.411c-0.328,-0.041 -0.66,-0.028 -0.987,0.023c-2.142,0.257 -4.057,1.855 -4.121,4.117c-0.027,0.945 0.299,2.075 1.136,2.616c0.442,0.286 0.96,0.299 1.469,0.274c0.484,-0.023 0.968,-0.056 1.452,-0.088c0.127,0.007 0.254,0.019 0.38,0.04c0.25,0.042 1.614,0.554 0.977,0.975c-0.192,0.127 -0.758,0.017 -0.959,-0.006c-0.243,-0.027 -0.484,-0.07 -0.724,-0.113c-0.545,-0.099 -1.086,-0.206 -1.641,-0.216c-0.161,-0.003 -0.345,-0.007 -0.531,0.003c-0.138,-0.002 -0.279,0.005 -0.422,0.024c-0.057,0.008 -0.099,0.033 -0.128,0.067c-0.055,0.018 -0.108,0.04 -0.159,0.065c-0.076,-0.002 -0.152,0.031 -0.195,0.117c-0.003,0.007 -0.006,0.013 -0.009,0.019c-0.305,0.267 -0.483,0.731 -0.648,1.079c-0.196,0.416 -0.367,1.442 -0.948,1.374c-0.585,-0.067 -1.199,-0.36 -1.757,-0.539c-0.642,-0.206 -1.284,-0.413 -1.925,-0.619c-0.066,-0.021 -0.125,-0.011 -0.174,0.016c-0.223,-0.031 -0.354,0.31 -0.117,0.4c0.736,0.28 1.466,0.577 2.186,0.895c0.384,0.17 0.766,0.345 1.145,0.527c0.268,0.128 0.57,0.349 0.862,0.405c0.627,0.121 0.688,-0.795 0.84,-1.217c0.242,-0.674 0.526,-1.333 0.839,-1.977c0.172,-0.128 0.387,-0.19 0.614,-0.216c1.128,0.003 2.156,0.65 3.273,0.787c0.442,0.054 0.947,0.027 1.278,-0.31c0.295,-0.302 0.532,-0.927 0.448,-1.348c-0.092,-0.464 -0.547,-0.632 -0.956,-0.734c-0.023,-0.006 -0.046,-0.01 -0.07,-0.016c0.418,-0.154 0.335,-0.804 0.352,-1.164c0.001,-0.024 -0.002,-0.046 -0.007,-0.066c0.032,-0.174 -0.228,-0.332 -0.382,-0.164c-0.324,0.35 -0.411,0.839 -0.264,1.287c0.006,0.018 0.016,0.034 0.028,0.05c-0.319,-0.059 -0.642,-0.097 -0.963,-0.142c0.13,-0.031 0.24,-0.139 0.299,-0.268c0.105,-0.227 0.103,-0.511 0.09,-0.758c0.07,-0.188 -0.211,-0.376 -0.371,-0.194c-0.22,0.25 -0.75,0.932 -0.264,1.183c-0.177,-0.028 -0.353,-0.061 -0.526,-0.104c-0.674,-0.166 -1.34,-0.501 -1.634,-1.166c-0.275,-0.622 -0.187,-1.367 0.191,-1.928c0.43,-0.639 1.128,-1.008 1.876,-1.122c-0.046,0.016 -0.088,0.041 -0.123,0.072c-0.12,-0.004 -0.238,0.076 -0.206,0.225c0.063,0.288 0.142,0.571 0.24,0.848c0.052,0.148 0.271,0.177 0.362,0.051c0.157,-0.219 0.338,-0.5 0.31,-0.784c-0.022,-0.228 -0.191,-0.411 -0.423,-0.432c-0.001,0 -0.002,0 -0.004,0c0.593,-0.063 1.207,0.031 1.737,0.275c0.473,0.218 0.698,0.653 1.272,0.521c0.496,-0.114 0.952,-0.424 1.271,-0.815c0.615,-0.751 0.667,-1.814 0.101,-2.608c-0.117,-0.163 -0.255,-0.299 -0.408,-0.412c0.77,-0.375 1.629,-1.396 1.196,-2.289c-0.491,-1.013 -2.051,-0.851 -2.961,-0.879c-0.613,-0.019 -1.256,-0.084 -1.788,-0.414c-0.438,-0.271 -0.59,-0.749 -0.911,-1.101c0.203,0.011 0.413,-0.014 0.567,-0.105c0.099,-0.058 0.171,-0.148 0.224,-0.252c0.221,0.066 0.436,0.143 0.629,0.193c0.456,0.12 0.895,0.235 1.365,0.131c0.263,-0.057 0.216,-0.478 -0.05,-0.419c-0.524,0.115 -1.041,-0.074 -1.546,-0.207c-0.093,-0.024 -0.187,-0.052 -0.283,-0.081c0.011,-0.077 0.018,-0.153 0.021,-0.224c0.015,-0.004 0.03,-0.006 0.045,-0.01c0.145,-0.033 0.29,-0.072 0.433,-0.115c0.376,-0.114 0.735,-0.267 1.084,-0.447c0.24,-0.124 0.083,-0.516 -0.159,-0.391c-0.326,0.167 -0.66,0.313 -1.01,0.424c-0.148,0.046 -0.298,0.085 -0.449,0.119c-0.062,-0.171 -0.172,-0.302 -0.312,-0.394c0.231,-0.468 0.623,-0.905 0.903,-1.307c0.155,-0.223 -0.176,-0.485 -0.332,-0.262c-0.313,0.45 -0.714,0.912 -0.962,1.423c-0.129,-0.021 -0.266,-0.024 -0.404,-0.007c-0.106,-0.207 -0.18,-0.486 -0.213,-0.638c-0.07,-0.316 -0.041,-0.599 0.117,-0.883c0.088,-0.156 -0.051,-0.282 -0.194,-0.282c-0.074,0 -0.148,0.034 -0.193,0.114Zm-9.424,3.418c-0.018,-0.056 -0.026,-0.11 -0.03,-0.163c0.037,-0.093 0.098,-0.184 0.19,-0.267c0.174,-0.157 0.449,-0.262 0.686,-0.228c0.3,0.043 0.329,0.308 0.298,0.568c-0.044,0.364 -0.3,0.549 -0.563,0.549c-0.239,0 -0.483,-0.151 -0.581,-0.459Zm-0.623,0.393c-0.025,-0.02 -0.048,-0.042 -0.071,-0.064c0.021,0.006 0.042,0.009 0.064,0.009c0.001,0.007 0.002,0.014 0.004,0.022c0.003,0.014 0.008,0.027 0.013,0.04c-0.003,-0.002 -0.007,-0.004 -0.01,-0.007Zm8.692,4.42c0.095,-0.01 0.189,-0.025 0.282,-0.044c0.739,-0.08 1.451,-0.635 1.537,-1.399c0.064,-0.56 -0.245,-1.043 -0.749,-1.273c-0.126,-0.058 -0.267,-0.113 -0.412,-0.152c0.248,-0.188 0.48,-0.45 0.681,-0.633c0.004,0.019 0.008,0.039 0.012,0.058c0.168,0.731 0.368,1.479 0.89,2.045c0.449,0.489 0.997,0.669 1.649,0.655c0.224,-0.005 0.45,-0.03 0.673,0c0.225,0.03 0.408,0.13 0.617,0.208c0.274,0.102 0.504,0.12 0.756,-0.037c0.142,-0.089 0.088,-0.299 -0.043,-0.362c-0.203,-0.045 -0.213,-0.127 -0.03,-0.247c0.036,-0.102 0.094,-0.158 0.175,-0.171c0.016,0.001 0.033,0.002 0.049,0.003c0,-0.002 0,-0.004 0,-0.006c0.018,0 0.037,0.002 0.057,0.007c0.236,-0.013 0.244,-0.399 0.006,-0.419c-0.203,-0.017 -0.406,-0.034 -0.609,-0.051c-0.042,-0.003 -0.106,-0.003 -0.178,-0.002c-0.176,0 -0.402,0.001 -0.48,-0.055c-0.206,-0.149 0.197,-0.239 0.327,-0.278c0.15,-0.045 0.3,-0.081 0.452,-0.112c0.006,0 0.012,0 0.018,0.001c0.409,0.032 1.105,0.069 1.141,0.607c0.02,0.304 -0.282,0.598 -0.43,0.839c-0.134,0.219 -0.214,0.428 -0.211,0.679c-0.714,-0.334 -1.628,-0.318 -2.37,-0.2c-0.39,0.062 -0.73,0.191 -1.125,0.111c-0.346,-0.07 -0.611,-0.024 -0.953,0.056c-0.494,0.117 -0.999,0.176 -1.505,0.176c-0.076,0 -0.152,-0.001 -0.227,-0.004Zm0.434,-3.303c0.019,-0.003 0.038,-0.006 0.057,-0.01c-0.012,0.012 -0.024,0.023 -0.036,0.034c-0.006,-0.009 -0.013,-0.017 -0.021,-0.024Zm-1.341,0.66c0.527,-0.152 -0.094,0.095 -0.21,0.149c-0.15,0.07 -0.301,0.135 -0.454,0.198c0.21,-0.145 0.426,-0.279 0.664,-0.347Zm0.945,1.512c-0.178,-0.267 0.043,-0.591 0.364,-0.546c0.077,0.011 0.159,0.037 0.232,0.076c0.114,0.207 0.038,0.454 -0.106,0.579c-0.061,0.029 -0.124,0.056 -0.189,0.08c-0.004,0 -0.007,0 -0.01,0c-0.098,0 -0.201,-0.054 -0.291,-0.189Zm-2.701,0.426c-0.589,-0.441 0.2,-0.73 0.551,-0.789c0.208,-0.035 0.4,-0.072 0.586,-0.143c-0.005,0.013 -0.011,0.026 -0.017,0.04c-0.184,0.484 -0.039,1.06 0.392,1.358c0.098,0.067 0.203,0.119 0.312,0.158c-0.624,-0.093 -1.34,-0.262 -1.824,-0.624Zm6.254,2.795c0.015,0.003 0.03,0.005 0.045,0.009c-0.196,-0.009 -0.392,-0.012 -0.588,-0.008c0.181,-0.009 0.363,-0.009 0.543,-0.001Z"/></clipPath><g clip-path="url(#_clip45)"><path d="M16.584,8.929l17.033,-2.03l2.474,20.754l-17.034,2.031l-2.473,-20.755Z" style="fill:url(#_Linear46);fill-rule:nonzero;"/></g><clipPath id="_clip47"><path d="M28.082,22.088l-0.324,0.309c-0.082,0.079 -0.174,0.154 -0.237,0.25c-0.12,0.184 -0.109,0.464 0.106,0.574c0.475,0.244 0.746,-0.484 0.761,-0.827c0.001,-0.011 0,-0.022 -0.001,-0.033c0.042,-0.071 0.046,-0.157 -0.009,-0.232c-0.038,-0.051 -0.11,-0.084 -0.179,-0.084c-0.043,0 -0.085,0.013 -0.117,0.043Z"/></clipPath><g clip-path="url(#_clip47)"><path d="M27.297,22.147l1.114,-0.133l0.166,1.395l-1.114,0.132l-0.166,-1.394Z" style="fill:url(#_Linear48);fill-rule:nonzero;"/></g><clipPath id="_clip49"><path d="M31.157,20.299c-0.024,0.006 -0.046,0.015 -0.066,0.025c-0.056,0.012 -0.106,0.049 -0.133,0.12c-0.169,0.44 -0.109,0.914 0.17,1.295c0.106,0.145 0.355,0.084 0.377,-0.096c0.042,-0.329 0.305,-0.589 0.233,-0.941c-0.045,-0.228 -0.25,-0.415 -0.48,-0.415c-0.033,0 -0.067,0.004 -0.101,0.012Z"/></clipPath><g clip-path="url(#_clip49)"><path d="M30.725,20.346l0.986,-0.117l0.188,1.576l-0.986,0.117l-0.188,-1.576Z" style="fill:url(#_Linear50);fill-rule:nonzero;"/></g><clipPath id="_clip51"><path d="M30.02,19.507c-0.094,-0.002 -0.186,0.051 -0.201,0.173c-0.042,0.355 -0.007,0.698 0.1,1.039c0.045,0.145 0.278,0.18 0.361,0.05c0.177,-0.273 0.449,-0.649 0.366,-0.994c-0.047,-0.196 -0.23,-0.332 -0.417,-0.332c-0.071,0 -0.143,0.019 -0.209,0.064Z"/></clipPath><g clip-path="url(#_clip51)"><path d="M29.706,19.496l0.935,-0.111l0.172,1.44l-0.935,0.111l-0.172,-1.44Z" style="fill:url(#_Linear52);fill-rule:nonzero;"/></g><clipPath id="_clip53"><path d="M20.296,15.721c-0.402,0.278 -0.649,0.926 -0.808,1.365c-0.184,0.507 -0.214,1.11 -0.505,1.571c-0.453,-0.2 -0.912,-0.382 -1.381,-0.539c-0.493,-0.164 -1.034,-0.366 -1.55,-0.43c-0.743,-0.093 -0.638,0.88 -0.456,1.515c-0.015,0.147 -0.013,0.297 0.006,0.442c0.019,0.142 0.16,0.216 0.29,0.171c0.305,-0.106 0.446,-0.351 0.439,-0.665c-0.002,-0.101 -0.061,-0.157 -0.135,-0.174c-0.008,-0.066 -0.017,-0.132 -0.025,-0.198c0.009,-0.014 0.017,-0.028 0.026,-0.041c0.108,-0.08 0.206,-0.074 0.294,0.018c0.263,0.078 0.515,0.24 0.781,0.327c0.624,0.205 1.264,0.367 1.896,0.547c0.47,0.134 0.815,0.205 0.976,-0.328c0.166,-0.552 0.208,-1.145 0.331,-1.707c0.07,-0.319 0.157,-0.634 0.287,-0.933c0.085,-0.195 0.219,-0.383 0.229,-0.6c0.013,-0.277 -0.179,-0.437 -0.401,-0.437c-0.097,0 -0.2,0.031 -0.294,0.096Z"/></clipPath><g clip-path="url(#_clip53)"><path d="M15.139,16.263l5.839,-0.695l0.487,4.09l-5.838,0.696l-0.488,-4.091Z" style="fill:url(#_Linear54);fill-rule:nonzero;"/></g><clipPath id="_clip55"><path d="M21.213,17.349c-0.634,0.809 -1.059,1.739 -1.257,2.742c-0.918,-0.276 -1.857,-0.412 -2.815,-0.41c-0.016,-0.009 -0.032,-0.017 -0.048,-0.026c-0.089,-0.052 -0.169,-0.027 -0.22,0.03c-0.243,0.032 -0.187,0.424 0.074,0.417c0.012,-0.001 0.024,0 0.036,0c0.011,0 0.021,0 0.032,-0.001c0.028,0.033 0.07,0.056 0.128,0.06c0.001,0 0.001,0 0.002,0c1.089,0.544 2.349,0.578 3.464,1.06c0.133,0.058 0.263,-0.03 0.293,-0.162c0.267,-1.165 0.625,-2.349 0.686,-3.547c0.007,-0.136 -0.104,-0.244 -0.219,-0.244c-0.055,0 -0.111,0.024 -0.156,0.081Z"/></clipPath><g clip-path="url(#_clip55)"><path d="M16.408,17.853l5.17,-0.617l0.464,3.888l-5.171,0.616l-0.463,-3.887Z" style="fill:url(#_Linear56);fill-rule:nonzero;"/></g><clipPath id="_clip57"><path d="M22.36,18.573c-0.034,0.044 -0.065,0.089 -0.093,0.135c-0.03,0.019 -0.056,0.046 -0.075,0.084c-0.455,0.917 -0.91,1.833 -1.365,2.749c-0.996,-0.275 -2.011,-0.402 -3.044,-0.375c-0.013,-0.003 -0.026,-0.006 -0.039,-0.009c-0.049,-0.01 -0.091,-0.004 -0.126,0.012c-0.221,0.013 -0.223,0.315 -0.054,0.403c0.728,0.38 1.547,0.605 2.319,0.879c0.398,0.141 0.804,0.33 1.215,0.427c0.196,0.046 0.4,0.058 0.553,-0.101c0.184,-0.191 0.179,-0.548 0.232,-0.79c0.091,-0.421 0.209,-0.836 0.353,-1.242c0.235,-0.663 0.668,-1.339 0.5,-2.066c-0.025,-0.109 -0.123,-0.186 -0.222,-0.186c-0.055,0 -0.11,0.024 -0.154,0.08Z"/></clipPath><g clip-path="url(#_clip57)"><path d="M17.114,19.13l5.676,-0.676l0.509,4.267l-5.676,0.676l-0.509,-4.267Z" style="fill:url(#_Linear58);fill-rule:nonzero;"/></g><clipPath id="_clip59"><path d="M23.936,22.092c-0.041,0.13 -0.082,0.26 -0.123,0.39c-0.226,0.445 -0.451,0.889 -0.677,1.334c-0.119,0.235 -0.221,0.51 -0.368,0.727c-0.094,0.138 -0.086,0.182 -0.27,0.175c-0.119,-0.005 -0.275,-0.07 -0.388,-0.096c-0.968,-0.224 -1.954,-0.348 -2.946,-0.385c-0.038,-0.01 -0.073,-0.01 -0.105,-0.003c-0.01,-0.001 -0.02,-0.001 -0.03,-0.001c-0.094,-0.047 -0.177,-0.016 -0.229,0.046c-0.135,0.109 -0.129,0.363 0.083,0.368c0.012,0.001 0.024,0.001 0.036,0.002c0.638,0.317 1.28,0.625 1.971,0.812c0.75,0.202 1.527,0.279 2.262,0.537c0.149,0.052 0.313,-0.051 0.294,-0.219c-0.001,-0.009 -0.001,-0.019 -0.002,-0.029c0.027,-0.02 0.05,-0.047 0.064,-0.081c0.373,-0.896 0.626,-1.828 0.757,-2.785c0.038,-0.129 0.077,-0.257 0.113,-0.386c0.024,-0.082 -0.002,-0.145 -0.05,-0.183c0.003,-0.036 0.008,-0.072 0.01,-0.107c0.011,-0.139 -0.12,-0.245 -0.238,-0.245c-0.07,0 -0.136,0.038 -0.164,0.129Zm-1.236,3.078c0.013,-0.002 0.025,-0.005 0.038,-0.008c-0.003,0.005 -0.005,0.01 -0.008,0.016c0,0 0,0 0,0c-0.01,-0.002 -0.02,-0.005 -0.03,-0.008Z"/></clipPath><g clip-path="url(#_clip59)"><path d="M18.431,22.63l5.912,-0.705l0.47,3.945l-5.911,0.705l-0.471,-3.945Z" style="fill:url(#_Linear60);fill-rule:nonzero;"/></g><clipPath id="_clip61"><path d="M26.024,26.16c0.498,0.294 1.014,0.543 1.551,0.749c-0.693,0.472 -1.386,0.943 -2.078,1.414c-0.101,0.069 -0.099,0.192 -0.045,0.281c-0.032,0.184 0.23,0.348 0.376,0.167c0.197,-0.246 0.505,-0.346 0.786,-0.468c0.317,-0.137 0.636,-0.271 0.957,-0.4c0.617,-0.249 1.241,-0.481 1.87,-0.699c0.216,-0.074 0.135,-0.356 -0.048,-0.404c-1.085,-0.286 -2.152,-0.629 -3.2,-1.027c-0.032,-0.012 -0.061,-0.018 -0.089,-0.018c-0.2,0 -0.281,0.286 -0.08,0.405Z"/></clipPath><g clip-path="url(#_clip61)"><path d="M25.07,25.855l4.373,-0.521l0.373,3.126l-4.373,0.521l-0.373,-3.126Z" style="fill:url(#_Linear62);fill-rule:nonzero;"/></g></g><path d="M22.184,4.585c0.443,0.013 0.877,0.026 1.323,0.039c0.037,-0.593 0.072,-1.171 0.109,-1.769c-1.2,-0.038 -2.379,-0.112 -3.557,0.155c0.129,0.726 0.256,1.436 0.382,2.148c-0.743,0.167 -1.463,0.33 -2.2,0.496c-0.173,-0.593 -0.347,-1.188 -0.53,-1.81c0.499,-0.113 0.983,-0.222 1.465,-0.331c0.079,0.351 0.16,0.708 0.242,1.072c-0.16,0.036 -0.305,0.069 -0.48,0.109c-0.049,-0.217 -0.097,-0.426 -0.141,-0.624c-0.17,0.038 -0.309,0.069 -0.428,0.096c0.075,0.332 0.146,0.647 0.216,0.958c0.451,-0.101 0.874,-0.197 1.317,-0.297c-0.131,-0.582 -0.259,-1.148 -0.389,-1.726c-1.15,0.264 -2.301,0.507 -3.373,1.064c0.309,0.661 0.615,1.314 0.918,1.962c-0.67,0.36 -1.323,0.711 -1.988,1.069c-0.322,-0.53 -0.646,-1.064 -0.981,-1.614c0.45,-0.251 0.883,-0.493 1.328,-0.742c0.18,0.347 0.349,0.673 0.524,1.009c-0.15,0.08 -0.286,0.153 -0.433,0.232c-0.112,-0.198 -0.219,-0.385 -0.329,-0.58c-0.141,0.081 -0.266,0.152 -0.401,0.229c0.172,0.296 0.336,0.58 0.503,0.869c0.391,-0.211 0.769,-0.414 1.165,-0.627c-0.264,-0.53 -0.524,-1.053 -0.791,-1.588c-1.06,0.568 -2.117,1.095 -3.002,1.913c0.472,0.561 0.937,1.112 1.395,1.657c-0.552,0.52 -1.094,1.029 -1.644,1.546c-0.449,-0.429 -0.901,-0.86 -1.366,-1.305c0.371,-0.36 0.727,-0.706 1.091,-1.06c0.264,0.289 0.512,0.559 0.768,0.839c-0.126,0.119 -0.238,0.224 -0.358,0.338c-0.161,-0.163 -0.312,-0.317 -0.469,-0.477c-0.115,0.114 -0.217,0.215 -0.328,0.325c0.243,0.243 0.476,0.475 0.711,0.709c0.326,-0.307 0.641,-0.604 0.963,-0.907c-0.394,-0.446 -0.779,-0.881 -1.174,-1.328c-0.874,0.817 -1.759,1.602 -2.406,2.624c0.602,0.419 1.196,0.834 1.794,1.25c-0.427,0.635 -0.84,1.249 -1.262,1.877c-0.482,-0.264 -1.031,-0.564 -1.6,-0.876c0.264,-0.441 0.521,-0.871 0.755,-1.262c0.337,0.203 0.652,0.392 0.963,0.58c-0.08,0.132 -0.161,0.265 -0.246,0.404c-0.187,-0.111 -0.372,-0.222 -0.566,-0.338c-0.084,0.14 -0.157,0.265 -0.236,0.399c0.295,0.17 0.58,0.335 0.822,0.474c0.252,-0.373 0.495,-0.734 0.742,-1.099c-0.491,-0.326 -0.977,-0.647 -1.475,-0.977c-0.632,1.016 -1.285,2.002 -1.645,3.157c0.688,0.249 1.366,0.494 2.037,0.737c-0.219,0.727 -0.434,1.442 -0.651,2.161c-0.611,-0.149 -1.214,-0.296 -1.835,-0.447c0.141,-0.495 0.276,-0.973 0.415,-1.463c0.374,0.118 0.728,0.23 1.087,0.344c-0.053,0.17 -0.099,0.317 -0.147,0.47c-0.223,-0.062 -0.426,-0.12 -0.639,-0.18c-0.043,0.152 -0.082,0.291 -0.126,0.446c0.333,0.088 0.653,0.174 0.972,0.259c0.13,-0.433 0.254,-0.844 0.381,-1.267c-0.559,-0.187 -1.109,-0.372 -1.679,-0.563c-0.351,1.143 -0.724,2.267 -0.773,3.475c0.735,0.064 1.451,0.125 2.157,0.186c-0.023,0.767 -0.046,1.508 -0.069,2.256c-0.627,0.013 -1.246,0.027 -1.888,0.041c0.008,-0.519 0.016,-1.014 0.023,-1.52c0.394,0.018 0.76,0.034 1.136,0.051c-0.006,0.178 -0.012,0.333 -0.019,0.493c-0.227,-0.003 -0.439,-0.006 -0.665,-0.009c0,0.16 0.001,0.307 0.001,0.464c0.348,0 0.67,-0.001 1.001,-0.001c0.013,-0.447 0.026,-0.88 0.039,-1.324c-0.596,-0.036 -1.174,-0.071 -1.768,-0.107c-0.04,1.201 -0.113,2.379 0.154,3.556c0.725,-0.129 1.431,-0.255 2.148,-0.383c0.166,0.738 0.33,1.462 0.496,2.201c-0.594,0.174 -1.189,0.348 -1.811,0.53c-0.113,-0.503 -0.222,-0.986 -0.332,-1.47c0.351,-0.079 0.705,-0.159 1.07,-0.241c0.036,0.159 0.07,0.308 0.109,0.482c-0.214,0.049 -0.419,0.095 -0.625,0.141c0.037,0.164 0.068,0.304 0.097,0.43c0.332,-0.075 0.651,-0.147 0.967,-0.218c-0.101,-0.449 -0.196,-0.868 -0.296,-1.312c-0.577,0.13 -1.143,0.258 -1.73,0.39c0.26,1.14 0.503,2.295 1.062,3.369c0.664,-0.311 1.316,-0.616 1.962,-0.918c0.362,0.672 0.713,1.326 1.069,1.988c-0.534,0.324 -1.067,0.648 -1.615,0.981c-0.251,-0.451 -0.493,-0.885 -0.741,-1.328c0.349,-0.181 0.674,-0.35 1.01,-0.524c0.081,0.152 0.153,0.288 0.231,0.433c-0.199,0.113 -0.386,0.22 -0.58,0.33c0.082,0.143 0.154,0.268 0.23,0.4c0.297,-0.172 0.58,-0.337 0.868,-0.504c-0.213,-0.393 -0.416,-0.771 -0.627,-1.163c-0.53,0.263 -1.05,0.522 -1.586,0.788c0.561,1.059 1.093,2.113 1.91,3.005c0.559,-0.471 1.113,-0.938 1.658,-1.396c0.522,0.555 1.028,1.093 1.546,1.643c-0.426,0.447 -0.858,0.899 -1.304,1.367c-0.357,-0.368 -0.703,-0.724 -1.06,-1.09c0.285,-0.262 0.555,-0.51 0.839,-0.77c0.117,0.126 0.224,0.242 0.336,0.362c-0.165,0.161 -0.317,0.309 -0.477,0.465c0.115,0.115 0.219,0.22 0.328,0.328c0.245,-0.247 0.477,-0.48 0.707,-0.71c-0.309,-0.329 -0.604,-0.642 -0.907,-0.963c-0.443,0.391 -0.879,0.776 -1.327,1.173c0.815,0.875 1.602,1.763 2.623,2.407c0.422,-0.605 0.834,-1.197 1.249,-1.793c0.634,0.426 1.251,0.84 1.878,1.261c-0.268,0.49 -0.568,1.038 -0.876,1.6c-0.446,-0.267 -0.873,-0.522 -1.272,-0.761c0.204,-0.333 0.396,-0.647 0.594,-0.971c0.128,0.086 0.257,0.173 0.396,0.266c-0.107,0.179 -0.217,0.365 -0.334,0.561c0.141,0.082 0.268,0.156 0.401,0.233c0.172,-0.298 0.333,-0.579 0.474,-0.823c-0.37,-0.249 -0.731,-0.492 -1.1,-0.74c-0.327,0.493 -0.65,0.981 -0.978,1.477c1.021,0.635 2.007,1.287 3.157,1.644c0.251,-0.695 0.496,-1.372 0.737,-2.038c0.729,0.22 1.44,0.434 2.161,0.652c-0.148,0.609 -0.296,1.215 -0.448,1.836c-0.501,-0.144 -0.978,-0.28 -1.462,-0.418c0.119,-0.376 0.23,-0.726 0.344,-1.085c0.165,0.052 0.313,0.098 0.471,0.147c-0.062,0.218 -0.12,0.421 -0.182,0.638c0.155,0.043 0.296,0.083 0.448,0.125c0.089,-0.334 0.173,-0.651 0.258,-0.97c-0.429,-0.129 -0.84,-0.253 -1.266,-0.381c-0.188,0.558 -0.374,1.113 -0.564,1.68c1.148,0.349 2.268,0.724 3.475,0.772c0.063,-0.73 0.125,-1.447 0.186,-2.157c0.764,0.023 1.506,0.046 2.256,0.068c0.013,0.623 0.027,1.243 0.042,1.888c-0.515,-0.007 -1.01,-0.015 -1.52,-0.022c0.017,-0.392 0.034,-0.757 0.05,-1.136c0.175,0.007 0.33,0.012 0.493,0.018c-0.003,0.226 -0.006,0.438 -0.009,0.665c0.158,0 0.305,0 0.464,0c0,-0.346 -0.001,-0.669 -0.001,-1.001c-0.444,-0.013 -0.878,-0.026 -1.323,-0.039c-0.037,0.594 -0.072,1.172 -0.109,1.769c1.201,0.037 2.38,0.113 3.556,-0.156c-0.129,-0.727 -0.255,-1.436 -0.381,-2.147c0.745,-0.168 1.465,-0.33 2.2,-0.496c0.174,0.594 0.348,1.189 0.53,1.811c-0.502,0.113 -0.985,0.222 -1.471,0.331c-0.079,-0.349 -0.159,-0.703 -0.241,-1.069c0.158,-0.036 0.308,-0.069 0.488,-0.11c0.048,0.215 0.095,0.424 0.14,0.62c0.169,-0.038 0.308,-0.069 0.426,-0.096c-0.075,-0.332 -0.146,-0.648 -0.218,-0.963c-0.447,0.101 -0.866,0.195 -1.311,0.296c0.131,0.58 0.259,1.15 0.39,1.732c1.145,-0.264 2.297,-0.505 3.368,-1.063c-0.31,-0.662 -0.615,-1.315 -0.918,-1.962c0.671,-0.361 1.324,-0.712 1.988,-1.069c0.322,0.531 0.647,1.064 0.981,1.614c-0.45,0.252 -0.883,0.493 -1.328,0.741c-0.18,-0.346 -0.35,-0.672 -0.524,-1.008c0.151,-0.081 0.287,-0.154 0.433,-0.232c0.112,0.197 0.219,0.385 0.33,0.58c0.141,-0.081 0.265,-0.153 0.4,-0.23c-0.172,-0.296 -0.337,-0.58 -0.503,-0.867c-0.393,0.211 -0.77,0.414 -1.165,0.626c0.265,0.531 0.525,1.054 0.791,1.587c1.061,-0.568 2.118,-1.095 3.002,-1.912c-0.473,-0.562 -0.938,-1.113 -1.395,-1.657c0.553,-0.521 1.095,-1.03 1.644,-1.547c0.449,0.43 0.901,0.862 1.366,1.306c-0.372,0.361 -0.728,0.707 -1.092,1.059c-0.264,-0.288 -0.511,-0.559 -0.767,-0.839c0.126,-0.118 0.238,-0.224 0.359,-0.337c0.16,0.163 0.311,0.317 0.468,0.477c0.115,-0.114 0.217,-0.215 0.328,-0.325c-0.244,-0.243 -0.476,-0.475 -0.711,-0.709c-0.326,0.307 -0.641,0.604 -0.963,0.907c0.394,0.446 0.779,0.881 1.174,1.328c0.873,-0.818 1.759,-1.602 2.406,-2.623c-0.599,-0.418 -1.191,-0.831 -1.794,-1.252c0.422,-0.627 0.837,-1.245 1.262,-1.876c0.482,0.263 1.032,0.564 1.6,0.876c-0.264,0.441 -0.521,0.871 -0.755,1.262c-0.336,-0.204 -0.65,-0.395 -0.973,-0.59c0.083,-0.127 0.169,-0.257 0.258,-0.393c0.184,0.11 0.37,0.221 0.565,0.337c0.082,-0.14 0.156,-0.265 0.235,-0.399c-0.294,-0.17 -0.579,-0.334 -0.819,-0.472c-0.252,0.372 -0.497,0.732 -0.745,1.097c0.492,0.326 0.977,0.647 1.475,0.977c0.633,-1.015 1.285,-2.002 1.645,-3.157c-0.687,-0.248 -1.365,-0.494 -2.038,-0.737c0.219,-0.726 0.435,-1.441 0.652,-2.161c0.611,0.149 1.214,0.295 1.835,0.447c-0.141,0.494 -0.276,0.973 -0.415,1.463c-0.374,-0.118 -0.728,-0.23 -1.086,-0.344c0.052,-0.169 0.098,-0.317 0.145,-0.472c0.223,0.064 0.427,0.122 0.64,0.182c0.043,-0.152 0.082,-0.29 0.126,-0.446c-0.332,-0.088 -0.652,-0.174 -0.972,-0.259c-0.13,0.432 -0.254,0.844 -0.381,1.267c0.562,0.188 1.116,0.373 1.682,0.563c0.346,-1.152 0.725,-2.271 0.769,-3.476c-0.733,-0.063 -1.449,-0.124 -2.156,-0.185c0.023,-0.767 0.046,-1.508 0.069,-2.256c0.626,-0.014 1.245,-0.027 1.888,-0.042c-0.008,0.519 -0.016,1.014 -0.023,1.521c-0.394,-0.018 -0.76,-0.035 -1.136,-0.052c0.006,-0.177 0.012,-0.332 0.018,-0.492c0.228,0.003 0.44,0.006 0.666,0.009c0,-0.159 -0.001,-0.307 -0.001,-0.464c-0.347,0 -0.67,0.001 -1,0.001c-0.014,0.446 -0.027,0.88 -0.04,1.323c0.596,0.037 1.174,0.072 1.768,0.108c0.041,-1.201 0.112,-2.379 -0.154,-3.556c-0.725,0.129 -1.43,0.255 -2.147,0.383c-0.167,-0.738 -0.33,-1.462 -0.497,-2.201c0.594,-0.174 1.189,-0.348 1.811,-0.53c0.113,0.502 0.222,0.985 0.331,1.471c-0.349,0.079 -0.703,0.158 -1.069,0.241c-0.036,-0.159 -0.069,-0.309 -0.109,-0.483c0.213,-0.048 0.419,-0.094 0.619,-0.14c-0.038,-0.168 -0.07,-0.31 -0.097,-0.43c-0.334,0.075 -0.648,0.146 -0.961,0.217c0.101,0.448 0.196,0.867 0.296,1.312c0.578,-0.13 1.143,-0.258 1.73,-0.39c-0.259,-1.141 -0.505,-2.294 -1.061,-3.369c-0.665,0.311 -1.318,0.616 -1.963,0.918c-0.362,-0.673 -0.713,-1.326 -1.069,-1.988c0.534,-0.324 1.067,-0.648 1.615,-0.981c0.252,0.452 0.493,0.885 0.74,1.328c-0.348,0.181 -0.674,0.35 -1.009,0.524c-0.081,-0.153 -0.154,-0.289 -0.231,-0.434c0.2,-0.113 0.387,-0.219 0.58,-0.329c-0.083,-0.144 -0.155,-0.268 -0.23,-0.4c-0.297,0.173 -0.581,0.337 -0.867,0.503c0.212,0.395 0.415,0.772 0.626,1.164c0.531,-0.263 1.05,-0.522 1.567,-0.779c-0.261,-0.733 -1.419,-2.567 -1.898,-3.008c-0.552,0.465 -1.107,0.932 -1.651,1.39c-0.522,-0.555 -1.028,-1.093 -1.546,-1.644c0.426,-0.446 0.858,-0.898 1.304,-1.366c0.357,0.367 0.703,0.723 1.061,1.091c-0.288,0.263 -0.562,0.514 -0.84,0.769c-0.123,-0.131 -0.228,-0.244 -0.336,-0.361c0.165,-0.162 0.316,-0.31 0.476,-0.466c-0.114,-0.115 -0.218,-0.22 -0.326,-0.328c-0.246,0.247 -0.478,0.479 -0.708,0.71c0.309,0.328 0.604,0.641 0.907,0.963c0.443,-0.391 0.878,-0.776 1.327,-1.173c-0.815,-0.874 -1.602,-1.763 -2.623,-2.407c-0.421,0.605 -0.834,1.197 -1.249,1.793c-0.633,-0.424 -1.25,-0.839 -1.879,-1.26c0.269,-0.49 0.569,-1.039 0.877,-1.602c0.445,0.267 0.872,0.522 1.279,0.765c-0.204,0.333 -0.396,0.647 -0.586,0.958c-0.137,-0.086 -0.272,-0.171 -0.411,-0.258c0.11,-0.184 0.219,-0.366 0.334,-0.558c-0.14,-0.082 -0.267,-0.157 -0.401,-0.235c-0.172,0.3 -0.335,0.584 -0.476,0.83c0.375,0.252 0.732,0.493 1.099,0.74c0.329,-0.498 0.653,-0.986 0.982,-1.483c-1.02,-0.633 -2.007,-1.286 -3.158,-1.644c-0.25,0.692 -0.496,1.371 -0.737,2.038c-0.727,-0.219 -1.438,-0.434 -2.161,-0.652c0.148,-0.607 0.295,-1.213 0.447,-1.836c0.5,0.143 0.978,0.279 1.463,0.417c-0.118,0.374 -0.229,0.725 -0.343,1.085c-0.164,-0.05 -0.311,-0.096 -0.47,-0.145c0.061,-0.221 0.118,-0.428 0.177,-0.642c-0.158,-0.044 -0.296,-0.081 -0.445,-0.122c-0.088,0.333 -0.173,0.65 -0.258,0.97c0.428,0.129 0.839,0.253 1.266,0.381c0.187,-0.557 0.373,-1.112 0.564,-1.68c-1.147,-0.35 -2.267,-0.723 -3.475,-0.773c-0.063,0.73 -0.124,1.447 -0.186,2.158c-0.763,-0.023 -1.505,-0.046 -2.255,-0.068c-0.014,-0.623 -0.028,-1.243 -0.043,-1.888c0.514,0.007 1.01,0.015 1.52,0.022c-0.017,0.391 -0.033,0.757 -0.05,1.135c-0.174,-0.006 -0.328,-0.011 -0.491,-0.017c0.001,-0.229 0.003,-0.443 0.005,-0.666c-0.164,0 -0.307,0 -0.462,-0.001c0.001,0.346 0.001,0.67 0.001,1.003m15.996,10.337c2.001,8.645 -3.493,17.275 -12.023,19.215c-4.329,0.984 -8.4,0.335 -12.167,-2.013c-3.828,-2.386 -6.242,-5.809 -7.209,-10.215c-0.942,-4.299 -0.228,-8.336 2.132,-12.051c2.39,-3.763 5.791,-6.119 10.14,-7.099c8.543,-1.925 17.212,3.508 19.127,12.163" style="fill-opacity:0.835294;fill-rule:nonzero;"/></g><g><path d="M3.475,38.332c1.449,0 2.174,1.023 2.174,3.069c0,2.045 -0.725,3.068 -2.174,3.068l-0.955,0c-1.45,0 -2.174,-1.023 -2.174,-3.068c0,-2.046 0.724,-3.069 2.174,-3.069l0.955,0Zm-0.402,1.305l-0.151,0c-0.787,0.006 -1.18,0.479 -1.18,1.418l0,0.735c0,0.924 0.406,1.387 1.218,1.387l0.074,0c0.812,0 1.219,-0.463 1.219,-1.387l0,-0.735c0,-0.939 -0.394,-1.412 -1.18,-1.418Z" style="fill:#333;fill-rule:nonzero;"/><path d="M11.22,38.362c-0.153,-0.034 -0.343,-0.02 -0.571,0.044c-0.141,0.063 -0.245,0.159 -0.311,0.289l-1.305,2.736l-1.336,-2.77c-0.069,-0.13 -0.174,-0.227 -0.315,-0.29c-0.228,-0.061 -0.417,-0.075 -0.566,-0.043c-0.153,0.034 -0.277,0.109 -0.372,0.224c-0.098,0.113 -0.147,0.242 -0.147,0.389l0,5.485l1.34,0l0,-2.792l0.795,1.763c0.058,0.107 0.141,0.192 0.251,0.255c0.109,0.064 0.226,0.095 0.35,0.095c0.129,0 0.248,-0.031 0.354,-0.095c0.11,-0.063 0.192,-0.149 0.247,-0.259l0.765,-1.707l0,2.74l1.339,0l0,-5.45c0,-0.147 -0.049,-0.278 -0.147,-0.393c-0.098,-0.116 -0.221,-0.189 -0.371,-0.221Z" style="fill:#333;fill-rule:nonzero;"/><path d="M15.745,38.384l0,3.168l-2.131,-2.987c-0.089,-0.118 -0.203,-0.198 -0.341,-0.242c-0.142,-0.046 -0.281,-0.046 -0.42,0c-0.138,0.047 -0.25,0.129 -0.337,0.247c-0.086,0.121 -0.129,0.253 -0.129,0.397l0,5.463l1.357,0l0,-3.22l2.135,2.991c0.086,0.118 0.199,0.199 0.337,0.242c0.141,0.046 0.281,0.046 0.419,0c0.141,-0.046 0.254,-0.128 0.337,-0.246c0.087,-0.118 0.13,-0.251 0.13,-0.398l0,-5.415l-1.357,0Z" style="fill:#333;fill-rule:nonzero;"/><rect x="17.75" y="38.388" width="1.37" height="6.059" style="fill:#333;fill-rule:nonzero;"/><path d="M21.104,40.757l1.011,0c0.51,0 0.765,-0.182 0.765,-0.545c0,-0.354 -0.255,-0.532 -0.765,-0.532l-1.011,-0.004l0,1.081Zm-0.004,1.275l-0.005,2.385l-1.327,0l0,-6.042l2.862,0.013c1.074,-0.003 1.612,0.605 1.612,1.824c0,1.213 -0.538,1.82 -1.612,1.82l-1.53,0Z" style="fill:#d45769;fill-rule:nonzero;"/><path d="M25.327,43.523l-0.346,0.899l-1.388,0l2.14,-5.71c0.052,-0.112 0.129,-0.203 0.233,-0.272c0.104,-0.066 0.219,-0.099 0.346,-0.099c0.124,0 0.24,0.033 0.35,0.099c0.109,0.069 0.189,0.16 0.238,0.272l2.169,5.714l-1.391,0l-0.35,-0.903l-2.001,0Zm1.491,-1.31l-0.502,-1.283l-0.492,1.283l0.994,0Z" style="fill:#d45769;fill-rule:nonzero;"/><path d="M32.082,43.134l0,-1.638l1.37,0l0,2.93l-2.032,0c-1.567,0 -2.351,-1.008 -2.351,-3.025c0,-2.017 0.784,-3.026 2.351,-3.026l2.032,0l0,1.305l-1.422,0c-1.043,0 -1.565,0.473 -1.565,1.418l0,0.648c0,0.925 0.502,1.388 1.504,1.388l0.113,0Z" style="fill:#d45769;fill-rule:nonzero;"/><path d="M37.229,38.332c1.449,0 2.174,1.023 2.174,3.069c0,2.045 -0.725,3.068 -2.174,3.068l-0.955,0c-1.449,0 -2.174,-1.023 -2.174,-3.068c0,-2.046 0.725,-3.069 2.174,-3.069l0.955,0Zm-0.402,1.305l-0.151,0c-0.787,0.006 -1.18,0.479 -1.18,1.418l0,0.735c0,0.924 0.406,1.387 1.219,1.387l0.073,0c0.813,0 1.219,-0.463 1.219,-1.387l0,-0.735c0,-0.939 -0.393,-1.412 -1.18,-1.418Z" style="fill:#d45769;fill-rule:nonzero;"/><path d="M40.272,44.426l2.584,-0.004c0.133,-0.003 0.252,-0.013 0.359,-0.031c0.277,-0.049 0.522,-0.148 0.735,-0.298c0.253,-0.178 0.441,-0.418 0.562,-0.717c0.123,-0.297 0.167,-0.614 0.129,-0.951c-0.02,-0.703 -0.334,-1.17 -0.942,-1.4l-1.971,-0.454c-0.184,-0.064 -0.276,-0.216 -0.276,-0.458c0.014,-0.265 0.183,-0.408 0.505,-0.428l2.239,0l0,-1.297l-2.178,0c-0.006,0 -0.016,0 -0.03,0l-0.044,0c-0.043,0.003 -0.086,0.006 -0.129,0.009c-0.118,0.006 -0.235,0.019 -0.35,0.039c-0.337,0.057 -0.608,0.158 -0.813,0.302c-0.23,0.162 -0.41,0.369 -0.54,0.623c-0.127,0.253 -0.189,0.523 -0.186,0.808c0.003,0.302 0.073,0.583 0.212,0.843c0.138,0.262 0.328,0.474 0.57,0.635c0.165,0.112 0.368,0.199 0.61,0.259l1.534,0.307c0.184,0.052 0.277,0.176 0.277,0.372c0.02,0.202 -0.028,0.343 -0.143,0.423c-0.104,0.075 -0.339,0.11 -0.705,0.104l-2.009,0l0,1.314Z" style="fill:#d45769;fill-rule:nonzero;"/></g><defs><linearGradient id="_Linear2" x1="0" y1="0" x2="1" y2="0" gradientUnits="userSpaceOnUse" gradientTransform="matrix(35.4106,-4.22028,4.22028,35.4106,4.79467,20.5835)"><stop offset="0" style="stop-color:#e3853e;stop-opacity:1"/><stop offset="1" style="stop-color:#ffb848;stop-opacity:1"/></linearGradient><linearGradient id="_Linear4" x1="0" y1="0" x2="1" y2="0" gradientUnits="userSpaceOnUse" gradientTransform="matrix(31.0657,-5.72029,5.72029,31.0657,6.95327,21.3356)"><stop offset="0" style="stop-color:#e3853e;stop-opacity:1"/><stop offset="1" style="stop-color:#ffb848;stop-opacity:1"/></linearGradient><linearGradient id="_Linear6" x1="0" y1="0" x2="1" y2="0" gradientUnits="userSpaceOnUse" gradientTransform="matrix(4.61033,-0.549465,0.549465,4.61033,15.614,16.8611)"><stop offset="0" style="stop-color:#e3853e;stop-opacity:1"/><stop offset="1" style="stop-color:#ffb848;stop-opacity:1"/></linearGradient><linearGradient id="_Linear8" x1="0" y1="0" x2="1" y2="0" gradientUnits="userSpaceOnUse" gradientTransform="matrix(5.41926,-0.645874,0.645874,5.41926,18.2108,22.9257)"><stop offset="0" style="stop-color:#e3853e;stop-opacity:1"/><stop offset="1" style="stop-color:#ffb848;stop-opacity:1"/></linearGradient><linearGradient id="_Linear10" x1="0" y1="0" x2="1" y2="0" gradientUnits="userSpaceOnUse" gradientTransform="matrix(5.873,-0.699951,0.699951,5.873,19.7076,26.2403)"><stop offset="0" style="stop-color:#e3853e;stop-opacity:1"/><stop offset="1" style="stop-color:#ffb848;stop-opacity:1"/></linearGradient><linearGradient id="_Linear12" x1="0" y1="0" x2="1" y2="0" gradientUnits="userSpaceOnUse" gradientTransform="matrix(1.45479,-0.173384,0.173384,1.45479,13.589,12.7292)"><stop offset="0" style="stop-color:#e3853e;stop-opacity:1"/><stop offset="1" style="stop-color:#ffb848;stop-opacity:1"/></linearGradient><linearGradient id="_Linear14" x1="0" y1="0" x2="1" y2="0" gradientUnits="userSpaceOnUse" gradientTransform="matrix(1.41398,-0.16852,0.16852,1.41398,13.0928,13.9517)"><stop offset="0" style="stop-color:#e3853e;stop-opacity:1"/><stop offset="1" style="stop-color:#ffb848;stop-opacity:1"/></linearGradient><linearGradient id="_Linear16" x1="0" y1="0" x2="1" y2="0" gradientUnits="userSpaceOnUse" gradientTransform="matrix(1.43703,-0.171268,0.171268,1.43703,12.3576,15.0686)"><stop offset="0" style="stop-color:#e3853e;stop-opacity:1"/><stop offset="1" style="stop-color:#ffb848;stop-opacity:1"/></linearGradient><linearGradient id="_Linear18" x1="0" y1="0" x2="1" y2="0" gradientUnits="userSpaceOnUse" gradientTransform="matrix(1.47104,-0.17532,0.17532,1.47104,11.8307,16.5478)"><stop offset="0" style="stop-color:#e3853e;stop-opacity:1"/><stop offset="1" style="stop-color:#ffb848;stop-opacity:1"/></linearGradient><linearGradient id="_Linear20" x1="0" y1="0" x2="1" y2="0" gradientUnits="userSpaceOnUse" gradientTransform="matrix(1.52743,-0.18204,0.18204,1.52743,11.3982,17.8599)"><stop offset="0" style="stop-color:#e3853e;stop-opacity:1"/><stop offset="1" style="stop-color:#ffb848;stop-opacity:1"/></linearGradient><linearGradient id="_Linear22" x1="0" y1="0" x2="1" y2="0" gradientUnits="userSpaceOnUse" gradientTransform="matrix(1.48929,-0.177495,0.177495,1.48929,11.0479,19.5264)"><stop offset="0" style="stop-color:#e3853e;stop-opacity:1"/><stop offset="1" style="stop-color:#ffb848;stop-opacity:1"/></linearGradient><linearGradient id="_Linear24" x1="0" y1="0" x2="1" y2="0" gradientUnits="userSpaceOnUse" gradientTransform="matrix(1.48032,-0.176426,0.176426,1.48032,10.7166,21.0596)"><stop offset="0" style="stop-color:#e3853e;stop-opacity:1"/><stop offset="1" style="stop-color:#ffb848;stop-opacity:1"/></linearGradient><linearGradient id="_Linear26" x1="0" y1="0" x2="1" y2="0" gradientUnits="userSpaceOnUse" gradientTransform="matrix(1.41049,-0.168104,0.168104,1.41049,10.7546,22.4335)"><stop offset="0" style="stop-color:#e3853e;stop-opacity:1"/><stop offset="1" style="stop-color:#ffb848;stop-opacity:1"/></linearGradient><linearGradient id="_Linear28" x1="0" y1="0" x2="1" y2="0" gradientUnits="userSpaceOnUse" gradientTransform="matrix(1.02928,-0.122671,0.122671,1.02928,14.4425,15.5474)"><stop offset="0" style="stop-color:#e3853e;stop-opacity:1"/><stop offset="1" style="stop-color:#ffb848;stop-opacity:1"/></linearGradient><linearGradient id="_Linear30" x1="0" y1="0" x2="1" y2="0" gradientUnits="userSpaceOnUse" gradientTransform="matrix(1.00375,-0.119628,0.119628,1.00375,13.7464,18.3322)"><stop offset="0" style="stop-color:#e3853e;stop-opacity:1"/><stop offset="1" style="stop-color:#ffb848;stop-opacity:1"/></linearGradient><linearGradient id="_Linear32" x1="0" y1="0" x2="1" y2="0" gradientUnits="userSpaceOnUse" gradientTransform="matrix(0.833683,-0.0993593,0.0993593,0.833683,13.7166,21.0788)"><stop offset="0" style="stop-color:#e3853e;stop-opacity:1"/><stop offset="1" style="stop-color:#ffb848;stop-opacity:1"/></linearGradient><linearGradient id="_Linear34" x1="0" y1="0" x2="1" y2="0" gradientUnits="userSpaceOnUse" gradientTransform="matrix(0.737529,-0.0878996,0.0878996,0.737529,15.5024,21.538)"><stop offset="0" style="stop-color:#e3853e;stop-opacity:1"/><stop offset="1" style="stop-color:#ffb848;stop-opacity:1"/></linearGradient><linearGradient id="_Linear36" x1="0" y1="0" x2="1" y2="0" gradientUnits="userSpaceOnUse" gradientTransform="matrix(0.81447,-0.0970695,0.0970695,0.81447,14.6007,24.4724)"><stop offset="0" style="stop-color:#e3853e;stop-opacity:1"/><stop offset="1" style="stop-color:#ffb848;stop-opacity:1"/></linearGradient><linearGradient id="_Linear38" x1="0" y1="0" x2="1" y2="0" gradientUnits="userSpaceOnUse" gradientTransform="matrix(0.805455,-0.095995,0.095995,0.805455,16.5278,23.8353)"><stop offset="0" style="stop-color:#e3853e;stop-opacity:1"/><stop offset="1" style="stop-color:#ffb848;stop-opacity:1"/></linearGradient><linearGradient id="_Linear40" x1="0" y1="0" x2="1" y2="0" gradientUnits="userSpaceOnUse" gradientTransform="matrix(0.891557,-0.106257,0.106257,0.891557,16.4696,26.9451)"><stop offset="0" style="stop-color:#e3853e;stop-opacity:1"/><stop offset="1" style="stop-color:#ffb848;stop-opacity:1"/></linearGradient><linearGradient id="_Linear42" x1="0" y1="0" x2="1" y2="0" gradientUnits="userSpaceOnUse" gradientTransform="matrix(0.912661,-0.108772,0.108772,0.912661,18.4975,26.3513)"><stop offset="0" style="stop-color:#e3853e;stop-opacity:1"/><stop offset="1" style="stop-color:#ffb848;stop-opacity:1"/></linearGradient><linearGradient id="_Linear44" x1="0" y1="0" x2="1" y2="0" gradientUnits="userSpaceOnUse" gradientTransform="matrix(2.52458,-0.300883,0.300883,2.52458,14.7627,12.0634)"><stop offset="0" style="stop-color:#e3853e;stop-opacity:1"/><stop offset="1" style="stop-color:#ffb848;stop-opacity:1"/></linearGradient><linearGradient id="_Linear46" x1="0" y1="0" x2="1" y2="0" gradientUnits="userSpaceOnUse" gradientTransform="matrix(16.7068,-1.99113,1.99113,16.7068,17.8826,19.2466)"><stop offset="0" style="stop-color:#e3853e;stop-opacity:1"/><stop offset="1" style="stop-color:#ffb848;stop-opacity:1"/></linearGradient><linearGradient id="_Linear48" x1="0" y1="0" x2="1" y2="0" gradientUnits="userSpaceOnUse" gradientTransform="matrix(1.04219,-0.124209,0.124209,1.04219,27.4203,22.7277)"><stop offset="0" style="stop-color:#e3853e;stop-opacity:1"/><stop offset="1" style="stop-color:#ffb848;stop-opacity:1"/></linearGradient><linearGradient id="_Linear50" x1="0" y1="0" x2="1" y2="0" gradientUnits="userSpaceOnUse" gradientTransform="matrix(0.901941,-0.107494,0.107494,0.901941,30.8732,21.1005)"><stop offset="0" style="stop-color:#e3853e;stop-opacity:1"/><stop offset="1" style="stop-color:#ffb848;stop-opacity:1"/></linearGradient><linearGradient id="_Linear52" x1="0" y1="0" x2="1" y2="0" gradientUnits="userSpaceOnUse" gradientTransform="matrix(0.87638,-0.104448,0.104448,0.87638,29.8103,20.1888)"><stop offset="0" style="stop-color:#e3853e;stop-opacity:1"/><stop offset="1" style="stop-color:#ffb848;stop-opacity:1"/></linearGradient><linearGradient id="_Linear54" x1="0" y1="0" x2="1" y2="0" gradientUnits="userSpaceOnUse" gradientTransform="matrix(5.74384,-0.684558,0.684558,5.74384,15.4321,18.2357)"><stop offset="0" style="stop-color:#e3853e;stop-opacity:1"/><stop offset="1" style="stop-color:#ffb848;stop-opacity:1"/></linearGradient><linearGradient id="_Linear56" x1="0" y1="0" x2="1" y2="0" gradientUnits="userSpaceOnUse" gradientTransform="matrix(5.08391,-0.605906,0.605906,5.08391,16.7044,19.7691)"><stop offset="0" style="stop-color:#e3853e;stop-opacity:1"/><stop offset="1" style="stop-color:#ffb848;stop-opacity:1"/></linearGradient><linearGradient id="_Linear58" x1="0" y1="0" x2="1" y2="0" gradientUnits="userSpaceOnUse" gradientTransform="matrix(5.54313,-0.660636,0.660636,5.54313,17.4274,21.2373)"><stop offset="0" style="stop-color:#e3853e;stop-opacity:1"/><stop offset="1" style="stop-color:#ffb848;stop-opacity:1"/></linearGradient><linearGradient id="_Linear60" x1="0" y1="0" x2="1" y2="0" gradientUnits="userSpaceOnUse" gradientTransform="matrix(5.8397,-0.695983,0.695983,5.8397,18.7205,24.5768)"><stop offset="0" style="stop-color:#e3853e;stop-opacity:1"/><stop offset="1" style="stop-color:#ffb848;stop-opacity:1"/></linearGradient><linearGradient id="_Linear62" x1="0" y1="0" x2="1" y2="0" gradientUnits="userSpaceOnUse" gradientTransform="matrix(4.27007,-0.508911,0.508911,4.27007,25.282,27.3747)"><stop offset="0" style="stop-color:#e3853e;stop-opacity:1"/><stop offset="1" style="stop-color:#ffb848;stop-opacity:1"/></linearGradient></defs></svg>