<?xml version="1.0" encoding="UTF-8" standalone="no"?><!DOCTYPE svg PUBLIC "-//W3C//DTD SVG 1.1//EN" "http://www.w3.org/Graphics/SVG/1.1/DTD/svg11.dtd"><svg width="100%" height="100%" viewBox="0 0 47 47" version="1.1" xmlns="http://www.w3.org/2000/svg" xmlns:xlink="http://www.w3.org/1999/xlink" xml:space="preserve" style="fill-rule:evenodd;clip-rule:evenodd;stroke-linejoin:round;stroke-miterlimit:1.41421;"><g id="omni"><clipPath id="_clip1"><path d="M20.314,0.164c-12.634,1.506 -21.656,12.968 -20.15,25.602c1.506,12.634 12.968,21.656 25.602,20.15c12.634,-1.506 21.656,-12.968 20.15,-25.602c-1.396,-11.709 -11.341,-20.315 -22.847,-20.314c-0.909,0 -1.83,0.054 -2.755,0.164Z"/></clipPath><g clip-path="url(#_clip1)"><path d="M-2.562,2.89l45.751,-5.452l5.453,45.751l-45.751,5.453l-5.453,-45.752Z" style="fill:url(#_Linear2);fill-rule:nonzero;"/></g><path d="M45.007,20.422c1.385,11.624 -6.509,22.216 -17.844,24.354c-0.496,0.093 -0.997,0.17 -1.505,0.231c-12.132,1.446 -23.139,-7.217 -24.585,-19.349c-1.446,-12.132 7.217,-23.139 19.349,-24.585c12.132,-1.446 23.139,7.217 24.585,19.349Z" style="fill-opacity:0.898039;"/><g><clipPath id="_clip3"><path d="M19.327,2.974c-5.531,1.018 -9.903,3.847 -13.115,8.487c-3.191,4.654 -4.277,9.746 -3.259,15.277c1.019,5.531 3.847,9.902 8.487,13.114c4.654,3.192 9.747,4.278 15.277,3.26c5.531,-1.019 9.902,-3.848 13.115,-8.488c3.191,-4.653 4.277,-9.746 3.259,-15.277c-1.018,-5.53 -3.848,-9.902 -8.487,-13.114c-3.529,-2.419 -7.309,-3.629 -11.341,-3.629c-1.286,0 -2.599,0.123 -3.936,0.37Zm-5.851,33.923c-3.823,-2.634 -6.156,-6.237 -6.998,-10.808c-0.841,-4.571 0.055,-8.768 2.689,-12.592c2.634,-3.823 6.237,-6.156 10.809,-6.998c4.571,-0.842 8.768,0.055 12.592,2.689c3.823,2.635 6.156,6.237 6.998,10.808c0.841,4.572 -0.055,8.769 -2.689,12.593c-2.635,3.823 -6.237,6.156 -10.809,6.997c-1.107,0.204 -2.192,0.306 -3.255,0.306c-3.327,0 -6.44,-0.998 -9.337,-2.995Z"/></clipPath><g clip-path="url(#_clip3)"><path d="M-0.742,6.669l40.138,-7.391l7.39,40.138l-40.137,7.391l-7.391,-40.138Z" style="fill:url(#_Linear4);fill-rule:nonzero;"/></g><clipPath id="_clip5"><path d="M18.052,18.898c-0.474,0.662 -0.666,1.533 -0.693,2.358c-0.668,-0.439 -1.38,-0.807 -2.157,-0.897c-0.212,-0.065 -0.44,-0.083 -0.695,-0.026c-0.034,0.008 -0.065,0.02 -0.092,0.036c-0.026,0.004 -0.051,0.005 -0.076,0.01c-0.345,0.058 -0.283,0.6 0.065,0.542c0.041,-0.007 0.082,-0.011 0.124,-0.016c0.592,0.31 1.184,0.62 1.777,0.929c0.117,0.106 0.234,0.202 0.355,0.277c0.35,0.219 1.008,0.6 1.435,0.414c0.449,-0.195 0.601,-0.882 0.669,-1.313c0.027,-0.167 0.241,-2.335 0.641,-2.064c0.063,0.042 0.129,0.054 0.19,0.046c0.196,0.056 0.442,-0.201 0.301,-0.439c-0.189,-0.318 -0.47,-0.449 -0.763,-0.449c-0.404,0 -0.833,0.247 -1.081,0.592Z"/></clipPath><g clip-path="url(#_clip5)"><path d="M13.808,18.893l6.13,-0.731l0.503,4.218l-6.131,0.731l-0.502,-4.218Z" style="fill:url(#_Linear6);fill-rule:nonzero;"/></g><clipPath id="_clip7"><path d="M23.672,25.588c-0.003,0.019 -0.008,0.037 -0.011,0.056c-0.029,0.025 -0.055,0.058 -0.074,0.101c-0.502,1.098 -0.963,2.213 -1.389,3.343c-1.171,-0.192 -2.338,-0.399 -3.503,-0.623c-0.296,-0.091 -0.598,-0.16 -0.917,-0.179c-0.249,-0.014 -0.361,0.232 -0.277,0.4c0.005,0.087 0.052,0.172 0.158,0.216c1.68,0.707 3.389,1.336 5.126,1.887c0.134,0.042 0.303,0.008 0.359,-0.142c0.521,-1.411 0.837,-2.875 0.939,-4.373c0.045,-0.201 0.088,-0.402 0.129,-0.604c0.039,-0.192 -0.111,-0.302 -0.265,-0.302c-0.121,0 -0.244,0.069 -0.275,0.22Z"/></clipPath><g clip-path="url(#_clip7)"><path d="M17.137,26.165l7.095,-0.846l0.63,5.281l-7.096,0.845l-0.629,-5.28Z" style="fill:url(#_Linear8);fill-rule:nonzero;"/></g><clipPath id="_clip9"><path d="M26.261,30.002c-0.027,0.089 -0.058,0.177 -0.087,0.266l-1.103,1.653c-0.172,0.258 -0.345,0.517 -0.517,0.775c-0.257,0.385 -0.337,0.558 -0.831,0.48c-1.35,-0.212 -2.695,-0.462 -4.033,-0.745c-0.269,-0.057 -0.375,0.259 -0.247,0.435c0.018,0.067 0.066,0.126 0.153,0.159c0.13,0.048 0.26,0.095 0.391,0.142c0.292,0.114 0.588,0.215 0.888,0.306c0.128,0.042 0.258,0.081 0.387,0.121c1.19,0.493 2.347,1.08 3.649,1.223c0.118,0.013 0.245,-0.046 0.291,-0.161c0.55,-1.374 1.044,-2.767 1.484,-4.18c0.005,-0.018 0.009,-0.035 0.011,-0.053c0.021,-0.067 0.044,-0.135 0.065,-0.203c0.066,-0.216 -0.122,-0.385 -0.289,-0.385c-0.091,0 -0.176,0.049 -0.212,0.167Zm-1.528,4.239c0.023,-0.017 0.045,-0.034 0.066,-0.054c-0.007,0.02 -0.015,0.04 -0.023,0.06c-0.014,-0.002 -0.028,-0.004 -0.043,-0.006Z"/></clipPath><g clip-path="url(#_clip9)"><path d="M19.078,30.705l7.724,-0.92l0.568,4.766l-7.724,0.921l-0.568,-4.767Z" style="fill:url(#_Linear10);fill-rule:nonzero;"/></g><clipPath id="_clip11"><path d="M11.563,15.388c0.353,0.353 1.298,1.115 1.783,0.588c0.223,-0.243 0.039,-0.541 -0.236,-0.62c-0.409,-0.116 -0.79,-0.195 -1.176,-0.388c-0.015,-0.008 -0.029,-0.013 -0.043,-0.017c-0.05,-0.046 -0.103,-0.066 -0.153,-0.066c-0.201,0 -0.369,0.309 -0.175,0.503Z"/></clipPath><g clip-path="url(#_clip11)"><path d="M11.335,14.909l2.106,-0.251l0.209,1.751l-2.106,0.251l-0.209,-1.751Z" style="fill:url(#_Linear12);fill-rule:nonzero;"/></g><clipPath id="_clip13"><path d="M10.945,17.019c0.008,0.007 0.017,0.014 0.026,0.021c0.019,0.021 0.043,0.04 0.071,0.055c0.395,0.3 1.268,0.88 1.608,0.382c0.448,-0.655 -0.891,-0.804 -1.354,-0.876c-0.005,-0.004 -0.009,-0.007 -0.014,-0.011c-0.053,-0.042 -0.109,-0.06 -0.162,-0.06c-0.221,0 -0.398,0.313 -0.175,0.489Z"/></clipPath><g clip-path="url(#_clip13)"><path d="M10.688,16.555l2.345,-0.28l0.189,1.591l-2.344,0.279l-0.19,-1.59Z" style="fill:url(#_Linear14);fill-rule:nonzero;"/></g><clipPath id="_clip15"><path d="M10.25,17.865c-0.081,0.017 -0.14,0.05 -0.183,0.093c-0.196,0.082 -0.269,0.402 -0.017,0.502c0.007,0.003 0.014,0.006 0.021,0.009c0.026,0.039 0.055,0.076 0.09,0.108c0.301,0.277 0.705,0.478 1.086,0.616c0.172,0.062 0.313,-0.045 0.362,-0.179c0.06,-0.027 0.111,-0.076 0.144,-0.138c0.18,-0.331 -0.058,-0.675 -0.372,-0.801c-0.174,-0.07 -0.368,-0.108 -0.551,-0.144c-0.14,-0.028 -0.313,-0.076 -0.467,-0.076c-0.039,0 -0.077,0.003 -0.113,0.01Z"/></clipPath><g clip-path="url(#_clip15)"><path d="M9.746,17.922l2.083,-0.248l0.18,1.51l-2.083,0.249l-0.18,-1.511Z" style="fill:url(#_Linear16);fill-rule:nonzero;"/></g><clipPath id="_clip17"><path d="M9.49,19.581c-0.21,-0.02 -0.426,0.22 -0.256,0.43c0.29,0.358 0.598,0.701 0.928,1.023c0.249,0.243 0.642,0.482 0.942,0.157c0.3,-0.327 -0.036,-0.681 -0.278,-0.905c-0.319,-0.296 -0.684,-0.535 -1.074,-0.728c-0.042,-0.021 -0.081,-0.03 -0.118,-0.03c-0.055,0 -0.104,0.02 -0.144,0.053Z"/></clipPath><g clip-path="url(#_clip17)"><path d="M9.039,19.59l2.183,-0.261l0.251,2.108l-2.183,0.26l-0.251,-2.107Z" style="fill:url(#_Linear18);fill-rule:nonzero;"/></g><clipPath id="_clip19"><path d="M8.893,21.616c-0.024,0.014 -0.043,0.029 -0.059,0.046c-0.191,0.077 -0.262,0.397 -0.017,0.509c0.411,0.187 0.831,0.372 1.262,0.51c0.308,0.099 0.626,-0.032 0.62,-0.395c-0.005,-0.386 -0.399,-0.488 -0.703,-0.57c-0.247,-0.066 -0.515,-0.184 -0.771,-0.184c-0.114,0 -0.225,0.023 -0.332,0.084Z"/></clipPath><g clip-path="url(#_clip19)"><path d="M8.518,21.603l2.11,-0.252l0.165,1.38l-2.11,0.252l-0.165,-1.38Z" style="fill:url(#_Linear20);fill-rule:nonzero;"/></g><clipPath id="_clip21"><path d="M8.402,23.573c-0.016,0.008 -0.029,0.018 -0.042,0.028c-0.153,0.063 -0.254,0.243 -0.116,0.403c0.276,0.321 1.602,1.638 1.933,0.732c0.153,-0.421 -0.248,-0.672 -0.573,-0.813c-0.209,-0.091 -0.42,-0.181 -0.63,-0.272c-0.13,-0.055 -0.261,-0.122 -0.396,-0.122c-0.058,0 -0.117,0.012 -0.176,0.044Z"/></clipPath><g clip-path="url(#_clip21)"><path d="M8.075,23.582l2.138,-0.255l0.267,2.239l-2.138,0.255l-0.267,-2.239Z" style="fill:url(#_Linear22);fill-rule:nonzero;"/></g><clipPath id="_clip23"><path d="M7.945,25.725c-0.01,0.033 -0.021,0.066 -0.031,0.098c-0.143,0.097 -0.205,0.307 -0.023,0.427c0.325,0.214 0.649,0.475 0.999,0.647c0.271,0.133 0.624,0.125 0.803,-0.154c0.168,-0.263 0.028,-0.548 -0.216,-0.696c-0.346,-0.212 -0.794,-0.319 -1.173,-0.463c-0.033,-0.012 -0.069,-0.019 -0.107,-0.019c-0.107,0 -0.218,0.052 -0.252,0.16Z"/></clipPath><g clip-path="url(#_clip23)"><path d="M7.648,25.618l2.081,-0.248l0.191,1.604l-2.081,0.248l-0.191,-1.604Z" style="fill:url(#_Linear24);fill-rule:nonzero;"/></g><clipPath id="_clip25"><path d="M8.953,27.619c-0.293,0.006 -0.561,0.049 -0.819,0.166c-0.094,0.002 -0.163,0.049 -0.206,0.115c-0.19,0.168 0.021,0.475 0.265,0.441c0.447,0.071 1.72,0.282 1.477,-0.427c-0.091,-0.266 -0.392,-0.296 -0.637,-0.296c-0.027,0 -0.054,0.001 -0.08,0.001Z"/></clipPath><g clip-path="url(#_clip25)"><path d="M7.699,27.739l2.079,-0.248l0.135,1.132l-2.079,0.247l-0.135,-1.131Z" style="fill:url(#_Linear26);fill-rule:nonzero;"/></g><clipPath id="_clip27"><path d="M13.322,18.326c-0.008,0.009 -0.017,0.017 -0.025,0.028c-0.22,0.3 -1.038,1.803 -0.269,1.921c0.383,0.059 0.583,-0.461 0.681,-0.737c0.142,-0.401 0.188,-0.816 0.154,-1.238c-0.012,-0.159 -0.13,-0.232 -0.253,-0.232c-0.137,0 -0.281,0.092 -0.288,0.258Z"/></clipPath><g clip-path="url(#_clip27)"><path d="M12.03,18.239l1.807,-0.215l0.265,2.227l-1.806,0.216l-0.266,-2.228Z" style="fill:url(#_Linear28);fill-rule:nonzero;"/></g><clipPath id="_clip29"><path d="M12.391,21.76c-0.283,0.331 -0.475,0.727 -0.546,1.159c-0.046,0.273 -0.127,0.878 0.201,1.018c0.726,0.311 0.825,-1.494 0.868,-1.981c0.01,-0.032 0.012,-0.064 0.008,-0.095c0.01,-0.181 -0.14,-0.284 -0.285,-0.284c-0.108,0 -0.213,0.058 -0.246,0.183Z"/></clipPath><g clip-path="url(#_clip29)"><path d="M11.469,21.703l1.446,-0.172l0.317,2.663l-1.446,0.172l-0.317,-2.663Z" style="fill:url(#_Linear30);fill-rule:nonzero;"/></g><clipPath id="_clip31"><path d="M12.353,25.171c-0.012,0.001 -0.023,0.002 -0.034,0.003c-0.119,0.011 -0.221,0.114 -0.238,0.23c-0.001,0.012 -0.003,0.023 -0.005,0.034c-0.002,0.017 -0.001,0.035 -0.001,0.053c-0.179,0.351 -0.266,0.722 -0.29,1.124c-0.018,0.291 -0.1,0.909 0.354,0.894c0.399,-0.013 0.544,-0.589 0.569,-0.901c0.018,-0.224 -0.007,-0.447 -0.024,-0.67c-0.016,-0.214 0.039,-0.474 -0.081,-0.661c-0.047,-0.072 -0.139,-0.107 -0.223,-0.107c-0.009,0 -0.018,0 -0.027,0.001Z"/></clipPath><g clip-path="url(#_clip31)"><path d="M11.417,25.279l1.266,-0.151l0.277,2.318l-1.267,0.151l-0.276,-2.318Z" style="fill:url(#_Linear32);fill-rule:nonzero;"/></g><clipPath id="_clip33"><path d="M14.307,25.98c-0.005,0.006 -0.01,0.01 -0.014,0.017c-0.206,0.301 -0.28,0.628 -0.269,0.991c0.008,0.278 0.01,0.844 0.29,1.001c0.861,0.483 0.586,-1.651 0.531,-1.953c-0.029,-0.156 -0.157,-0.228 -0.281,-0.228c-0.114,0 -0.225,0.06 -0.257,0.172Z"/></clipPath><g clip-path="url(#_clip33)"><path d="M13.802,25.885l1.05,-0.125l0.323,2.712l-1.05,0.125l-0.323,-2.712Z" style="fill:url(#_Linear34);fill-rule:nonzero;"/></g><clipPath id="_clip35"><path d="M13.147,29.668c-0.196,0.427 -0.294,0.882 -0.274,1.352c0.013,0.296 0.047,0.847 0.428,0.912c0.389,0.068 0.568,-0.387 0.604,-0.692c0.054,-0.444 -0.104,-0.884 -0.115,-1.327c-0.003,-0.107 -0.056,-0.174 -0.127,-0.208c-0.034,-0.116 -0.157,-0.193 -0.279,-0.193c-0.094,0 -0.187,0.046 -0.237,0.156Z"/></clipPath><g clip-path="url(#_clip35)"><path d="M12.648,29.588l1.15,-0.137l0.298,2.5l-1.15,0.137l-0.298,-2.5Z" style="fill:url(#_Linear36);fill-rule:nonzero;"/></g><clipPath id="_clip37"><path d="M15.789,28.817c-0.043,0.016 -0.083,0.048 -0.116,0.101c-0.221,0.357 -0.341,0.74 -0.327,1.163c0.01,0.278 0.077,0.834 0.389,0.954c0.317,0.121 0.562,-0.251 0.611,-0.513c0.091,-0.493 -0.046,-1.064 -0.089,-1.557c-0.014,-0.159 -0.133,-0.232 -0.256,-0.232c-0.077,0 -0.156,0.029 -0.212,0.084Z"/></clipPath><g clip-path="url(#_clip37)"><path d="M15.173,28.822l1.105,-0.132l0.287,2.405l-1.106,0.132l-0.286,-2.405Z" style="fill:url(#_Linear38);fill-rule:nonzero;"/></g><clipPath id="_clip39"><path d="M15.526,32.867c-0.039,0.025 -0.074,0.062 -0.099,0.115c-0.174,0.376 -0.233,0.793 -0.148,1.201c0.065,0.313 0.237,0.811 0.599,0.887c0.377,0.08 0.606,-0.281 0.589,-0.614c-0.025,-0.521 -0.25,-1.083 -0.453,-1.555c-0.049,-0.114 -0.143,-0.162 -0.239,-0.162c-0.097,0 -0.195,0.049 -0.249,0.128Z"/></clipPath><g clip-path="url(#_clip39)"><path d="M15.079,32.81l1.212,-0.144l0.291,2.445l-1.212,0.145l-0.291,-2.446Z" style="fill:url(#_Linear40);fill-rule:nonzero;"/></g><clipPath id="_clip41"><path d="M17.808,32.158c-0.02,0.838 0.05,1.802 0.926,2.185c0.178,0.077 0.332,-0.044 0.379,-0.21c0.09,-0.322 -0.04,-0.602 -0.205,-0.875c-0.22,-0.363 -0.404,-0.724 -0.538,-1.129c-0.037,-0.111 -0.118,-0.161 -0.206,-0.167c-0.041,-0.018 -0.085,-0.027 -0.128,-0.027c-0.117,0 -0.224,0.069 -0.228,0.223Z"/></clipPath><g clip-path="url(#_clip41)"><path d="M17.621,31.97l1.344,-0.16l0.306,2.567l-1.344,0.161l-0.306,-2.568Z" style="fill:url(#_Linear42);fill-rule:nonzero;"/></g><clipPath id="_clip43"><path d="M12.712,10.025c-0.257,0.631 -0.107,1.249 0.126,1.865c0.323,0.849 0.684,1.687 1.038,2.523c0.688,1.622 1.433,3.215 2.309,4.744c0.056,0.096 0.167,0.122 0.269,0.1c0.152,0.005 0.315,-0.101 0.299,-0.297c-0.004,-0.049 -0.01,-0.097 -0.015,-0.145c0.126,-0.608 -0.08,-1.178 -0.341,-1.746c-0.067,-0.257 -0.137,-0.514 -0.208,-0.771c-0.265,-0.972 -0.47,-1.954 -0.583,-2.956c-0.081,-0.725 0.05,-1.697 -0.437,-2.303c-0.466,-0.579 -1.455,-0.85 -2.098,-1.156c-0.033,-0.015 -0.069,-0.023 -0.104,-0.023c-0.107,0 -0.215,0.065 -0.255,0.165Z"/></clipPath><g clip-path="url(#_clip43)"><path d="M12.367,9.919l3.46,-0.412l1.158,9.71l-3.461,0.413l-1.157,-9.711Z" style="fill:url(#_Linear44);fill-rule:nonzero;"/></g><clipPath id="_clip45"><path d="M29.826,9.425c-0.248,0.443 -0.298,0.945 -0.195,1.44c0.052,0.252 0.148,0.59 0.288,0.888c-0.035,0.017 -0.068,0.036 -0.101,0.055c-0.108,-0.135 -0.286,-0.176 -0.438,-0.256c-0.523,-0.276 -0.803,-0.818 -0.585,-1.393c0.124,-0.328 -0.376,-0.547 -0.501,-0.218c-0.164,0.434 -0.171,0.882 0.035,1.306c0.09,0.186 0.222,0.355 0.375,0.495c0.039,0.036 0.642,0.421 0.621,0.343c0.019,0.072 -0.166,0.481 -0.165,0.596c0,0.191 0.042,0.381 0.122,0.555c0.039,0.085 0.088,0.162 0.142,0.234c-0.041,-0.007 -0.082,-0.013 -0.124,-0.019c-0.064,-0.024 -0.13,-0.046 -0.2,-0.064c-0.067,-0.016 -0.123,-0.008 -0.168,0.014c-0.15,-0.018 -0.299,-0.037 -0.443,-0.061c-0.225,-0.038 -0.45,-0.08 -0.674,-0.126c0.167,-0.274 0.269,-0.577 0.285,-0.902c0.008,-0.16 -0.102,-0.263 -0.225,-0.295c-0.128,-0.085 -0.328,-0.078 -0.415,0.101c-0.15,0.304 -0.213,0.634 -0.198,0.97c-0.003,0.001 -0.005,0.002 -0.007,0.003c-0.285,-0.066 -0.568,-0.137 -0.851,-0.21c0.01,-0.015 0.018,-0.031 0.026,-0.049c0.151,-0.369 0.212,-0.755 0.185,-1.153c-0.02,-0.295 -0.404,-0.295 -0.513,-0.081c-0.02,0.031 -0.035,0.068 -0.042,0.112c-0.05,0.324 -0.1,0.648 -0.151,0.973c-0.003,0.024 -0.003,0.046 -0.001,0.068c-0.285,-0.076 -0.57,-0.152 -0.855,-0.227c0.312,-0.335 0.307,-0.809 0.246,-1.254c-0.037,-0.265 -0.36,-0.29 -0.49,-0.133c-0.038,0.025 -0.07,0.062 -0.093,0.113c-0.159,0.361 -0.227,0.739 -0.215,1.131c-0.268,-0.069 -0.538,-0.135 -0.808,-0.198c0.275,-0.331 0.315,-0.756 0.298,-1.184c0.001,-0.013 0,-0.025 -0.001,-0.037c-0.002,-0.035 -0.004,-0.069 -0.006,-0.103c-0.021,-0.351 -0.563,-0.285 -0.542,0.065c0,0.002 0.001,0.005 0.001,0.007c-0.163,0.354 -0.265,0.729 -0.302,1.118c0,0.004 0,0.008 0,0.011c-0.25,-0.052 -0.501,-0.1 -0.753,-0.142c0.165,-0.422 0.219,-0.872 0.152,-1.323c-0.042,-0.289 -0.425,-0.293 -0.522,-0.085c-0.003,0.005 -0.006,0.009 -0.009,0.015c-0.208,0.404 -0.28,0.859 -0.208,1.305c-0.303,-0.04 -0.607,-0.07 -0.913,-0.089c0.02,-0.057 0.035,-0.113 0.045,-0.166c0.073,-0.394 -0.089,-0.779 -0.091,-1.172c-0.002,-0.316 -0.443,-0.291 -0.527,-0.027c-0.01,0.013 -0.021,0.026 -0.029,0.042c-0.177,0.308 -0.273,0.649 -0.279,1.004c-0.001,0.045 -0.001,0.095 0.001,0.145c-0.551,-0.34 -1.304,-0.496 -1.862,-0.477c-1.368,0.046 -2.549,1.303 -2.304,2.568c0.01,0.067 0.023,0.135 0.04,0.204c0.454,1.792 3.387,2.111 4.396,0.677c0.355,-0.504 0.603,-1.301 0.471,-1.964c0.029,0.008 0.058,0.016 0.088,0.024c0.28,0.326 0.847,0.458 1.211,0.605c0.835,0.34 1.669,0.685 2.507,1.018c0.733,0.292 1.487,0.566 2.256,0.73c-0.288,0.009 -0.572,0.049 -0.864,0.136c-0.621,0.185 -1.187,0.507 -1.789,0.738c-0.673,0.258 -1.378,0.423 -2.095,0.49c-0.358,0.034 -0.929,-0.071 -1.156,0.295c-0.2,0.324 0.01,0.77 0.23,1.024c0.53,0.613 1.451,0.681 2.22,0.583c-0.478,0.478 -0.629,1.189 -0.079,1.754c0.693,0.713 1.7,1.125 2.649,1.356c1.582,0.385 3.174,0.232 4.768,0.078c0.974,-0.094 1.948,-0.187 2.921,-0.158c0.334,0.009 0.728,0.018 1.013,0.214c0.109,0.075 0.284,0.269 0.296,0.419c0.044,0.54 -0.475,0.456 -0.773,0.342c-0.515,-0.197 -0.917,-0.46 -1.482,-0.531c-0.424,-0.053 -0.853,-0.036 -1.276,0.03c-2.768,0.331 -5.241,2.397 -5.324,5.319c-0.035,1.221 0.386,2.682 1.467,3.38c0.572,0.37 1.241,0.386 1.899,0.354c0.625,-0.03 1.25,-0.072 1.875,-0.114c0.165,0.009 0.329,0.024 0.491,0.051c0.323,0.055 2.086,0.717 1.263,1.261c-0.248,0.164 -0.979,0.022 -1.239,-0.008c-0.314,-0.035 -0.625,-0.091 -0.936,-0.147c-0.703,-0.127 -1.402,-0.266 -2.119,-0.278c-0.209,-0.004 -0.447,-0.009 -0.686,0.003c-0.18,-0.002 -0.361,0.007 -0.546,0.032c-0.074,0.01 -0.128,0.042 -0.166,0.086c-0.071,0.024 -0.14,0.051 -0.205,0.084c-0.098,-0.003 -0.197,0.041 -0.252,0.152c-0.004,0.008 -0.008,0.016 -0.012,0.025c-0.394,0.344 -0.624,0.943 -0.836,1.393c-0.254,0.537 -0.475,1.863 -1.226,1.776c-0.755,-0.087 -1.548,-0.465 -2.27,-0.697c-0.829,-0.267 -1.658,-0.533 -2.487,-0.8c-0.085,-0.027 -0.162,-0.015 -0.224,0.02c-0.289,-0.039 -0.458,0.401 -0.152,0.518c0.952,0.361 1.894,0.745 2.825,1.156c0.496,0.219 0.989,0.446 1.479,0.68c0.347,0.166 0.736,0.452 1.113,0.524c0.811,0.157 0.889,-1.027 1.085,-1.572c0.314,-0.872 0.68,-1.722 1.085,-2.555c0.222,-0.165 0.499,-0.245 0.793,-0.278c1.458,0.003 2.785,0.84 4.23,1.016c0.57,0.07 1.223,0.036 1.65,-0.401c0.381,-0.39 0.688,-1.197 0.58,-1.741c-0.12,-0.599 -0.708,-0.816 -1.236,-0.949c-0.029,-0.007 -0.06,-0.013 -0.09,-0.02c0.54,-0.199 0.432,-1.039 0.455,-1.504c0.001,-0.031 -0.003,-0.059 -0.01,-0.086c0.041,-0.224 -0.294,-0.428 -0.493,-0.212c-0.419,0.454 -0.531,1.084 -0.341,1.664c0.007,0.023 0.02,0.044 0.036,0.064c-0.412,-0.076 -0.829,-0.125 -1.245,-0.183c0.169,-0.041 0.311,-0.18 0.387,-0.346c0.135,-0.293 0.133,-0.661 0.117,-0.979c0.089,-0.243 -0.274,-0.486 -0.481,-0.251c-0.284,0.322 -0.968,1.204 -0.34,1.528c-0.229,-0.036 -0.456,-0.079 -0.68,-0.134c-0.87,-0.215 -1.731,-0.648 -2.111,-1.506c-0.356,-0.805 -0.241,-1.767 0.246,-2.491c0.556,-0.827 1.459,-1.303 2.425,-1.451c-0.06,0.021 -0.114,0.053 -0.16,0.094c-0.155,-0.006 -0.307,0.098 -0.265,0.29c0.081,0.372 0.183,0.738 0.31,1.096c0.067,0.191 0.35,0.229 0.467,0.066c0.203,-0.283 0.437,-0.647 0.401,-1.013c-0.029,-0.295 -0.247,-0.531 -0.546,-0.559c-0.002,0 -0.004,0 -0.006,0c0.766,-0.08 1.56,0.041 2.244,0.356c0.612,0.281 0.902,0.844 1.644,0.673c0.64,-0.147 1.229,-0.548 1.643,-1.053c0.793,-0.97 0.861,-2.344 0.129,-3.369c-0.151,-0.211 -0.329,-0.387 -0.527,-0.533c0.995,-0.485 2.105,-1.803 1.546,-2.958c-0.635,-1.308 -2.65,-1.098 -3.826,-1.135c-0.792,-0.025 -1.622,-0.109 -2.311,-0.535c-0.565,-0.35 -0.762,-0.968 -1.177,-1.423c0.263,0.015 0.534,-0.017 0.733,-0.135c0.128,-0.076 0.221,-0.191 0.29,-0.326c0.285,0.086 0.563,0.185 0.812,0.25c0.589,0.155 1.157,0.303 1.764,0.169c0.34,-0.074 0.279,-0.617 -0.064,-0.542c-0.678,0.149 -1.346,-0.095 -1.998,-0.267c-0.12,-0.031 -0.242,-0.068 -0.366,-0.105c0.015,-0.099 0.023,-0.197 0.027,-0.289c0.019,-0.005 0.039,-0.008 0.058,-0.012c0.188,-0.044 0.375,-0.094 0.56,-0.15c0.486,-0.147 0.95,-0.345 1.401,-0.577c0.31,-0.16 0.107,-0.667 -0.206,-0.506c-0.421,0.217 -0.853,0.406 -1.305,0.548c-0.191,0.061 -0.385,0.11 -0.58,0.154c-0.08,-0.221 -0.222,-0.39 -0.403,-0.508c0.298,-0.606 0.805,-1.17 1.167,-1.69c0.2,-0.287 -0.228,-0.627 -0.429,-0.337c-0.404,0.58 -0.923,1.178 -1.244,1.838c-0.166,-0.028 -0.343,-0.031 -0.521,-0.01c-0.137,-0.267 -0.233,-0.627 -0.276,-0.823c-0.09,-0.408 -0.052,-0.775 0.152,-1.141c0.114,-0.203 -0.066,-0.365 -0.251,-0.365c-0.095,0 -0.191,0.043 -0.249,0.147Zm-12.177,4.416c-0.023,-0.072 -0.033,-0.142 -0.038,-0.21c0.047,-0.121 0.127,-0.238 0.245,-0.345c0.225,-0.202 0.581,-0.339 0.887,-0.295c0.388,0.056 0.424,0.399 0.384,0.734c-0.056,0.471 -0.387,0.71 -0.727,0.71c-0.308,0 -0.624,-0.196 -0.751,-0.594Zm-0.804,0.509c-0.033,-0.027 -0.063,-0.055 -0.092,-0.083c0.027,0.008 0.055,0.011 0.082,0.011c0.002,0.009 0.004,0.019 0.006,0.028c0.004,0.019 0.01,0.036 0.016,0.052c-0.004,-0.003 -0.008,-0.005 -0.012,-0.008Zm11.23,5.71c0.123,-0.012 0.245,-0.032 0.364,-0.057c0.956,-0.103 1.876,-0.821 1.987,-1.807c0.082,-0.724 -0.318,-1.348 -0.968,-1.645c-0.164,-0.075 -0.345,-0.146 -0.532,-0.197c0.32,-0.242 0.62,-0.581 0.879,-0.818c0.005,0.025 0.01,0.051 0.016,0.075c0.217,0.945 0.475,1.911 1.149,2.643c0.581,0.632 1.288,0.864 2.131,0.846c0.289,-0.006 0.582,-0.039 0.87,0c0.29,0.039 0.526,0.168 0.797,0.268c0.354,0.133 0.65,0.156 0.976,-0.047c0.184,-0.115 0.114,-0.386 -0.055,-0.468c-0.262,-0.057 -0.275,-0.163 -0.038,-0.318c0.045,-0.132 0.121,-0.205 0.226,-0.222c0.02,0.001 0.042,0.002 0.063,0.004c0,-0.003 0,-0.005 0,-0.008c0.023,0.001 0.047,0.003 0.073,0.009c0.305,-0.017 0.316,-0.515 0.008,-0.541c-0.262,-0.022 -0.524,-0.044 -0.786,-0.065c-0.055,-0.005 -0.137,-0.005 -0.23,-0.004c-0.228,0.001 -0.521,0.002 -0.621,-0.071c-0.266,-0.192 0.255,-0.308 0.423,-0.359c0.193,-0.058 0.387,-0.105 0.583,-0.145c0.008,0.001 0.016,0.001 0.024,0.002c0.528,0.041 1.427,0.089 1.474,0.784c0.026,0.393 -0.365,0.772 -0.555,1.084c-0.173,0.283 -0.277,0.554 -0.273,0.877c-0.922,-0.431 -2.103,-0.41 -3.062,-0.257c-0.505,0.08 -0.943,0.246 -1.454,0.142c-0.447,-0.09 -0.789,-0.031 -1.231,0.073c-0.638,0.151 -1.291,0.228 -1.944,0.228c-0.098,0 -0.196,-0.002 -0.294,-0.006Zm0.561,-4.268c0.024,-0.004 0.049,-0.008 0.073,-0.012c-0.015,0.015 -0.03,0.029 -0.045,0.043c-0.008,-0.011 -0.017,-0.021 -0.028,-0.031Zm-1.733,0.853c0.682,-0.196 -0.122,0.123 -0.271,0.193c-0.194,0.09 -0.39,0.175 -0.587,0.256c0.272,-0.187 0.551,-0.361 0.858,-0.449Zm1.221,1.953c-0.23,-0.344 0.056,-0.763 0.47,-0.704c0.101,0.014 0.205,0.047 0.3,0.097c0.147,0.268 0.05,0.587 -0.137,0.748c-0.078,0.038 -0.16,0.073 -0.244,0.103c-0.005,0.001 -0.009,0.001 -0.013,0.001c-0.126,0 -0.26,-0.07 -0.376,-0.245Zm-3.49,0.551c-0.76,-0.569 0.258,-0.943 0.712,-1.019c0.27,-0.045 0.517,-0.093 0.758,-0.185c-0.007,0.017 -0.015,0.034 -0.022,0.052c-0.238,0.625 -0.05,1.369 0.506,1.754c0.126,0.087 0.262,0.154 0.403,0.204c-0.806,-0.12 -1.731,-0.338 -2.357,-0.806Zm8.081,3.611c0.019,0.005 0.038,0.008 0.058,0.012c-0.253,-0.011 -0.507,-0.016 -0.76,-0.01c0.234,-0.011 0.469,-0.012 0.702,-0.002Z"/></clipPath><g clip-path="url(#_clip45)"><path d="M15.396,10.708l22.008,-2.623l3.196,26.816l-22.008,2.623l-3.196,-26.816Z" style="fill:url(#_Linear46);fill-rule:nonzero;"/></g><clipPath id="_clip47"><path d="M30.252,27.711l-0.418,0.399c-0.107,0.102 -0.225,0.199 -0.306,0.323c-0.156,0.237 -0.142,0.598 0.137,0.741c0.613,0.316 0.964,-0.626 0.983,-1.069c0,-0.014 -0.001,-0.028 -0.001,-0.042c0.053,-0.092 0.059,-0.202 -0.013,-0.299c-0.049,-0.067 -0.141,-0.11 -0.23,-0.11c-0.056,0 -0.111,0.017 -0.152,0.057Z"/></clipPath><g clip-path="url(#_clip47)"><path d="M29.238,27.786l1.439,-0.171l0.214,1.802l-1.438,0.171l-0.215,-1.802Z" style="fill:url(#_Linear48);fill-rule:nonzero;"/></g><clipPath id="_clip49"><path d="M34.225,25.399c-0.031,0.007 -0.059,0.019 -0.085,0.032c-0.072,0.016 -0.137,0.064 -0.172,0.155c-0.218,0.569 -0.141,1.181 0.22,1.673c0.137,0.188 0.458,0.109 0.487,-0.123c0.054,-0.426 0.393,-0.762 0.301,-1.217c-0.059,-0.294 -0.323,-0.536 -0.62,-0.536c-0.043,0 -0.087,0.005 -0.131,0.016Z"/></clipPath><g clip-path="url(#_clip49)"><path d="M33.667,25.46l1.274,-0.152l0.243,2.036l-1.274,0.152l-0.243,-2.036Z" style="fill:url(#_Linear50);fill-rule:nonzero;"/></g><clipPath id="_clip51"><path d="M32.756,24.375c-0.122,-0.002 -0.241,0.067 -0.26,0.224c-0.054,0.458 -0.009,0.902 0.129,1.342c0.059,0.188 0.359,0.232 0.467,0.065c0.229,-0.353 0.58,-0.839 0.473,-1.284c-0.061,-0.254 -0.297,-0.43 -0.538,-0.43c-0.093,0 -0.186,0.026 -0.271,0.083Z"/></clipPath><g clip-path="url(#_clip51)"><path d="M32.351,24.362l1.208,-0.144l0.222,1.86l-1.208,0.144l-0.222,-1.86Z" style="fill:url(#_Linear52);fill-rule:nonzero;"/></g><clipPath id="_clip53"><path d="M20.192,19.484c-0.519,0.359 -0.838,1.196 -1.044,1.763c-0.238,0.656 -0.276,1.435 -0.652,2.03c-0.585,-0.258 -1.179,-0.493 -1.785,-0.696c-0.636,-0.212 -1.335,-0.473 -2.002,-0.556c-0.96,-0.12 -0.824,1.138 -0.589,1.958c-0.02,0.19 -0.017,0.383 0.008,0.571c0.024,0.183 0.206,0.278 0.374,0.22c0.394,-0.136 0.576,-0.452 0.568,-0.858c-0.002,-0.131 -0.08,-0.204 -0.175,-0.225c-0.01,-0.086 -0.022,-0.171 -0.032,-0.256c0.011,-0.018 0.022,-0.036 0.034,-0.053c0.139,-0.103 0.265,-0.096 0.379,0.023c0.34,0.101 0.666,0.31 1.01,0.423c0.806,0.265 1.633,0.474 2.449,0.706c0.608,0.173 1.053,0.265 1.261,-0.423c0.215,-0.713 0.269,-1.48 0.428,-2.207c0.09,-0.411 0.202,-0.817 0.371,-1.204c0.11,-0.252 0.283,-0.495 0.295,-0.776c0.017,-0.358 -0.231,-0.564 -0.518,-0.564c-0.126,0 -0.259,0.04 -0.38,0.124Z"/></clipPath><g clip-path="url(#_clip53)"><path d="M13.53,20.185l7.543,-0.899l0.63,5.285l-7.543,0.899l-0.63,-5.285Z" style="fill:url(#_Linear54);fill-rule:nonzero;"/></g><clipPath id="_clip55"><path d="M21.377,21.588c-0.818,1.044 -1.368,2.246 -1.624,3.542c-1.186,-0.356 -2.399,-0.533 -3.638,-0.53c-0.02,-0.011 -0.04,-0.021 -0.061,-0.033c-0.115,-0.067 -0.218,-0.035 -0.284,0.039c-0.314,0.041 -0.242,0.547 0.096,0.538c0.015,0 0.031,0 0.046,0c0.013,0 0.027,0 0.041,0c0.037,0.041 0.091,0.071 0.166,0.077c0,0 0.001,0 0.002,0c1.407,0.702 3.035,0.746 4.476,1.369c0.172,0.074 0.34,-0.039 0.379,-0.209c0.344,-1.505 0.806,-3.035 0.886,-4.583c0.009,-0.176 -0.134,-0.316 -0.284,-0.316c-0.071,0 -0.143,0.032 -0.201,0.106Z"/></clipPath><g clip-path="url(#_clip55)"><path d="M15.169,22.238l6.68,-0.796l0.599,5.022l-6.681,0.796l-0.598,-5.022Z" style="fill:url(#_Linear56);fill-rule:nonzero;"/></g><clipPath id="_clip57"><path d="M22.859,23.169c-0.044,0.056 -0.083,0.115 -0.121,0.174c-0.038,0.025 -0.072,0.06 -0.096,0.109c-0.588,1.184 -1.176,2.368 -1.764,3.552c-1.286,-0.356 -2.597,-0.519 -3.933,-0.486c-0.016,-0.003 -0.033,-0.007 -0.05,-0.01c-0.063,-0.014 -0.118,-0.006 -0.162,0.015c-0.286,0.017 -0.289,0.407 -0.071,0.521c0.941,0.49 2,0.781 2.997,1.135c0.514,0.183 1.039,0.427 1.569,0.552c0.254,0.06 0.518,0.074 0.715,-0.13c0.238,-0.248 0.232,-0.709 0.3,-1.021c0.118,-0.544 0.27,-1.08 0.456,-1.605c0.304,-0.857 0.863,-1.729 0.646,-2.67c-0.033,-0.14 -0.159,-0.24 -0.286,-0.24c-0.072,0 -0.144,0.031 -0.2,0.104Z"/></clipPath><g clip-path="url(#_clip57)"><path d="M16.082,23.888l7.333,-0.874l0.657,5.514l-7.333,0.874l-0.657,-5.514Z" style="fill:url(#_Linear58);fill-rule:nonzero;"/></g><clipPath id="_clip59"><path d="M24.895,27.715c-0.053,0.168 -0.105,0.336 -0.159,0.504c-0.291,0.575 -0.583,1.149 -0.874,1.724c-0.153,0.303 -0.285,0.659 -0.476,0.94c-0.121,0.177 -0.111,0.235 -0.349,0.225c-0.153,-0.006 -0.354,-0.09 -0.501,-0.124c-1.251,-0.29 -2.525,-0.449 -3.807,-0.497c-0.048,-0.013 -0.093,-0.013 -0.135,-0.005c-0.013,0 -0.026,-0.001 -0.038,-0.001c-0.123,-0.06 -0.229,-0.02 -0.296,0.06c-0.174,0.14 -0.167,0.469 0.106,0.476c0.016,0 0.032,0.001 0.047,0.002c0.825,0.41 1.654,0.808 2.547,1.049c0.968,0.262 1.973,0.36 2.923,0.694c0.192,0.068 0.404,-0.066 0.379,-0.283c-0.001,-0.012 -0.002,-0.024 -0.003,-0.037c0.035,-0.026 0.065,-0.061 0.083,-0.105c0.483,-1.157 0.809,-2.362 0.978,-3.599c0.05,-0.166 0.099,-0.332 0.147,-0.499c0.03,-0.106 -0.003,-0.186 -0.065,-0.236c0.004,-0.046 0.01,-0.092 0.013,-0.138c0.014,-0.18 -0.155,-0.316 -0.308,-0.316c-0.09,0 -0.175,0.048 -0.212,0.166Zm-1.597,3.978c0.017,-0.003 0.033,-0.008 0.05,-0.011c-0.004,0.006 -0.007,0.013 -0.011,0.02c0,0 0,0.001 0,0.001c-0.013,-0.004 -0.026,-0.007 -0.039,-0.01Z"/></clipPath><g clip-path="url(#_clip59)"><path d="M17.783,28.411l7.639,-0.911l0.607,5.097l-7.638,0.91l-0.608,-5.096Z" style="fill:url(#_Linear60);fill-rule:nonzero;"/></g><clipPath id="_clip61"><path d="M27.594,32.972c0.642,0.38 1.309,0.701 2.003,0.968c-0.895,0.609 -1.79,1.218 -2.685,1.826c-0.13,0.089 -0.128,0.249 -0.058,0.364c-0.041,0.237 0.297,0.449 0.485,0.215c0.255,-0.318 0.654,-0.447 1.016,-0.604c0.41,-0.178 0.822,-0.351 1.237,-0.518c0.798,-0.322 1.603,-0.621 2.416,-0.902c0.279,-0.097 0.174,-0.461 -0.062,-0.523c-1.402,-0.369 -2.78,-0.812 -4.135,-1.327c-0.04,-0.015 -0.079,-0.022 -0.114,-0.022c-0.259,-0.001 -0.364,0.369 -0.103,0.523Z"/></clipPath><g clip-path="url(#_clip61)"><path d="M26.361,32.577l5.65,-0.673l0.481,4.038l-5.65,0.674l-0.481,-4.039Z" style="fill:url(#_Linear62);fill-rule:nonzero;"/></g></g><path d="M22.632,5.095c0.573,0.018 1.132,0.034 1.709,0.052c0.047,-0.767 0.093,-1.514 0.141,-2.287c-1.551,-0.048 -3.074,-0.144 -4.595,0.201c0.166,0.938 0.329,1.855 0.493,2.775c-0.96,0.216 -1.89,0.426 -2.842,0.641c-0.225,-0.766 -0.45,-1.534 -0.685,-2.339c0.645,-0.145 1.269,-0.286 1.892,-0.427c0.103,0.453 0.207,0.914 0.313,1.385c-0.206,0.047 -0.394,0.089 -0.621,0.14c-0.063,-0.28 -0.124,-0.55 -0.182,-0.806c-0.219,0.049 -0.399,0.09 -0.553,0.125c0.097,0.428 0.189,0.836 0.28,1.237c0.582,-0.131 1.128,-0.254 1.702,-0.384c-0.17,-0.752 -0.335,-1.483 -0.503,-2.229c-1.486,0.34 -2.973,0.654 -4.359,1.374c0.4,0.855 0.795,1.697 1.187,2.535c-0.866,0.466 -1.71,0.919 -2.568,1.381c-0.417,-0.685 -0.836,-1.374 -1.268,-2.085c0.581,-0.325 1.14,-0.637 1.715,-0.958c0.233,0.447 0.451,0.868 0.677,1.303c-0.194,0.104 -0.369,0.198 -0.559,0.3c-0.145,-0.256 -0.282,-0.498 -0.425,-0.75c-0.182,0.105 -0.344,0.197 -0.518,0.297c0.222,0.382 0.434,0.749 0.65,1.121c0.506,-0.272 0.994,-0.534 1.505,-0.81c-0.341,-0.683 -0.678,-1.359 -1.022,-2.05c-1.37,0.733 -2.735,1.414 -3.879,2.47c0.611,0.725 1.211,1.438 1.803,2.141c-0.714,0.672 -1.413,1.33 -2.124,1.999c-0.58,-0.555 -1.164,-1.112 -1.765,-1.687c0.48,-0.466 0.939,-0.912 1.41,-1.369c0.341,0.372 0.661,0.722 0.992,1.084c-0.163,0.153 -0.308,0.289 -0.463,0.436c-0.208,-0.211 -0.403,-0.409 -0.606,-0.616c-0.148,0.147 -0.28,0.278 -0.424,0.419c0.315,0.314 0.615,0.614 0.919,0.917c0.421,-0.397 0.829,-0.781 1.245,-1.173c-0.51,-0.576 -1.007,-1.138 -1.517,-1.714c-1.13,1.055 -2.273,2.069 -3.109,3.389c0.777,0.542 1.545,1.077 2.318,1.616c-0.552,0.819 -1.085,1.613 -1.631,2.424c-0.622,-0.34 -1.333,-0.729 -2.068,-1.131c0.342,-0.57 0.674,-1.126 0.976,-1.631c0.436,0.262 0.842,0.507 1.245,0.75c-0.104,0.17 -0.209,0.342 -0.318,0.522c-0.242,-0.144 -0.482,-0.288 -0.732,-0.437c-0.108,0.181 -0.203,0.342 -0.305,0.516c0.381,0.219 0.749,0.432 1.062,0.612c0.326,-0.482 0.64,-0.948 0.959,-1.421c-0.635,-0.42 -1.262,-0.835 -1.905,-1.262c-0.818,1.313 -1.661,2.587 -2.126,4.079c0.888,0.322 1.765,0.639 2.632,0.953c-0.282,0.938 -0.561,1.862 -0.841,2.792c-0.79,-0.192 -1.569,-0.382 -2.371,-0.578c0.182,-0.639 0.357,-1.257 0.537,-1.89c0.482,0.153 0.94,0.298 1.403,0.445c-0.068,0.219 -0.128,0.41 -0.189,0.607c-0.288,-0.081 -0.551,-0.155 -0.826,-0.232c-0.056,0.196 -0.106,0.375 -0.163,0.575c0.43,0.115 0.844,0.225 1.256,0.335c0.168,-0.56 0.328,-1.091 0.492,-1.636c-0.722,-0.243 -1.433,-0.481 -2.169,-0.728c-0.454,1.477 -0.935,2.929 -0.999,4.49c0.95,0.082 1.875,0.161 2.787,0.24c-0.03,0.991 -0.059,1.948 -0.089,2.914c-0.809,0.018 -1.609,0.036 -2.439,0.054c0.01,-0.67 0.02,-1.31 0.03,-1.964c0.509,0.023 0.981,0.044 1.468,0.066c-0.009,0.23 -0.017,0.43 -0.025,0.636c-0.294,-0.003 -0.567,-0.007 -0.86,-0.011c0.001,0.206 0.001,0.396 0.002,0.599c0.449,0 0.866,-0.001 1.293,-0.001c0.017,-0.577 0.034,-1.136 0.051,-1.71c-0.77,-0.047 -1.518,-0.093 -2.285,-0.139c-0.051,1.552 -0.145,3.074 0.2,4.594c0.936,-0.166 1.847,-0.329 2.774,-0.494c0.215,0.953 0.426,1.889 0.642,2.844c-0.769,0.224 -1.537,0.449 -2.34,0.684c-0.147,-0.649 -0.288,-1.273 -0.429,-1.899c0.453,-0.102 0.91,-0.205 1.382,-0.312c0.046,0.206 0.09,0.399 0.141,0.624c-0.277,0.062 -0.542,0.122 -0.808,0.182c0.048,0.212 0.089,0.392 0.125,0.555c0.429,-0.096 0.841,-0.189 1.25,-0.282c-0.131,-0.579 -0.253,-1.12 -0.382,-1.695c-0.747,0.169 -1.478,0.333 -2.235,0.504c0.335,1.474 0.649,2.965 1.371,4.354c0.859,-0.402 1.701,-0.796 2.536,-1.187c0.467,0.869 0.921,1.713 1.38,2.568c-0.689,0.419 -1.378,0.838 -2.086,1.268c-0.325,-0.583 -0.637,-1.143 -0.957,-1.716c0.45,-0.234 0.871,-0.452 1.304,-0.677c0.105,0.196 0.199,0.373 0.298,0.56c-0.256,0.146 -0.498,0.284 -0.748,0.426c0.106,0.185 0.198,0.346 0.297,0.517c0.383,-0.223 0.75,-0.435 1.121,-0.651c-0.274,-0.508 -0.537,-0.996 -0.81,-1.503c-0.685,0.34 -1.356,0.674 -2.049,1.019c0.725,1.367 1.412,2.729 2.467,3.881c0.723,-0.608 1.439,-1.211 2.143,-1.803c0.674,0.717 1.328,1.412 1.997,2.123c-0.55,0.577 -1.108,1.161 -1.684,1.766c-0.462,-0.475 -0.909,-0.935 -1.37,-1.409c0.368,-0.338 0.717,-0.659 1.083,-0.995c0.152,0.164 0.291,0.314 0.435,0.469c-0.214,0.208 -0.409,0.399 -0.616,0.601c0.148,0.148 0.283,0.283 0.423,0.423c0.318,-0.319 0.617,-0.619 0.914,-0.917c-0.4,-0.425 -0.781,-0.829 -1.172,-1.245c-0.572,0.506 -1.135,1.004 -1.714,1.516c1.053,1.13 2.07,2.278 3.389,3.11c0.545,-0.782 1.077,-1.546 1.614,-2.316c0.818,0.549 1.616,1.085 2.426,1.629c-0.347,0.633 -0.735,1.341 -1.132,2.067c-0.577,-0.345 -1.128,-0.674 -1.644,-0.983c0.264,-0.431 0.512,-0.837 0.768,-1.254c0.165,0.111 0.333,0.223 0.512,0.343c-0.138,0.232 -0.281,0.471 -0.432,0.724c0.183,0.107 0.347,0.203 0.518,0.302c0.222,-0.385 0.431,-0.748 0.612,-1.063c-0.478,-0.322 -0.944,-0.636 -1.421,-0.957c-0.422,0.637 -0.839,1.268 -1.263,1.908c1.319,0.821 2.593,1.663 4.079,2.124c0.324,-0.897 0.641,-1.772 0.952,-2.632c0.942,0.284 1.861,0.561 2.793,0.842c-0.192,0.787 -0.383,1.569 -0.579,2.372c-0.648,-0.185 -1.264,-0.361 -1.89,-0.54c0.154,-0.485 0.298,-0.938 0.444,-1.401c0.214,0.066 0.405,0.126 0.61,0.189c-0.081,0.282 -0.155,0.544 -0.236,0.825c0.2,0.056 0.383,0.107 0.579,0.161c0.115,-0.432 0.224,-0.841 0.334,-1.253c-0.555,-0.167 -1.086,-0.327 -1.637,-0.493c-0.242,0.722 -0.482,1.438 -0.728,2.172c1.483,0.45 2.93,0.935 4.49,0.997c0.081,-0.944 0.161,-1.87 0.24,-2.787c0.987,0.03 1.946,0.059 2.914,0.088c0.018,0.805 0.036,1.606 0.055,2.439c-0.665,-0.01 -1.305,-0.019 -1.964,-0.028c0.023,-0.507 0.044,-0.979 0.065,-1.468c0.226,0.008 0.426,0.015 0.637,0.023c-0.004,0.292 -0.008,0.565 -0.011,0.859c0.203,0 0.394,0 0.599,0c-0.001,-0.447 -0.001,-0.864 -0.001,-1.293c-0.575,-0.017 -1.135,-0.034 -1.71,-0.051c-0.047,0.768 -0.093,1.515 -0.14,2.286c1.551,0.048 3.074,0.146 4.594,-0.201c-0.167,-0.94 -0.329,-1.856 -0.492,-2.774c0.962,-0.217 1.892,-0.427 2.842,-0.642c0.224,0.768 0.449,1.536 0.684,2.34c-0.647,0.146 -1.271,0.287 -1.9,0.429c-0.102,-0.452 -0.205,-0.909 -0.312,-1.382c0.205,-0.046 0.399,-0.09 0.631,-0.142c0.062,0.277 0.123,0.548 0.181,0.801c0.218,-0.049 0.398,-0.09 0.55,-0.124c-0.097,-0.43 -0.189,-0.837 -0.281,-1.244c-0.577,0.13 -1.119,0.252 -1.695,0.382c0.17,0.75 0.336,1.486 0.505,2.238c1.48,-0.341 2.967,-0.653 4.352,-1.374c-0.401,-0.855 -0.795,-1.698 -1.187,-2.535c0.867,-0.466 1.711,-0.919 2.569,-1.38c0.416,0.685 0.835,1.375 1.267,2.085c-0.581,0.325 -1.141,0.637 -1.715,0.957c-0.233,-0.448 -0.452,-0.868 -0.678,-1.302c0.195,-0.105 0.371,-0.199 0.56,-0.301c0.145,0.256 0.283,0.498 0.426,0.75c0.182,-0.105 0.343,-0.197 0.517,-0.297c-0.222,-0.382 -0.435,-0.749 -0.65,-1.121c-0.507,0.273 -0.995,0.536 -1.504,0.81c0.341,0.686 0.678,1.362 1.021,2.051c1.371,-0.734 2.736,-1.415 3.879,-2.471c-0.612,-0.726 -1.212,-1.438 -1.803,-2.141c0.715,-0.673 1.415,-1.331 2.124,-1.998c0.581,0.555 1.165,1.113 1.766,1.686c-0.482,0.467 -0.942,0.914 -1.411,1.369c-0.341,-0.373 -0.661,-0.723 -0.992,-1.084c0.163,-0.153 0.308,-0.29 0.464,-0.436c0.207,0.212 0.402,0.41 0.605,0.616c0.149,-0.147 0.281,-0.277 0.424,-0.419c-0.315,-0.314 -0.616,-0.614 -0.919,-0.916c-0.421,0.396 -0.829,0.78 -1.244,1.172c0.509,0.576 1.006,1.138 1.517,1.716c1.128,-1.058 2.273,-2.07 3.108,-3.39c-0.773,-0.54 -1.538,-1.073 -2.317,-1.617c0.545,-0.81 1.081,-1.608 1.63,-2.424c0.622,0.34 1.333,0.729 2.068,1.131c-0.341,0.57 -0.674,1.126 -0.976,1.631c-0.435,-0.263 -0.841,-0.509 -1.257,-0.762c0.108,-0.163 0.218,-0.332 0.334,-0.507c0.237,0.142 0.477,0.285 0.729,0.435c0.107,-0.182 0.201,-0.343 0.304,-0.516c-0.381,-0.22 -0.749,-0.432 -1.058,-0.61c-0.327,0.481 -0.643,0.946 -0.963,1.418c0.635,0.421 1.262,0.836 1.905,1.262c0.818,-1.312 1.66,-2.586 2.126,-4.079c-0.888,-0.321 -1.764,-0.638 -2.633,-0.952c0.283,-0.939 0.562,-1.862 0.843,-2.793c0.789,0.193 1.567,0.382 2.37,0.578c-0.181,0.639 -0.357,1.257 -0.537,1.891c-0.482,-0.153 -0.939,-0.298 -1.402,-0.445c0.067,-0.218 0.126,-0.41 0.187,-0.609c0.289,0.082 0.551,0.157 0.827,0.235c0.055,-0.197 0.106,-0.375 0.163,-0.576c-0.43,-0.115 -0.843,-0.225 -1.256,-0.335c-0.168,0.558 -0.328,1.09 -0.492,1.636c0.726,0.243 1.441,0.483 2.173,0.728c0.447,-1.488 0.936,-2.934 0.994,-4.491c-0.948,-0.081 -1.873,-0.161 -2.786,-0.239c0.03,-0.991 0.059,-1.948 0.089,-2.915c0.809,-0.017 1.609,-0.035 2.439,-0.054c-0.01,0.67 -0.02,1.31 -0.03,1.965c-0.509,-0.023 -0.981,-0.045 -1.467,-0.067c0.008,-0.229 0.016,-0.429 0.023,-0.636c0.295,0.004 0.568,0.007 0.861,0.011c-0.001,-0.205 -0.001,-0.395 -0.002,-0.599c-0.448,0.001 -0.865,0.001 -1.292,0.002c-0.018,0.576 -0.035,1.136 -0.052,1.709c0.771,0.047 1.518,0.093 2.285,0.14c0.053,-1.552 0.144,-3.075 -0.199,-4.595c-0.936,0.167 -1.847,0.329 -2.775,0.494c-0.215,-0.952 -0.426,-1.888 -0.641,-2.843c0.767,-0.224 1.536,-0.449 2.339,-0.684c0.146,0.647 0.287,1.271 0.429,1.899c-0.452,0.102 -0.909,0.205 -1.381,0.312c-0.047,-0.205 -0.09,-0.398 -0.141,-0.624c0.275,-0.062 0.54,-0.122 0.8,-0.18c-0.049,-0.218 -0.091,-0.402 -0.126,-0.556c-0.431,0.097 -0.838,0.189 -1.242,0.28c0.131,0.579 0.253,1.121 0.383,1.695c0.746,-0.168 1.477,-0.333 2.234,-0.504c-0.333,-1.474 -0.651,-2.964 -1.37,-4.353c-0.86,0.402 -1.702,0.796 -2.537,1.186c-0.467,-0.868 -0.921,-1.713 -1.38,-2.568c0.689,-0.419 1.379,-0.837 2.086,-1.267c0.325,0.583 0.638,1.143 0.957,1.716c-0.451,0.233 -0.871,0.452 -1.304,0.676c-0.105,-0.197 -0.199,-0.373 -0.298,-0.56c0.257,-0.146 0.499,-0.283 0.749,-0.425c-0.107,-0.186 -0.2,-0.347 -0.298,-0.517c-0.384,0.223 -0.75,0.435 -1.12,0.65c0.274,0.51 0.537,0.998 0.809,1.504c0.686,-0.341 1.357,-0.674 2.025,-1.007c-0.337,-0.947 -1.833,-3.316 -2.452,-3.886c-0.714,0.601 -1.43,1.204 -2.134,1.796c-0.674,-0.718 -1.328,-1.413 -1.997,-2.124c0.55,-0.577 1.108,-1.161 1.685,-1.765c0.461,0.474 0.908,0.934 1.37,1.409c-0.372,0.34 -0.725,0.664 -1.085,0.994c-0.159,-0.17 -0.294,-0.316 -0.435,-0.467c0.214,-0.209 0.409,-0.4 0.616,-0.602c-0.147,-0.148 -0.281,-0.283 -0.421,-0.424c-0.318,0.319 -0.618,0.619 -0.915,0.917c0.4,0.425 0.78,0.829 1.172,1.245c0.572,-0.506 1.135,-1.003 1.715,-1.515c-1.054,-1.13 -2.07,-2.278 -3.39,-3.11c-0.544,0.781 -1.077,1.546 -1.614,2.316c-0.817,-0.548 -1.615,-1.084 -2.427,-1.628c0.347,-0.633 0.735,-1.342 1.133,-2.069c0.575,0.344 1.127,0.674 1.652,0.988c-0.263,0.43 -0.512,0.836 -0.757,1.237c-0.177,-0.111 -0.351,-0.22 -0.53,-0.333c0.142,-0.238 0.282,-0.472 0.431,-0.721c-0.18,-0.106 -0.345,-0.202 -0.518,-0.303c-0.222,0.387 -0.433,0.754 -0.616,1.071c0.485,0.327 0.946,0.638 1.42,0.957c0.426,-0.643 0.844,-1.274 1.27,-1.916c-1.319,-0.818 -2.593,-1.662 -4.08,-2.124c-0.324,0.894 -0.641,1.771 -0.953,2.633c-0.939,-0.283 -1.857,-0.56 -2.792,-0.842c0.191,-0.784 0.382,-1.568 0.578,-2.372c0.646,0.184 1.263,0.36 1.89,0.538c-0.153,0.484 -0.296,0.937 -0.443,1.403c-0.212,-0.066 -0.403,-0.125 -0.607,-0.188c0.078,-0.285 0.151,-0.553 0.228,-0.83c-0.204,-0.056 -0.383,-0.105 -0.574,-0.158c-0.115,0.431 -0.224,0.84 -0.334,1.253c0.553,0.167 1.084,0.327 1.636,0.493c0.242,-0.72 0.482,-1.437 0.728,-2.17c-1.481,-0.453 -2.929,-0.935 -4.489,-0.999c-0.082,0.943 -0.161,1.869 -0.24,2.788c-0.986,-0.03 -1.945,-0.059 -2.915,-0.088c-0.018,-0.804 -0.036,-1.606 -0.055,-2.439c0.664,0.009 1.304,0.019 1.964,0.029c-0.022,0.504 -0.043,0.977 -0.065,1.466c-0.224,-0.008 -0.424,-0.015 -0.634,-0.022c0.002,-0.296 0.004,-0.573 0.006,-0.86c-0.212,-0.001 -0.396,-0.001 -0.596,-0.002c0,0.448 0.001,0.865 0.001,1.295m20.667,13.357c2.585,11.169 -4.513,22.32 -15.534,24.826c-5.593,1.272 -10.853,0.432 -15.72,-2.601c-4.946,-3.082 -8.065,-7.505 -9.314,-13.198c-1.218,-5.554 -0.295,-10.77 2.754,-15.57c3.088,-4.862 7.483,-7.906 13.102,-9.172c11.038,-2.488 22.238,4.532 24.712,15.715" style="fill-opacity:0.898039;fill-rule:nonzero;"/></g><defs><linearGradient id="_Linear2" x1="0" y1="0" x2="1" y2="0" gradientUnits="userSpaceOnUse" gradientTransform="matrix(45.7516,-5.45273,5.45273,45.7516,0.16416,25.7663)"><stop offset="0" style="stop-color:#e3853e;stop-opacity:0.898039"/><stop offset="1" style="stop-color:#ffb848;stop-opacity:0.898039"/></linearGradient><linearGradient id="_Linear4" x1="0" y1="0" x2="1" y2="0" gradientUnits="userSpaceOnUse" gradientTransform="matrix(40.1379,-7.3908,7.39079,40.1379,2.95313,26.738)"><stop offset="0" style="stop-color:#e3853e;stop-opacity:0.898039"/><stop offset="1" style="stop-color:#ffb848;stop-opacity:0.898039"/></linearGradient><linearGradient id="_Linear6" x1="0" y1="0" x2="1" y2="0" gradientUnits="userSpaceOnUse" gradientTransform="matrix(5.95669,-0.709926,0.709926,5.95669,14.1431,20.9569)"><stop offset="0" style="stop-color:#e3853e;stop-opacity:0.898039"/><stop offset="1" style="stop-color:#ffb848;stop-opacity:0.898039"/></linearGradient><linearGradient id="_Linear8" x1="0" y1="0" x2="1" y2="0" gradientUnits="userSpaceOnUse" gradientTransform="matrix(7.00186,-0.83449,0.83449,7.00186,17.4982,28.7926)"><stop offset="0" style="stop-color:#e3853e;stop-opacity:0.898039"/><stop offset="1" style="stop-color:#ffb848;stop-opacity:0.898039"/></linearGradient><linearGradient id="_Linear10" x1="0" y1="0" x2="1" y2="0" gradientUnits="userSpaceOnUse" gradientTransform="matrix(7.58811,-0.90436,0.90436,7.58811,19.4321,33.0752)"><stop offset="0" style="stop-color:#e3853e;stop-opacity:0.898039"/><stop offset="1" style="stop-color:#ffb848;stop-opacity:0.898039"/></linearGradient><linearGradient id="_Linear12" x1="0" y1="0" x2="1" y2="0" gradientUnits="userSpaceOnUse" gradientTransform="matrix(1.87963,-0.224017,0.224017,1.87963,11.5267,15.6184)"><stop offset="0" style="stop-color:#e3853e;stop-opacity:0.898039"/><stop offset="1" style="stop-color:#ffb848;stop-opacity:0.898039"/></linearGradient><linearGradient id="_Linear14" x1="0" y1="0" x2="1" y2="0" gradientUnits="userSpaceOnUse" gradientTransform="matrix(1.82691,-0.217733,0.217733,1.82691,10.8856,17.1979)"><stop offset="0" style="stop-color:#e3853e;stop-opacity:0.898039"/><stop offset="1" style="stop-color:#ffb848;stop-opacity:0.898039"/></linearGradient><linearGradient id="_Linear16" x1="0" y1="0" x2="1" y2="0" gradientUnits="userSpaceOnUse" gradientTransform="matrix(1.8567,-0.221283,0.221283,1.8567,9.93571,18.6409)"><stop offset="0" style="stop-color:#e3853e;stop-opacity:0.898039"/><stop offset="1" style="stop-color:#ffb848;stop-opacity:0.898039"/></linearGradient><linearGradient id="_Linear18" x1="0" y1="0" x2="1" y2="0" gradientUnits="userSpaceOnUse" gradientTransform="matrix(1.90063,-0.22652,0.22652,1.90063,9.25488,20.5521)"><stop offset="0" style="stop-color:#e3853e;stop-opacity:0.898039"/><stop offset="1" style="stop-color:#ffb848;stop-opacity:0.898039"/></linearGradient><linearGradient id="_Linear20" x1="0" y1="0" x2="1" y2="0" gradientUnits="userSpaceOnUse" gradientTransform="matrix(1.97348,-0.235202,0.235202,1.97348,8.6961,22.2474)"><stop offset="0" style="stop-color:#e3853e;stop-opacity:0.898039"/><stop offset="1" style="stop-color:#ffb848;stop-opacity:0.898039"/></linearGradient><linearGradient id="_Linear22" x1="0" y1="0" x2="1" y2="0" gradientUnits="userSpaceOnUse" gradientTransform="matrix(1.92421,-0.229329,0.229329,1.92421,8.24355,24.4005)"><stop offset="0" style="stop-color:#e3853e;stop-opacity:0.898039"/><stop offset="1" style="stop-color:#ffb848;stop-opacity:0.898039"/></linearGradient><linearGradient id="_Linear24" x1="0" y1="0" x2="1" y2="0" gradientUnits="userSpaceOnUse" gradientTransform="matrix(1.91262,-0.227948,0.227948,1.91262,7.81547,26.3815)"><stop offset="0" style="stop-color:#e3853e;stop-opacity:0.898039"/><stop offset="1" style="stop-color:#ffb848;stop-opacity:0.898039"/></linearGradient><linearGradient id="_Linear26" x1="0" y1="0" x2="1" y2="0" gradientUnits="userSpaceOnUse" gradientTransform="matrix(1.8224,-0.217196,0.217196,1.8224,7.8646,28.1566)"><stop offset="0" style="stop-color:#e3853e;stop-opacity:0.898039"/><stop offset="1" style="stop-color:#ffb848;stop-opacity:0.898039"/></linearGradient><linearGradient id="_Linear28" x1="0" y1="0" x2="1" y2="0" gradientUnits="userSpaceOnUse" gradientTransform="matrix(1.32986,-0.158495,0.158495,1.32986,12.6294,19.2595)"><stop offset="0" style="stop-color:#e3853e;stop-opacity:0.898039"/><stop offset="1" style="stop-color:#ffb848;stop-opacity:0.898039"/></linearGradient><linearGradient id="_Linear30" x1="0" y1="0" x2="1" y2="0" gradientUnits="userSpaceOnUse" gradientTransform="matrix(1.29687,-0.154563,0.154563,1.29687,11.7301,22.8576)"><stop offset="0" style="stop-color:#e3853e;stop-opacity:0.898039"/><stop offset="1" style="stop-color:#ffb848;stop-opacity:0.898039"/></linearGradient><linearGradient id="_Linear32" x1="0" y1="0" x2="1" y2="0" gradientUnits="userSpaceOnUse" gradientTransform="matrix(1.07715,-0.128375,0.128375,1.07715,11.6915,26.4063)"><stop offset="0" style="stop-color:#e3853e;stop-opacity:0.898039"/><stop offset="1" style="stop-color:#ffb848;stop-opacity:0.898039"/></linearGradient><linearGradient id="_Linear34" x1="0" y1="0" x2="1" y2="0" gradientUnits="userSpaceOnUse" gradientTransform="matrix(0.952911,-0.113569,0.113569,0.952911,13.9989,26.9996)"><stop offset="0" style="stop-color:#e3853e;stop-opacity:0.898039"/><stop offset="1" style="stop-color:#ffb848;stop-opacity:0.898039"/></linearGradient><linearGradient id="_Linear36" x1="0" y1="0" x2="1" y2="0" gradientUnits="userSpaceOnUse" gradientTransform="matrix(1.05232,-0.125417,0.125417,1.05232,12.8339,30.7909)"><stop offset="0" style="stop-color:#e3853e;stop-opacity:0.898039"/><stop offset="1" style="stop-color:#ffb848;stop-opacity:0.898039"/></linearGradient><linearGradient id="_Linear38" x1="0" y1="0" x2="1" y2="0" gradientUnits="userSpaceOnUse" gradientTransform="matrix(1.04067,-0.124029,0.124029,1.04067,15.3237,29.9678)"><stop offset="0" style="stop-color:#e3853e;stop-opacity:0.898039"/><stop offset="1" style="stop-color:#ffb848;stop-opacity:0.898039"/></linearGradient><linearGradient id="_Linear40" x1="0" y1="0" x2="1" y2="0" gradientUnits="userSpaceOnUse" gradientTransform="matrix(1.15192,-0.137287,0.137287,1.15192,15.2485,33.9858)"><stop offset="0" style="stop-color:#e3853e;stop-opacity:0.898039"/><stop offset="1" style="stop-color:#ffb848;stop-opacity:0.898039"/></linearGradient><linearGradient id="_Linear42" x1="0" y1="0" x2="1" y2="0" gradientUnits="userSpaceOnUse" gradientTransform="matrix(1.17919,-0.140537,0.140537,1.17919,17.8687,33.2186)"><stop offset="0" style="stop-color:#e3853e;stop-opacity:0.898039"/><stop offset="1" style="stop-color:#ffb848;stop-opacity:0.898039"/></linearGradient><linearGradient id="_Linear44" x1="0" y1="0" x2="1" y2="0" gradientUnits="userSpaceOnUse" gradientTransform="matrix(3.26184,-0.38875,0.38875,3.26184,13.0432,14.7581)"><stop offset="0" style="stop-color:#e3853e;stop-opacity:0.898039"/><stop offset="1" style="stop-color:#ffb848;stop-opacity:0.898039"/></linearGradient><linearGradient id="_Linear46" x1="0" y1="0" x2="1" y2="0" gradientUnits="userSpaceOnUse" gradientTransform="matrix(21.5857,-2.5726,2.5726,21.5857,17.0742,24.0391)"><stop offset="0" style="stop-color:#e3853e;stop-opacity:0.898039"/><stop offset="1" style="stop-color:#ffb848;stop-opacity:0.898039"/></linearGradient><linearGradient id="_Linear48" x1="0" y1="0" x2="1" y2="0" gradientUnits="userSpaceOnUse" gradientTransform="matrix(1.34654,-0.160483,0.160483,1.34654,29.3972,28.5367)"><stop offset="0" style="stop-color:#e3853e;stop-opacity:0.898039"/><stop offset="1" style="stop-color:#ffb848;stop-opacity:0.898039"/></linearGradient><linearGradient id="_Linear50" x1="0" y1="0" x2="1" y2="0" gradientUnits="userSpaceOnUse" gradientTransform="matrix(1.16534,-0.138886,0.138886,1.16534,33.8585,26.4343)"><stop offset="0" style="stop-color:#e3853e;stop-opacity:0.898039"/><stop offset="1" style="stop-color:#ffb848;stop-opacity:0.898039"/></linearGradient><linearGradient id="_Linear52" x1="0" y1="0" x2="1" y2="0" gradientUnits="userSpaceOnUse" gradientTransform="matrix(1.13231,-0.13495,0.13495,1.13231,32.4852,25.2564)"><stop offset="0" style="stop-color:#e3853e;stop-opacity:0.898039"/><stop offset="1" style="stop-color:#ffb848;stop-opacity:0.898039"/></linearGradient><linearGradient id="_Linear54" x1="0" y1="0" x2="1" y2="0" gradientUnits="userSpaceOnUse" gradientTransform="matrix(7.42123,-0.884471,0.884471,7.42123,13.908,22.7329)"><stop offset="0" style="stop-color:#e3853e;stop-opacity:0.898039"/><stop offset="1" style="stop-color:#ffb848;stop-opacity:0.898039"/></linearGradient><linearGradient id="_Linear56" x1="0" y1="0" x2="1" y2="0" gradientUnits="userSpaceOnUse" gradientTransform="matrix(6.56858,-0.782851,0.782851,6.56858,15.5518,24.7141)"><stop offset="0" style="stop-color:#e3853e;stop-opacity:0.898039"/><stop offset="1" style="stop-color:#ffb848;stop-opacity:0.898039"/></linearGradient><linearGradient id="_Linear58" x1="0" y1="0" x2="1" y2="0" gradientUnits="userSpaceOnUse" gradientTransform="matrix(7.1619,-0.853563,0.853563,7.1619,16.486,26.6111)"><stop offset="0" style="stop-color:#e3853e;stop-opacity:0.898039"/><stop offset="1" style="stop-color:#ffb848;stop-opacity:0.898039"/></linearGradient><linearGradient id="_Linear60" x1="0" y1="0" x2="1" y2="0" gradientUnits="userSpaceOnUse" gradientTransform="matrix(7.54509,-0.899232,0.899232,7.54509,18.1568,30.9258)"><stop offset="0" style="stop-color:#e3853e;stop-opacity:0.898039"/><stop offset="1" style="stop-color:#ffb848;stop-opacity:0.898039"/></linearGradient><linearGradient id="_Linear62" x1="0" y1="0" x2="1" y2="0" gradientUnits="userSpaceOnUse" gradientTransform="matrix(5.51706,-0.65753,0.65753,5.51706,26.6345,34.5408)"><stop offset="0" style="stop-color:#e3853e;stop-opacity:0.898039"/><stop offset="1" style="stop-color:#ffb848;stop-opacity:0.898039"/></linearGradient></defs></svg>