<?xml version="1.0" encoding="UTF-8" standalone="no"?>
<!DOCTYPE svg PUBLIC "-//W3C//DTD SVG 1.1//EN"
 "http://www.w3.org/Graphics/SVG/1.1/DTD/svg11.dtd">
<!-- Generated by graphviz version 2.40.1 (20161225.0304)
 -->
<!-- Title: dependencies Pages: 1 -->
<svg width="2828pt" height="211pt"
 viewBox="0.00 0.00 2828.00 211.00" xmlns="http://www.w3.org/2000/svg" xmlns:xlink="http://www.w3.org/1999/xlink">
<g id="graph0" class="graph" transform="scale(1 1) rotate(0) translate(4 207)">
<title>dependencies</title>
<polygon fill="#ffffff" stroke="transparent" points="-4,4 -4,-207 2824,-207 2824,4 -4,4"/>
<text text-anchor="start" x="1389.0091" y="-42.4" font-family="sans-serif" font-weight="bold" font-size="14.00" fill="#000000">Legend</text>
<polygon fill="#ffffb3" stroke="transparent" points="1176,-10 1176,-30 1196,-30 1196,-10 1176,-10"/>
<text text-anchor="start" x="1199.629" y="-15.4" font-family="sans-serif" font-size="14.00" fill="#000000"> &#160;Declarations</text>
<polygon fill="#8dd3c7" stroke="transparent" points="1289,-10 1289,-30 1309,-30 1309,-10 1289,-10"/>
<text text-anchor="start" x="1312.7251" y="-15.4" font-family="sans-serif" font-size="14.00" fill="#000000"> &#160;Module</text>
<polygon fill="#80b1d3" stroke="transparent" points="1375,-10 1375,-30 1395,-30 1395,-10 1375,-10"/>
<text text-anchor="start" x="1398.7812" y="-15.4" font-family="sans-serif" font-size="14.00" fill="#000000"> &#160;Bootstrap</text>
<polygon fill="#fdb462" stroke="transparent" points="1472,-10 1472,-30 1492,-30 1492,-10 1472,-10"/>
<text text-anchor="start" x="1495.6732" y="-15.4" font-family="sans-serif" font-size="14.00" fill="#000000"> &#160;Providers</text>
<polygon fill="#fb8072" stroke="transparent" points="1568,-10 1568,-30 1588,-30 1588,-10 1568,-10"/>
<text text-anchor="start" x="1591.7258" y="-15.4" font-family="sans-serif" font-size="14.00" fill="#000000"> &#160;Exports</text>
<g id="clust1" class="cluster">
<title>cluster_ConfigModule</title>
<polygon fill="none" stroke="#000000" stroke-dasharray="1,5" points="8,-70 8,-195 2812,-195 2812,-70 8,-70"/>
</g>
<g id="clust2" class="cluster">
<title>cluster_ConfigModule_declarations</title>
<polygon fill="none" stroke="#000000" points="1079,-78 1079,-130 2804,-130 2804,-78 1079,-78"/>
</g>
<g id="clust13" class="cluster">
<title>cluster_ConfigModule_imports</title>
<polygon fill="none" stroke="#000000" points="164,-78 164,-130 1071,-130 1071,-78 164,-78"/>
</g>
<g id="clust16" class="cluster">
<title>cluster_ConfigModule_providers</title>
<polygon fill="none" stroke="#000000" points="16,-78 16,-130 156,-130 156,-78 16,-78"/>
</g>
<!-- BusinessConfigComponent -->
<g id="node1" class="node">
<title>BusinessConfigComponent</title>
<polygon fill="#ffffb3" stroke="#000000" points="2795.9958,-122 2626.0042,-122 2626.0042,-86 2795.9958,-86 2795.9958,-122"/>
<text text-anchor="middle" x="2711" y="-99.8" font-family="Times,serif" font-size="14.00" fill="#000000">BusinessConfigComponent</text>
</g>
<!-- ConfigModule -->
<g id="node11" class="node">
<title>ConfigModule</title>
<polygon fill="#8dd3c7" stroke="#000000" points="1304.4386,-187 1301.4386,-191 1280.4386,-191 1277.4386,-187 1205.5614,-187 1205.5614,-151 1304.4386,-151 1304.4386,-187"/>
<text text-anchor="middle" x="1255" y="-164.8" font-family="Times,serif" font-size="14.00" fill="#000000">ConfigModule</text>
</g>
<!-- BusinessConfigComponent&#45;&gt;ConfigModule -->
<g id="edge1" class="edge">
<title>BusinessConfigComponent&#45;&gt;ConfigModule</title>
<path fill="none" stroke="#000000" d="M2711,-122.3228C2711,-145.6602 2711,-183 2711,-183 2711,-183 1314.278,-183 1314.278,-183"/>
<polygon fill="#000000" stroke="#000000" points="1314.2781,-179.5001 1304.278,-183 1314.278,-186.5001 1314.2781,-179.5001"/>
</g>
<!-- ProviderConfigComponent -->
<g id="node2" class="node">
<title>ProviderConfigComponent</title>
<polygon fill="#ffffb3" stroke="#000000" points="2608.4297,-122 2439.5703,-122 2439.5703,-86 2608.4297,-86 2608.4297,-122"/>
<text text-anchor="middle" x="2524" y="-99.8" font-family="Times,serif" font-size="14.00" fill="#000000">ProviderConfigComponent</text>
</g>
<!-- ProviderConfigComponent&#45;&gt;ConfigModule -->
<g id="edge2" class="edge">
<title>ProviderConfigComponent&#45;&gt;ConfigModule</title>
<path fill="none" stroke="#000000" d="M2524,-122.1554C2524,-144.3519 2524,-179 2524,-179 2524,-179 1314.3568,-179 1314.3568,-179"/>
<polygon fill="#000000" stroke="#000000" points="1314.3569,-175.5001 1304.3568,-179 1314.3568,-182.5001 1314.3569,-175.5001"/>
</g>
<!-- UserConfigComponent -->
<g id="node3" class="node">
<title>UserConfigComponent</title>
<polygon fill="#ffffb3" stroke="#000000" points="2421.147,-122 2274.853,-122 2274.853,-86 2421.147,-86 2421.147,-122"/>
<text text-anchor="middle" x="2348" y="-99.8" font-family="Times,serif" font-size="14.00" fill="#000000">UserConfigComponent</text>
</g>
<!-- UserConfigComponent&#45;&gt;ConfigModule -->
<g id="edge3" class="edge">
<title>UserConfigComponent&#45;&gt;ConfigModule</title>
<path fill="none" stroke="#000000" d="M2348,-122.2843C2348,-143.3211 2348,-175 2348,-175 2348,-175 1314.4451,-175 1314.4451,-175"/>
<polygon fill="#000000" stroke="#000000" points="1314.4452,-171.5001 1304.4451,-175 1314.4451,-178.5001 1314.4452,-171.5001"/>
</g>
<!-- UserDetailComponent -->
<g id="node4" class="node">
<title>UserDetailComponent</title>
<polygon fill="#ffffb3" stroke="#000000" points="2256.9664,-122 2115.0336,-122 2115.0336,-86 2256.9664,-86 2256.9664,-122"/>
<text text-anchor="middle" x="2186" y="-99.8" font-family="Times,serif" font-size="14.00" fill="#000000">UserDetailComponent</text>
</g>
<!-- UserDetailComponent&#45;&gt;ConfigModule -->
<g id="edge4" class="edge">
<title>UserDetailComponent&#45;&gt;ConfigModule</title>
<path fill="none" stroke="#000000" d="M2186,-122.308C2186,-142.1455 2186,-171 2186,-171 2186,-171 1314.3973,-171 1314.3973,-171"/>
<polygon fill="#000000" stroke="#000000" points="1314.3973,-167.5001 1304.3973,-171 1314.3972,-174.5001 1314.3973,-167.5001"/>
</g>
<!-- ClientConfigComponent -->
<g id="node5" class="node">
<title>ClientConfigComponent</title>
<polygon fill="#ffffb3" stroke="#000000" points="2097.4438,-122 1942.5562,-122 1942.5562,-86 2097.4438,-86 2097.4438,-122"/>
<text text-anchor="middle" x="2020" y="-99.8" font-family="Times,serif" font-size="14.00" fill="#000000">ClientConfigComponent</text>
</g>
<!-- ClientConfigComponent&#45;&gt;ConfigModule -->
<g id="edge5" class="edge">
<title>ClientConfigComponent&#45;&gt;ConfigModule</title>
<path fill="none" stroke="#000000" d="M2020,-122.2222C2020,-140.8285 2020,-167 2020,-167 2020,-167 1314.3108,-167 1314.3108,-167"/>
<polygon fill="#000000" stroke="#000000" points="1314.3108,-163.5001 1304.3108,-167 1314.3107,-170.5001 1314.3108,-163.5001"/>
</g>
<!-- NewUserModalComponent -->
<g id="node6" class="node">
<title>NewUserModalComponent</title>
<polygon fill="#ffffb3" stroke="#000000" points="1924.2366,-122 1753.7634,-122 1753.7634,-86 1924.2366,-86 1924.2366,-122"/>
<text text-anchor="middle" x="1839" y="-99.8" font-family="Times,serif" font-size="14.00" fill="#000000">NewUserModalComponent</text>
</g>
<!-- NewUserModalComponent&#45;&gt;ConfigModule -->
<g id="edge6" class="edge">
<title>NewUserModalComponent&#45;&gt;ConfigModule</title>
<path fill="none" stroke="#000000" d="M1839,-122.0225C1839,-139.3734 1839,-163 1839,-163 1839,-163 1314.2882,-163 1314.2882,-163"/>
<polygon fill="#000000" stroke="#000000" points="1314.2882,-159.5001 1304.2882,-163 1314.2882,-166.5001 1314.2882,-159.5001"/>
</g>
<!-- ClientDetailComponent -->
<g id="node7" class="node">
<title>ClientDetailComponent</title>
<polygon fill="#ffffb3" stroke="#000000" points="1735.7632,-122 1586.2368,-122 1586.2368,-86 1735.7632,-86 1735.7632,-122"/>
<text text-anchor="middle" x="1661" y="-99.8" font-family="Times,serif" font-size="14.00" fill="#000000">ClientDetailComponent</text>
</g>
<!-- ClientDetailComponent&#45;&gt;ConfigModule -->
<g id="edge7" class="edge">
<title>ClientDetailComponent&#45;&gt;ConfigModule</title>
<path fill="none" stroke="#000000" d="M1661,-122.0091C1661,-138.0494 1661,-159 1661,-159 1661,-159 1314.3777,-159 1314.3777,-159"/>
<polygon fill="#000000" stroke="#000000" points="1314.3777,-155.5001 1304.3777,-159 1314.3776,-162.5001 1314.3777,-155.5001"/>
</g>
<!-- ClientCardComponent -->
<g id="node8" class="node">
<title>ClientCardComponent</title>
<polygon fill="#ffffb3" stroke="#000000" points="1568.2674,-122 1425.7326,-122 1425.7326,-86 1568.2674,-86 1568.2674,-122"/>
<text text-anchor="middle" x="1497" y="-99.8" font-family="Times,serif" font-size="14.00" fill="#000000">ClientCardComponent</text>
</g>
<!-- ClientCardComponent&#45;&gt;ConfigModule -->
<g id="edge8" class="edge">
<title>ClientCardComponent&#45;&gt;ConfigModule</title>
<path fill="none" stroke="#000000" d="M1497,-122.1243C1497,-136.7832 1497,-155 1497,-155 1497,-155 1314.264,-155 1314.264,-155"/>
<polygon fill="#000000" stroke="#000000" points="1314.264,-151.5001 1304.264,-155 1314.264,-158.5001 1314.264,-151.5001"/>
</g>
<!-- UserCardComponent -->
<g id="node9" class="node">
<title>UserCardComponent</title>
<polygon fill="#ffffb3" stroke="#000000" points="1407.4706,-122 1272.5294,-122 1272.5294,-86 1407.4706,-86 1407.4706,-122"/>
<text text-anchor="middle" x="1340" y="-99.8" font-family="Times,serif" font-size="14.00" fill="#000000">UserCardComponent</text>
</g>
<!-- UserCardComponent&#45;&gt;ConfigModule -->
<g id="edge9" class="edge">
<title>UserCardComponent&#45;&gt;ConfigModule</title>
<path fill="none" stroke="#000000" d="M1288.3668,-122.1061C1288.3668,-122.1061 1288.3668,-140.991 1288.3668,-140.991"/>
<polygon fill="#000000" stroke="#000000" points="1284.8668,-140.9909 1288.3668,-150.991 1291.8668,-140.991 1284.8668,-140.9909"/>
</g>
<!-- EditUserModalComponent -->
<g id="node10" class="node">
<title>EditUserModalComponent</title>
<polygon fill="#ffffb3" stroke="#000000" points="1254.6428,-122 1087.3572,-122 1087.3572,-86 1254.6428,-86 1254.6428,-122"/>
<text text-anchor="middle" x="1171" y="-99.8" font-family="Times,serif" font-size="14.00" fill="#000000">EditUserModalComponent</text>
</g>
<!-- EditUserModalComponent&#45;&gt;ConfigModule -->
<g id="edge10" class="edge">
<title>EditUserModalComponent&#45;&gt;ConfigModule</title>
<path fill="none" stroke="#000000" d="M1230.3012,-122.1061C1230.3012,-122.1061 1230.3012,-140.991 1230.3012,-140.991"/>
<polygon fill="#000000" stroke="#000000" points="1226.8013,-140.9909 1230.3012,-150.991 1233.8013,-140.991 1226.8013,-140.9909"/>
</g>
<!-- CommonModule -->
<g id="node12" class="node">
<title>CommonModule</title>
<polygon fill="#8dd3c7" stroke="#000000" points="1062.6681,-122 1059.6681,-126 1038.6681,-126 1035.6681,-122 951.3319,-122 951.3319,-86 1062.6681,-86 1062.6681,-122"/>
<text text-anchor="middle" x="1007" y="-99.8" font-family="Times,serif" font-size="14.00" fill="#000000">CommonModule</text>
</g>
<!-- CommonModule&#45;&gt;ConfigModule -->
<g id="edge11" class="edge">
<title>CommonModule&#45;&gt;ConfigModule</title>
<path fill="none" stroke="#000000" d="M1007,-122.1243C1007,-136.7832 1007,-155 1007,-155 1007,-155 1195.7067,-155 1195.7067,-155"/>
<polygon fill="#000000" stroke="#000000" points="1195.7067,-158.5001 1205.7067,-155 1195.7066,-151.5001 1195.7067,-158.5001"/>
</g>
<!-- FormsModule -->
<g id="node13" class="node">
<title>FormsModule</title>
<polygon fill="#8dd3c7" stroke="#000000" points="933.8288,-122 930.8288,-126 909.8288,-126 906.8288,-122 838.1712,-122 838.1712,-86 933.8288,-86 933.8288,-122"/>
<text text-anchor="middle" x="886" y="-99.8" font-family="Times,serif" font-size="14.00" fill="#000000">FormsModule</text>
</g>
<!-- FormsModule&#45;&gt;ConfigModule -->
<g id="edge12" class="edge">
<title>FormsModule&#45;&gt;ConfigModule</title>
<path fill="none" stroke="#000000" d="M886,-122.0091C886,-138.0494 886,-159 886,-159 886,-159 1195.6179,-159 1195.6179,-159"/>
<polygon fill="#000000" stroke="#000000" points="1195.6179,-162.5001 1205.6179,-159 1195.6179,-155.5001 1195.6179,-162.5001"/>
</g>
<!-- SharedModule -->
<g id="node14" class="node">
<title>SharedModule</title>
<polygon fill="#8dd3c7" stroke="#000000" points="820.4231,-122 817.4231,-126 796.4231,-126 793.4231,-122 721.5769,-122 721.5769,-86 820.4231,-86 820.4231,-122"/>
<text text-anchor="middle" x="771" y="-99.8" font-family="Times,serif" font-size="14.00" fill="#000000">SharedModule</text>
</g>
<!-- SharedModule&#45;&gt;ConfigModule -->
<g id="edge13" class="edge">
<title>SharedModule&#45;&gt;ConfigModule</title>
<path fill="none" stroke="#000000" d="M771,-122.0225C771,-139.3734 771,-163 771,-163 771,-163 1195.4781,-163 1195.4781,-163"/>
<polygon fill="#000000" stroke="#000000" points="1195.4781,-166.5001 1205.4781,-163 1195.478,-159.5001 1195.4781,-166.5001"/>
</g>
<!-- TooltipModule -->
<g id="node15" class="node">
<title>TooltipModule</title>
<polygon fill="#8dd3c7" stroke="#000000" points="703.2745,-122 700.2745,-126 679.2745,-126 676.2745,-122 602.7255,-122 602.7255,-86 703.2745,-86 703.2745,-122"/>
<text text-anchor="middle" x="653" y="-99.8" font-family="Times,serif" font-size="14.00" fill="#000000">TooltipModule</text>
</g>
<!-- TooltipModule&#45;&gt;ConfigModule -->
<g id="edge14" class="edge">
<title>TooltipModule&#45;&gt;ConfigModule</title>
<path fill="none" stroke="#000000" d="M653,-122.2222C653,-140.8285 653,-167 653,-167 653,-167 1195.7358,-167 1195.7358,-167"/>
<polygon fill="#000000" stroke="#000000" points="1195.7358,-170.5001 1205.7358,-167 1195.7358,-163.5001 1195.7358,-170.5001"/>
</g>
<!-- ModalModule -->
<g id="node16" class="node">
<title>ModalModule</title>
<polygon fill="#8dd3c7" stroke="#000000" points="585.0997,-122 582.0997,-126 561.0997,-126 558.0997,-122 488.9003,-122 488.9003,-86 585.0997,-86 585.0997,-122"/>
<text text-anchor="middle" x="537" y="-99.8" font-family="Times,serif" font-size="14.00" fill="#000000">ModalModule</text>
</g>
<!-- ModalModule&#45;&gt;ConfigModule -->
<g id="edge15" class="edge">
<title>ModalModule&#45;&gt;ConfigModule</title>
<path fill="none" stroke="#000000" d="M537,-122.308C537,-142.1455 537,-171 537,-171 537,-171 1195.649,-171 1195.649,-171"/>
<polygon fill="#000000" stroke="#000000" points="1195.649,-174.5001 1205.649,-171 1195.6489,-167.5001 1195.649,-174.5001"/>
</g>
<!-- NgxDatatableModule -->
<g id="node17" class="node">
<title>NgxDatatableModule</title>
<polygon fill="#8dd3c7" stroke="#000000" points="470.7935,-122 467.7935,-126 446.7935,-126 443.7935,-122 333.2065,-122 333.2065,-86 470.7935,-86 470.7935,-122"/>
<text text-anchor="middle" x="402" y="-99.8" font-family="Times,serif" font-size="14.00" fill="#000000">NgxDatatableModule</text>
</g>
<!-- NgxDatatableModule&#45;&gt;ConfigModule -->
<g id="edge16" class="edge">
<title>NgxDatatableModule&#45;&gt;ConfigModule</title>
<path fill="none" stroke="#000000" d="M402,-122.2843C402,-143.3211 402,-175 402,-175 402,-175 1195.7642,-175 1195.7642,-175"/>
<polygon fill="#000000" stroke="#000000" points="1195.7642,-178.5001 1205.7642,-175 1195.7641,-171.5001 1195.7642,-178.5001"/>
</g>
<!-- ConfigRoutingModule -->
<g id="node18" class="node">
<title>ConfigRoutingModule</title>
<polygon fill="#8dd3c7" stroke="#000000" points="315.5561,-122 312.5561,-126 291.5561,-126 288.5561,-122 172.4439,-122 172.4439,-86 315.5561,-86 315.5561,-122"/>
<text text-anchor="middle" x="244" y="-99.8" font-family="Times,serif" font-size="14.00" fill="#000000">ConfigRoutingModule</text>
</g>
<!-- ConfigRoutingModule&#45;&gt;ConfigModule -->
<g id="edge17" class="edge">
<title>ConfigRoutingModule&#45;&gt;ConfigModule</title>
<path fill="none" stroke="#000000" d="M244,-122.1554C244,-144.3519 244,-179 244,-179 244,-179 1195.553,-179 1195.553,-179"/>
<polygon fill="#000000" stroke="#000000" points="1195.553,-182.5001 1205.553,-179 1195.5529,-175.5001 1195.553,-182.5001"/>
</g>
<!-- AdminGuard -->
<g id="node19" class="node">
<title>AdminGuard</title>
<ellipse fill="#fdb462" stroke="#000000" cx="86" cy="-104" rx="61.9808" ry="18"/>
<text text-anchor="middle" x="86" y="-99.8" font-family="Times,serif" font-size="14.00" fill="#000000">AdminGuard</text>
</g>
<!-- AdminGuard&#45;&gt;ConfigModule -->
<g id="edge18" class="edge">
<title>AdminGuard&#45;&gt;ConfigModule</title>
<path fill="none" stroke="#000000" d="M86,-122.3228C86,-145.6602 86,-183 86,-183 86,-183 1195.5162,-183 1195.5162,-183"/>
<polygon fill="#000000" stroke="#000000" points="1195.5162,-186.5001 1205.5162,-183 1195.5162,-179.5001 1195.5162,-186.5001"/>
</g>
</g>
</svg>
